<svg width="149" height="33" viewBox="0 0 149 33" fill="none" xmlns="http://www.w3.org/2000/svg">
<path d="M138.439 17.854C138.439 17.5457 138.517 17.1988 138.632 16.8904C138.786 16.5821 138.979 16.2738 139.249 16.004C139.519 15.7342 139.827 15.5029 140.251 15.3102C140.636 15.1175 141.099 15.0404 141.639 15.0404C142.178 15.0404 142.602 15.1175 142.988 15.3102C143.373 15.5029 143.681 15.7342 143.951 16.004C144.221 16.2738 144.375 16.5821 144.529 16.8904C144.645 17.2373 144.722 17.5457 144.722 17.854H138.439ZM146.842 22.3636C146.495 22.6334 145.955 22.9032 145.223 23.2501C144.491 23.597 143.527 23.7897 142.332 23.7897C141.137 23.7897 140.174 23.4813 139.48 22.9032C138.786 22.2865 138.439 21.5927 138.401 20.7833H149V20.0125C149 18.7791 148.846 17.6228 148.538 16.5821C148.229 15.5414 147.767 14.6549 147.112 13.8841C146.495 13.1518 145.724 12.5351 144.799 12.1111C143.874 11.6871 142.833 11.4944 141.639 11.4944C140.444 11.4944 139.364 11.7257 138.401 12.1496C137.437 12.5736 136.666 13.1518 136.011 13.8841C135.356 14.6164 134.855 15.4258 134.508 16.3894C134.161 17.353 133.968 18.3551 133.968 19.3958C133.968 20.5906 134.161 21.6698 134.508 22.6334C134.893 23.597 135.433 24.4449 136.127 25.1387C136.821 25.8325 137.707 26.3721 138.709 26.7575C139.711 27.1429 140.868 27.3357 142.14 27.3357C143.103 27.3357 143.951 27.2586 144.683 27.0659C145.416 26.8731 146.071 26.6804 146.611 26.4492C147.15 26.2179 147.574 25.9866 147.921 25.7554C148.268 25.5241 148.499 25.3314 148.692 25.2158L146.842 22.3636ZM96.3502 22.9032C96.0419 23.0959 95.7335 23.2886 95.3867 23.4428C95.0398 23.597 94.6543 23.6741 94.1918 23.6741C93.5751 23.6741 93.1126 23.4813 92.8428 23.0959C92.573 22.7105 92.4188 22.1323 92.4188 21.4385V15.58H96.2346V11.9955H92.4188V8.02551H87.8322V11.9955H85.481V15.58H87.8322V21.1687C87.8322 22.0938 87.9093 22.9417 88.102 23.7126C88.2947 24.4835 88.603 25.1387 89.0656 25.6783C89.4895 26.2179 90.1062 26.6419 90.8 26.9502C91.5323 27.2586 92.4188 27.4127 93.4595 27.4127C95.1554 27.4127 96.6971 26.8346 98.1618 25.7168L96.3502 22.9032ZM135.818 6.71504C135.125 6.13689 134.392 5.75146 133.583 5.5202C132.774 5.28894 131.964 5.17331 131.155 5.17331C130.384 5.17331 129.652 5.28894 128.919 5.5202C128.187 5.75146 127.532 6.13689 126.954 6.63795C126.375 7.13901 125.913 7.75571 125.566 8.52657C125.219 9.29743 125.026 10.1839 125.026 11.2631V12.034H122.637V15.6185H125.026V26.9117H129.574V15.6185H133.082V11.9955H129.574V11.1861C129.574 10.4537 129.767 9.87558 130.153 9.49015C130.538 9.10472 131.039 8.87346 131.656 8.87346C132.041 8.87346 132.465 8.95055 132.812 9.06618C133.198 9.18181 133.544 9.37452 133.853 9.60578L135.818 6.71504ZM115.776 26.8731H120.324V11.9955H118.05H115.776V26.8731ZM99.8962 26.8731H113.81V22.9417H104.714V5.71291H99.9347V26.8731H99.8962ZM73.8024 17.854C73.8024 17.5457 73.8795 17.1988 73.9952 16.8904C74.1493 16.5821 74.3421 16.2738 74.6119 16.004C74.8817 15.7342 75.19 15.5029 75.614 15.3102C75.9994 15.1175 76.4619 15.0404 77.0015 15.0404C77.5411 15.0404 77.9651 15.1175 78.3505 15.3102C78.736 15.5029 79.0443 15.7342 79.3141 16.004C79.5839 16.2738 79.7766 16.5821 79.8923 16.8904C80.0079 17.2373 80.085 17.5457 80.085 17.854H73.8024ZM82.2049 22.3636C81.858 22.6334 81.3184 22.9032 80.5861 23.2501C79.8537 23.597 78.8902 23.7897 77.6953 23.7897C76.5005 23.7897 75.5369 23.4813 74.8431 22.9032C74.1493 22.2865 73.8024 21.5927 73.7639 20.7833H84.3633V20.0125C84.3633 18.7791 84.2091 17.6228 83.9008 16.5821C83.5924 15.5414 83.1299 14.6549 82.4747 13.8841C81.858 13.1518 81.0871 12.5351 80.1621 12.1111C79.237 11.6871 78.1964 11.4944 77.0015 11.4944C75.8067 11.4944 74.7275 11.7257 73.7639 12.1496C72.8003 12.5736 72.0295 13.1518 71.3742 13.8841C70.719 14.6164 70.2179 15.4258 69.871 16.3894C69.5241 17.353 69.3314 18.3551 69.3314 19.3958C69.3314 20.5906 69.5241 21.6698 69.871 22.6334C70.2565 23.597 70.7961 24.4449 71.4898 25.1387C72.1836 25.8325 73.0701 26.3721 74.0722 26.7575C75.0744 27.1429 76.2307 27.3357 77.5026 27.3357C78.4662 27.3357 79.3141 27.2586 80.0465 27.0659C80.7788 26.8731 81.434 26.6804 81.9736 26.4492C82.5132 26.2179 82.9372 25.9866 83.2841 25.7554C83.631 25.5241 83.8622 25.3314 84.0549 25.2158L82.2049 22.3636ZM45.5117 26.8731H50.0598L50.5994 13.1518L55.2246 21.2844H57.6914L62.0468 13.0361L62.6635 26.8346H67.4428L66.4792 5.71291H61.8926L56.4965 15.6185L51.0234 5.71291H46.4753L45.5117 26.8731ZM118.05 10.2996C116.624 10.2996 115.468 9.14326 115.468 7.71716C115.468 6.29106 116.624 5.13477 118.05 5.13477C119.476 5.13477 120.632 6.25252 120.632 7.71716C120.632 9.14326 119.476 10.2996 118.05 10.2996Z" fill="#799FAC"/>
<path d="M17.3828 10.3838C20.9673 15.1246 23.0872 21.0602 23.0872 27.4584C23.0872 29.0001 22.9716 30.5419 22.7403 32.0065H33.147C34.0335 32.0065 34.7658 31.2742 34.7658 30.3492V1.63445C34.7658 0.555238 33.7637 -0.215625 32.723 0.0541771C26.5176 1.71154 21.1215 5.41168 17.3828 10.3838Z" fill="#799FAC"/>
<path d="M12.0255 32.0065C11.7942 30.5419 11.6786 29.0001 11.6786 27.4584C11.6786 21.0602 13.7985 15.1246 17.383 10.3838C13.6058 5.41168 8.24825 1.71154 2.04279 0.0541771C1.00212 -0.215625 0 0.555238 0 1.63445V30.3492C0 31.2356 0.732321 32.0065 1.61882 32.0065H12.0255Z" fill="#799FAC"/>
<path d="M17.3831 10.3838C13.7986 15.1246 11.6787 21.0603 11.6787 27.4584C11.6787 29.0002 11.7943 30.5419 12.0256 32.0065H22.7406C22.9719 30.5419 23.0875 29.0002 23.0875 27.4584C23.0875 21.0603 20.9676 15.1246 17.3831 10.3838Z" fill="white"/>
</svg>
