<svg width="163" height="33" viewBox="0 0 163 33" fill="none" xmlns="http://www.w3.org/2000/svg">
<path d="M63.2826 11.5034C62.1813 11.5034 61.142 11.6852 60.1894 12.0403C59.2657 12.3853 58.4155 12.7937 57.6722 13.2628L58.8168 15.7151L58.9164 15.6545C59.5168 15.2922 60.1389 14.9761 60.7682 14.7192C61.3874 14.4709 62.0268 14.3425 62.6706 14.3425C63.1151 14.3425 63.4875 14.4103 63.7834 14.5373C64.075 14.6687 64.3131 14.8505 64.495 15.0815C64.6769 15.3168 64.8082 15.5896 64.8861 15.8927C64.9569 16.1669 65.0031 16.4585 65.029 16.7529C63.678 16.9016 62.4988 17.1123 61.5173 17.3822C60.9053 17.5497 60.3511 17.7445 59.8647 17.9654C59.5442 18.1082 59.2527 18.2598 58.99 18.42C58.3188 18.84 57.8165 19.3438 57.5004 19.9269C57.1872 20.5057 57.027 21.174 57.027 21.9144C57.027 23.1442 57.4138 24.1502 58.1745 24.9036C58.9351 25.6542 59.944 26.0338 61.1781 26.0338C61.9705 26.0338 62.7168 25.8664 63.3995 25.5402C63.4312 25.5257 63.463 25.5084 63.4947 25.494C64.1601 25.1562 64.7995 24.7362 65.3899 24.2426L65.6064 25.7033H68.4816V17.5092C68.4816 15.5823 68.0486 14.0856 67.1912 13.0593C66.3281 12.0302 65.0132 11.5034 63.2826 11.5034ZM65.0348 21.8581C64.5441 22.3113 64.0764 22.665 63.6463 22.9103C63.2162 23.1572 62.7297 23.2813 62.2015 23.2813C61.6617 23.2813 61.2128 23.1499 60.8678 22.8916C60.5301 22.6375 60.3655 22.2377 60.3655 21.6662C60.3655 21.3587 60.4435 21.0628 60.5979 20.7886C60.7538 20.5143 61.0179 20.2646 61.3816 20.0467C61.7584 19.8215 62.2607 19.6166 62.8755 19.4361C63.4601 19.2644 64.1847 19.1229 65.0348 19.0147V21.8581ZM46.8873 18.7275C47.0706 19.2384 47.1731 19.8504 47.1731 20.5245C47.1731 21.2793 47.0201 21.9938 46.7141 22.6578C46.4081 23.3217 45.9693 23.9135 45.3978 24.4129C44.8262 24.9022 44.1218 25.3107 43.3049 25.5965C42.4879 25.8923 41.5598 26.0352 40.5278 26.0352C39.8437 26.0352 39.1696 25.9645 38.5172 25.8202C37.986 25.6975 37.4549 25.5445 36.9454 25.3309C35.8224 24.8719 35.0574 24.3508 34.3112 23.7186L34.291 23.6984L35.6795 20.7078L36.0158 21.0036C36.648 21.5853 37.364 22.066 38.1491 22.4124C38.7308 22.678 39.2923 22.8512 39.874 22.9233C40.1092 22.9536 40.3431 22.9738 40.5884 22.9738C41.5887 22.9738 42.3436 22.7703 42.8545 22.3619C43.3655 21.9635 43.6094 21.4424 43.6094 20.7799C43.6094 20.4335 43.5488 20.1362 43.416 19.9024C43.2933 19.657 43.11 19.4434 42.8747 19.2586C42.6294 19.0753 42.3335 18.9007 42.0073 18.7376C41.9568 18.7173 41.9048 18.687 41.8543 18.6668C41.5887 18.534 41.2827 18.4013 40.8944 18.2382L38.3931 17.1556C38.0972 17.0329 37.8114 16.89 37.5357 16.737C37.3726 16.6548 37.2196 16.5537 37.0666 16.4614C36.6177 16.1756 36.2093 15.8292 35.8614 15.4409C35.5034 15.0526 35.2076 14.5835 34.9939 14.0423C34.7688 13.5212 34.6576 12.8991 34.6576 12.2251C34.6576 11.4803 34.8207 10.786 35.1368 10.1524C35.4529 9.50863 35.8816 8.94716 36.4229 8.48817C36.9641 8.01907 37.6281 7.65101 38.3931 7.38543C39.148 7.11985 39.9851 6.98706 40.8944 6.98706C41.2827 6.98706 41.6594 7.01737 42.0376 7.06933C42.7116 7.17181 43.3539 7.35512 43.9876 7.6207C44.9056 8.00897 45.5796 8.44775 46.2941 9.07995L46.3143 9.10016L45.0485 11.8252L44.6097 11.4788C44.0684 11.0501 43.5069 10.7023 42.9455 10.4584C42.3335 10.1928 41.6493 10.0499 40.893 10.0499C40.8107 10.0499 40.7299 10.0499 40.6476 10.06C39.923 10.0903 39.3313 10.2751 38.8925 10.6013C38.4032 10.9477 38.1679 11.4283 38.1679 12.0504C38.1679 12.3766 38.2401 12.6523 38.3815 12.8876C38.5345 13.1127 38.7279 13.3263 38.9834 13.5097C38.9935 13.5198 39.0137 13.5299 39.0238 13.54C39.2793 13.7233 39.5651 13.8763 39.8913 14.0192C40.2377 14.1722 40.6058 14.3252 40.9637 14.4681L43.3424 15.4582L43.4348 15.4986C43.9659 15.7238 44.4653 15.9879 44.9142 16.2853C45.3833 16.6014 45.7716 16.9492 46.0978 17.336C46.4283 17.7373 46.6925 18.1963 46.8873 18.7275ZM52.0935 14.6239V20.9834C52.0935 22.4845 52.6752 23.2192 53.8804 23.2192C54.1056 23.2192 54.3394 23.199 54.5848 23.1369C54.8201 23.0864 55.0438 23.0143 55.2387 22.9334L55.3815 22.8613L56.0036 25.4954L55.8911 25.5257C55.5129 25.6585 55.0842 25.7812 54.605 25.8837C54.1359 25.9862 53.6149 26.0367 53.0736 26.0367C52.2668 26.0367 51.5725 25.914 51.011 25.6686C50.6949 25.5257 50.4091 25.3525 50.1537 25.1375C49.9602 24.9845 49.7856 24.8113 49.6326 24.6164C49.2746 24.1675 49.0206 23.6263 48.8561 23.0143C48.693 22.4023 48.6208 21.7181 48.6208 20.9733V8.12155H52.0921V11.8368H56.3587L55.0626 14.6239H52.0935ZM79.9578 22.0342L81.1414 24.5659L81.0692 24.6265C80.4471 25.0653 80.0184 25.341 79.2621 25.6066C78.5072 25.8822 77.6802 26.0352 76.9037 26.0352C76.1993 26.0352 75.5353 25.9429 74.893 25.7596C74.678 25.709 74.4644 25.6369 74.2608 25.556C73.454 25.2399 72.7294 24.7593 72.1275 24.1372C71.9745 23.9842 71.8215 23.811 71.6786 23.6162C71.2803 23.1052 70.9541 22.5134 70.7087 21.8509C70.3724 20.9632 70.2079 19.9211 70.2079 18.778C70.2079 17.6449 70.3912 16.6144 70.7693 15.7151C71.0753 14.9906 71.4535 14.3569 71.9226 13.8272C72.0352 13.6944 72.1578 13.5616 72.3007 13.4288C72.9344 12.8067 73.6792 12.3261 74.5163 11.9999C74.7299 11.9075 74.9551 11.8368 75.1702 11.7646C75.8139 11.5914 76.4764 11.499 77.1505 11.499C78.0482 11.499 78.8349 11.652 79.4988 11.958C80.0704 12.2337 80.3562 12.4069 80.857 12.7548L80.9292 12.8154L79.6937 15.4496L79.6836 15.4799L79.3256 15.184C79.0095 14.9386 78.7237 14.7553 78.438 14.6225C78.1016 14.4594 77.7235 14.367 77.3251 14.367C77.009 14.367 76.7131 14.3973 76.4374 14.4695C75.7634 14.6427 75.2019 15.0108 74.7429 15.5621C74.5495 15.7974 74.385 16.0514 74.2536 16.3069C73.9173 16.9911 73.7427 17.7979 73.7427 18.778C73.7427 19.6252 73.8755 20.3801 74.141 21.0138C74.3041 21.3919 74.499 21.708 74.7227 21.9736C75.1312 22.4845 75.6104 22.8209 76.1719 23.0042C76.4981 23.1167 76.856 23.1673 77.2342 23.1673C77.7552 23.1673 78.2344 23.0547 78.6934 22.831C78.9994 22.678 79.2953 22.5048 79.6013 22.2897L79.9578 22.0342ZM132.498 11.5034C131.397 11.5034 130.357 11.6852 129.405 12.0403C128.481 12.3853 127.631 12.7937 126.888 13.2628L128.032 15.7151L128.132 15.6545C128.732 15.2922 129.354 14.9761 129.984 14.7192C130.603 14.4709 131.242 14.3425 131.886 14.3425C132.331 14.3425 132.703 14.4103 132.999 14.5373C133.29 14.6687 133.529 14.8505 133.71 15.0815C133.892 15.3168 134.024 15.5896 134.102 15.8927C134.172 16.1669 134.218 16.4585 134.244 16.7529C132.893 16.9016 131.714 17.1123 130.733 17.3822C130.121 17.5497 129.566 17.7445 129.08 17.9654C128.76 18.1082 128.468 18.2598 128.205 18.42C127.534 18.84 127.032 19.3438 126.716 19.9269C126.403 20.5057 126.242 21.174 126.242 21.9144C126.242 23.1442 126.629 24.1502 127.39 24.9036C128.151 25.6542 129.159 26.0338 130.394 26.0338C131.186 26.0338 131.932 25.8664 132.615 25.5402C132.647 25.5257 132.678 25.5084 132.71 25.494C133.376 25.1562 134.015 24.7362 134.605 24.2426L134.822 25.7033H137.697V17.5092C137.697 15.5823 137.264 14.0856 136.407 13.0593C135.545 12.0302 134.23 11.5034 132.498 11.5034ZM134.252 21.8581C133.761 22.3113 133.293 22.665 132.863 22.9103C132.433 23.1572 131.947 23.2813 131.418 23.2813C130.879 23.2813 130.43 23.1499 130.085 22.8916C129.747 22.6375 129.582 22.2377 129.582 21.6662C129.582 21.3587 129.66 21.0628 129.815 20.7886C129.971 20.5143 130.235 20.2646 130.598 20.0467C130.975 19.8215 131.477 19.6166 132.092 19.4361C132.677 19.2644 133.402 19.1229 134.252 19.0147V21.8581ZM151.289 13.4404C150.81 12.8183 150.238 12.3376 149.564 12.0013C148.89 11.6751 148.115 11.5005 147.248 11.5005C146.471 11.5005 145.716 11.6838 145.002 12.0417C144.328 12.3781 143.706 12.7865 143.144 13.2369L142.492 11.8382H140.051V31.0798H143.501V26.6703L143.429 24.7001C143.919 25.0985 144.429 25.4146 144.95 25.6398C146.328 26.2416 147.737 26.1291 149.023 25.5272C149.738 25.1909 150.381 24.7001 150.921 24.0679C151.462 23.4357 151.911 22.6491 152.238 21.7196C152.564 20.8001 152.728 19.7393 152.728 18.5658C152.728 17.5035 152.606 16.535 152.36 15.6762C152.115 14.8072 151.758 14.0625 151.289 13.4404ZM148.277 22.014C147.685 22.7689 146.981 23.1369 146.113 23.1369C145.725 23.1369 145.296 23.0547 144.858 22.8916C144.419 22.7386 143.97 22.4629 143.499 22.0746V15.8479C144.489 14.8881 145.449 14.3988 146.357 14.3988C147.357 14.3988 148.052 14.7567 148.491 15.4712C148.939 16.2059 149.165 17.2581 149.165 18.5947C149.165 20.1059 148.869 21.2591 148.277 22.014ZM95.4365 25.7033L91.652 25.7047L88.0349 19.5819L86.2379 21.5752V25.7047H82.8431V7.32192H86.2379V17.3072L91.1685 11.8339H95.005L94.7625 12.1211L90.0903 17.3014L95.4336 25.696L95.438 25.7033H95.4365ZM161.471 22.8613L162.093 25.4954L161.98 25.5257C161.602 25.6585 161.173 25.7812 160.694 25.8837C160.225 25.9862 159.704 26.0367 159.163 26.0367C158.356 26.0367 157.662 25.914 157.1 25.6686C156.784 25.5257 156.498 25.3525 156.243 25.1375C156.049 24.9845 155.875 24.8113 155.722 24.6164C155.364 24.1675 155.11 23.6263 154.945 23.0143C154.782 22.4023 154.71 21.7181 154.71 20.9733V8.12155H158.181V11.8368H162.448L161.152 14.6239H158.181V20.9834C158.181 22.4845 158.763 23.2192 159.968 23.2192C160.193 23.2192 160.427 23.199 160.673 23.1369C160.908 23.0864 161.132 23.0143 161.326 22.9334L161.471 22.8613ZM105.38 7.32192H101.427L95.4928 25.5402L95.4394 25.7047H98.9786L100.392 20.7972H106.302L107.715 25.7047H111.364L105.409 7.40853L105.38 7.32192ZM101.214 18.0231L101.806 15.9663C102.101 15.0136 102.381 14.0192 102.639 13.0102C102.876 12.0879 103.112 11.1613 103.349 10.2318C103.586 11.1454 103.828 12.0677 104.072 12.9973C104.339 14.0091 104.624 15.0093 104.919 15.9648L105.511 18.0231H101.214ZM120.984 10.9491L121.077 12.837C120.607 12.4589 120.137 12.1529 119.678 11.9191C119.127 11.6434 118.442 11.5005 117.657 11.5005C116.902 11.5005 116.156 11.6737 115.452 12.0114C114.737 12.3578 114.104 12.8385 113.564 13.4606C113.023 14.0827 112.574 14.8491 112.247 15.7469C111.921 16.6447 111.758 17.6666 111.758 18.778C111.758 21.0542 112.279 22.8512 113.3 24.117C114.33 25.3929 115.739 26.0367 117.485 26.0367C118.24 26.0367 118.976 25.8534 119.659 25.4954C120.291 25.1591 120.853 24.7506 121.344 24.2801L121.557 25.6989H124.434V7.32481H120.984V10.9491ZM120.984 21.6979C120.137 22.6578 119.219 23.1369 118.259 23.1369C117.299 23.1369 116.595 22.779 116.085 22.0443C115.574 21.3096 115.32 20.1968 115.32 18.7578C115.32 17.349 115.616 16.2564 116.208 15.5116C116.79 14.7668 117.494 14.3988 118.341 14.3988C118.79 14.3988 119.229 14.481 119.668 14.6441C120.086 14.7971 120.535 15.0728 120.984 15.4611V21.6979Z" fill="#AEB2C1"/>
<path d="M19.6311 7.26556L22.717 0.647705L11.4299 0.650592C7.16183 0.652035 3.28205 3.12597 1.47783 6.99276C-0.326381 10.861 0.274061 15.4235 3.01647 18.6927L8.96315 25.784L5.87723 32.4019L17.1658 32.399C21.4339 32.3975 25.3137 29.925 27.1179 26.0568C28.9221 22.1886 28.3216 17.6261 25.5792 14.3568L19.6311 7.26556ZM23.7794 24.5008C23.4286 25.2514 22.6752 25.732 21.8467 25.732L11.0214 25.7292L13.3813 20.6687L5.11368 10.8206C4.58108 10.1855 4.46417 9.30071 4.81491 8.55016C5.16564 7.79961 5.91908 7.31896 6.74758 7.31896L17.5729 7.32185L15.2129 12.3823L23.4806 22.2304C24.0132 22.8641 24.1301 23.7503 23.7794 24.5008Z" fill="#AEB2C1"/>
</svg>
