<svg width="165" height="27" viewBox="0 0 165 27" fill="none" xmlns="http://www.w3.org/2000/svg">
<path fill-rule="evenodd" clip-rule="evenodd" d="M22.0548 25.7324H14.2045V13.4621C14.2045 12.1743 13.2659 11.3488 12.1665 11.3488C11.0938 11.3488 9.79997 12.2073 9.79997 13.4621V25.7324H2.75406V6.18442L0.481445 4.59942C3.08254 3.74092 7.43346 1.89183 9.79997 0.597412V10.8469C10.7452 9.69117 13.0447 8.20524 15.9609 8.20524C19.6615 8.20524 21.2503 10.6157 21.2503 13.4951V23.8502C21.2503 24.1675 21.5184 24.788 22.0548 25.7324ZM102.965 25.7324H95.1147V13.4621C95.1147 12.1743 94.1762 11.3488 93.0767 11.3488C92.0041 11.3488 90.7102 12.2073 90.7102 13.4621V25.7324H83.6643V6.18442L81.3917 4.59942C83.9928 3.74092 88.3437 1.89183 90.7102 0.597412V10.8469C91.6488 9.69117 93.9482 8.20524 96.8712 8.20524C100.572 8.20524 102.161 10.6157 102.161 13.4951V23.8502C102.161 24.1675 102.429 24.788 102.965 25.7324ZM39.217 22.8134V24.0351C37.655 25.3625 35.9253 26.4522 32.218 26.4522C26.3587 26.4522 22.7788 22.5822 22.7788 17.8141C22.7788 12.128 26.4593 8.25153 31.856 8.25153C37.1991 8.25153 39.217 11.8573 39.217 16.3943H29.456C29.8783 21.6181 32.8348 24.0021 35.5365 24.0021C36.8371 24.0021 38.3053 23.5727 39.217 22.8134ZM31.5275 15.364C33.0962 15.364 33.2773 14.9217 33.2773 13.6272C33.2773 12.6366 33.0963 10.1931 31.5275 10.1931C29.9588 10.1931 29.7778 12.6366 29.7778 13.6272C29.7778 14.9216 29.9588 15.364 31.5275 15.364ZM164.514 22.8068V24.0286C162.952 25.356 161.223 26.4456 157.515 26.4456C151.656 26.4456 148.076 22.5756 148.076 17.8141C148.076 12.1215 151.757 8.25153 157.16 8.25153C162.496 8.25153 164.514 11.8573 164.514 16.3877H154.753C155.176 21.6181 158.132 23.9955 160.834 23.9955C162.134 23.9955 163.603 23.5661 164.514 22.8068ZM156.825 15.3574C158.393 15.3574 158.574 14.9219 158.574 13.6272C158.574 12.6366 158.393 10.1864 156.825 10.1864C155.256 10.1864 155.075 12.6366 155.075 13.6272C155.075 14.9216 155.256 15.3574 156.825 15.3574ZM59.121 22.6615L59.9054 22.8264C59.5503 24.2463 58.511 26.4519 55.1657 26.4519C52.3769 26.4519 51.5925 24.7614 51.0093 22.9783C50.5199 24.6293 48.6093 26.4519 44.9757 26.4519C41.731 26.4519 39.9477 25.0321 39.9477 22.3508C39.9477 19.3724 42.8975 17.1865 50.2652 15.0335V11.8967C50.2652 10.2721 49.3869 9.71075 48.4149 9.71075C47.5366 9.71075 46.1422 10.6353 46.1422 12.0948C46.1422 12.7882 46.2759 13.3166 46.3703 14.01C46.3703 14.9015 45.3312 16.262 43.7424 16.262C41.9926 16.262 41.1479 15.0071 41.1479 13.5476C41.1479 11.1636 43.3871 8.25124 49.2597 8.25124C55.3604 8.25124 57.3045 11.4278 57.3045 14.4722V22.549C57.3045 23.0443 57.5054 23.5396 58.0554 23.5396C58.538 23.5396 58.8732 23.2688 59.1213 22.6613L59.121 22.6615ZM50.2987 22.054V16.0575C47.8316 17.0415 46.9802 19.485 46.9802 21.3605C46.9802 22.8728 47.456 23.5663 48.5958 23.5663C49.588 23.5663 50.2987 22.9389 50.2987 22.054ZM69.2105 25.7324H61.1122V6.18442L58.9535 4.59942C61.4205 3.74092 65.9524 1.89183 68.205 0.597412V23.8502C68.205 24.1473 68.5402 24.7748 69.2105 25.7324ZM113.618 25.7324H105.513V6.18442L103.354 4.59942C105.821 3.74092 110.36 1.89183 112.612 0.597412V23.8502C112.612 24.1473 112.947 24.7748 113.618 25.7324ZM81.3648 23.705V24.9267C80.185 25.9239 78.2274 26.4522 76.1156 26.4522C72.6296 26.4522 71.4228 23.903 71.4228 21.7501V10.2525H69.7402L78.5693 2.61823V8.91185H81.3648V10.2525H78.5693V22.7144C78.5693 23.705 79.1592 24.1672 79.8698 24.1672C80.3057 24.1672 81.0833 23.9693 81.3648 23.7048V23.705ZM120.355 7.98074C118.351 7.98074 116.748 6.34286 116.748 4.289C116.748 2.23515 118.351 0.597412 120.355 0.597412C122.36 0.597412 123.955 2.23515 123.955 4.289C123.955 6.34286 122.36 7.98074 120.355 7.98074ZM125.095 25.7324H116.822V13.4224L114.549 11.8309C117.151 10.9724 121.515 9.11662 123.888 7.82221V23.8502C123.888 24.1608 124.29 24.788 125.095 25.7324ZM147.546 25.7324H139.441V13.4224C139.441 12.1346 138.509 11.3025 137.403 11.3025C136.331 11.3025 135.037 12.1677 135.037 13.4224V25.7324H127.991V13.4224L125.725 11.8309C128.319 10.9724 132.483 9.11662 134.856 7.82221V11.2035C136.022 9.67791 138.282 8.15244 141.198 8.15244C144.898 8.15244 146.487 10.5761 146.487 13.4554V23.8502C146.487 24.154 146.842 24.7814 147.546 25.7324Z" fill="#AEB2C1"/>
</svg>
