<svg width="92" height="31" viewBox="0 0 92 31" fill="none" xmlns="http://www.w3.org/2000/svg">
<path d="M0.448242 0.319292H4.59946V9.32987C5.58171 7.50126 7.67132 6.70824 9.73199 6.73623C12.4257 6.73623 14.1045 7.65986 15.1194 9.18059C16.1652 10.7013 16.4808 12.7632 16.4808 15.1049V24.6669H12.3351V15.2813C12.3351 13.9527 12.1204 12.8126 11.5415 11.9898C10.9439 11.1659 9.99156 10.6276 8.53499 10.6276C6.89169 10.6276 5.9113 11.2928 5.34175 12.1484C4.77219 13.003 4.61347 14.0469 4.61347 14.9333V24.6548H0.448242V0.318359V0.319292ZM31.4433 14.1738C31.2845 12.5281 29.5422 10.2162 26.5003 10.2479C23.4265 10.2479 21.7477 12.4646 21.589 14.1738H31.4433ZM21.5255 17.3403C21.716 20.1261 24.1866 21.6786 26.5628 21.6459C28.5889 21.6459 29.9521 20.7279 30.7458 19.3042H35.0221C34.1911 21.2354 32.9586 22.6909 31.5021 23.6723C30.0455 24.6855 28.3275 25.1931 26.5255 25.1931C21.166 25.1931 17.3379 20.8548 17.3379 16.0108C17.3379 11.0708 21.2034 6.73343 26.4601 6.73343C29.0558 6.73343 31.334 7.71584 32.9493 9.39238C35.0707 11.5783 35.8624 14.2998 35.517 17.3412H21.5115L21.5255 17.3403ZM40.4086 16.0416C40.4086 18.1949 41.9623 21.3287 45.6999 21.3287C48.0136 21.3287 49.5346 20.1252 50.3263 18.5429C50.739 17.7835 50.9286 16.9597 50.9921 16.1051C51.0238 15.2822 50.8651 14.4276 50.5159 13.6672C49.7876 12.0215 48.1723 10.5978 45.67 10.5978C42.3106 10.5978 40.4086 13.3192 40.4086 16.009V16.0416ZM55.1106 24.6529H50.9613V22.1525C49.8502 24.1789 47.5383 25.1921 45.0976 25.1921C39.5235 25.1921 36.2583 20.8539 36.2583 15.9465C36.2583 10.47 40.2191 6.73343 45.0986 6.73343C48.2731 6.73343 50.2059 8.41276 50.9622 9.80475V7.27175H55.1171V24.6529H55.1106ZM66.1376 24.6529H62.0816L55.6167 7.27175H59.9266L64.1096 19.4283L68.2925 7.27175H72.6006L66.1376 24.6529Z" fill="#AEB2C1"/>
<path d="M78.2087 23.9886L71.6504 7.27173H76.0855L80.3319 18.8274L84.5149 7.27733H88.9499L79.7922 30.7311H75.3572L78.2087 23.9886ZM91.4485 21.6702C91.4485 23.4055 90.2534 24.5624 88.5382 24.5624C86.8575 24.5624 85.6596 23.3374 85.6596 21.6702C85.6596 20.003 86.8566 18.778 88.5382 18.778C90.2524 18.778 91.4485 20.003 91.4485 21.6702Z" fill="#AEB2C1"/>
</svg>
