<svg width="124" height="41" viewBox="0 0 124 41" fill="none" xmlns="http://www.w3.org/2000/svg">
<path d="M119.83 24.9993L123.253 27.2815C122.142 28.9181 119.485 31.7258 114.89 31.7258C109.185 31.7258 104.936 27.3115 104.936 21.696C104.936 15.7202 109.23 11.6663 114.41 11.6663C119.62 11.6663 122.172 15.8103 122.998 18.0475L123.449 19.1886L110.026 24.744C111.047 26.756 112.638 27.777 114.89 27.777C117.142 27.777 118.704 26.6659 119.83 24.9993ZM109.305 21.3807L118.269 17.6571C117.773 16.4109 116.302 15.525 114.545 15.525C112.308 15.525 109.2 17.507 109.305 21.3807Z" fill="#AEB2C1"/>
<path d="M98.4639 1.44141H102.788V30.8101H98.4639V1.44141Z" fill="#AEB2C1"/>
<path d="M91.6472 12.4471H95.8213V30.2845C95.8213 37.6868 91.452 40.7347 86.287 40.7347C81.4222 40.7347 78.4944 37.4615 77.3983 34.804L81.2271 33.2124C81.9177 34.849 83.5844 36.7859 86.287 36.7859C89.6052 36.7859 91.6472 34.7289 91.6472 30.8851V29.4437H91.4971C90.5061 30.6449 88.6143 31.7259 86.2119 31.7259C81.197 31.7259 76.6025 27.3567 76.6025 21.7262C76.6025 16.0657 81.197 11.6514 86.2119 11.6514C88.5992 11.6514 90.5061 12.7174 91.4971 13.8885H91.6472V12.4471ZM91.9475 21.7262C91.9475 18.1827 89.5902 15.6002 86.5873 15.6002C83.5543 15.6002 81.0018 18.1827 81.0018 21.7262C81.0018 25.2246 83.5543 27.7621 86.5873 27.7621C89.5902 27.7771 91.9475 25.2246 91.9475 21.7262Z" fill="#AEB2C1"/>
<path d="M52.8643 21.651C52.8643 27.4316 48.3599 31.6808 42.8345 31.6808C37.3091 31.6808 32.8047 27.4166 32.8047 21.651C32.8047 15.8403 37.3091 11.6062 42.8345 11.6062C48.3599 11.6062 52.8643 15.8403 52.8643 21.651ZM48.48 21.651C48.48 18.0475 45.8674 15.5701 42.8345 15.5701C39.8015 15.5701 37.189 18.0475 37.189 21.651C37.189 25.2245 39.8015 27.7319 42.8345 27.7319C45.8674 27.7319 48.48 25.2245 48.48 21.651Z" fill="#AEB2C1"/>
<path d="M74.7705 21.696C74.7705 27.4767 70.2661 31.7258 64.7407 31.7258C59.2153 31.7258 54.7109 27.4767 54.7109 21.696C54.7109 15.8854 59.2153 11.6663 64.7407 11.6663C70.2661 11.6663 74.7705 15.8704 74.7705 21.696ZM70.3712 21.696C70.3712 18.0925 67.7587 15.6151 64.7257 15.6151C61.6927 15.6151 59.0802 18.0925 59.0802 21.696C59.0802 25.2695 61.6927 27.777 64.7257 27.777C67.7737 27.777 70.3712 25.2545 70.3712 21.696Z" fill="#AEB2C1"/>
<path d="M16.3187 27.3265C10.0276 27.3265 5.10278 22.2516 5.10278 15.9605C5.10278 9.66931 10.0276 4.59436 16.3187 4.59436C19.712 4.59436 22.1895 5.93066 24.0212 7.64234L27.0392 4.62439C24.4867 2.177 21.0784 0.315186 16.3187 0.315186C7.70032 0.315186 0.448242 7.34204 0.448242 15.9605C0.448242 24.5789 7.70032 31.6057 16.3187 31.6057C20.9733 31.6057 24.4867 30.0742 27.2344 27.2214C30.0571 24.3987 30.928 20.4348 30.928 17.2217C30.928 16.2157 30.8079 15.1797 30.6727 14.4139H16.3187V18.588H26.5437C26.2434 21.2006 25.4176 22.9873 24.2014 24.2035C22.73 25.6899 20.4027 27.3265 16.3187 27.3265Z" fill="#AEB2C1"/>
</svg>
