<svg width="176" height="33" viewBox="0 0 176 33" fill="none" xmlns="http://www.w3.org/2000/svg">
<path d="M53.6168 7.8125L59.3639 25.0681H56.2047L54.9948 21.2448H49.0796L47.9033 25.0681H44.7441L50.4912 7.8125H53.6168ZM49.9199 18.4027H54.0873L51.97 11.7373L49.9199 18.4027Z" fill="#AEB2C1"/>
<path d="M61.75 25.0682V7.84644H69.0095C71.967 7.84644 73.7483 9.6735 73.7483 11.6359V15.29C73.7483 16.6773 72.8072 17.9968 71.2276 18.6397L74.118 25.0344H70.7907L68.0684 19.0118H64.9092V25.0344H61.75V25.0682ZM64.9428 10.7224V16.2036H68.7742C69.7825 16.2036 70.6227 15.6284 70.6227 14.6134V12.3464C70.6227 11.2976 69.7488 10.7224 68.6398 10.7224H64.9428Z" fill="#AEB2C1"/>
<path d="M80.0335 25.0681V10.6884H75.7988V7.88013H87.0913V10.6884H83.1927V25.0681H80.0335Z" fill="#AEB2C1"/>
<path d="M90.8885 20.1622V21.2787C90.8885 22.8013 92.3001 23.9516 94.115 23.9516H96.1315C98.0136 23.9516 99.4587 23.0381 99.4587 21.4479V20.2298C99.4587 17.5907 90.0147 17.0832 90.0147 12.5494V10.993C90.0147 9.26743 91.6615 7.74487 93.8461 7.74487H96.0979C98.5513 7.74487 100.366 9.40277 100.366 11.2637V12.8201H98.9546V11.5343C98.9546 10.1133 97.6439 9.03059 95.997 9.03059H94.0477C92.6026 9.03059 91.4263 9.97796 91.4263 11.2298V12.4817C91.4263 15.8652 100.87 16.305 100.87 20.0268V21.6847C100.87 23.8501 98.8874 25.2035 96.2323 25.2035H94.0477C91.3927 25.2035 89.4434 23.478 89.4434 21.4817V20.1622H90.8885Z" fill="#AEB2C1"/>
<path d="M107.962 25.0681V9.13201H103.189V7.88013H113.944V9.13201H109.373V25.0681H107.962Z" fill="#AEB2C1"/>
<path d="M121.54 7.77881L127.556 25.0683H126.145L124.229 19.5532H117.406L115.524 25.0683H114.079L120.129 7.77881H121.54ZM117.843 18.2675H123.792L120.834 9.60588L117.843 18.2675Z" fill="#AEB2C1"/>
<path d="M132.563 25.0681V9.13201H127.791V7.88013H138.546V9.13201H133.975V25.0681H132.563Z" fill="#AEB2C1"/>
<path d="M141.705 25.0681V7.88013H143.117V25.0681H141.705Z" fill="#AEB2C1"/>
<path d="M151.889 25.2035C149.536 25.2035 147.855 23.478 147.855 21.4817V11.4667C147.855 9.47044 149.57 7.74487 151.889 7.74487H155.283C157.602 7.74487 159.282 9.47044 159.282 11.4667V21.4817C159.282 23.478 157.602 25.2035 155.283 25.2035H151.889ZM155.149 23.9178C156.661 23.9178 157.871 22.7674 157.871 21.2449V11.7035C157.871 10.181 156.661 9.03059 155.149 9.03059H151.956C150.443 9.03059 149.233 10.181 149.233 11.7035V21.2787C149.233 22.8013 150.443 23.9516 151.956 23.9516H155.149V23.9178Z" fill="#AEB2C1"/>
<path d="M164.021 25.0682V7.88027H165.5L174.07 22.5645V7.84644H175.482V25.0344H174.003L165.433 10.3502V25.0344H164.021V25.0682Z" fill="#AEB2C1"/>
<path d="M0.448242 25.0681L3.43941 30.2786C4.04436 31.4629 5.25427 32.2749 6.63223 32.2749H26.5621L22.4619 25.0681H0.448242Z" fill="#AEB2C1"/>
<path d="M36.0058 25.102C36.0058 24.3914 35.8042 23.7148 35.4345 23.1396L23.7387 2.70347C23.1337 1.5531 21.9574 0.774902 20.5795 0.774902H14.3955L32.4433 32.2411L35.3001 27.2674C35.8378 26.32 36.0058 25.914 36.0058 25.102Z" fill="#AEB2C1"/>
<path d="M19.5042 19.9254L11.4381 5.88403L3.37207 19.9254H19.5042Z" fill="#AEB2C1"/>
</svg>
