<svg width="100" height="43" viewBox="0 0 100 43" fill="none" xmlns="http://www.w3.org/2000/svg">
<path fill-rule="evenodd" clip-rule="evenodd" d="M88.0119 40.0836C86.9152 41.3549 84.689 41.1642 84.3234 39.3052C84.1488 38.3834 84.4028 37.2712 84.8004 36.4925C85.6907 34.7922 87.2966 33.394 89.1251 32.9332C89.1251 33.982 89.1251 35.3644 89.0933 36.4291C89.0611 37.6049 88.8071 39.1461 88.0119 40.0836ZM70.317 14.962C71.3346 15.0255 72.1455 16.1376 71.8751 18.0286C71.5413 20.2692 69.6811 22.6683 67.5667 23.2086C67.2326 22.4142 67.0738 20.7934 67.2644 19.2044C67.6143 16.2965 69.1087 14.8983 70.317 14.962ZM30.6822 25.7987C29.1082 23.7012 29.1717 21.1589 29.6648 18.7437C31.2068 22.2075 35.3247 22.8115 37.8683 22.303C37.5346 24.9725 36.1351 27.3083 33.7189 27.3083C32.3675 27.3241 31.3815 26.7362 30.6822 25.7987ZM36.2467 16.0104C37.0224 16.802 37.5458 17.9558 37.7853 19.2365C37.7868 19.2364 37.7889 19.2521 37.7889 19.2521C37.788 19.2469 37.7865 19.2418 37.7853 19.2365C36.006 19.49 34.2903 19.1563 33.0352 18.1873C32.1292 17.4724 31.8905 16.3443 32.2721 15.661C32.8283 14.6759 34.498 14.2468 36.2467 16.0104ZM12.0175 2.9809C13.1142 1.69393 15.3401 1.90029 15.69 3.75956C15.8647 4.66517 15.6262 5.7774 15.229 6.55605C14.3383 8.25626 12.7326 9.6545 10.9042 10.1312C10.9042 9.06676 10.8883 7.70014 10.9363 6.63546C10.968 5.45976 11.2225 3.90245 12.0175 2.9809ZM93.1792 30.5338C93.1949 25.0043 93.1792 19.4746 93.1792 13.9449C93.1792 12.5784 89.2522 12.4988 89.1251 13.8814C89.1251 14.4375 89.1251 15.0095 89.109 15.5656C89.0457 18.6006 87.5989 24.2732 85.1981 26.3389C84.5463 26.8952 83.9579 26.9269 83.5448 26.6248C83.1789 26.3547 83.0834 25.6717 83.0834 25.0837V24.321C83.0834 20.9047 83.0995 17.3771 83.0834 13.9607C83.0834 12.5941 79.1565 12.4988 79.0293 13.8814C79.0293 17.0592 79.0293 20.142 79.0454 23.2882C76.4537 27.4195 70.4601 29.3581 67.98 24.4639C69.5222 25.0519 71.1595 24.7658 72.2726 24.1779C74.1964 23.1609 75.6589 21.4768 75.945 18.8073C76.2153 10.9893 65.8816 9.92483 63.576 17.8857C63.1946 19.2044 62.988 20.6186 63.0357 22.001C63.0831 23.3198 63.3535 24.5433 63.8146 25.6239C62.9717 26.4501 62.0021 27.0222 61.0325 26.9905C59.7602 26.9427 59.8878 25.3698 59.8878 24.4639V18.5052C59.8878 17.7903 59.8878 17.0752 59.824 16.3762C59.6176 14.2946 58.0275 12.6419 55.8019 12.4988C52.6377 12.4512 50.4121 15.3909 49.3151 18.6166C49.2994 16.821 49.3151 15.7563 49.3151 13.9449C49.2994 12.5941 45.6587 12.4988 45.2453 13.9289C44.7206 15.7404 43.0034 17.1546 41.3976 17.9966C40.905 16.8051 40.285 15.7088 39.4265 14.7713C35.8967 10.9417 30.7936 11.641 27.8043 14.8029C25.4355 17.3136 24.7205 21.8422 25.9921 25.02C25.0542 26.1325 23.7665 27.0381 22.6218 26.9905C22.0492 26.9587 21.7313 26.6248 21.5881 26.1006C21.445 25.592 21.477 24.9884 21.477 24.4639C21.477 22.4777 21.4609 20.4914 21.477 18.5052C21.477 17.7903 21.477 17.0752 21.4136 16.3762C21.2066 14.2946 19.9825 12.626 17.6614 12.4831C13.6708 12.3081 12.0651 16.1695 10.8883 19.3474V12.5625C11.7311 12.4194 12.5421 12.2128 13.3525 11.9745C22.1446 9.44814 20.4434 0.216029 13.8935 0.0572078C9.47357 -0.0381327 6.85017 2.86963 6.88228 7.28692V10.1471C5.29225 9.90891 4.09973 7.84328 3.43222 6.50851C3.33658 6.3019 3.2412 6.09528 3.14604 5.88867C3.06658 5.68206 2.84393 5.57103 2.63696 5.63451C2.46236 5.68207 2.28751 5.74578 2.11242 5.80926C1.4768 6.09528 0.951782 6.58792 0.697719 7.23937C0.236695 8.39939 0.697719 9.63881 1.5082 10.5126C2.84393 11.9111 4.97444 12.4194 6.85017 12.5147C6.83423 18.0286 6.85017 23.5265 6.85017 29.0402C6.91368 29.8189 7.97917 30.0255 8.5991 30.0412C9.25114 30.0572 10.6658 29.8506 10.682 28.9609L10.7296 28.2775C10.9999 25.8306 13.3525 16.0423 16.3256 16.0264C17.0572 16.0264 17.423 16.5031 17.423 17.2182V25.9418C17.423 28.643 18.9491 30.4544 21.7155 30.4544C23.8618 30.4704 25.8011 28.913 26.9618 26.9747C27.1207 27.1812 27.248 27.4035 27.4228 27.5942C28.9331 29.3581 31.159 30.4863 33.7029 30.5022C39.2511 30.4226 42.097 25.6557 41.8907 20.9682C43.1784 20.2533 44.3391 19.3314 45.229 18.1873V29.0402C45.2928 29.8189 46.4058 30.0255 47.0261 30.0412C47.6775 30.0572 49.0928 29.8506 49.0928 28.9609L49.1563 28.2775L49.3468 26.4661C49.6333 23.9396 51.5252 16.0423 54.7525 16.0264C55.4676 16.0264 55.8338 16.5031 55.8338 17.2182V25.9418C55.8338 28.643 57.36 30.4544 60.1419 30.4544C62.0658 30.4704 63.8146 29.215 64.9911 27.5625C66.549 29.4852 68.9342 30.6133 71.7954 30.6133C75.1504 30.6133 77.5825 29.1356 79.2043 26.752C79.5699 28.802 80.6669 30.4226 83.354 30.4544C86.1358 30.4704 88.2506 26.5933 89.1251 24.2572V30.5022C88.298 30.6451 87.4875 30.8517 86.6769 31.0899C77.8848 33.6007 79.5699 42.8484 86.1201 42.9916C90.5558 43.1028 93.1631 40.1949 93.1474 35.7776C93.1474 35.0308 93.1314 33.6325 93.1474 32.9014C94.7212 33.1399 95.9295 35.2215 96.5815 36.5563C96.6926 36.7628 96.7881 36.9692 96.8677 37.1758C96.963 37.3825 97.1695 37.4777 97.3922 37.43C97.5671 37.3825 97.7419 37.319 97.9008 37.2393C98.5528 36.9535 99.0776 36.4768 99.3319 35.8094C99.793 34.6495 99.3319 33.426 98.505 32.5519C97.1857 31.1378 95.039 30.6451 93.1792 30.5338Z" fill="#AEB2C1"/>
</svg>
