<svg width="101" height="34" viewBox="0 0 101 34" fill="none" xmlns="http://www.w3.org/2000/svg">
<path d="M34.5005 17.0004C34.5005 26.3893 26.8889 34 17.5 34C8.11113 34 0.5 26.3893 0.5 17.0004C0.5 7.61113 8.11113 0 17.5 0C26.8889 0 34.5005 7.61113 34.5005 17.0004Z" fill="#0263E0"/>
<path d="M16.85 16.4434C15.3474 16.4434 14.1248 15.2152 14.1248 13.7055C14.1248 12.1965 15.3474 10.9683 16.85 10.9683C18.3526 10.9683 19.5753 12.1965 19.5753 13.7055C19.5753 15.2152 18.3526 16.4434 16.85 16.4434ZM25.2923 8.04099C25.2923 6.50697 24.0545 5.26364 22.5274 5.26364C21.3744 5.26364 20.387 5.9731 19.9723 6.98066C19.023 6.53443 17.9652 6.28354 16.85 6.28354C12.7756 6.28354 9.46094 9.61297 9.46094 13.7055C9.46094 17.7984 12.7756 21.1282 16.85 21.1282C17.8061 21.1282 18.7191 20.943 19.5584 20.6097C19.3904 22.6248 17.7063 24.2141 15.657 24.2141C14.369 24.2141 13.3251 25.263 13.3251 26.5566C13.3251 27.8503 14.369 28.8992 15.657 28.8992C20.3895 28.8992 24.2392 25.0319 24.2392 20.2783V13.7055C24.2392 12.6026 23.9968 11.5562 23.5651 10.6144C24.5777 10.2018 25.2923 9.20562 25.2923 8.04099Z" fill="white"/>
<path d="M37.86 25H41.268L42.348 21.88H49.14L50.22 25H53.628L47.388 7.48H44.1L37.86 25ZM45.756 12.112L48.06 18.76H43.452L45.756 12.112ZM56.5511 25H59.8151L65.0951 10.96H61.7591L58.2071 20.848L54.5831 10.96H51.1991L56.5511 25ZM65.5663 25H68.8303V10.96H65.5663V25ZM65.1583 7.528C65.1583 8.752 65.8783 9.544 67.1983 9.544C68.4703 9.544 69.2383 8.752 69.2383 7.528C69.2383 6.304 68.4703 5.488 67.1983 5.488C65.9503 5.488 65.1583 6.304 65.1583 7.528ZM81.0191 24.76C81.0191 26.896 79.4831 28.816 77.0351 28.816C74.8031 28.816 73.6991 27.904 72.6671 26.008L69.7871 27.76C71.0591 30.088 73.3391 31.792 76.9871 31.792C81.7151 31.792 84.2351 28.576 84.2351 24.64V10.96H80.9951V12.76C79.9631 11.488 78.3311 10.672 76.4831 10.672C72.9311 10.672 69.5231 13.336 69.5231 17.992C69.5231 22.6 73.0511 25.288 76.4351 25.288C78.3311 25.288 79.9871 24.472 81.0191 23.128V24.76ZM76.9631 22.312C74.5631 22.312 72.7151 20.392 72.7151 17.944C72.7151 15.52 74.5631 13.624 76.9631 13.624C79.3871 13.624 81.1631 15.544 81.1631 17.944C81.1631 20.368 79.3871 22.312 76.9631 22.312ZM92.2236 25.288C96.2556 25.288 99.4956 22.024 99.4956 17.992C99.4956 13.888 96.2556 10.672 92.2236 10.672C88.1676 10.672 84.9516 13.888 84.9516 17.992C84.9516 22.024 88.1676 25.288 92.2236 25.288ZM92.2236 22.24C89.8956 22.24 88.1436 20.32 88.1436 17.992C88.1436 15.616 89.8956 13.72 92.2236 13.72C94.5276 13.72 96.3036 15.616 96.3036 17.992C96.3036 20.32 94.5276 22.24 92.2236 22.24Z" fill="#121212"/>
</svg>
