<svg width="100" height="34" viewBox="0 0 100 34" fill="none" xmlns="http://www.w3.org/2000/svg">
<path d="M34.0005 17.0004C34.0005 26.3893 26.3889 34 17 34C7.61113 34 0 26.3893 0 17.0004C0 7.61113 7.61113 0 17 0C26.3889 0 34.0005 7.61113 34.0005 17.0004Z" fill="#24BA96"/>
<path d="M16.3498 16.4434C14.8472 16.4434 13.6246 15.2152 13.6246 13.7055C13.6246 12.1965 14.8472 10.9683 16.3498 10.9683C17.8524 10.9683 19.0751 12.1965 19.0751 13.7055C19.0751 15.2152 17.8524 16.4434 16.3498 16.4434ZM24.792 8.04099C24.792 6.50697 23.5543 5.26364 22.0271 5.26364C20.8741 5.26364 19.8868 5.9731 19.472 6.98066C18.5227 6.53443 17.465 6.28354 16.3498 6.28354C12.2753 6.28354 8.96069 9.61297 8.96069 13.7055C8.96069 17.7984 12.2753 21.1282 16.3498 21.1282C17.3059 21.1282 18.2189 20.943 19.0582 20.6097C18.8902 22.6248 17.206 24.2141 15.1568 24.2141C13.8688 24.2141 12.8249 25.263 12.8249 26.5566C12.8249 27.8503 13.8688 28.8992 15.1568 28.8992C19.8892 28.8992 23.7389 25.0319 23.7389 20.2783V13.7055C23.7389 12.6026 23.4965 11.5562 23.0649 10.6144C24.0775 10.2018 24.792 9.20562 24.792 8.04099Z" fill="white"/>
<path d="M37.3605 25H40.7685L41.8485 21.88H48.6405L49.7205 25H53.1285L46.8885 7.48H43.6005L37.3605 25ZM45.2565 12.112L47.5605 18.76H42.9525L45.2565 12.112ZM56.0516 25H59.3156L64.5956 10.96H61.2596L57.7076 20.848L54.0836 10.96H50.6996L56.0516 25ZM65.0668 25H68.3308V10.96H65.0668V25ZM64.6588 7.528C64.6588 8.752 65.3788 9.544 66.6988 9.544C67.9708 9.544 68.7388 8.752 68.7388 7.528C68.7388 6.304 67.9708 5.488 66.6988 5.488C65.4508 5.488 64.6588 6.304 64.6588 7.528ZM80.5196 24.76C80.5196 26.896 78.9836 28.816 76.5356 28.816C74.3036 28.816 73.1996 27.904 72.1676 26.008L69.2876 27.76C70.5596 30.088 72.8396 31.792 76.4876 31.792C81.2156 31.792 83.7356 28.576 83.7356 24.64V10.96H80.4956V12.76C79.4636 11.488 77.8316 10.672 75.9836 10.672C72.4316 10.672 69.0236 13.336 69.0236 17.992C69.0236 22.6 72.5516 25.288 75.9356 25.288C77.8316 25.288 79.4876 24.472 80.5196 23.128V24.76ZM76.4636 22.312C74.0636 22.312 72.2156 20.392 72.2156 17.944C72.2156 15.52 74.0636 13.624 76.4636 13.624C78.8876 13.624 80.6636 15.544 80.6636 17.944C80.6636 20.368 78.8876 22.312 76.4636 22.312ZM91.7241 25.288C95.7561 25.288 98.9961 22.024 98.9961 17.992C98.9961 13.888 95.7561 10.672 91.7241 10.672C87.6681 10.672 84.452 13.888 84.452 17.992C84.452 22.024 87.6681 25.288 91.7241 25.288ZM91.7241 22.24C89.396 22.24 87.6441 20.32 87.6441 17.992C87.6441 15.616 89.396 13.72 91.7241 13.72C94.0281 13.72 95.8041 15.616 95.8041 17.992C95.8041 20.32 94.0281 22.24 91.7241 22.24Z" fill="#121212"/>
</svg>
