<svg width="100" height="34" viewBox="0 0 100 34" fill="none" xmlns="http://www.w3.org/2000/svg">
<path d="M34.0005 17.0004C34.0005 26.3893 26.3889 34 17 34C7.61113 34 0 26.3893 0 17.0004C0 7.61113 7.61113 0 17 0C26.3889 0 34.0005 7.61113 34.0005 17.0004Z" fill="#0072FF"/>
<path d="M16.3499 16.4434C14.8473 16.4434 13.6247 15.2152 13.6247 13.7055C13.6247 12.1965 14.8473 10.9683 16.3499 10.9683C17.8525 10.9683 19.0752 12.1965 19.0752 13.7055C19.0752 15.2152 17.8525 16.4434 16.3499 16.4434ZM24.7922 8.04099C24.7922 6.50697 23.5544 5.26364 22.0272 5.26364C20.8743 5.26364 19.8869 5.9731 19.4721 6.98066C18.5228 6.53443 17.4651 6.28354 16.3499 6.28354C12.2755 6.28354 8.96082 9.61297 8.96082 13.7055C8.96082 17.7984 12.2755 21.1282 16.3499 21.1282C17.306 21.1282 18.219 20.943 19.0583 20.6097C18.8903 22.6248 17.2061 24.2141 15.1569 24.2141C13.8689 24.2141 12.825 25.263 12.825 26.5566C12.825 27.8503 13.8689 28.8992 15.1569 28.8992C19.8893 28.8992 23.739 25.0319 23.739 20.2783V13.7055C23.739 12.6026 23.4966 11.5562 23.065 10.6144C24.0776 10.2018 24.7922 9.20562 24.7922 8.04099Z" fill="white"/>
<path d="M37.3604 25H40.7684L41.8484 21.88H48.6404L49.7204 25H53.1284L46.8884 7.48H43.6004L37.3604 25ZM45.2564 12.112L47.5604 18.76H42.9524L45.2564 12.112ZM56.0516 25H59.3156L64.5956 10.96H61.2596L57.7076 20.848L54.0836 10.96H50.6996L56.0516 25ZM65.0667 25H68.3307V10.96H65.0667V25ZM64.6587 7.528C64.6587 8.752 65.3787 9.544 66.6987 9.544C67.9707 9.544 68.7387 8.752 68.7387 7.528C68.7387 6.304 67.9707 5.488 66.6987 5.488C65.4507 5.488 64.6587 6.304 64.6587 7.528ZM80.5196 24.76C80.5196 26.896 78.9836 28.816 76.5356 28.816C74.3036 28.816 73.1996 27.904 72.1676 26.008L69.2876 27.76C70.5596 30.088 72.8396 31.792 76.4876 31.792C81.2156 31.792 83.7356 28.576 83.7356 24.64V10.96H80.4956V12.76C79.4636 11.488 77.8316 10.672 75.9836 10.672C72.4316 10.672 69.0236 13.336 69.0236 17.992C69.0236 22.6 72.5516 25.288 75.9356 25.288C77.8316 25.288 79.4876 24.472 80.5196 23.128V24.76ZM76.4636 22.312C74.0636 22.312 72.2156 20.392 72.2156 17.944C72.2156 15.52 74.0636 13.624 76.4636 13.624C78.8876 13.624 80.6636 15.544 80.6636 17.944C80.6636 20.368 78.8876 22.312 76.4636 22.312ZM91.724 25.288C95.756 25.288 98.996 22.024 98.996 17.992C98.996 13.888 95.756 10.672 91.724 10.672C87.668 10.672 84.452 13.888 84.452 17.992C84.452 22.024 87.668 25.288 91.724 25.288ZM91.724 22.24C89.396 22.24 87.644 20.32 87.644 17.992C87.644 15.616 89.396 13.72 91.724 13.72C94.028 13.72 95.804 15.616 95.804 17.992C95.804 20.32 94.028 22.24 91.724 22.24Z" fill="white"/>
</svg>
