<svg width="35" height="34" viewBox="0 0 35 34" fill="none" xmlns="http://www.w3.org/2000/svg">
<path d="M34.5005 17.0004C34.5005 26.3893 26.8889 34 17.5 34C8.11113 34 0.5 26.3893 0.5 17.0004C0.5 7.61113 8.11113 0 17.5 0C26.8889 0 34.5005 7.61113 34.5005 17.0004Z" fill="#0263E0"/>
<path d="M16.85 16.4434C15.3474 16.4434 14.1248 15.2152 14.1248 13.7055C14.1248 12.1965 15.3474 10.9683 16.85 10.9683C18.3526 10.9683 19.5753 12.1965 19.5753 13.7055C19.5753 15.2152 18.3526 16.4434 16.85 16.4434ZM25.2923 8.04099C25.2923 6.50697 24.0545 5.26364 22.5274 5.26364C21.3744 5.26364 20.387 5.9731 19.9723 6.98066C19.023 6.53443 17.9652 6.28354 16.85 6.28354C12.7756 6.28354 9.46094 9.61297 9.46094 13.7055C9.46094 17.7984 12.7756 21.1282 16.85 21.1282C17.8061 21.1282 18.7191 20.943 19.5584 20.6097C19.3904 22.6248 17.7063 24.2141 15.657 24.2141C14.369 24.2141 13.3251 25.263 13.3251 26.5566C13.3251 27.8503 14.369 28.8992 15.657 28.8992C20.3895 28.8992 24.2392 25.0319 24.2392 20.2783V13.7055C24.2392 12.6026 23.9968 11.5562 23.5651 10.6144C24.5777 10.2018 25.2923 9.20562 25.2923 8.04099Z" fill="white"/>
</svg>
