<svg width="34" height="34" viewBox="0 0 34 34" fill="none" xmlns="http://www.w3.org/2000/svg">
<path d="M34.0005 17.0004C34.0005 26.3893 26.3889 34 17 34C7.61113 34 0 26.3893 0 17.0004C0 7.61113 7.61113 0 17 0C26.3889 0 34.0005 7.61113 34.0005 17.0004Z" fill="#24BA96"/>
<path d="M16.3498 16.4434C14.8472 16.4434 13.6246 15.2152 13.6246 13.7055C13.6246 12.1965 14.8472 10.9683 16.3498 10.9683C17.8524 10.9683 19.0751 12.1965 19.0751 13.7055C19.0751 15.2152 17.8524 16.4434 16.3498 16.4434ZM24.792 8.04099C24.792 6.50697 23.5543 5.26364 22.0271 5.26364C20.8741 5.26364 19.8868 5.9731 19.472 6.98066C18.5227 6.53443 17.465 6.28354 16.3498 6.28354C12.2753 6.28354 8.96069 9.61297 8.96069 13.7055C8.96069 17.7984 12.2753 21.1282 16.3498 21.1282C17.3059 21.1282 18.2189 20.943 19.0582 20.6097C18.8902 22.6248 17.206 24.2141 15.1568 24.2141C13.8688 24.2141 12.8249 25.263 12.8249 26.5566C12.8249 27.8503 13.8688 28.8992 15.1568 28.8992C19.8892 28.8992 23.7389 25.0319 23.7389 20.2783V13.7055C23.7389 12.6026 23.4965 11.5562 23.0649 10.6144C24.0775 10.2018 24.792 9.20562 24.792 8.04099Z" fill="white"/>
</svg>
