<svg width="34" height="34" viewBox="0 0 34 34" fill="none" xmlns="http://www.w3.org/2000/svg">
<path d="M34.0005 17.0004C34.0005 26.3893 26.3889 34 17 34C7.61113 34 0 26.3893 0 17.0004C0 7.61113 7.61113 0 17 0C26.3889 0 34.0005 7.61113 34.0005 17.0004Z" fill="#FF008A"/>
<path d="M16.3499 16.4434C14.8473 16.4434 13.6247 15.2152 13.6247 13.7055C13.6247 12.1965 14.8473 10.9683 16.3499 10.9683C17.8525 10.9683 19.0752 12.1965 19.0752 13.7055C19.0752 15.2152 17.8525 16.4434 16.3499 16.4434ZM24.7922 8.04099C24.7922 6.50697 23.5544 5.26364 22.0272 5.26364C20.8743 5.26364 19.8869 5.9731 19.4721 6.98066C18.5228 6.53443 17.4651 6.28354 16.3499 6.28354C12.2755 6.28354 8.96082 9.61297 8.96082 13.7055C8.96082 17.7984 12.2755 21.1282 16.3499 21.1282C17.306 21.1282 18.219 20.943 19.0583 20.6097C18.8903 22.6248 17.2061 24.2141 15.1569 24.2141C13.8689 24.2141 12.825 25.263 12.825 26.5566C12.825 27.8503 13.8689 28.8992 15.1569 28.8992C19.8893 28.8992 23.739 25.0319 23.739 20.2783V13.7055C23.739 12.6026 23.4966 11.5562 23.065 10.6144C24.0776 10.2018 24.7922 9.20562 24.7922 8.04099Z" fill="white"/>
</svg>
