<svg width="37" height="22" viewBox="0 0 37 22" fill="none" xmlns="http://www.w3.org/2000/svg">
<path d="M28.7213 14.1681C32.2602 14.1681 35.129 11.2992 35.129 7.76032C35.129 4.2214 32.2602 1.35254 28.7213 1.35254C25.1823 1.35254 22.3135 4.2214 22.3135 7.76032C22.3135 11.2992 25.1823 14.1681 28.7213 14.1681Z" stroke="white" stroke-width="2.30441" stroke-miterlimit="10" stroke-linecap="round" stroke-linejoin="round"/>
<path d="M35.129 7.76025C35.129 14.8088 29.362 20.5758 22.3135 20.5758" stroke="white" stroke-width="2.30441" stroke-miterlimit="10" stroke-linecap="round" stroke-linejoin="round"/>
<path d="M8.40778 14.1681C11.9467 14.1681 14.8156 11.2992 14.8156 7.76032C14.8156 4.2214 11.9467 1.35254 8.40778 1.35254C4.86886 1.35254 2 4.2214 2 7.76032C2 11.2992 4.86886 14.1681 8.40778 14.1681Z" stroke="white" stroke-width="2.30441" stroke-miterlimit="10" stroke-linecap="round" stroke-linejoin="round"/>
<path d="M14.8156 7.76025C14.8156 14.8088 9.04856 20.5758 2 20.5758" stroke="white" stroke-width="2.30441" stroke-miterlimit="10" stroke-linecap="round" stroke-linejoin="round"/>
</svg>
