<svg width="29" height="29" viewBox="0 0 29 29" fill="none" xmlns="http://www.w3.org/2000/svg">
<g clip-path="url(#clip0_1175_825)">
<path fill-rule="evenodd" clip-rule="evenodd" d="M15.891 24.6329V21.1358C15.891 20.492 15.3691 19.9701 14.7253 19.9701H13.5596C12.9158 19.9701 12.3939 20.492 12.3939 21.1358V24.6329H5.98242V4.8158C5.98242 3.52819 7.02624 2.48438 8.31385 2.48438H19.971C21.2586 2.48438 22.3024 3.52819 22.3024 4.8158V24.6329H15.891ZM10.6453 4.8158C10.0015 4.8158 9.47956 5.33771 9.47956 5.98152V7.14723C9.47956 7.79104 10.0015 8.31295 10.6453 8.31295H11.811C12.4548 8.31295 12.9767 7.79104 12.9767 7.14723V5.98152C12.9767 5.33771 12.4548 4.8158 11.811 4.8158H10.6453ZM16.4739 4.8158C15.83 4.8158 15.3081 5.33771 15.3081 5.98152V7.14723C15.3081 7.79104 15.83 8.31295 16.4739 8.31295H17.6396C18.2834 8.31295 18.8053 7.79104 18.8053 7.14723V5.98152C18.8053 5.33771 18.2834 4.8158 17.6396 4.8158H16.4739ZM10.6453 9.47866C10.0015 9.47866 9.47956 10.0006 9.47956 10.6444V11.8101C9.47956 12.4539 10.0015 12.9758 10.6453 12.9758H11.811C12.4548 12.9758 12.9767 12.4539 12.9767 11.8101V10.6444C12.9767 10.0006 12.4548 9.47866 11.811 9.47866H10.6453ZM10.6453 14.1415C10.0015 14.1415 9.47956 14.6634 9.47956 15.3072V16.4729C9.47956 17.1168 10.0015 17.6387 10.6453 17.6387H11.811C12.4548 17.6387 12.9767 17.1168 12.9767 16.4729V15.3072C12.9767 14.6634 12.4548 14.1415 11.811 14.1415H10.6453ZM16.4739 14.1415C15.83 14.1415 15.3081 14.6634 15.3081 15.3072V16.4729C15.3081 17.1168 15.83 17.6387 16.4739 17.6387H17.6396C18.2834 17.6387 18.8053 17.1168 18.8053 16.4729V15.3072C18.8053 14.6634 18.2834 14.1415 17.6396 14.1415H16.4739Z" fill="#2F80ED"/>
<path d="M17.64 9.47852H16.4743C15.8305 9.47852 15.3086 10.0004 15.3086 10.6442V11.8099C15.3086 12.4538 15.8305 12.9757 16.4743 12.9757H17.64C18.2838 12.9757 18.8057 12.4538 18.8057 11.8099V10.6442C18.8057 10.0004 18.2838 9.47852 17.64 9.47852Z" fill="#2F80ED"/>
<path opacity="0.3" fill-rule="evenodd" clip-rule="evenodd" d="M4.81708 24.6328H23.4685C24.1123 24.6328 24.6342 25.1547 24.6342 25.7985V26.2648C24.6342 26.6511 24.3211 26.9642 23.9348 26.9642H4.3508C3.96451 26.9642 3.65137 26.6511 3.65137 26.2648V25.7985C3.65137 25.1547 4.17328 24.6328 4.81708 24.6328Z" fill="#2F80ED"/>
</g>
<defs>
<clipPath id="clip0_1175_825">
<rect width="27.9771" height="27.9771" fill="white" transform="translate(0.154297 0.152344)"/>
</clipPath>
</defs>
</svg>
