<svg width="80" height="80" viewBox="0 0 80 80" fill="none" xmlns="http://www.w3.org/2000/svg">
<g clip-path="url(#clip0_1335_887)">
<path opacity="0.05" d="M40 80C62.0914 80 80 62.0914 80 40C80 17.9086 62.0914 0 40 0C17.9086 0 0 17.9086 0 40C0 62.0914 17.9086 80 40 80Z" fill="#2F80ED"/>
<path d="M53.9062 60.818H50.1255L52.4748 51.4391C52.5781 51.0244 52.4858 50.5852 52.2222 50.2491C51.9587 49.9116 51.5541 49.715 51.1248 49.715H23.3123C22.8831 49.715 22.4784 49.9116 22.215 50.2491C21.9516 50.5852 21.8592 51.0242 21.9623 51.4391L24.3117 60.818H20.5312C19.7627 60.818 19.1406 61.4388 19.1406 62.2058C19.1406 62.9728 19.7627 63.5936 20.5312 63.5936H53.9062C54.6748 63.5936 55.2969 62.9728 55.2969 62.2058C55.2969 61.4388 54.6748 60.818 53.9062 60.818ZM38.6094 58.0423H35.8281C35.0595 58.0423 34.4375 57.4216 34.4375 56.6545C34.4375 55.8875 35.0595 55.2667 35.8281 55.2667H38.6094C39.378 55.2667 40 55.8875 40 56.6545C40 57.4216 39.378 58.0423 38.6094 58.0423ZM42.7812 38.6122C42.7812 35.5505 40.2852 33.0608 37.2188 33.0608C34.1523 33.0608 31.6563 35.5505 31.6563 38.6122C31.6563 41.6739 34.1523 44.1636 37.2188 44.1636C40.2852 44.1636 42.7812 41.6737 42.7812 38.6122ZM51.125 16.4062C45.7581 16.4062 41.3906 20.765 41.3906 26.1212C41.3906 31.4777 45.7581 35.8364 51.125 35.8364C56.4919 35.8364 60.8594 31.4777 60.8594 26.1212C60.8594 20.765 56.4919 16.4062 51.125 16.4062ZM53.9062 27.5092H51.125C50.3564 27.5092 49.7344 26.8884 49.7344 26.1214V23.3456C49.7344 22.5784 50.3564 21.9578 51.125 21.9578C51.8936 21.9578 52.5156 22.5786 52.5156 23.3456V24.7334H53.9062C54.6748 24.7334 55.2969 25.3542 55.2969 26.1212C55.2969 26.8883 54.6748 27.5092 53.9062 27.5092ZM23.3206 27.4605C24.0866 27.4605 24.7112 28.0825 24.7112 28.8483C24.7112 29.9867 23.1359 30.6319 22.3402 29.8309C21.7969 29.2861 20.9142 29.2889 20.3709 29.8283C19.8277 30.3691 19.8277 31.2486 20.3683 31.7908C20.8128 32.2353 21.3458 32.5527 21.9219 32.7573V34.4486C21.9219 35.2156 22.5439 35.8364 23.3125 35.8364C24.0811 35.8364 24.7031 35.2156 24.7031 34.4486V32.7589C26.3223 32.1864 27.4925 30.6583 27.4925 28.8484C27.4925 26.5525 25.6211 24.6848 23.3206 24.6848C22.5547 24.6848 21.93 24.0628 21.93 23.297C21.93 22.1584 23.5027 21.5133 24.3011 22.3144C24.8444 22.8592 25.727 22.8566 26.2703 22.3172C26.8136 21.7764 26.8136 20.8967 26.273 20.3545C25.8277 19.9094 25.2936 19.5919 24.7167 19.3872V17.8498C24.7167 17.0827 24.0947 16.462 23.3261 16.462C22.5575 16.462 21.9355 17.0828 21.9355 17.8498V19.3873C20.3177 19.9605 19.1488 21.4881 19.1488 23.297C19.1488 25.5927 21.0202 27.4605 23.3206 27.4605ZM42.7812 44.1636H37.2188H31.6563C29.8456 44.1636 28.3166 45.3273 27.7405 46.9394H46.6969C46.1209 45.3273 44.5919 44.1636 42.7812 44.1636Z" fill="#2F80ED"/>
</g>
<defs>
<clipPath id="clip0_1335_887">
<rect width="80" height="80" fill="white"/>
</clipPath>
</defs>
</svg>
