<svg width="80" height="80" viewBox="0 0 80 80" fill="none" xmlns="http://www.w3.org/2000/svg">
<g clip-path="url(#clip0_1335_859)">
<path opacity="0.05" d="M40 80C62.0914 80 80 62.0914 80 40C80 17.9086 62.0914 0 40 0C17.9086 0 0 17.9086 0 40C0 62.0914 17.9086 80 40 80Z" fill="#2F80ED"/>
<path d="M62.2058 58.0423H58.0422V37.2242C58.0422 36.457 57.4214 35.8364 56.6544 35.8364H51.1028C50.3356 35.8364 49.715 36.4572 49.715 37.2242V58.0422H46.9392V42.7756C46.9392 42.0084 46.3184 41.3878 45.5514 41.3878H39.9998C39.2327 41.3878 38.612 42.0086 38.612 42.7756V58.0422H35.8363V48.327C35.8363 47.56 35.2155 46.9392 34.4484 46.9392H28.8969C28.1298 46.9392 27.5091 47.56 27.5091 48.327V58.0422H21.9575V17.7941C21.9575 17.0269 21.3367 16.4062 20.5697 16.4062C19.8027 16.4062 19.1819 17.027 19.1819 17.7941V58.0422H17.7941C17.0269 58.0422 16.4062 58.663 16.4062 59.43C16.4062 60.197 17.027 60.8178 17.7941 60.8178H19.1819V62.2056C19.1819 62.9728 19.8027 63.5934 20.5697 63.5934C21.3369 63.5934 21.9575 62.9727 21.9575 62.2056V60.8178H62.2056C62.9728 60.8178 63.5934 60.197 63.5934 59.43C63.5934 58.663 62.9728 58.0423 62.2058 58.0423ZM28.905 27.4605C29.6694 27.4605 30.2928 28.0825 30.2928 28.8483C30.2928 29.9853 28.7233 30.6305 27.9264 29.8309C27.3842 29.2861 26.5033 29.2889 25.9611 29.8283C25.4189 30.3691 25.4189 31.2486 25.9584 31.7908C26.4022 32.2353 26.9339 32.5527 27.5089 32.7573V34.4486C27.5089 35.2156 28.1297 35.8364 28.8967 35.8364C29.6639 35.8364 30.2845 35.2156 30.2845 34.4486V32.7589C31.9006 32.1864 33.0684 30.6583 33.0684 28.8484C33.0684 26.5525 31.2008 24.6848 28.9048 24.6848C28.1405 24.6848 27.517 24.0628 27.517 23.297C27.517 22.1584 29.0866 21.5161 29.8834 22.3144C30.4256 22.8592 31.3066 22.8566 31.8487 22.3172C32.3909 21.7764 32.3909 20.8967 31.8514 20.3545C31.407 19.9094 30.8741 19.5919 30.2981 19.3872V17.8498C30.2981 17.0827 29.6773 16.462 28.9103 16.462C28.1433 16.462 27.5225 17.0828 27.5225 17.8498V19.3873C25.908 19.9605 24.7414 21.4881 24.7414 23.297C24.7414 25.5927 26.6091 27.4605 28.905 27.4605ZM48.327 27.5092H49.0409L30.938 38.8236C30.2873 39.2289 30.0895 40.0855 30.4961 40.7359C30.9058 41.3927 31.7689 41.5791 32.407 41.1764L50.4322 29.9106L49.8611 31.052C49.5195 31.7378 49.7959 32.5714 50.4819 32.9142C51.1831 33.2602 52.0056 32.9684 52.3441 32.2934L55.1198 26.742C55.5441 25.8936 54.9505 24.7334 53.8783 24.7334H48.3269C47.5597 24.7334 46.9389 25.3542 46.9389 26.1212C46.9389 26.8883 47.56 27.5092 48.327 27.5092Z" fill="#2F80ED"/>
</g>
<defs>
<clipPath id="clip0_1335_859">
<rect width="80" height="80" fill="white"/>
</clipPath>
</defs>
</svg>
