<svg width="169" height="51" viewBox="0 0 169 51" fill="none" xmlns="http://www.w3.org/2000/svg">
<g clip-path="url(#clip0_1063_2070)">
<path d="M162.5 50.0684H6.24C2.82 50.0684 0 47.2484 0 43.8084V6.30836C0 2.88836 2.82 0.0683594 6.24 0.0683594H162.48C165.92 0.0683594 168.72 2.88836 168.72 6.30836V43.8084C168.74 47.2484 165.94 50.0684 162.5 50.0684Z" fill="black"/>
<path d="M85.1603 27.2482C82.2203 27.2482 79.8203 29.4882 79.8203 32.5682C79.8203 35.6282 82.2203 37.8882 85.1603 37.8882C88.1003 37.8882 90.5003 35.6282 90.5003 32.5682C90.5003 29.4882 88.1003 27.2482 85.1603 27.2482ZM85.1603 35.7882C83.5403 35.7882 82.1603 34.4682 82.1603 32.5682C82.1603 30.6482 83.5403 29.3482 85.1603 29.3482C86.7803 29.3482 88.1603 30.6482 88.1603 32.5682C88.1603 34.4682 86.7803 35.7882 85.1603 35.7882ZM73.5203 27.2482C70.5803 27.2482 68.1803 29.4882 68.1803 32.5682C68.1803 35.6282 70.5803 37.8882 73.5203 37.8882C76.4603 37.8882 78.8603 35.6282 78.8603 32.5682C78.8603 29.4882 76.4603 27.2482 73.5203 27.2482ZM73.5203 35.7882C71.9003 35.7882 70.5203 34.4682 70.5203 32.5682C70.5203 30.6482 71.9003 29.3482 73.5203 29.3482C75.1403 29.3482 76.5203 30.6482 76.5203 32.5682C76.5203 34.4682 75.1403 35.7882 73.5203 35.7882ZM59.6803 28.8882V31.1482H65.0803C64.9203 32.4082 64.5003 33.3482 63.8603 33.9882C63.0803 34.7682 61.8403 35.6482 59.7003 35.6482C56.3803 35.6482 53.7803 32.9682 53.7803 29.6482C53.7803 26.3282 56.3803 23.6482 59.7003 23.6482C61.5003 23.6482 62.8003 24.3482 63.7603 25.2682L65.3603 23.6682C64.0203 22.3882 62.2203 21.3882 59.7003 21.3882C55.1403 21.3882 51.3203 25.0882 51.3203 29.6482C51.3203 34.2082 55.1403 37.9082 59.7003 37.9082C62.1603 37.9082 64.0003 37.1082 65.4603 35.5882C66.9603 34.0882 67.4203 32.0082 67.4203 30.3082C67.4203 29.7882 67.3803 29.3082 67.3003 28.9082H59.6803V28.8882ZM116.32 30.6482C115.88 29.4682 114.52 27.2682 111.76 27.2682C109.02 27.2682 106.74 29.4282 106.74 32.5882C106.74 35.5682 109 37.9082 112.02 37.9082C114.46 37.9082 115.86 36.4082 116.46 35.5482L114.64 34.3482C114.04 35.2282 113.22 35.8082 112.02 35.8082C110.84 35.8082 109.98 35.2682 109.44 34.1882L116.54 31.2482L116.32 30.6482ZM109.06 32.4082C109 30.3482 110.66 29.3082 111.84 29.3082C112.76 29.3082 113.56 29.7682 113.82 30.4282L109.06 32.4082ZM103.28 37.5682H105.62V21.9482H103.28V37.5682ZM99.4603 28.4482H99.3803C98.8603 27.8282 97.8403 27.2682 96.5803 27.2682C93.9203 27.2682 91.4803 29.6082 91.4803 32.6082C91.4803 35.5882 93.9203 37.9082 96.5803 37.9082C97.8403 37.9082 98.8603 37.3482 99.3803 36.7082H99.4603V37.4682C99.4603 39.5082 98.3803 40.5882 96.6203 40.5882C95.2003 40.5882 94.3003 39.5682 93.9403 38.6882L91.9003 39.5282C92.4803 40.9282 94.0403 42.6682 96.6203 42.6682C99.3603 42.6682 101.68 41.0482 101.68 37.1282V27.5882H99.4603V28.4482ZM96.7803 35.7882C95.1603 35.7882 93.8203 34.4482 93.8203 32.5882C93.8203 30.7082 95.1603 29.3482 96.7803 29.3482C98.3803 29.3482 99.6203 30.7082 99.6203 32.5882C99.6203 34.4482 98.3803 35.7882 96.7803 35.7882ZM127.26 21.9482H121.68V37.5682H124V31.6482H127.26C129.84 31.6482 132.38 29.7682 132.38 26.7882C132.38 23.8082 129.84 21.9482 127.26 21.9482ZM127.32 29.4682H124V24.1082H127.32C129.06 24.1082 130.06 25.5482 130.06 26.7882C130.06 28.0082 129.06 29.4682 127.32 29.4682ZM141.74 27.2282C140.06 27.2282 138.3 27.9682 137.58 29.6282L139.66 30.4882C140.1 29.6282 140.92 29.3482 141.8 29.3482C143 29.3482 144.24 30.0682 144.26 31.3682V31.5282C143.84 31.2882 142.94 30.9282 141.82 30.9282C139.58 30.9282 137.32 32.1482 137.32 34.4482C137.32 36.5482 139.14 37.8882 141.2 37.8882C142.76 37.8882 143.64 37.1882 144.18 36.3682H144.26V37.5682H146.52V31.5682C146.48 28.7682 144.4 27.2282 141.74 27.2282ZM141.44 35.7882C140.68 35.7882 139.62 35.4082 139.62 34.4682C139.62 33.2682 140.94 32.8082 142.1 32.8082C143.12 32.8082 143.6 33.0282 144.24 33.3282C144.04 34.7682 142.8 35.7882 141.44 35.7882ZM154.68 27.5682L152 34.3482H151.92L149.14 27.5682H146.62L150.78 37.0282L148.4 42.2882H150.84L157.26 27.5482H154.68V27.5682ZM133.66 37.5682H136V21.9482H133.66V37.5682Z" fill="white"/>
<path d="M13.0409 9.4882C12.6809 9.8682 12.4609 10.4682 12.4609 11.2482V38.8882C12.4609 39.6682 12.6809 40.2682 13.0409 40.6482L13.1409 40.7482L28.6209 25.2682V25.0682V24.8882L13.1409 9.4082L13.0409 9.4882Z" fill="url(#paint0_linear_1063_2070)"/>
<path d="M33.7811 30.4083L28.6211 25.2483V25.0683V24.8883L33.7811 19.7283L33.9011 19.7883L40.0211 23.2683C41.7611 24.2683 41.7611 25.8883 40.0211 26.8683L33.9011 30.3483L33.7811 30.4083Z" fill="url(#paint1_linear_1063_2070)"/>
<path d="M33.8991 30.3484L28.6191 25.0684L13.0391 40.6484C13.6191 41.2484 14.5591 41.3284 15.6391 40.7284L33.8991 30.3484Z" fill="url(#paint2_linear_1063_2070)"/>
<path d="M33.8991 19.7883L15.6391 9.40826C14.5591 8.80826 13.6191 8.86826 13.0391 9.48826L28.6191 25.0683L33.8991 19.7883Z" fill="url(#paint3_linear_1063_2070)"/>
<path opacity="0.2" d="M33.7791 30.2283L15.6391 40.5283C14.6191 41.1083 13.7191 41.0683 13.1391 40.5483L13.0391 40.6483L13.1391 40.7483C13.7191 41.2683 14.6191 41.3083 15.6391 40.7283L33.8991 30.3483L33.7791 30.2283Z" fill="black"/>
<path opacity="0.12" d="M13.0409 40.4683C12.6809 40.0883 12.4609 39.4883 12.4609 38.7083V38.8883C12.4609 39.6683 12.6809 40.2683 13.0409 40.6483L13.1409 40.5483L13.0409 40.4683Z" fill="black"/>
<path opacity="0.12" d="M40.0213 26.6884L33.7812 30.2284L33.9013 30.3484L40.0213 26.8684C40.9013 26.3684 41.3413 25.7084 41.3413 25.0684C41.2613 25.6684 40.8213 26.2484 40.0213 26.6884Z" fill="black"/>
<path opacity="0.25" d="M15.6409 9.58824L40.0209 23.4282C40.8209 23.8682 41.2609 24.4482 41.3409 25.0482C41.3409 24.3882 40.9009 23.7482 40.0209 23.2482L15.6409 9.40824C13.9009 8.40824 12.4609 9.24824 12.4609 11.2482V11.4282C12.4609 9.42824 13.9009 8.60824 15.6409 9.58824Z" fill="white"/>
<path d="M53.8809 16.4482H51.4609V8.68823H53.8809C55.0609 8.68823 56.0209 9.04823 56.7409 9.76823C57.4609 10.4882 57.8209 11.4282 57.8209 12.5682C57.8209 13.7082 57.4609 14.6482 56.7409 15.3682C56.0209 16.0882 55.0609 16.4482 53.8809 16.4482ZM52.6809 15.2682H53.8809C54.7009 15.2682 55.3809 15.0282 55.8609 14.5682C56.3409 14.1082 56.5809 13.4282 56.5809 12.5682C56.5809 11.7282 56.3409 11.0482 55.8609 10.5682C55.3809 10.0882 54.7209 9.84823 53.8809 9.84823H52.6809V15.2682Z" fill="white"/>
<path d="M60.1184 16.4485H58.8984V8.68848H60.1184V16.4485Z" fill="white"/>
<path d="M63.8225 16.6083C63.2625 16.6083 62.7025 16.4283 62.1625 16.0483C61.6225 15.6683 61.2625 15.1483 61.0825 14.4683L61.0625 14.3683L62.1825 13.9083L62.2225 14.0483C62.3225 14.4283 62.5225 14.7683 62.8225 15.0283C63.1225 15.2883 63.4625 15.4283 63.8425 15.4283C64.2425 15.4283 64.5625 15.3283 64.8425 15.1283C65.1025 14.9283 65.2425 14.6683 65.2425 14.3283C65.2425 13.9483 65.1225 13.6683 64.8425 13.4683C64.5625 13.2483 64.1025 13.0483 63.4825 12.8483C62.8025 12.6283 62.2825 12.3483 61.9225 12.0083C61.5625 11.6483 61.3625 11.1883 61.3625 10.6483C61.3625 10.0683 61.5825 9.5683 62.0425 9.1483C62.4825 8.7283 63.0825 8.5083 63.8025 8.5083C64.4625 8.5083 65.0025 8.6683 65.4225 9.0083C65.8425 9.3483 66.1225 9.7083 66.2425 10.1083L66.2825 10.2083L65.1625 10.6683L65.1225 10.5283C65.0625 10.3083 64.9225 10.1083 64.7025 9.9283C64.4825 9.7483 64.1825 9.6483 63.8225 9.6483C63.4825 9.6483 63.1825 9.7483 62.9625 9.9283C62.7225 10.1083 62.6225 10.3283 62.6225 10.6083C62.6225 10.8483 62.7225 11.0483 62.9425 11.2083C63.1825 11.3883 63.5225 11.5483 63.9625 11.7083C64.3425 11.8283 64.6425 11.9483 64.9025 12.0683C65.1625 12.1883 65.4225 12.3283 65.6825 12.5283C65.9425 12.7283 66.1625 12.9683 66.3025 13.2683C66.4425 13.5683 66.5025 13.9083 66.5025 14.2883C66.5025 14.6683 66.4225 15.0083 66.2625 15.3283C66.1025 15.6283 65.8825 15.8683 65.6225 16.0483C65.3625 16.2283 65.0825 16.3483 64.7825 16.4483C64.4425 16.5683 64.1425 16.6083 63.8225 16.6083Z" fill="white"/>
<path d="M68.7981 16.4485H67.5781V8.68848H70.2581C70.9181 8.68848 71.4981 8.90848 71.9981 9.34848C72.4781 9.78848 72.7381 10.3685 72.7381 11.0485C72.7381 11.7285 72.4981 12.2885 71.9981 12.7285C71.5181 13.1685 70.9381 13.3885 70.2581 13.3885H68.7981V16.4485ZM68.7981 12.2285H70.2781C70.6581 12.2285 70.9381 12.1085 71.1581 11.8685C71.3781 11.6085 71.4981 11.3485 71.4981 11.0485C71.4981 10.7485 71.3981 10.4885 71.1581 10.2285C70.9381 9.98848 70.6581 9.86848 70.2781 9.86848H68.7981V12.2285Z" fill="white"/>
<path d="M77.2222 16.6083C76.1022 16.6083 75.1422 16.2083 74.3822 15.4283C73.6222 14.6483 73.2422 13.6883 73.2422 12.5683C73.2422 11.4483 73.6222 10.4683 74.3822 9.70832C75.1422 8.92832 76.1022 8.52832 77.2222 8.52832C78.3422 8.52832 79.3022 8.92832 80.0622 9.70832C80.8222 10.4883 81.2022 11.4483 81.2022 12.5683C81.2022 13.6883 80.8222 14.6483 80.0622 15.4283C79.3022 16.2083 78.3422 16.6083 77.2222 16.6083ZM75.2622 14.6283C75.7822 15.1683 76.4422 15.4283 77.2022 15.4283C77.9622 15.4283 78.6222 15.1483 79.1422 14.6283C79.6622 14.0883 79.9422 13.3883 79.9422 12.5683C79.9422 11.7483 79.6822 11.0483 79.1422 10.5083C78.6222 9.96832 77.9622 9.70832 77.2022 9.70832C76.4422 9.70832 75.7822 9.98832 75.2622 10.5083C74.7422 11.0483 74.4622 11.7483 74.4622 12.5683C74.4622 13.3883 74.7422 14.0883 75.2622 14.6283Z" fill="white"/>
<path d="M88.3213 16.4485H87.1213L87.0813 16.3885L83.4612 10.5885L83.5013 11.6485V16.4485H82.2812V8.68848H83.6413L87.1413 14.2685L87.1213 13.2085V8.68848H88.3413V16.4485H88.3213Z" fill="white"/>
<path d="M91.0008 16.4482H89.8008V8.68823H91.0208V16.4482H91.0008Z" fill="white"/>
<path d="M95.4605 16.4485H92.4805V8.68848H95.3205C95.9405 8.68848 96.4805 8.88848 96.9205 9.30848C97.3805 9.72848 97.6005 10.2485 97.6005 10.8685C97.6005 11.2485 97.5005 11.5885 97.3005 11.8885C97.1405 12.1085 96.9405 12.3085 96.7205 12.4485C97.0205 12.5885 97.2805 12.7885 97.4805 13.0485C97.7405 13.3685 97.8605 13.7685 97.8605 14.1885C97.8605 14.8285 97.6205 15.3885 97.1405 15.8085C96.6805 16.2285 96.1005 16.4485 95.4605 16.4485ZM93.6805 15.2685H95.5005C95.8405 15.2685 96.1005 15.1485 96.3005 14.9285C96.5205 14.6885 96.6205 14.4485 96.6205 14.1685C96.6205 13.8885 96.5205 13.6485 96.3005 13.4085C96.0805 13.1685 95.8205 13.0685 95.4605 13.0685H93.6805V15.2685ZM93.6805 11.9085H95.3005C95.6405 11.9085 95.8805 11.8085 96.0805 11.5885C96.2805 11.3685 96.3805 11.1485 96.3805 10.8885C96.3805 10.6285 96.2805 10.4085 96.1005 10.1885C95.9005 9.96848 95.6605 9.86848 95.3605 9.86848H93.7005V11.9085H93.6805Z" fill="white"/>
<path d="M100.118 16.4485H98.8984V8.68848H100.118V16.4485Z" fill="white"/>
<path d="M106.062 16.4485H101.602V8.68848H102.822V15.2685H106.062V16.4485Z" fill="white"/>
<path d="M111.643 16.4485H107.023V8.68848H111.643V9.86848H108.223V11.9885H111.303V13.1485H108.223V15.2685H111.643V16.4485Z" fill="white"/>
<path d="M117.338 16.6083C116.778 16.6083 116.218 16.4283 115.678 16.0483C115.138 15.6683 114.778 15.1483 114.598 14.4683L114.578 14.3683L115.698 13.9083L115.738 14.0483C115.838 14.4283 116.038 14.7683 116.338 15.0283C116.638 15.2883 116.978 15.4283 117.358 15.4283C117.758 15.4283 118.078 15.3283 118.358 15.1283C118.618 14.9283 118.758 14.6683 118.758 14.3283C118.758 13.9483 118.638 13.6683 118.358 13.4683C118.078 13.2483 117.618 13.0483 116.998 12.8483C116.318 12.6283 115.798 12.3483 115.438 12.0083C115.078 11.6483 114.878 11.1883 114.878 10.6483C114.878 10.0683 115.098 9.5683 115.558 9.1483C115.998 8.7283 116.598 8.5083 117.318 8.5083C117.978 8.5083 118.518 8.6683 118.938 9.0083C119.358 9.3483 119.638 9.7083 119.758 10.1083L119.798 10.2083L118.678 10.6683L118.638 10.5283C118.578 10.3083 118.438 10.1083 118.218 9.9283C117.998 9.7483 117.698 9.6483 117.338 9.6483C116.998 9.6483 116.698 9.7483 116.458 9.9283C116.218 10.1083 116.118 10.3283 116.118 10.6083C116.118 10.8483 116.218 11.0483 116.438 11.2083C116.658 11.3883 117.018 11.5483 117.458 11.7083C117.838 11.8283 118.138 11.9483 118.398 12.0683C118.658 12.1883 118.918 12.3283 119.178 12.5283C119.458 12.7283 119.658 12.9683 119.798 13.2683C119.938 13.5683 119.998 13.9083 119.998 14.2883C119.998 14.6683 119.918 15.0083 119.758 15.3283C119.598 15.6483 119.378 15.8683 119.118 16.0483C118.858 16.2283 118.578 16.3483 118.278 16.4483C117.958 16.5683 117.658 16.6083 117.338 16.6083Z" fill="white"/>
<path d="M123.841 16.6085C122.981 16.6085 122.281 16.3285 121.741 15.7485C121.201 15.1885 120.941 14.4285 120.941 13.5285V8.68848H122.161V13.5685C122.161 14.1285 122.301 14.5885 122.601 14.9285C122.881 15.2685 123.301 15.4285 123.861 15.4285C124.401 15.4285 124.821 15.2685 125.101 14.9285C125.381 14.5885 125.541 14.1285 125.541 13.5685V8.68848H126.761V13.5285C126.761 14.4485 126.501 15.1885 125.981 15.7485C125.441 16.3285 124.721 16.6085 123.841 16.6085Z" fill="white"/>
</g>
<defs>
<linearGradient id="paint0_linear_1063_2070" x1="27.2504" y1="10.9554" x2="6.27246" y2="31.9333" gradientUnits="userSpaceOnUse">
<stop stop-color="#00A0FF"/>
<stop offset="0.00657445" stop-color="#00A1FF"/>
<stop offset="0.2601" stop-color="#00BEFF"/>
<stop offset="0.5122" stop-color="#00D2FF"/>
<stop offset="0.7604" stop-color="#00DFFF"/>
<stop offset="1" stop-color="#00E3FF"/>
</linearGradient>
<linearGradient id="paint1_linear_1063_2070" x1="42.2937" y1="25.0701" x2="12.0478" y2="25.0701" gradientUnits="userSpaceOnUse">
<stop stop-color="#FFE000"/>
<stop offset="0.4087" stop-color="#FFBD00"/>
<stop offset="0.7754" stop-color="#FFA500"/>
<stop offset="1" stop-color="#FF9C00"/>
</linearGradient>
<linearGradient id="paint2_linear_1063_2070" x1="31.0325" y1="27.9385" x2="2.58476" y2="56.3862" gradientUnits="userSpaceOnUse">
<stop stop-color="#FF3A44"/>
<stop offset="1" stop-color="#C31162"/>
</linearGradient>
<linearGradient id="paint3_linear_1063_2070" x1="9.12054" y1="0.288601" x2="21.8236" y2="12.9917" gradientUnits="userSpaceOnUse">
<stop stop-color="#32A071"/>
<stop offset="0.0685" stop-color="#2DA771"/>
<stop offset="0.4762" stop-color="#15CF74"/>
<stop offset="0.8009" stop-color="#06E775"/>
<stop offset="1" stop-color="#00F076"/>
</linearGradient>
<clipPath id="clip0_1063_2070">
<rect width="168.74" height="50" fill="white" transform="translate(0 0.0683594)"/>
</clipPath>
</defs>
</svg>
