<svg width="169" height="51" viewBox="0 0 169 51" fill="none" xmlns="http://www.w3.org/2000/svg">
<g clip-path="url(#clip0_1063_2037)">
<path d="M167.541 44.1532C167.541 46.7982 165.398 48.9407 162.748 48.9407H5.91203C3.26328 48.9407 1.11328 46.7982 1.11328 44.1532V5.97441C1.11328 3.33066 3.26328 1.18066 5.91203 1.18066H162.747C165.398 1.18066 167.54 3.33066 167.54 5.97441L167.541 44.1532Z" fill="black"/>
<path d="M37.6623 24.7986C37.6261 20.7699 40.9611 18.8099 41.1136 18.7186C39.2248 15.9649 36.2973 15.5886 35.2686 15.5586C32.8098 15.2999 30.4248 17.0299 29.1723 17.0299C27.8948 17.0299 25.9661 15.5836 23.8873 15.6261C21.2123 15.6674 18.7098 17.2161 17.3373 19.6211C14.5048 24.5249 16.6173 31.7311 19.3311 35.6949C20.6886 37.6361 22.2748 39.8036 24.3511 39.7274C26.3823 39.6436 27.1411 38.4324 29.5923 38.4324C32.0211 38.4324 32.7336 39.7274 34.8511 39.6786C37.0311 39.6436 38.4036 37.7286 39.7136 35.7699C41.2823 33.5449 41.9123 31.3536 41.9373 31.2411C41.8861 31.2236 37.7036 29.6274 37.6623 24.7986Z" fill="white"/>
<path d="M33.6637 12.9511C34.7562 11.5848 35.5037 9.72609 35.2962 7.83984C33.715 7.90984 31.7375 8.93359 30.5987 10.2698C29.5912 11.4473 28.6912 13.3773 28.9237 15.1923C30.7 15.3248 32.5237 14.2961 33.6637 12.9511Z" fill="white"/>
<path d="M67.0555 39.4485H64.2167L62.6617 34.5622H57.2567L55.7755 39.4485H53.0117L58.3667 22.8135H61.6742L67.0555 39.4485ZM62.193 32.5122L60.7867 28.1685C60.638 27.7247 60.3592 26.6797 59.948 25.0347H59.898C59.7342 25.7422 59.4705 26.7872 59.108 28.1685L57.7267 32.5122H62.193Z" fill="white"/>
<path d="M80.8286 33.3033C80.8286 35.3433 80.2773 36.9558 79.1748 38.1395C78.1873 39.1933 76.9611 39.7195 75.4973 39.7195C73.9173 39.7195 72.7823 39.152 72.0911 38.017H72.0411V44.3358H69.3761V31.402C69.3761 30.1195 69.3423 28.8033 69.2773 27.4533H71.6211L71.7698 29.3545H71.8198C72.7086 27.922 74.0573 27.207 75.8673 27.207C77.2823 27.207 78.4636 27.7658 79.4086 28.8845C80.3561 30.0045 80.8286 31.477 80.8286 33.3033ZM78.1136 33.4008C78.1136 32.2333 77.8511 31.2708 77.3236 30.5133C76.7473 29.7233 75.9736 29.3283 75.0036 29.3283C74.3461 29.3283 73.7486 29.5483 73.2148 29.982C72.6798 30.4195 72.3298 30.9908 72.1661 31.6983C72.0836 32.0283 72.0423 32.2983 72.0423 32.5108V34.5108C72.0423 35.3833 72.3098 36.1195 72.8448 36.7208C73.3798 37.322 74.0748 37.622 74.9298 37.622C75.9336 37.622 76.7148 37.2345 77.2736 36.462C77.8336 35.6883 78.1136 34.6683 78.1136 33.4008Z" fill="white"/>
<path d="M94.6203 33.3038C94.6203 35.3438 94.0691 36.9563 92.9653 38.14C91.9791 39.1938 90.7528 39.72 89.2891 39.72C87.7091 39.72 86.5741 39.1525 85.8841 38.0175H85.8341V44.3363H83.1691V31.4025C83.1691 30.12 83.1353 28.8038 83.0703 27.4538H85.4141L85.5628 29.355H85.6128C86.5003 27.9225 87.8491 27.2075 89.6603 27.2075C91.0741 27.2075 92.2553 27.7663 93.2028 28.885C94.1466 30.005 94.6203 31.4775 94.6203 33.3038ZM91.9053 33.4013C91.9053 32.2338 91.6416 31.2713 91.1141 30.5138C90.5378 29.7238 89.7666 29.3288 88.7953 29.3288C88.1366 29.3288 87.5403 29.5488 87.0053 29.9825C86.4703 30.42 86.1216 30.9913 85.9578 31.6988C85.8766 32.0288 85.8341 32.2988 85.8341 32.5113V34.5113C85.8341 35.3838 86.1016 36.12 86.6341 36.7213C87.1691 37.3213 87.8641 37.6225 88.7216 37.6225C89.7253 37.6225 90.5066 37.235 91.0653 36.4625C91.6253 35.6888 91.9053 34.6688 91.9053 33.4013Z" fill="white"/>
<path d="M110.047 34.7836C110.047 36.1986 109.555 37.3498 108.569 38.2386C107.485 39.2098 105.977 39.6948 104.038 39.6948C102.248 39.6948 100.813 39.3498 99.7266 38.6586L100.344 36.4373C101.514 37.1448 102.798 37.4998 104.197 37.4998C105.2 37.4998 105.982 37.2723 106.543 36.8198C107.102 36.3673 107.38 35.7598 107.38 35.0023C107.38 34.3273 107.15 33.7586 106.689 33.2973C106.23 32.8361 105.464 32.4073 104.394 32.0111C101.482 30.9248 100.027 29.3336 100.027 27.2411C100.027 25.8736 100.537 24.7523 101.558 23.8798C102.575 23.0061 103.933 22.5698 105.63 22.5698C107.144 22.5698 108.402 22.8336 109.405 23.3598L108.739 25.5323C107.802 25.0223 106.742 24.7673 105.555 24.7673C104.618 24.7673 103.885 24.9986 103.36 25.4586C102.917 25.8698 102.694 26.3711 102.694 26.9648C102.694 27.6223 102.948 28.1661 103.458 28.5936C103.902 28.9886 104.708 29.4161 105.878 29.8773C107.309 30.4536 108.36 31.1273 109.037 31.8998C109.71 32.6698 110.047 33.6336 110.047 34.7836Z" fill="white"/>
<path d="M118.86 29.4536H115.922V35.2773C115.922 36.7586 116.44 37.4986 117.477 37.4986C117.953 37.4986 118.348 37.4573 118.661 37.3748L118.735 39.3986C118.21 39.5948 117.518 39.6936 116.662 39.6936C115.61 39.6936 114.787 39.3723 114.193 38.7311C113.602 38.0886 113.305 37.0111 113.305 35.4973V29.4511H111.555V27.4511H113.305V25.2548L115.922 24.4648V27.4511H118.86V29.4536Z" fill="white"/>
<path d="M132.112 33.3522C132.112 35.196 131.585 36.7097 130.532 37.8935C129.428 39.1122 127.963 39.7197 126.137 39.7197C124.377 39.7197 122.976 39.136 121.931 37.9685C120.886 36.801 120.363 35.3272 120.363 33.551C120.363 31.6922 120.901 30.1697 121.98 28.986C123.056 27.801 124.508 27.2085 126.335 27.2085C128.095 27.2085 129.511 27.7922 130.58 28.961C131.602 30.0947 132.112 31.5585 132.112 33.3522ZM129.347 33.4385C129.347 32.3322 129.111 31.3835 128.632 30.5922C128.073 29.6347 127.275 29.1572 126.24 29.1572C125.168 29.1572 124.355 29.636 123.796 30.5922C123.317 31.3847 123.081 32.3485 123.081 33.4885C123.081 34.5947 123.317 35.5435 123.796 36.3335C124.372 37.291 125.177 37.7685 126.216 37.7685C127.233 37.7685 128.032 37.281 128.608 36.3085C129.1 35.5022 129.347 34.5435 129.347 33.4385Z" fill="white"/>
<path d="M140.777 29.7975C140.513 29.7488 140.232 29.7238 139.937 29.7238C138.999 29.7238 138.274 30.0775 137.764 30.7863C137.321 31.4113 137.098 32.2013 137.098 33.155V39.4488H134.434L134.459 31.2313C134.459 29.8488 134.426 28.59 134.359 27.455H136.681L136.778 29.75H136.852C137.133 28.9613 137.577 28.3263 138.184 27.85C138.778 27.4213 139.419 27.2075 140.111 27.2075C140.357 27.2075 140.579 27.225 140.777 27.2563V29.7975Z" fill="white"/>
<path d="M152.695 32.8838C152.695 33.3613 152.664 33.7638 152.598 34.0926H144.603C144.634 35.2776 145.02 36.1838 145.763 36.8088C146.436 37.3676 147.308 37.6476 148.378 37.6476C149.561 37.6476 150.641 37.4588 151.613 37.0801L152.03 38.9301C150.895 39.4251 149.555 39.6713 148.009 39.6713C146.149 39.6713 144.689 39.1238 143.626 38.0301C142.566 36.9363 142.035 35.4676 142.035 33.6251C142.035 31.8163 142.529 30.3101 143.518 29.1088C144.553 27.8263 145.951 27.1851 147.711 27.1851C149.44 27.1851 150.749 27.8263 151.638 29.1088C152.341 30.1276 152.695 31.3876 152.695 32.8838ZM150.154 32.1926C150.171 31.4026 149.998 30.7201 149.636 30.1438C149.175 29.4026 148.466 29.0326 147.513 29.0326C146.641 29.0326 145.933 29.3938 145.391 30.1188C144.948 30.6951 144.684 31.3863 144.603 32.1913H150.154V32.1926Z" fill="white"/>
<path d="M61.3113 12.5795C61.3113 14.0507 60.87 15.1582 59.9888 15.902C59.1725 16.5882 58.0125 16.932 56.51 16.932C55.765 16.932 55.1275 16.8995 54.5938 16.8345V8.79573C55.29 8.68323 56.04 8.62573 56.85 8.62573C58.2813 8.62573 59.36 8.93698 60.0875 9.55948C60.9025 10.2632 61.3113 11.2695 61.3113 12.5795ZM59.93 12.6157C59.93 11.662 59.6775 10.9307 59.1725 10.4207C58.6675 9.91198 57.93 9.65698 56.9588 9.65698C56.5463 9.65698 56.195 9.68448 55.9038 9.74198V15.8532C56.065 15.8782 56.36 15.8895 56.7888 15.8895C57.7913 15.8895 58.565 15.6107 59.11 15.0532C59.655 14.4957 59.93 13.6832 59.93 12.6157Z" fill="white"/>
<path d="M68.6345 13.8647C68.6345 14.7709 68.3758 15.5134 67.8583 16.0959C67.3158 16.6947 66.597 16.9934 65.6995 16.9934C64.8345 16.9934 64.1458 16.7072 63.632 16.1322C63.1195 15.5584 62.8633 14.8347 62.8633 13.9622C62.8633 13.0497 63.127 12.3009 63.657 11.7197C64.187 11.1384 64.8995 10.8472 65.797 10.8472C66.662 10.8472 67.357 11.1334 67.8833 11.7072C68.3833 12.2647 68.6345 12.9847 68.6345 13.8647ZM67.2758 13.9072C67.2758 13.3634 67.1583 12.8972 66.9245 12.5084C66.6495 12.0384 66.2583 11.8034 65.7495 11.8034C65.2233 11.8034 64.8233 12.0384 64.5483 12.5084C64.3133 12.8972 64.197 13.3709 64.197 13.9309C64.197 14.4747 64.3145 14.9409 64.5483 15.3297C64.832 15.7997 65.227 16.0347 65.737 16.0347C66.237 16.0347 66.6295 15.7959 66.912 15.3172C67.1545 14.9209 67.2758 14.4509 67.2758 13.9072Z" fill="white"/>
<path d="M78.4555 10.9668L76.6117 16.8593H75.4117L74.648 14.3005C74.4542 13.6618 74.2967 13.0268 74.1742 12.3968H74.1505C74.0367 13.0443 73.8792 13.678 73.6767 14.3005L72.8655 16.8593H71.6517L69.918 10.9668H71.2642L71.9305 13.768C72.0917 14.4305 72.2242 15.0618 72.3305 15.6593H72.3542C72.4517 15.1668 72.613 14.5393 72.8405 13.7805L73.6767 10.968H74.7442L75.5455 13.7205C75.7392 14.3918 75.8967 15.038 76.018 15.6605H76.0542C76.143 15.0543 76.2767 14.408 76.4542 13.7205L77.1692 10.968H78.4555V10.9668Z" fill="white"/>
<path d="M85.247 16.8595H83.937V13.4845C83.937 12.4445 83.542 11.9245 82.7495 11.9245C82.3608 11.9245 82.047 12.067 81.8033 12.3533C81.562 12.6395 81.4395 12.977 81.4395 13.3633V16.8583H80.1295V12.6508C80.1295 12.1333 80.1133 11.572 80.082 10.9645H81.2333L81.2945 11.8858H81.3308C81.4833 11.5995 81.7108 11.3633 82.0095 11.1745C82.3645 10.9545 82.762 10.8433 83.197 10.8433C83.747 10.8433 84.2045 11.0208 84.5683 11.377C85.0208 11.8133 85.247 12.4645 85.247 13.3295V16.8595Z" fill="white"/>
<path d="M88.8595 16.8594H87.5508V8.26318H88.8595V16.8594Z" fill="white"/>
<path d="M96.572 13.8647C96.572 14.7709 96.3133 15.5134 95.7958 16.0959C95.2533 16.6947 94.5333 16.9934 93.637 16.9934C92.7708 16.9934 92.082 16.7072 91.5695 16.1322C91.057 15.5584 90.8008 14.8347 90.8008 13.9622C90.8008 13.0497 91.0645 12.3009 91.5945 11.7197C92.1245 11.1384 92.837 10.8472 93.7333 10.8472C94.5995 10.8472 95.2933 11.1334 95.8208 11.7072C96.3208 12.2647 96.572 12.9847 96.572 13.8647ZM95.212 13.9072C95.212 13.3634 95.0945 12.8972 94.8608 12.5084C94.587 12.0384 94.1945 11.8034 93.687 11.8034C93.1595 11.8034 92.7595 12.0384 92.4858 12.5084C92.2508 12.8972 92.1345 13.3709 92.1345 13.9309C92.1345 14.4747 92.252 14.9409 92.4858 15.3297C92.7695 15.7997 93.1645 16.0347 93.6745 16.0347C94.1745 16.0347 94.5658 15.7959 94.8483 15.3172C95.092 14.9209 95.212 14.4509 95.212 13.9072Z" fill="white"/>
<path d="M102.912 16.8597H101.735L101.638 16.1809H101.602C101.199 16.7222 100.625 16.9934 99.8805 16.9934C99.3242 16.9934 98.8742 16.8147 98.5355 16.4597C98.228 16.1372 98.0742 15.7359 98.0742 15.2597C98.0742 14.5397 98.3742 13.9909 98.978 13.6109C99.5805 13.2309 100.428 13.0447 101.519 13.0534V12.9434C101.519 12.1672 101.112 11.7797 100.295 11.7797C99.7142 11.7797 99.2017 11.9259 98.7592 12.2159L98.493 11.3559C99.0405 11.0172 99.7167 10.8472 100.514 10.8472C102.054 10.8472 102.827 11.6597 102.827 13.2847V15.4547C102.827 16.0434 102.855 16.5122 102.912 16.8597ZM101.552 14.8347V13.9259C100.107 13.9009 99.3842 14.2972 99.3842 15.1134C99.3842 15.4209 99.4667 15.6509 99.6355 15.8047C99.8042 15.9584 100.019 16.0347 100.275 16.0347C100.563 16.0347 100.832 15.9434 101.077 15.7622C101.323 15.5797 101.474 15.3484 101.53 15.0647C101.544 15.0009 101.552 14.9234 101.552 14.8347Z" fill="white"/>
<path d="M110.355 16.8594H109.193L109.132 15.9132H109.095C108.724 16.6332 108.092 16.9932 107.203 16.9932C106.493 16.9932 105.902 16.7144 105.433 16.1569C104.964 15.5994 104.73 14.8757 104.73 13.9869C104.73 13.0332 104.984 12.2607 105.494 11.6707C105.988 11.1207 106.593 10.8457 107.313 10.8457C108.104 10.8457 108.658 11.1119 108.973 11.6457H108.998V8.26318H110.309V15.2719C110.309 15.8457 110.324 16.3744 110.355 16.8594ZM108.998 14.3744V13.3919C108.998 13.2219 108.985 13.0844 108.962 12.9794C108.888 12.6644 108.729 12.3994 108.488 12.1857C108.244 11.9719 107.95 11.8644 107.612 11.8644C107.123 11.8644 106.74 12.0582 106.459 12.4469C106.18 12.8357 106.039 13.3319 106.039 13.9382C106.039 14.5207 106.173 14.9932 106.442 15.3569C106.725 15.7444 107.108 15.9382 107.587 15.9382C108.017 15.9382 108.36 15.7769 108.622 15.4532C108.874 15.1544 108.998 14.7944 108.998 14.3744Z" fill="white"/>
<path d="M121.56 13.8647C121.56 14.7709 121.302 15.5134 120.784 16.0959C120.242 16.6947 119.524 16.9934 118.625 16.9934C117.762 16.9934 117.073 16.7072 116.558 16.1322C116.045 15.5584 115.789 14.8347 115.789 13.9622C115.789 13.0497 116.053 12.3009 116.583 11.7197C117.113 11.1384 117.825 10.8472 118.724 10.8472C119.588 10.8472 120.284 11.1334 120.809 11.7072C121.309 12.2647 121.56 12.9847 121.56 13.8647ZM120.203 13.9072C120.203 13.3634 120.085 12.8972 119.852 12.5084C119.575 12.0384 119.185 11.8034 118.675 11.8034C118.15 11.8034 117.75 12.0384 117.474 12.5084C117.239 12.8972 117.123 13.3709 117.123 13.9309C117.123 14.4747 117.24 14.9409 117.474 15.3297C117.758 15.7997 118.153 16.0347 118.663 16.0347C119.163 16.0347 119.557 15.7959 119.839 15.3172C120.08 14.9209 120.203 14.4509 120.203 13.9072Z" fill="white"/>
<path d="M128.601 16.8595H127.292V13.4845C127.292 12.4445 126.898 11.9245 126.104 11.9245C125.715 11.9245 125.401 12.067 125.159 12.3533C124.916 12.6395 124.795 12.977 124.795 13.3633V16.8583H123.484V12.6508C123.484 12.1333 123.469 11.572 123.438 10.9645H124.587L124.649 11.8858H124.685C124.839 11.5995 125.066 11.3633 125.364 11.1745C125.72 10.9545 126.116 10.8433 126.553 10.8433C127.101 10.8433 127.559 11.0208 127.922 11.377C128.376 11.8133 128.601 12.4645 128.601 13.3295V16.8595Z" fill="white"/>
<path d="M137.417 11.9483H135.974V14.8108C135.974 15.5383 136.231 15.902 136.738 15.902C136.973 15.902 137.168 15.882 137.322 15.8408L137.356 16.8345C137.097 16.932 136.757 16.9808 136.338 16.9808C135.821 16.9808 135.418 16.8233 135.127 16.5083C134.834 16.1933 134.689 15.6633 134.689 14.9195V11.9483H133.828V10.967H134.689V9.88701L135.973 9.49951V10.9658H137.416V11.9483H137.417Z" fill="white"/>
<path d="M144.352 16.8594H143.041V13.5094C143.041 12.4532 142.646 11.9244 141.854 11.9244C141.247 11.9244 140.832 12.2307 140.604 12.8432C140.566 12.9719 140.543 13.1294 140.543 13.3144V16.8582H139.234V8.26318H140.543V11.8144H140.568C140.981 11.1682 141.572 10.8457 142.338 10.8457C142.881 10.8457 143.329 11.0232 143.686 11.3794C144.129 11.8232 144.352 12.4832 144.352 13.3557V16.8594Z" fill="white"/>
<path d="M151.508 13.6342C151.508 13.8692 151.491 14.0667 151.46 14.2279H147.531C147.548 14.8104 147.736 15.2542 148.1 15.5617C148.432 15.8367 148.861 15.9742 149.386 15.9742C149.967 15.9742 150.497 15.8817 150.975 15.6954L151.18 16.6054C150.621 16.8479 149.963 16.9692 149.202 16.9692C148.29 16.9692 147.571 16.7004 147.051 16.1629C146.528 15.6254 146.27 14.9042 146.27 13.9992C146.27 13.1104 146.511 12.3704 146.997 11.7804C147.505 11.1504 148.191 10.8354 149.057 10.8354C149.905 10.8354 150.548 11.1504 150.983 11.7804C151.335 12.2804 151.508 12.8992 151.508 13.6342ZM150.258 13.2954C150.268 12.9067 150.182 12.5717 150.005 12.2892C149.777 11.9254 149.431 11.7429 148.962 11.7429C148.535 11.7429 148.186 11.9204 147.92 12.2767C147.702 12.5604 147.573 12.8992 147.531 13.2954H150.258Z" fill="white"/>
</g>
<defs>
<clipPath id="clip0_1063_2037">
<rect width="168.75" height="50" fill="white" transform="translate(0 0.0683594)"/>
</clipPath>
</defs>
</svg>
