<svg width="23" height="14" viewBox="0 0 23 14" fill="none" xmlns="http://www.w3.org/2000/svg">
<path opacity="0.3" d="M17.875 5.62256C18.7725 5.62256 19.5 6.3501 19.5 7.24756C19.5 8.14502 18.7725 8.87256 17.875 8.87256L1.625 8.87256C0.727537 8.87256 0 8.14502 0 7.24756C0 6.3501 0.727537 5.62256 1.625 5.62256L17.875 5.62256Z" fill="white"/>
<path d="M15.101 10.9735C14.4663 11.6081 14.4663 12.637 15.101 13.2716C15.7356 13.9062 16.7644 13.9062 17.399 13.2716L22.274 8.39661C22.9087 7.76201 22.9087 6.73311 22.274 6.09851L17.399 1.22351C16.7644 0.588908 15.7356 0.588908 15.101 1.22351C14.4663 1.85811 14.4663 2.887 15.101 3.52161L18.8269 7.24756L15.101 10.9735Z" fill="white"/>
</svg>
