<svg width="23" height="14" viewBox="0 0 23 14" fill="none" xmlns="http://www.w3.org/2000/svg">
<path opacity="0.3" d="M4.875 8.87256C3.97754 8.87256 3.25 8.14502 3.25 7.24756C3.25 6.3501 3.97754 5.62256 4.875 5.62256L21.125 5.62256C22.0225 5.62256 22.75 6.35009 22.75 7.24756C22.75 8.14502 22.0225 8.87256 21.125 8.87256L4.875 8.87256Z" fill="#F0FBFF"/>
<path d="M7.64905 3.52161C8.28365 2.88701 8.28365 1.85811 7.64905 1.22351C7.01445 0.588908 5.98555 0.588908 5.35095 1.22351L0.47595 6.09851C-0.158652 6.73311 -0.158652 7.76201 0.47595 8.39661L5.35095 13.2716C5.98555 13.9062 7.01445 13.9062 7.64905 13.2716C8.28365 12.637 8.28365 11.6081 7.64905 10.9735L3.9231 7.24756L7.64905 3.52161Z" fill="#F0FBFF"/>
</svg>
