<svg xmlns="http://www.w3.org/2000/svg" viewBox="0 0 64 64"><g id="Layer_32" data-name="Layer 32"><rect x="3" y="31" width="59" height="30" style="fill:#f97878"/><path d="M41.939,3.124a14.941,14.941,0,0,0-6.485.586,11.331,11.331,0,0,1-6.908,0,14.99,14.99,0,0,0-16.532,23.3,20.736,20.736,0,0,1,3.735,9.028c.807,4.711,1.886,11.005,2.575,15.023A4.745,4.745,0,0,0,23,55h0a4.745,4.745,0,0,0,4.676-3.942l2.487-14.509A1.863,1.863,0,0,1,32,35h0a1.863,1.863,0,0,1,1.837,1.549l2.487,14.509A4.745,4.745,0,0,0,41,55h0a4.738,4.738,0,0,0,4.675-3.937l2.577-15.032a20.719,20.719,0,0,1,3.734-9.024A14.99,14.99,0,0,0,41.939,3.124Z" style="fill:#c7ced1"/><rect x="28" y="17" width="8" height="8" rx="2" style="fill:#62b5e8"/><path d="M62,30H51.284a17.343,17.343,0,0,1,1.5-2.391A15.862,15.862,0,0,0,55.486,22H58V20H55.856a16.247,16.247,0,0,0,.024-3.992A16.121,16.121,0,0,0,42.065,2.131a15.923,15.923,0,0,0-6.918.627,10.382,10.382,0,0,1-6.295,0,15.908,15.908,0,0,0-6.887-.629A15.9,15.9,0,0,0,8.145,20H6v2H8.519a15.892,15.892,0,0,0,2.7,5.609A17.284,17.284,0,0,1,12.715,30H3a1,1,0,0,0-1,1V61a1,1,0,0,0,1,1H62a1,1,0,0,0,1-1V31A1,1,0,0,0,62,30ZM10.08,16.483A14.06,14.06,0,0,1,22.213,4.112a13.913,13.913,0,0,1,6.027.55,12.411,12.411,0,0,0,7.519,0,13.9,13.9,0,0,1,6.054-.546A14.094,14.094,0,0,1,53.894,16.249,14.3,14.3,0,0,1,53.844,20H37V19a3,3,0,0,0-3-3H30a3,3,0,0,0-3,3v1H10.159A14.2,14.2,0,0,1,10.08,16.483ZM35,19v4a1,1,0,0,1-1,1H30a1,1,0,0,1-1-1V19a1,1,0,0,1,1-1h4A1,1,0,0,1,35,19ZM10.6,22H27v1a3,3,0,0,0,3,3h4a3,3,0,0,0,3-3V22H53.4a13.878,13.878,0,0,1-2.214,4.405,21.543,21.543,0,0,0-3.92,9.457L44.689,50.894a3.744,3.744,0,0,1-7.379,0L34.822,36.38a2.863,2.863,0,0,0-5.644,0L26.69,50.889a3.744,3.744,0,0,1-7.38,0L16.734,35.867A21.575,21.575,0,0,0,12.812,26.4,13.888,13.888,0,0,1,10.6,22ZM61,60H4V32h9.617a22.2,22.2,0,0,1,1.147,4.2l2.575,15.022a5.744,5.744,0,0,0,11.322,0l2.487-14.509a.865.865,0,0,1,1.7,0l2.487,14.509a5.743,5.743,0,0,0,11.321,0L49.237,36.2A22.166,22.166,0,0,1,50.382,32H61Z"/></g></svg>