<svg xmlns="http://www.w3.org/2000/svg" viewBox="0 0 64 64"><g id="Layer_32" data-name="Layer 32"><path d="M41.939,9.124a14.941,14.941,0,0,0-6.485.586,11.331,11.331,0,0,1-6.908,0,14.99,14.99,0,0,0-16.532,23.3,20.736,20.736,0,0,1,3.735,9.028c.807,4.711,1.886,11.005,2.575,15.023A4.745,4.745,0,0,0,23,61h0a4.745,4.745,0,0,0,4.676-3.942l2.487-14.509A1.863,1.863,0,0,1,32,41h0a1.863,1.863,0,0,1,1.837,1.549l2.487,14.509A4.745,4.745,0,0,0,41,61h0a4.738,4.738,0,0,0,4.675-3.937l2.577-15.032a20.719,20.719,0,0,1,3.734-9.024A14.99,14.99,0,0,0,41.939,9.124Z" style="fill:#c7ced1"/><path d="M3,13l5.061,1.446a4,4,0,0,1,2.647,2.442L13,23l2.292-6.112a4,4,0,0,1,2.647-2.442L23,13l-5.061-1.446a4,4,0,0,1-2.647-2.442L13,3,10.708,9.112a4,4,0,0,1-2.647,2.442Z" style="fill:#fcbe42"/><path d="M41,33l5.061,1.446a4,4,0,0,1,2.647,2.442L51,43l2.292-6.112a4,4,0,0,1,2.647-2.442L61,33l-5.061-1.446a4,4,0,0,1-2.647-2.442L51,23l-2.292,6.112a4,4,0,0,1-2.647,2.442Z" style="fill:#fcbe42"/><path d="M61.275,32.039l-5.062-1.447a2.984,2.984,0,0,1-1.307-.795A15.983,15.983,0,0,0,42.065,8.131a15.9,15.9,0,0,0-6.917.627,10.388,10.388,0,0,1-6.3,0,15.887,15.887,0,0,0-6.887-.629,15.678,15.678,0,0,0-5.131,1.585,2.944,2.944,0,0,1-.6-.952L13.937,2.649a1,1,0,0,0-1.874,0L9.771,8.761a3.009,3.009,0,0,1-1.984,1.831L2.725,12.039a1,1,0,0,0,0,1.922l5.062,1.447a3,3,0,0,1,1.847,1.565,15.651,15.651,0,0,0-1.543,5.3,15.977,15.977,0,0,0,3.125,11.335,19.584,19.584,0,0,1,3.547,8.6l2.575,15.022a5.745,5.745,0,0,0,11.324,0l2.487-14.509a.863.863,0,0,1,1.7,0l2.487,14.509a5.745,5.745,0,0,0,11.323,0L49.238,42.2c.039-.229.095-.449.141-.675l.684,1.826a1,1,0,0,0,1.874,0l2.292-6.112a3.009,3.009,0,0,1,1.984-1.831l5.062-1.447a1,1,0,0,0,0-1.922ZM8.336,13.485,6.64,13l1.7-.485a5.02,5.02,0,0,0,3.309-3.052L13,5.848l1.355,3.615a5.02,5.02,0,0,0,3.309,3.052l1.7.485-1.7.485a5.02,5.02,0,0,0-3.309,3.052L13,20.152l-1.355-3.615A5.02,5.02,0,0,0,8.336,13.485Zm39.82,24.788a24.739,24.739,0,0,0-.89,3.589L44.689,56.894a3.744,3.744,0,0,1-7.379,0L34.823,42.38a2.864,2.864,0,0,0-5.646,0L26.69,56.889a3.744,3.744,0,0,1-7.38,0L16.735,41.867a21.557,21.557,0,0,0-3.923-9.462,13.989,13.989,0,0,1-2.732-9.922,13.55,13.55,0,0,1,.609-2.8l1.374,3.666a1,1,0,0,0,1.874,0l2.292-6.112a3.009,3.009,0,0,1,1.984-1.831l5.062-1.447a1,1,0,0,0,0-1.922l-4.1-1.171a13.645,13.645,0,0,1,3.034-.756,13.915,13.915,0,0,1,6.027.55,12.418,12.418,0,0,0,7.519,0,13.93,13.93,0,0,1,6.054-.546A14.093,14.093,0,0,1,53.894,22.249a14.268,14.268,0,0,1-.264,4.916l-1.693-4.516a1,1,0,0,0-1.874,0l-2.292,6.112a3.009,3.009,0,0,1-1.984,1.831l-5.062,1.447a1,1,0,0,0,0,1.922l5.062,1.447a3.009,3.009,0,0,1,1.984,1.831l.389,1.035Zm7.508-4.788a5.02,5.02,0,0,0-3.309,3.052L51,40.152l-1.355-3.615a5.02,5.02,0,0,0-3.309-3.052L44.64,33l1.7-.485a5.02,5.02,0,0,0,3.309-3.052L51,25.848l1.355,3.615a5.02,5.02,0,0,0,3.309,3.052l1.7.485Z"/></g></svg>