<svg xmlns="http://www.w3.org/2000/svg" viewBox="0 0 64 64"><g id="Layer_32" data-name="Layer 32"><rect x="3" y="31" width="59" height="30" style="fill:#f97878"/><path d="M51.99,27.01a20.686,20.686,0,0,0-3.74,9.02c-.81,4.71-1.89,11.01-2.58,15.03a4.744,4.744,0,0,1-9.35,0L33.84,36.55a1.867,1.867,0,0,0-3.68,0L27.68,51.06a4.749,4.749,0,0,1-9.36,0c-.68-4.02-1.76-10.31-2.57-15.02a20.676,20.676,0,0,0-3.74-9.03A15,15,0,0,1,22.09,3.12a15.08,15.08,0,0,1,6.46.59,11.291,11.291,0,0,0,6.9,0,15.009,15.009,0,0,1,4.05-.7L38,9l4,3,6-2,3,7,2.26-6.02a14.586,14.586,0,0,1,1.63,5.15A15.015,15.015,0,0,1,51.99,27.01Z" style="fill:#c7ced1"/><path d="M51.99,27.01a20.686,20.686,0,0,0-3.74,9.02c-.81,4.71-1.89,11.01-2.58,15.03a4.744,4.744,0,0,1-9.35,0L33.84,36.55a1.867,1.867,0,0,0-3.68,0L27.68,51.06a4.749,4.749,0,0,1-9.36,0c-.68-4.02-1.76-10.31-2.57-15.02a20.676,20.676,0,0,0-3.74-9.03A15,15,0,0,1,22.09,3.12a15.08,15.08,0,0,1,6.46.59,11.291,11.291,0,0,0,6.9,0,15.009,15.009,0,0,1,4.05-.7L38,9l4,3,6-2,3,7,2.26-6.02a14.586,14.586,0,0,1,1.63,5.15A15.015,15.015,0,0,1,51.99,27.01Z" style="fill:#c7ced1"/><path d="M62,30H51.287a17.252,17.252,0,0,1,1.5-2.387l0,0a16.057,16.057,0,0,0,3.093-11.6,15.559,15.559,0,0,0-1.741-5.5.983.983,0,0,0-.949-.526,1,1,0,0,0-.87.646l-1.385,3.69L48.919,9.606a1,1,0,0,0-1.235-.555l-5.5,1.835L39.132,8.6,40.47,3.252a1,1,0,0,0-.193-.872,1.024,1.024,0,0,0-.812-.37,16.019,16.019,0,0,0-4.32.748,10.354,10.354,0,0,1-6.291,0A16,16,0,0,0,11.212,27.613,17.152,17.152,0,0,1,12.712,30H3a1,1,0,0,0-1,1V61a1,1,0,0,0,1,1H62a1,1,0,0,0,1-1V31A1,1,0,0,0,62,30ZM10.085,16.483A13.986,13.986,0,0,1,28.244,4.662a12.377,12.377,0,0,0,7.511,0,13.927,13.927,0,0,1,2.436-.542L37.116,8.413,33.4,11.2l1.2,1.6L38,10.25l3.4,2.55a1.007,1.007,0,0,0,.916.149l5.127-1.709,2.329,5.432L46.4,19.2a1,1,0,0,0-.3,1.247l2,4,1.79-.894L48.268,20.3,51.6,17.8l0,0a1,1,0,0,0,.339-.445l1.386-3.695a13.336,13.336,0,0,1,.573,2.592,14.053,14.053,0,0,1-2.7,10.158,21.524,21.524,0,0,0-3.927,9.453L44.684,50.9a3.744,3.744,0,0,1-7.378,0L34.824,36.375a2.866,2.866,0,0,0-5.649.006L26.694,50.888a3.748,3.748,0,0,1-7.387.005c-.681-4.02-1.762-10.311-2.572-15.022a21.513,21.513,0,0,0-3.926-9.462A13.963,13.963,0,0,1,10.085,16.483ZM61,60H4V32h9.616a22.221,22.221,0,0,1,1.149,4.209c.809,4.709,1.888,11,2.57,15.02a5.749,5.749,0,0,0,11.33,0l2.48-14.5a.867.867,0,0,1,1.709-.007l2.481,14.511a5.742,5.742,0,0,0,11.32,0l2.58-15.03A22.192,22.192,0,0,1,50.383,32H61Z"/></g></svg>