<svg width="60" height="60" viewBox="0 0 60 60" fill="none" xmlns="http://www.w3.org/2000/svg">
<path d="M30 5C24.6957 5 19.6086 7.10714 15.8579 10.8579C12.1071 14.6086 10 19.6957 10 25C10 38.5 27.625 53.75 28.375 54.4C28.8278 54.7873 29.4041 55.0002 30 55.0002C30.5959 55.0002 31.1722 54.7873 31.625 54.4C32.5 53.75 50 38.5 50 25C50 19.6957 47.8929 14.6086 44.1421 10.8579C40.3914 7.10714 35.3043 5 30 5ZM30 49.125C24.675 44.125 15 33.35 15 25C15 21.0218 16.5804 17.2064 19.3934 14.3934C22.2064 11.5804 26.0218 10 30 10C33.9782 10 37.7936 11.5804 40.6066 14.3934C43.4196 17.2064 45 21.0218 45 25C45 33.35 35.325 44.15 30 49.125ZM30 15C28.0222 15 26.0888 15.5865 24.4443 16.6853C22.7998 17.7841 21.5181 19.3459 20.7612 21.1732C20.0043 23.0004 19.8063 25.0111 20.1921 26.9509C20.578 28.8907 21.5304 30.6725 22.9289 32.0711C24.3275 33.4696 26.1093 34.422 28.0491 34.8079C29.9889 35.1937 31.9996 34.9957 33.8268 34.2388C35.6541 33.4819 37.2159 32.2002 38.3147 30.5557C39.4135 28.9112 40 26.9778 40 25C40 22.3478 38.9464 19.8043 37.0711 17.9289C35.1957 16.0536 32.6522 15 30 15ZM30 30C29.0111 30 28.0444 29.7068 27.2221 29.1573C26.3999 28.6079 25.759 27.827 25.3806 26.9134C25.0022 25.9998 24.9031 24.9945 25.0961 24.0245C25.289 23.0546 25.7652 22.1637 26.4645 21.4645C27.1637 20.7652 28.0546 20.289 29.0245 20.0961C29.9945 19.9031 30.9998 20.0022 31.9134 20.3806C32.827 20.759 33.6079 21.3999 34.1573 22.2221C34.7068 23.0444 35 24.0111 35 25C35 26.3261 34.4732 27.5979 33.5355 28.5355C32.5978 29.4732 31.3261 30 30 30Z" fill="#202C4A"/>
</svg>
