<svg width="60" height="60" viewBox="0 0 60 60" fill="none" xmlns="http://www.w3.org/2000/svg">
<path d="M56.1372 12.5248C56.0925 12.4069 56.0359 12.2939 55.9685 12.1873C55.9417 12.1166 55.9104 12.0477 55.8747 11.9811C55.7002 11.8078 55.5049 11.6567 55.2935 11.5311L54.9747 11.4186H5.51223C5.38134 11.4047 5.24936 11.4047 5.11848 11.4186L4.79973 11.5311C4.70052 11.585 4.60639 11.6477 4.51848 11.7186C4.41687 11.7903 4.32266 11.8719 4.23723 11.9623C4.20154 12.029 4.17022 12.0979 4.14348 12.1686C3.94518 12.3698 3.80856 12.6235 3.74973 12.8998C3.74488 12.9747 3.74488 13.0499 3.74973 13.1248V46.8748C3.74973 47.3721 3.94727 47.849 4.2989 48.2006C4.65053 48.5523 5.12745 48.7498 5.62473 48.7498H54.3747C54.872 48.7498 55.3489 48.5523 55.7006 48.2006C56.0522 47.849 56.2497 47.3721 56.2497 46.8748V13.1248C56.2546 13.0499 56.2546 12.9747 56.2497 12.8998C56.2254 12.7712 56.1877 12.6455 56.1372 12.5248V12.5248ZM48.8622 14.9998L29.9997 29.5123L11.1372 14.9998H48.8622ZM52.4997 44.9998H7.49973V16.8748L28.856 33.2998C29.1838 33.5522 29.586 33.6891 29.9997 33.6891C30.4135 33.6891 30.8156 33.5522 31.1435 33.2998L52.4997 16.8748V44.9998Z" fill="#202C4A"/>
</svg>
