<svg width="32" height="33" viewBox="0 0 32 33" fill="none" xmlns="http://www.w3.org/2000/svg">
<path d="M3.06794 32.9999H28.932C29.746 32.9992 30.5263 32.6702 31.1016 32.086C31.6768 31.5014 32 30.7093 32 29.8833V13.2156C31.9998 12.9555 31.8865 12.7088 31.6904 12.5414L27.4085 8.87053V2.47082C27.4085 1.81559 27.1521 1.18703 26.6955 0.723615C26.2389 0.260224 25.6195 0 24.9738 0H7.19675C6.55091 0 5.93172 0.260256 5.47507 0.723615C5.01845 1.18701 4.76177 1.81559 4.76177 2.47082V8.73639L0.309591 12.5415C0.113553 12.7089 0.000242237 12.9556 0 13.2156V29.8833C0 30.7094 0.323174 31.5015 0.898449 32.086C1.47371 32.6703 2.25398 32.9992 3.06802 33L3.06794 32.9999ZM28.9289 31.235H3.06794C2.71517 31.2343 2.3772 31.0915 2.12825 30.8379C1.87908 30.5845 1.73908 30.2413 1.73908 29.8832V14.8991L11.6522 22.0155L4.61549 27.4797C4.23141 27.7722 4.15353 28.3252 4.44153 28.7152C4.72976 29.105 5.27494 29.184 5.65904 28.8915L13.141 23.0814L15.5758 24.8464C15.8769 25.0628 16.2799 25.0628 16.581 24.8464L19.0157 23.0814L26.5008 28.8809C26.8851 29.1735 27.4301 29.0944 27.7183 28.7046C28.0066 28.3146 27.9287 27.7616 27.5444 27.4691L20.522 22.0155L30.2612 15.0264V29.887V29.8868C30.2602 30.244 30.12 30.5866 29.8708 30.8391C29.6218 31.0918 29.2846 31.2343 28.9323 31.2351L28.9289 31.235ZM29.7742 13.2115L27.4088 14.9094V11.1785L29.7742 13.2115ZM7.19646 1.76788H24.9773C25.1619 1.76788 25.3388 1.84224 25.4693 1.97445C25.5996 2.10692 25.6729 2.28642 25.6729 2.47379V16.1481L16.0865 23.0351L6.50387 16.1481V2.47001C6.50581 2.08295 6.81443 1.76953 7.1961 1.76776L7.19646 1.76788ZM4.76174 14.9096L2.29912 13.1446L4.76174 11.0266V14.9096ZM15.9997 18.5029H16.2224C16.7025 18.5029 17.0919 18.1077 17.0919 17.6205C17.0919 17.1329 16.7025 16.738 16.2224 16.738H15.9997C14.5291 16.738 13.119 16.1451 12.0791 15.0898C11.0395 14.0348 10.4552 12.6038 10.4552 11.1114C10.4552 9.61904 11.0394 8.18801 12.0791 7.13271C13.119 6.07767 14.5291 5.48473 15.9997 5.48473C17.4702 5.48473 18.8803 6.07762 19.9202 7.13271C20.9598 8.18801 21.5441 9.61904 21.5441 11.1114V12.6185C21.524 12.9558 21.3352 13.2592 21.0436 13.4222C20.7522 13.5852 20.3984 13.5852 20.1071 13.4222C19.8154 13.2592 19.6267 12.9558 19.6065 12.6185V11.1114C19.6138 9.99503 19.1201 8.93602 18.2648 8.23383C17.4098 7.53158 16.2862 7.26225 15.2119 7.50234C14.1375 7.74216 13.2291 8.46529 12.7434 9.46694C12.2579 10.4686 12.2477 11.6401 12.716 12.6503C13.1843 13.6603 14.08 14.3995 15.1502 14.6585C16.2202 14.9173 17.3482 14.6681 18.2153 13.9812C18.6091 14.6957 19.2965 15.1948 20.0901 15.342C20.8837 15.4895 21.7007 15.2699 22.3184 14.743C22.9359 14.2163 23.2896 13.4372 23.2833 12.6186V11.1115C23.2833 9.15103 22.5159 7.27114 21.1499 5.88493C19.7839 4.49871 17.9315 3.71988 15.9997 3.71988C14.0679 3.71988 12.2154 4.49865 10.8495 5.88493C9.48351 7.27114 8.71606 9.15103 8.71606 11.1115C8.71606 13.0719 9.48345 14.9518 10.8495 16.338C12.2154 17.7242 14.0679 18.5031 15.9997 18.5031L15.9997 18.5029ZM15.9997 13.0068C15.5042 13.0068 15.0292 12.8071 14.6788 12.4518C14.3287 12.0963 14.1319 11.6142 14.1319 11.1114C14.1319 10.6086 14.3287 10.1265 14.6788 9.7709C15.0291 9.41561 15.5042 9.21567 15.9997 9.21567C16.4951 9.21567 16.9702 9.41561 17.3205 9.7709C17.6706 10.1264 17.8674 10.6085 17.8674 11.1114C17.8674 11.6141 17.6706 12.0962 17.3205 12.4518C16.9702 12.8071 16.4951 13.0068 15.9997 13.0068Z" fill="#24BA96"/>
</svg>
