<svg width="38" height="39" viewBox="0 0 38 39" fill="none" xmlns="http://www.w3.org/2000/svg">
<path d="M7.0091 9.38447C7.2269 19.5895 15.0603 27.7569 24.7859 27.9808C24.9423 28 25.0987 28 25.2735 28C25.4483 28 25.6047 28 25.7551 27.9808C28.1751 27.7249 30 25.6134 30 23.0702C30 22.8269 29.9816 22.5935 29.951 22.3952C29.951 22.3887 29.948 22.3856 29.948 22.3791V22.3664C29.948 22.3633 29.945 22.3633 29.945 22.3599C29.8438 21.5505 29.5432 20.7923 29.0557 20.111C29.0527 20.1079 29.0527 20.1045 29.0494 20.1014C29.0465 20.095 29.0432 20.0887 29.0373 20.0822C29.0189 20.0566 28.9913 20.0407 28.9699 20.0215C28.9361 19.9863 28.9055 19.9512 28.8657 19.9256C28.8259 19.8999 28.7799 19.8872 28.7339 19.8711C28.7063 19.8615 28.6817 19.8423 28.6511 19.8359L23.2192 18.8058C23.1824 18.7994 23.1456 18.7962 23.1088 18.7962H23.0934C23.0688 18.7962 23.0474 18.809 23.026 18.8123C22.9954 18.8154 22.9678 18.8219 22.937 18.8315C22.8788 18.8476 22.8266 18.8699 22.7744 18.9018C22.7622 18.9083 22.753 18.9145 22.7438 18.9241C22.6824 18.969 22.6304 19.0232 22.5874 19.0903L22.5844 19.0935L22.5538 19.1414C22.5446 19.1606 22.5292 19.1767 22.52 19.1959L20.965 21.6912C17.2661 20.3253 14.3526 17.286 13.0425 13.4278L15.447 11.8027C15.6618 11.7002 15.812 11.4731 15.812 11.2077C15.812 11.1341 15.7998 11.0638 15.7782 10.9998L14.8058 5.39494C14.7782 5.23181 14.6924 5.08788 14.5666 4.98858C13.9132 4.47667 13.1527 4.15356 12.3951 4.05445C12.1835 4.01607 11.9565 4 11.7233 4C9.2849 4 7.26059 5.90345 7.0184 8.42107C7 8.58419 7 8.74731 7 8.92962C7 9.08962 7.003 9.23043 7.0154 9.37436C7.01198 9.3815 7.00877 9.38463 7.00877 9.38463L7.0091 9.38447ZM8.24527 8.93349V8.86632C8.24527 8.76076 8.24527 8.66147 8.25746 8.56239C8.43846 6.70692 9.92604 5.30887 11.7202 5.30887H11.7264C11.8674 5.30887 12.0056 5.31847 12.1466 5.34078C12.1588 5.3439 12.1712 5.3439 12.1834 5.34725C12.1926 5.34725 12.2018 5.35038 12.211 5.35038C12.711 5.41754 13.1834 5.59986 13.6158 5.89419L14.4838 10.9008L11.9442 12.6155C11.9288 12.6251 11.9166 12.6412 11.9012 12.6539C11.889 12.6635 11.8766 12.6762 11.8614 12.6891C11.8092 12.7402 11.7602 12.7978 11.7296 12.8619C11.7296 12.865 11.7296 12.865 11.7266 12.8683C11.696 12.9324 11.6776 13.0027 11.6684 13.0763C11.6654 13.0924 11.6622 13.1082 11.6622 13.1243C11.6622 13.137 11.656 13.1531 11.656 13.1658C11.656 13.2298 11.6652 13.2937 11.6836 13.3546V13.361C13.0792 18.0061 16.5665 21.6467 21.0198 23.1022C21.0812 23.1214 21.1456 23.1341 21.2068 23.1341H21.2098H21.216C21.2712 23.1341 21.3264 23.1245 21.3816 23.1054C21.403 23.0989 21.4246 23.0893 21.446 23.0797C21.4766 23.067 21.5074 23.0509 21.538 23.0317C21.5626 23.0156 21.584 22.9998 21.6054 22.9837C21.6267 22.9645 21.6484 22.9422 21.6668 22.9197C21.6882 22.894 21.7098 22.8717 21.7282 22.8461C21.7282 22.8429 21.7312 22.8429 21.7312 22.8396L23.3905 20.1748L28.1539 21.0769C28.4482 21.5375 28.6354 22.0398 28.7028 22.5901C28.7274 22.7405 28.7396 22.9068 28.7396 23.0764C28.7396 24.9479 27.3992 26.4995 25.6143 26.6881C25.5009 26.7008 25.3873 26.7008 25.2647 26.7008C25.1481 26.7008 25.0439 26.7008 24.9395 26.6912C24.9119 26.6881 24.8905 26.6881 24.8597 26.6847C15.747 26.4736 8.45054 18.863 8.24789 9.35828V9.35181C8.24789 9.33574 8.24789 9.31655 8.24489 9.30071C8.23569 9.20475 8.2327 9.10568 8.2327 8.99991C8.24489 8.97804 8.24489 8.95572 8.24489 8.9334L8.24527 8.93349Z" fill="#14B053"/>
<path d="M20.5949 4.29807C25.6778 4.29807 29.81 8.80901 29.81 14.3509C29.81 14.7104 30.0755 15 30.405 15C30.7345 15 31 14.7104 31 14.3509C31 8.09345 26.334 3 20.595 3C20.2655 3 20 3.28959 20 3.64909C20 4.00836 20.2653 4.29796 20.5948 4.29796L20.5949 4.29807Z" fill="#14B053"/>
<path d="M20.5928 7.33395C24.0248 7.33395 26.8142 10.4757 26.8142 14.333C26.8142 14.7024 27.0787 15 27.4071 15C27.7355 15 28 14.7024 28 14.333C28 9.73974 24.6785 6 20.5929 6C20.2645 6 20 6.2976 20 6.66703C20 7.03623 20.2643 7.33383 20.5927 7.33383L20.5928 7.33395Z" fill="#14B053"/>
<path d="M20.5881 10.4117C22.373 10.4117 23.8233 12.1522 23.8233 14.294C23.8233 14.685 24.0858 15 24.4117 15C24.7375 15 25 14.685 25 14.294C25 11.3735 23.0221 9 20.5883 9C20.2625 9 20 9.31498 20 9.70599C20 10.0934 20.2623 10.4117 20.5881 10.4117V10.4117Z" fill="#14B053"/>
</svg>
