<svg width="60" height="60" viewBox="0 0 60 60" fill="none" xmlns="http://www.w3.org/2000/svg">
<path d="M43.9687 39.2438C43.4461 38.7194 42.8251 38.3033 42.1414 38.0194C41.4577 37.7355 40.7246 37.5894 39.9843 37.5894C39.244 37.5894 38.5109 37.7355 37.8272 38.0194C37.1435 38.3033 36.5225 38.7194 35.9999 39.2438L33.2812 41.9626C30.2201 40.0198 27.384 37.7434 24.8249 35.1751C22.2621 32.6112 19.9861 29.7757 18.0374 26.7188L20.7562 24.0001C21.2806 23.4775 21.6967 22.8565 21.9806 22.1728C22.2645 21.4891 22.4106 20.756 22.4106 20.0157C22.4106 19.2754 22.2645 18.5423 21.9806 17.8586C21.6967 17.1748 21.2806 16.5539 20.7562 16.0313L15.4499 10.7438C14.9347 10.2177 14.319 9.80048 13.6394 9.51703C12.9597 9.23358 12.2301 9.08965 11.4937 9.09381C10.7521 9.09199 10.0175 9.23683 9.33205 9.52001C8.64665 9.80318 8.024 10.2191 7.49994 10.7438L4.94994 13.2751C3.73451 14.5819 2.82738 16.1445 2.29525 17.8479C1.76311 19.5514 1.61949 21.3525 1.87494 23.1188C2.47494 30.1501 7.08744 38.6063 14.1937 45.7313C21.2999 52.8563 29.8499 57.4501 36.8812 58.1251C37.4058 58.1531 37.9316 58.1531 38.4562 58.1251C39.9697 58.1886 41.4807 57.9493 42.9006 57.4213C44.3205 56.8933 45.6207 56.0871 46.7249 55.0501L49.2562 52.5001C49.7809 51.976 50.1968 51.3534 50.48 50.6679C50.7632 49.9825 50.908 49.2479 50.9062 48.5063C50.9103 47.7699 50.7664 47.0403 50.483 46.3606C50.1995 45.681 49.7823 45.0653 49.2562 44.5501L43.9687 39.2438ZM46.6124 49.8563L44.0624 52.3876C43.1196 53.1733 42.0189 53.7474 40.835 54.0709C39.651 54.3944 38.4114 54.4597 37.1999 54.2626C31.1062 53.7376 23.3437 49.4251 16.9312 43.0126C10.5187 36.6001 6.20619 28.8938 5.62494 22.8001C5.42274 21.5886 5.48566 20.3478 5.80936 19.163C6.13306 17.9783 6.70984 16.8778 7.49994 15.9376L10.1437 13.3876C10.3189 13.2138 10.5267 13.0763 10.7551 12.983C10.9836 12.8897 11.2282 12.8424 11.4749 12.8438C11.7217 12.8424 11.9663 12.8897 12.1948 12.983C12.4232 13.0763 12.631 13.2138 12.8062 13.3876L18.1124 18.7501C18.4617 19.1014 18.6577 19.5766 18.6577 20.0719C18.6577 20.5673 18.4617 21.0425 18.1124 21.3938L14.3624 25.1438C14.069 25.4358 13.8804 25.8167 13.8262 26.2271C13.7719 26.6375 13.855 27.0543 14.0624 27.4126C16.3075 31.2347 19.0363 34.7512 22.1812 37.8751C25.3051 41.0199 28.8216 43.7487 32.6437 45.9938C33.0019 46.2013 33.4187 46.2843 33.8291 46.2301C34.2395 46.1758 34.6204 45.9873 34.9124 45.6938L38.6624 41.9438C39.0137 41.5946 39.489 41.3986 39.9843 41.3986C40.4797 41.3986 40.9549 41.5946 41.3062 41.9438L46.6124 47.2501C46.7862 47.4253 46.9237 47.633 47.017 47.8615C47.1103 48.0899 47.1576 48.3345 47.1562 48.5813C47.1445 49.0602 46.9499 49.5164 46.6124 49.8563ZM49.8749 10.1063C47.2692 7.49063 44.1714 5.41663 40.7603 4.0039C37.3491 2.59117 33.6921 1.86765 29.9999 1.87506C29.5027 1.87506 29.0257 2.0726 28.6741 2.42423C28.3225 2.77586 28.1249 3.25278 28.1249 3.75006C28.1249 4.24734 28.3225 4.72425 28.6741 5.07588C29.0257 5.42751 29.5027 5.62506 29.9999 5.62506C33.2183 5.62494 36.4049 6.26219 39.3757 7.50002C42.3466 8.73786 45.0429 10.5518 47.309 12.8371C49.5751 15.1224 51.3663 17.8339 52.579 20.815C53.7918 23.7962 54.4022 26.988 54.3749 30.2063C54.3749 30.7036 54.5725 31.1805 54.9241 31.5321C55.2757 31.8838 55.7527 32.0813 56.2499 32.0813C56.7472 32.0813 57.2241 31.8838 57.5758 31.5321C57.9274 31.1805 58.1249 30.7036 58.1249 30.2063C58.1609 26.4749 57.4494 22.7741 56.0325 19.3221C54.6156 15.87 52.5219 12.7365 49.8749 10.1063Z" fill="#202C4A"/>
<path d="M39.2066 20.8309C40.2707 21.8885 41.1125 23.1483 41.6825 24.5362C42.2524 25.924 42.539 27.4119 42.5254 28.9121C42.5254 29.4094 42.7229 29.8863 43.0746 30.2379C43.4262 30.5896 43.9031 30.7871 44.4004 30.7871C44.8977 30.7871 45.3746 30.5896 45.7262 30.2379C46.0778 29.8863 46.2754 29.4094 46.2754 28.9121C46.3002 26.9266 45.9306 24.9558 45.1879 23.1143C44.4452 21.2727 43.3442 19.5969 41.9488 18.1841C40.5535 16.7713 38.8915 15.6496 37.0593 14.8841C35.2271 14.1186 33.2611 13.7245 31.2754 13.7246C30.7781 13.7246 30.3012 13.9222 29.9496 14.2738C29.5979 14.6254 29.4004 15.1023 29.4004 15.5996C29.4004 16.0969 29.5979 16.5738 29.9496 16.9254C30.3012 17.2771 30.7781 17.4746 31.2754 17.4746C32.753 17.4857 34.214 17.7879 35.5749 18.3637C36.9358 18.9396 38.1698 19.778 39.2066 20.8309Z" fill="#202C4A"/>
</svg>
