<svg width="32" height="32" viewBox="0 0 32 32" fill="none" xmlns="http://www.w3.org/2000/svg">
<path d="M8 11.0005C8 13.1223 8.79022 15.157 10.197 16.657C11.6036 18.1574 13.5111 19.0003 15.5002 19C17.4894 19 19.3969 18.1571 20.8035 16.6568C22.21 15.1565 23 13.1217 23 11C23 8.87827 22.2098 6.84354 20.8032 5.34322C19.3967 3.8429 17.4891 3 15.5 3C13.5116 3.00259 11.6053 3.84628 10.1992 5.34607C8.79308 6.84586 8.00218 8.87926 8 11.0005ZM21.9555 11.0005C21.9555 12.8267 21.2753 14.578 20.0644 15.8693C18.8538 17.1606 17.2117 17.8861 15.4997 17.8861C13.7876 17.8859 12.1455 17.1604 10.9349 15.8691C9.72435 14.5778 9.04442 12.8262 9.04442 11C9.04442 9.17382 9.7246 7.42224 10.9352 6.13094C12.1458 4.83964 13.7879 4.11412 15.4999 4.11412C17.2115 4.11619 18.8524 4.84223 20.0628 6.13326C21.2731 7.4243 21.9538 9.17482 21.9555 11.0005V11.0005Z" fill="#24BA96"/>
<path d="M5 10.8904C5 14.5404 6.79136 17.0742 8.68887 19.7555L8.77127 19.8722C10.1029 21.756 11.4353 23.6386 12.7689 25.5203L15.0744 28.7746C15.0779 28.7795 15.0826 28.7832 15.0865 28.7881V28.7884C15.1039 28.8108 15.1227 28.8317 15.143 28.8508C15.1526 28.8601 15.1618 28.8703 15.1724 28.8792C15.1759 28.8821 15.1788 28.886 15.1828 28.8888C15.1868 28.8917 15.1976 28.8959 15.2048 28.9008C15.2387 28.9254 15.2753 28.9455 15.3137 28.9609C15.3271 28.9661 15.3407 28.9718 15.3545 28.9763C15.4013 28.9909 15.4498 28.999 15.4988 29H15.503C15.552 28.999 15.6005 28.9909 15.6475 28.9763C15.6613 28.9718 15.6747 28.9661 15.6885 28.9606V28.9603C15.7261 28.9452 15.7618 28.9254 15.7949 28.9014C15.8021 28.8962 15.8105 28.8946 15.8172 28.8891C15.8239 28.8834 15.8239 28.8821 15.8278 28.8789C15.8382 28.8703 15.8469 28.8601 15.857 28.8508C15.8771 28.8314 15.8961 28.8106 15.9134 28.7884C15.9174 28.7832 15.9219 28.7798 15.9256 28.7748L18.2311 25.5206C19.564 23.6383 20.8966 21.7555 22.2287 19.8724L22.3111 19.7558C24.2074 17.0735 26 14.5394 26 10.8906V10.8904C25.9547 7.98584 24.8287 5.21642 22.8649 3.17881C20.901 1.14181 18.2568 0 15.5021 0C12.7475 0 10.103 1.14181 8.13926 3.17881C6.17543 5.21608 5.04941 7.9855 5.00412 10.8904L5 10.8904ZM24.9323 10.8904C24.9323 14.1683 23.3212 16.447 21.4561 19.0862L21.3735 19.2029C20.0426 21.0862 18.7104 22.9687 17.377 24.851L15.4998 27.5036L13.6198 24.8502C12.2872 22.9685 10.9551 21.0857 9.62337 19.2021L9.54072 19.0854C7.67539 16.4465 6.06462 14.1676 6.06462 10.8896H6.06437C6.12227 7.37653 7.93294 4.1559 10.8281 2.41654C13.7232 0.677242 17.2737 0.677242 20.1684 2.41654C23.0635 4.15583 24.8742 7.37639 24.9319 10.8896L24.9323 10.8904Z" fill="#24BA96"/>
<path d="M15.7044 5.04353C15.6865 5.03575 15.6689 5.02902 15.6507 5.02306C15.6326 5.0171 15.6209 5.01529 15.6057 5.01192C15.5908 5.00855 15.5702 5.00518 15.5498 5.00337C15.5294 5.00155 15.5195 5.00337 15.5041 5.00104C15.4887 4.9987 15.4829 5.00104 15.4723 5.00104C15.4616 5.00104 15.4551 5.0044 15.4467 5.00518C15.4317 5.00518 15.4171 5.00933 15.4024 5.01218C15.3878 5.01503 15.3649 5.02047 15.3465 5.02591C15.3278 5.03161 15.3169 5.03679 15.302 5.04275C15.2871 5.04871 15.2684 5.05752 15.252 5.06659H15.2523C15.2369 5.07539 15.2217 5.08498 15.2073 5.09534C15.1976 5.10156 15.1877 5.10623 15.1787 5.11322L10.2138 9.0161C10.079 9.12129 10 9.28633 10 9.46173V10.5017C10 10.8095 10.2391 11.059 10.5344 11.059H11.1836V14.5131C11.1844 14.908 11.3355 15.2862 11.6039 15.565C11.8721 15.8438 12.2355 16.0003 12.6143 16H18.3869C18.7655 15.9995 19.1283 15.8427 19.396 15.5637C19.6637 15.2847 19.8144 14.9061 19.8148 14.5116V11.0575H20.4656H20.4654C20.7606 11.0575 21 10.808 21 10.5004V9.46017C21 9.28503 20.9207 9.11973 20.7862 9.01454L15.8213 5.11166C15.8133 5.10544 15.8041 5.10129 15.7959 5.09559C15.7798 5.08393 15.7629 5.07331 15.7455 5.06372C15.7331 5.05621 15.7186 5.04923 15.7044 5.04353ZM15.5006 11.8466H16.3067V14.8867H14.6943V11.8466H15.5006ZM19.9312 9.94335H19.2807C18.9854 9.94335 18.746 10.1929 18.746 10.5006V14.512V14.5118C18.7458 14.7185 18.5852 14.8859 18.3869 14.8859H17.3757V11.6652C17.3747 11.1501 16.9743 10.7327 16.4801 10.7322H14.5202C14.0259 10.7328 13.625 11.1507 13.6244 11.666V14.8867H12.6143C12.4159 14.8867 12.2554 14.7193 12.2551 14.5126V10.5012C12.2551 10.1936 12.0158 9.94415 11.7205 9.94415H11.07V9.74025L12.0374 8.97929H12.0408L15.5005 6.25476L17.1291 7.53518L18.9585 8.97365L19.9302 9.73773L19.9312 9.94335Z" fill="#24BA96"/>
<path d="M0.540231 32H31.46C31.6586 32.0003 31.8415 31.8829 31.9358 31.6946C32.0298 31.506 32.02 31.2775 31.9102 31.0991L27.718 24.2606C27.6181 24.0979 27.4491 24 27.2678 24H20.6126C20.3147 24 20.0734 24.2596 20.0734 24.5801C20.0734 24.9006 20.3147 25.1602 20.6126 25.1602H26.9764L30.4574 30.8382L1.54134 30.8385L5.01904 25.1604H11.3828V25.1602C11.6805 25.1602 11.922 24.9006 11.922 24.5801C11.922 24.2596 11.6805 24 11.3828 24H4.72891C4.54734 23.9997 4.37831 24.0977 4.27825 24.2606L0.0898243 31.0991C-0.0200192 31.2775 -0.0298039 31.5062 0.0642433 31.6946C0.158543 31.8829 0.341351 32.0003 0.540231 32Z" fill="#24BA96"/>
</svg>
