<svg width="16" height="17" viewBox="0 0 16 17" fill="none" xmlns="http://www.w3.org/2000/svg">
<g clip-path="url(#clip0_1339_1537)">
<path fill-rule="evenodd" clip-rule="evenodd" d="M8.49794 3.57562V4.07512C8.48894 4.51813 7.77244 4.77062 7.54594 4.28662C7.51578 4.22015 7.49977 4.14812 7.49894 4.07512V3.57562H6.00094C5.61644 3.55712 5.35894 3.05463 5.62344 2.74913C5.71444 2.64412 5.78794 2.58713 6.00094 2.57663C6.49994 2.57663 6.99944 2.57512 7.49894 2.57212V2.07763C7.49762 2.02437 7.50609 1.97132 7.52394 1.92113C7.58994 1.72063 7.78744 1.57812 8.00844 1.57812C8.27494 1.58862 8.49194 1.78813 8.49794 2.07763V2.56612C9.49644 2.56012 10.4954 2.55462 11.4944 2.55962V2.07763C11.4994 1.81063 11.6944 1.58963 11.9839 1.57812H12.0034C12.2704 1.58862 12.4874 1.78813 12.4929 2.07763V2.56862L13.0294 2.57713C13.7949 2.60113 14.4759 3.25962 14.4904 4.05662C14.5094 7.06512 14.5094 10.0741 14.4904 13.0831C14.4764 13.8556 13.8079 14.5476 13.0109 14.5626C9.66944 14.5831 6.32744 14.5831 2.98594 14.5626C2.21644 14.5481 1.52144 13.8931 1.50644 13.0831C1.48744 10.0741 1.48744 7.06512 1.50644 4.05662C1.52044 3.27862 2.18694 2.58213 3.00294 2.57663H3.50394V2.07763C3.50236 2.02435 3.51084 1.97126 3.52894 1.92113C3.59494 1.72063 3.79244 1.57812 4.01294 1.57812C4.27994 1.58862 4.49694 1.78813 4.50244 2.07763V4.07512C4.49394 4.51762 3.79794 4.76562 3.55944 4.30463C3.52352 4.23342 3.50452 4.15488 3.50394 4.07512V3.57363C3.33327 3.57229 3.16259 3.57296 2.99194 3.57562C2.73844 3.58362 2.51294 3.80562 2.50494 4.06262C2.44919 7.06703 2.44919 10.0722 2.50494 13.0766C2.51294 13.3306 2.73494 13.5556 2.99194 13.5636C6.32932 13.6256 9.66756 13.6256 13.0049 13.5636C13.2584 13.5556 13.4839 13.3336 13.4919 13.0766C13.5474 10.0726 13.5474 7.06662 13.4919 4.06262C13.4844 3.93353 13.4288 3.81195 13.336 3.72181C13.2433 3.63168 13.1202 3.57953 12.9909 3.57562H12.4929V4.07512C12.4844 4.51362 11.7864 4.76113 11.5499 4.30463C11.5143 4.23333 11.4953 4.15485 11.4944 4.07512V3.57562H8.49794ZM4.00294 11.5661C4.0699 11.564 4.1366 11.5754 4.19908 11.5995C4.26156 11.6237 4.31855 11.6602 4.36667 11.7068C4.41478 11.7534 4.45303 11.8092 4.47916 11.8709C4.50528 11.9326 4.51875 11.9989 4.51875 12.0659C4.51875 12.1329 4.50528 12.1992 4.47916 12.2609C4.45303 12.3225 4.41478 12.3784 4.36667 12.425C4.31855 12.4716 4.26156 12.5081 4.19908 12.5322C4.1366 12.5564 4.0699 12.5677 4.00294 12.5656C3.87313 12.5615 3.75002 12.5071 3.65965 12.4138C3.56928 12.3205 3.51875 12.1957 3.51875 12.0659C3.51875 11.936 3.56928 11.8112 3.65965 11.718C3.75002 11.6247 3.87313 11.5702 4.00294 11.5661ZM6.00094 11.5661C6.06842 11.5632 6.13579 11.5739 6.199 11.5977C6.26221 11.6215 6.31994 11.6579 6.36871 11.7046C6.41748 11.7514 6.45627 11.8075 6.48276 11.8696C6.50924 11.9317 6.52285 11.9986 6.52279 12.0661C6.52272 12.1337 6.50897 12.2005 6.48236 12.2626C6.45576 12.3247 6.41685 12.3807 6.36799 12.4274C6.31912 12.474 6.26132 12.5102 6.19806 12.5339C6.13481 12.5576 6.06741 12.5682 5.99994 12.5651C5.87133 12.5592 5.74995 12.504 5.66107 12.4108C5.57219 12.3177 5.52266 12.1939 5.52279 12.0651C5.52292 11.9364 5.5727 11.8127 5.66176 11.7197C5.75083 11.6268 5.87232 11.5718 6.00094 11.5661ZM7.99844 11.5661C8.12705 11.5719 8.24848 11.627 8.33745 11.7201C8.42643 11.8131 8.47608 11.9369 8.47608 12.0656C8.47608 12.1944 8.42643 12.3181 8.33745 12.4112C8.24848 12.5042 8.12705 12.5594 7.99844 12.5651C7.86983 12.5594 7.74839 12.5042 7.65942 12.4112C7.57045 12.3181 7.52079 12.1944 7.52079 12.0656C7.52079 11.9369 7.57045 11.8131 7.65942 11.7201C7.74839 11.627 7.86983 11.5719 7.99844 11.5661ZM4.00294 9.56863C4.06983 9.56651 4.13646 9.57785 4.19889 9.60199C4.26131 9.62613 4.31824 9.66256 4.36631 9.70913C4.41437 9.7557 4.45259 9.81145 4.47869 9.87308C4.50479 9.93471 4.51824 10.0009 4.51824 10.0679C4.51824 10.1348 4.50479 10.201 4.47869 10.2627C4.45259 10.3243 4.41437 10.38 4.36631 10.4266C4.31824 10.4732 4.26131 10.5096 4.19889 10.5338C4.13646 10.5579 4.06983 10.5692 4.00294 10.5671C3.87326 10.563 3.75027 10.5086 3.66 10.4154C3.56972 10.3223 3.51924 10.1976 3.51924 10.0679C3.51924 9.93814 3.56972 9.81349 3.66 9.72031C3.75027 9.62713 3.87326 9.57273 4.00294 9.56863ZM6.00094 9.56863C6.13335 9.56863 6.26033 9.62122 6.35396 9.71485C6.44759 9.80848 6.50019 9.93547 6.50019 10.0679C6.50019 10.2003 6.44759 10.3273 6.35396 10.4209C6.26033 10.5145 6.13335 10.5671 6.00094 10.5671C5.86853 10.5671 5.74154 10.5145 5.64791 10.4209C5.55429 10.3273 5.50169 10.2003 5.50169 10.0679C5.50169 9.93547 5.55429 9.80848 5.64791 9.71485C5.74154 9.62122 5.86853 9.56863 6.00094 9.56863ZM7.99844 9.56863C8.0654 9.56651 8.1321 9.57787 8.19458 9.60203C8.25706 9.62619 8.31405 9.66266 8.36217 9.70928C8.41028 9.75589 8.44853 9.8117 8.47466 9.87339C8.50078 9.93507 8.51425 10.0014 8.51425 10.0684C8.51425 10.1354 8.50078 10.2017 8.47466 10.2634C8.44853 10.3251 8.41028 10.3809 8.36217 10.4275C8.31405 10.4741 8.25706 10.5106 8.19458 10.5347C8.1321 10.5589 8.0654 10.5702 7.99844 10.5681C7.86863 10.564 7.74552 10.5096 7.65515 10.4163C7.56478 10.323 7.51425 10.1982 7.51425 10.0684C7.51425 9.9385 7.56478 9.81373 7.65515 9.72046C7.74552 9.62718 7.86863 9.57273 7.99844 9.56863ZM9.99594 9.56863C10.0629 9.56651 10.1296 9.57787 10.1921 9.60203C10.2546 9.62619 10.3116 9.66266 10.3597 9.70928C10.4078 9.75589 10.446 9.8117 10.4722 9.87339C10.4983 9.93507 10.5117 10.0014 10.5117 10.0684C10.5117 10.1354 10.4983 10.2017 10.4722 10.2634C10.446 10.3251 10.4078 10.3809 10.3597 10.4275C10.3116 10.4741 10.2546 10.5106 10.1921 10.5347C10.1296 10.5589 10.0629 10.5702 9.99594 10.5681C9.86613 10.564 9.74302 10.5096 9.65265 10.4163C9.56228 10.323 9.51175 10.1982 9.51175 10.0684C9.51175 9.9385 9.56228 9.81373 9.65265 9.72046C9.74302 9.62718 9.86613 9.57273 9.99594 9.56863ZM11.9934 9.56863C12.0603 9.56651 12.127 9.57785 12.1894 9.60199C12.2518 9.62613 12.3087 9.66256 12.3568 9.70913C12.4049 9.7557 12.4431 9.81145 12.4692 9.87308C12.4953 9.93471 12.5087 10.0009 12.5087 10.0679C12.5087 10.1348 12.4953 10.201 12.4692 10.2627C12.4431 10.3243 12.4049 10.38 12.3568 10.4266C12.3087 10.4732 12.2518 10.5096 12.1894 10.5338C12.127 10.5579 12.0603 10.5692 11.9934 10.5671C11.8638 10.563 11.7408 10.5086 11.6505 10.4154C11.5602 10.3223 11.5097 10.1976 11.5097 10.0679C11.5097 9.93814 11.5602 9.81349 11.6505 9.72031C11.7408 9.62713 11.8638 9.57273 11.9934 9.56863ZM6.00094 7.57113C6.06647 7.57113 6.13135 7.58403 6.1919 7.60911C6.25244 7.63419 6.30745 7.67094 6.35378 7.71728C6.40012 7.76362 6.43688 7.81862 6.46195 7.87917C6.48703 7.93971 6.49994 8.0046 6.49994 8.07013C6.49994 8.13565 6.48703 8.20054 6.46195 8.26108C6.43688 8.32163 6.40012 8.37664 6.35378 8.42297C6.30745 8.46931 6.25244 8.50606 6.1919 8.53114C6.13135 8.55622 6.06647 8.56913 6.00094 8.56913C5.86859 8.56913 5.74167 8.51655 5.64809 8.42297C5.55451 8.32939 5.50194 8.20247 5.50194 8.07013C5.50194 7.93778 5.55451 7.81086 5.64809 7.71728C5.74167 7.6237 5.86859 7.57113 6.00094 7.57113ZM7.99844 7.57113C8.06591 7.56811 8.1333 7.57879 8.19653 7.60253C8.25977 7.62627 8.31754 7.66257 8.36635 7.70925C8.41517 7.75593 8.45402 7.81202 8.48056 7.87413C8.50711 7.93624 8.52079 8.00308 8.52079 8.07062C8.52079 8.13817 8.50711 8.20501 8.48056 8.26712C8.45402 8.32923 8.41517 8.38531 8.36635 8.432C8.31754 8.47868 8.25977 8.51498 8.19653 8.53872C8.1333 8.56246 8.06591 8.57314 7.99844 8.57012C7.86983 8.56437 7.74839 8.50923 7.65942 8.41618C7.57045 8.32314 7.52079 8.19936 7.52079 8.07062C7.52079 7.94189 7.57045 7.81811 7.65942 7.72507C7.74839 7.63202 7.86983 7.57688 7.99844 7.57113ZM9.99594 7.57113C10.0634 7.56811 10.1308 7.57879 10.194 7.60253C10.2573 7.62627 10.315 7.66257 10.3639 7.70925C10.4127 7.75593 10.4515 7.81202 10.4781 7.87413C10.5046 7.93624 10.5183 8.00308 10.5183 8.07062C10.5183 8.13817 10.5046 8.20501 10.4781 8.26712C10.4515 8.32923 10.4127 8.38531 10.3639 8.432C10.315 8.47868 10.2573 8.51498 10.194 8.53872C10.1308 8.56246 10.0634 8.57314 9.99594 8.57012C9.86733 8.56437 9.7459 8.50923 9.65692 8.41618C9.56795 8.32314 9.51829 8.19936 9.51829 8.07062C9.51829 7.94189 9.56795 7.81811 9.65692 7.72507C9.7459 7.63202 9.86733 7.57688 9.99594 7.57113ZM11.9934 7.57113C12.1258 7.57106 12.2529 7.62359 12.3465 7.71718C12.4402 7.81076 12.4929 7.93772 12.4929 8.07013C12.493 8.20253 12.4405 8.32955 12.3469 8.42322C12.2533 8.5169 12.1263 8.56956 11.9939 8.56962C11.9284 8.56966 11.8634 8.55678 11.8029 8.53172C11.7423 8.50666 11.6872 8.46991 11.6408 8.42357C11.5945 8.37724 11.5577 8.32222 11.5325 8.26166C11.5074 8.2011 11.4945 8.13619 11.4944 8.07062C11.4944 8.00506 11.5073 7.94014 11.5323 7.87955C11.5574 7.81897 11.5942 7.76391 11.6405 7.71753C11.6868 7.67115 11.7418 7.63434 11.8024 7.60922C11.863 7.5841 11.9279 7.57116 11.9934 7.57113Z" fill="#202C4A"/>
</g>
<defs>
<clipPath id="clip0_1339_1537">
<rect width="16" height="16" fill="white" transform="translate(0 0.078125)"/>
</clipPath>
</defs>
</svg>
