<svg xmlns="http://www.w3.org/2000/svg" viewBox="0 0 64 64"><g id="Layer_32" data-name="Layer 32"><rect x="3" y="31" width="59" height="30" style="fill:#f97878"/><path d="M41.939,3.124a14.941,14.941,0,0,0-6.485.586,11.331,11.331,0,0,1-6.908,0,14.99,14.99,0,0,0-16.532,23.3,20.736,20.736,0,0,1,3.735,9.028c.807,4.711,1.886,11.005,2.575,15.023A4.745,4.745,0,0,0,23,55h0a4.745,4.745,0,0,0,4.676-3.942l2.487-14.509A1.863,1.863,0,0,1,32,35h0a1.863,1.863,0,0,1,1.837,1.549l2.487,14.509A4.745,4.745,0,0,0,41,55h0a4.738,4.738,0,0,0,4.675-3.937l2.577-15.032a20.719,20.719,0,0,1,3.734-9.024A14.99,14.99,0,0,0,41.939,3.124Z" style="fill:#c7ced1"/><path d="M21.353,36.491l-1.706-3.982A8,8,0,0,1,19,29.358V29a4,4,0,0,0-4-4H10.75a14.963,14.963,0,0,0,1.264,2.007,20.736,20.736,0,0,1,3.735,9.028c.465,2.712,1.018,5.941,1.537,8.965H18a4,4,0,0,0,4-4V39.642A8,8,0,0,0,21.353,36.491Z" style="fill:#fcbe42"/><path d="M42.647,36.491l1.706-3.982A8,8,0,0,0,45,29.358V29a4,4,0,0,1,4-4h4.25a14.963,14.963,0,0,1-1.264,2.007,20.736,20.736,0,0,0-3.735,9.028c-.465,2.712-1.018,5.941-1.537,8.965H46a4,4,0,0,1-4-4V39.642A8,8,0,0,1,42.647,36.491Z" style="fill:#fcbe42"/><path d="M62,30H51.284a17.343,17.343,0,0,1,1.5-2.391A15.988,15.988,0,0,0,35.147,2.758a10.382,10.382,0,0,1-6.295,0,15.906,15.906,0,0,0-6.887-.629A15.991,15.991,0,0,0,11.216,27.609,17.284,17.284,0,0,1,12.715,30H3a1,1,0,0,0-1,1V61a1,1,0,0,0,1,1H62a1,1,0,0,0,1-1V31A1,1,0,0,0,62,30ZM45.874,43.987A3,3,0,0,1,43,41V39.642a6.961,6.961,0,0,1,.565-2.757L45.272,32.9A8.943,8.943,0,0,0,46,29.358V29a3,3,0,0,1,3-3h2.463c-.094.134-.177.274-.276.405a21.543,21.543,0,0,0-3.92,9.457ZM10.08,16.483A14.06,14.06,0,0,1,22.213,4.112a13.915,13.915,0,0,1,6.027.55,12.411,12.411,0,0,0,7.519,0,13.9,13.9,0,0,1,6.054-.546A13.982,13.982,0,0,1,52.641,24H49a5.006,5.006,0,0,0-5,5v.358a6.961,6.961,0,0,1-.565,2.757L41.728,36.1A8.943,8.943,0,0,0,41,39.642V41a4.99,4.99,0,0,0,4.536,4.953l-.847,4.941a3.744,3.744,0,0,1-7.379,0L34.822,36.38a2.863,2.863,0,0,0-5.644,0L26.69,50.889a3.744,3.744,0,0,1-7.38,0l-.846-4.936A4.989,4.989,0,0,0,23,41V39.642a8.943,8.943,0,0,0-.728-3.545l-1.707-3.982A6.961,6.961,0,0,1,20,29.358V29a5.006,5.006,0,0,0-5-5H11.361A14.039,14.039,0,0,1,10.08,16.483ZM18.728,32.9l1.707,3.982A6.961,6.961,0,0,1,21,39.642V41a3,3,0,0,1-2.874,2.987l-1.392-8.12A21.575,21.575,0,0,0,12.812,26.4c-.1-.131-.182-.27-.276-.4H15a3,3,0,0,1,3,3v.358A8.943,8.943,0,0,0,18.728,32.9ZM61,60H4V32h9.617a22.2,22.2,0,0,1,1.147,4.2l2.575,15.022a5.744,5.744,0,0,0,11.322,0l2.487-14.509a.865.865,0,0,1,1.7,0l2.487,14.509a5.743,5.743,0,0,0,11.321,0L49.237,36.2A22.166,22.166,0,0,1,50.382,32H61Z"/></g></svg>