<svg xmlns="http://www.w3.org/2000/svg" viewBox="0 0 64 64"><g id="Layer_32" data-name="Layer 32"><rect x="3" y="31" width="59" height="30" style="fill:#f97878"/><path d="M54.69,21H9.3A14.993,14.993,0,0,1,28.55,3.71a11.291,11.291,0,0,0,6.9,0A14.968,14.968,0,0,1,54.69,21Z" style="fill:#c7ced1"/><polygon points="38 25 26 25 24 29 40 29 38 25" style="fill:#b3babc"/><path d="M13.312,29a21.78,21.78,0,0,1,2.438,7.04c.81,4.71,1.89,11,2.57,15.02a4.75,4.75,0,0,0,9.36,0l2.48-14.51a1.867,1.867,0,0,1,3.68,0l2.48,14.51a4.743,4.743,0,0,0,9.35,0c.69-4.02,1.77-10.32,2.58-15.03A21.782,21.782,0,0,1,50.688,29Z" style="fill:#c7ced1"/><path d="M9.3,22H54.69a1,1,0,0,0,.98-.8,15.964,15.964,0,0,0-13.6-19.074,15.986,15.986,0,0,0-6.921.63,10.354,10.354,0,0,1-6.291,0A16.011,16.011,0,0,0,8.32,21.2,1,1,0,0,0,9.3,22Zm.785-5.517A13.986,13.986,0,0,1,28.244,4.662a12.374,12.374,0,0,0,7.51,0A13.984,13.984,0,0,1,53.9,16.248,14.31,14.31,0,0,1,53.852,20H10.142A14.2,14.2,0,0,1,10.085,16.483Z"/><path d="M62,30H51.3c.088-.167.164-.344.257-.507A1,1,0,0,0,50.688,28H40.618L38.9,24.553A1,1,0,0,0,38,24H26a1,1,0,0,0-.895.553L23.382,28H13.312a1,1,0,0,0-.871,1.492c.093.164.169.341.257.508H3a1,1,0,0,0-1,1V61a1,1,0,0,0,1,1H62a1,1,0,0,0,1-1V31A1,1,0,0,0,62,30ZM26.618,26H37.382l1,2H25.618ZM24,30H49.054a23.463,23.463,0,0,0-1.789,5.86L44.684,50.9a3.744,3.744,0,0,1-7.378,0L34.824,36.375a2.866,2.866,0,0,0-5.649.006L26.694,50.888a3.748,3.748,0,0,1-7.387.005c-.681-4.02-1.762-10.311-2.572-15.022A23.465,23.465,0,0,0,14.945,30ZM61,60H4V32h9.6a22.057,22.057,0,0,1,1.165,4.209c.809,4.709,1.888,11,2.57,15.02a5.749,5.749,0,0,0,11.33,0l2.48-14.5a.867.867,0,0,1,1.709-.007l2.481,14.511a5.742,5.742,0,0,0,11.32,0L49.235,36.2A22.037,22.037,0,0,1,50.4,32H61Z"/></g></svg>