<svg xmlns="http://www.w3.org/2000/svg" viewBox="0 0 64 64"><g id="Layer_32" data-name="Layer 32"><path d="M3,19H61a0,0,0,0,1,0,0V53a2,2,0,0,1-2,2H5a2,2,0,0,1-2-2V19A0,0,0,0,1,3,19Z" style="fill:#62b5e8"/><path d="M5,11H59a2,2,0,0,1,2,2v6a0,0,0,0,1,0,0H3a0,0,0,0,1,0,0V13A2,2,0,0,1,5,11Z" style="fill:gray"/><path d="M37.428,25.142A7.005,7.005,0,0,0,32,26.26a7,7,0,0,0-9.164,10.462,8.456,8.456,0,0,1,2.272,4.694l.685,5.821A2,2,0,0,0,27.778,49h.444a2,2,0,0,0,1.986-1.766l.741-6.3A1.058,1.058,0,0,1,32,40h0a1.058,1.058,0,0,1,1.051.935l.741,6.3A2,2,0,0,0,35.778,49h.444a2,2,0,0,0,1.985-1.763l.685-5.821a8.456,8.456,0,0,1,2.272-4.694,7,7,0,0,0-3.736-11.58Z" style="fill:#c7ced1"/><path d="M59,10H56V8H54v2H50V8H48v2H16V8H14v2H10V8H8v2H5a3,3,0,0,0-3,3V53a3,3,0,0,0,3,3H59a3,3,0,0,0,3-3V13A3,3,0,0,0,59,10ZM4,13a1,1,0,0,1,1-1H8v2h2V12h4v2h2V12H48v2h2V12h4v2h2V12h3a1,1,0,0,1,1,1v5H4ZM60,53a1,1,0,0,1-1,1H5a1,1,0,0,1-1-1V20H60Z"/><path d="M24.114,41.533l.686,5.821A3,3,0,0,0,27.778,50h.444A3,3,0,0,0,31.2,47.351l.741-6.3h.116l.741,6.3A3,3,0,0,0,35.778,50h.444A3,3,0,0,0,39.2,47.354l.686-5.821A7.484,7.484,0,0,1,41.9,37.4,8,8,0,0,0,32,25.075,8,8,0,0,0,22.1,37.4,7.484,7.484,0,0,1,24.114,41.533ZM22.07,31.069a5.993,5.993,0,0,1,9.358-3.989,1,1,0,0,0,1.144,0,6,6,0,0,1,7.855,8.966A9.456,9.456,0,0,0,37.9,41.3l-.685,5.822a1,1,0,0,1-.992.879h-.444a1,1,0,0,1-.993-.884l-.741-6.3a2.058,2.058,0,0,0-4.088,0l-.741,6.3a1,1,0,0,1-.993.884h-.444a1,1,0,0,1-.992-.88L26.1,41.3a9.456,9.456,0,0,0-2.528-5.253A6.017,6.017,0,0,1,22.07,31.069Z"/></g></svg>