<svg xmlns="http://www.w3.org/2000/svg" viewBox="0 0 64 64"><g id="Layer_32" data-name="Layer 32"><rect x="3" y="39" width="58" height="16" style="fill:#f97878"/><polygon points="34 15 24 11 24 16 34 21 61 21 61 15 34 15" style="fill:#62b5e8"/><path d="M20,9h2a2,2,0,0,1,2,2v8a0,0,0,0,1,0,0H18a0,0,0,0,1,0,0V11A2,2,0,0,1,20,9Z" style="fill:#62b5e8"/><path d="M48.428,27.142A7.005,7.005,0,0,0,43,28.26a7,7,0,0,0-9.164,10.462,8.456,8.456,0,0,1,2.272,4.694l.685,5.821A2,2,0,0,0,38.778,51h.444a2,2,0,0,0,1.986-1.766l.741-6.3A1.058,1.058,0,0,1,43,42h0a1.058,1.058,0,0,1,1.051.935l.741,6.3A2,2,0,0,0,46.778,51h.444a2,2,0,0,0,1.985-1.763l.685-5.821a8.456,8.456,0,0,1,2.272-4.694,7,7,0,0,0-3.736-11.58Z" style="fill:#c7ced1"/><path d="M26.428,27.142A7.005,7.005,0,0,0,21,28.26a7,7,0,0,0-9.164,10.462,8.456,8.456,0,0,1,2.272,4.694l.685,5.821A2,2,0,0,0,16.778,51h.444a2,2,0,0,0,1.986-1.766l.741-6.3A1.058,1.058,0,0,1,21,42h0a1.058,1.058,0,0,1,1.051.935l.741,6.3A2,2,0,0,0,24.778,51h.444a2,2,0,0,0,1.985-1.763l.685-5.821a8.456,8.456,0,0,1,2.272-4.694,7,7,0,0,0-3.736-11.58Z" style="fill:#c7ced1"/><path d="M61,38H53.924a8.034,8.034,0,0,0,.985-5.226A7.995,7.995,0,0,0,43,27.074a8.009,8.009,0,0,0-5.623-.912A7.918,7.918,0,0,0,32,30.138a7.918,7.918,0,0,0-5.377-3.976A8.008,8.008,0,0,0,21,27.074,7.994,7.994,0,0,0,10.076,38H3a1,1,0,0,0-1,1V55a1,1,0,0,0,1,1H61a1,1,0,0,0,1-1V39A1,1,0,0,0,61,38ZM33.07,33.069a5.993,5.993,0,0,1,9.358-3.989,1,1,0,0,0,1.144,0,6,6,0,0,1,7.855,8.966A9.462,9.462,0,0,0,48.9,43.3l-.685,5.821a1,1,0,0,1-.992.88h-.444a1,1,0,0,1-.993-.884l-.741-6.3a2.058,2.058,0,0,0-4.088,0l-.741,6.3a1,1,0,0,1-.993.884h-.444a1,1,0,0,1-.992-.88L37.1,43.3a9.462,9.462,0,0,0-2.528-5.253A6.01,6.01,0,0,1,33.07,33.069Zm-22,0a5.993,5.993,0,0,1,9.358-3.989,1,1,0,0,0,1.144,0,6,6,0,0,1,7.855,8.966A9.462,9.462,0,0,0,26.9,43.3l-.685,5.821a1,1,0,0,1-.992.88h-.444a1,1,0,0,1-.993-.884l-.741-6.3a2.058,2.058,0,0,0-4.088,0l-.741,6.3a1,1,0,0,1-.993.884h-.444a1,1,0,0,1-.992-.88L15.1,43.3a9.462,9.462,0,0,0-2.528-5.253A6.01,6.01,0,0,1,11.07,33.069ZM60,54H4V40h7.579a7.226,7.226,0,0,1,1.536,3.533l.684,5.821A3,3,0,0,0,16.778,52h.444A3,3,0,0,0,20.2,49.351l.741-6.3-.993-.117,1.109.117.741,6.3A3,3,0,0,0,24.778,52h.444A3,3,0,0,0,28.2,49.354l.684-5.821A7.481,7.481,0,0,1,30.9,39.4,7.989,7.989,0,0,0,32,37.862,7.989,7.989,0,0,0,33.1,39.4a7.481,7.481,0,0,1,2.017,4.136l.684,5.821A3,3,0,0,0,38.778,52h.444A3,3,0,0,0,42.2,49.351l.741-6.3-.993-.117,1.109.117.741,6.3A3,3,0,0,0,46.778,52h.444A3,3,0,0,0,50.2,49.354l.684-5.821A7.226,7.226,0,0,1,52.421,40H60Z"/><path d="M61,14H34.192L24.9,10.284A3,3,0,0,0,22,8H20a3,3,0,0,0-3,3v8a1,1,0,0,0,1,1h2v5h2V20h2a1,1,0,0,0,1-1V17.618L33.553,21.9A1,1,0,0,0,34,22H61a1,1,0,0,0,1-1V15A1,1,0,0,0,61,14ZM23,18H19V11a1,1,0,0,1,1-1h2a1,1,0,0,1,1,1v7Zm37,2H34.236L25,15.382v-2.9l8.628,3.452A1.012,1.012,0,0,0,34,16H60Z"/></g></svg>