<svg width="80" height="81" viewBox="0 0 80 81" fill="none" xmlns="http://www.w3.org/2000/svg">
<path d="M72.2584 34.4132H46.4518C45.0284 34.4132 43.8711 35.5681 43.8711 36.9885V73.042C43.8711 74.4624 45.0284 75.6172 46.4518 75.6172H72.2584C73.6818 75.6172 74.8391 74.4624 74.8391 73.042V36.9885C74.8391 35.5681 73.6818 34.4132 72.2584 34.4132ZM72.2584 36.9885L72.2596 47.2895H46.4514V36.9885H72.2584ZM72.2596 49.8647L72.2607 60.1657H46.4511V49.8647H72.2596ZM46.4514 73.042V62.741H72.2596L72.2607 73.042H46.4514Z" fill="#0072FF"/>
<path d="M49.0332 65.3156H51.6139V70.4661H49.0332V65.3156Z" fill="#0072FF"/>
<path d="M54.1953 65.3156H56.776V70.4661H54.1953V65.3156Z" fill="#0072FF"/>
<path d="M59.3555 65.3156H61.9361V70.4661H59.3555V65.3156Z" fill="#0072FF"/>
<path d="M56.7754 52.4395H59.3561V57.59H56.7754V52.4395Z" fill="#0072FF"/>
<path d="M61.9375 52.4395H64.5182V57.59H61.9375V52.4395Z" fill="#0072FF"/>
<path d="M67.0977 52.4395H69.6783V57.59H67.0977V52.4395Z" fill="#0072FF"/>
<path d="M49.0332 39.5635H51.6139V44.714H49.0332V39.5635Z" fill="#0072FF"/>
<path d="M54.1953 39.5635H56.776V44.714H54.1953V39.5635Z" fill="#0072FF"/>
<path d="M59.3555 39.5635H61.9361V44.714H59.3555V39.5635Z" fill="#0072FF"/>
<path d="M73.5494 29.2623H70.2734C71.5471 27.3706 72.2591 25.1379 72.2591 22.8242C72.2591 16.4349 67.05 11.2355 60.6461 11.2355C59.8177 11.2355 58.9934 11.3258 58.18 11.5034C55.6627 5.13194 49.5441 0.93457 42.581 0.93457C36.5735 0.93457 30.9979 4.20764 28.0302 9.37595C26.9201 8.90516 25.7266 8.66028 24.5163 8.66028C19.946 8.66028 16.1573 12.0662 15.5641 16.4671C11.1551 17.058 7.742 20.8387 7.742 25.3994C7.742 29.9308 11.1147 33.6816 15.484 34.3099V47.3547C6.83758 48.0169 0 55.2339 0 64.0276C0 73.2571 7.52537 80.7667 16.7743 80.7667C25.5872 80.7667 32.8187 73.9435 33.4823 65.3152H38.7092V74.3286C38.7092 77.8788 41.6033 80.7667 45.1609 80.7667H73.5482C77.1059 80.7667 79.9999 77.8788 79.9999 74.3286V35.6998C79.9999 32.1497 77.1059 29.2617 73.5482 29.2617L73.5494 29.2623ZM10.3231 25.3994C10.3231 21.8492 13.2171 18.9613 16.7748 18.9613H18.0651V17.6737C18.0651 14.1235 20.9591 11.2355 24.5168 11.2355C25.708 11.2355 26.878 11.5701 27.9016 12.2013L29.1314 12.9612L29.7483 11.6557C32.083 6.70699 37.1223 3.50985 42.5813 3.50985C48.8279 3.50985 54.2732 7.50385 56.131 13.4475L56.5244 14.7041L57.775 14.2845C58.7117 13.9706 59.6782 13.8108 60.6461 13.8108C65.6254 13.8108 69.6784 17.8542 69.6784 22.8242C69.6784 25.2511 68.6772 27.5666 66.9342 29.2623H45.1622C43.0632 29.2623 41.2123 30.2832 40.0344 31.8376H16.7745C13.2168 31.8376 10.3228 28.9496 10.3228 25.3994L10.3231 25.3994ZM16.7748 78.1921C15.3877 78.1921 13.9101 76.2262 12.8923 73.0416H20.659C19.6394 76.2262 18.1618 78.1921 16.7748 78.1921ZM12.2338 70.4663C11.9187 68.9097 11.7073 67.1788 11.6405 65.3158H21.9091C21.8422 67.1788 21.6291 68.9097 21.3157 70.4663H12.2338ZM2.64673 65.3158H9.06094C9.12027 67.1432 9.29827 68.8735 9.58859 70.4663H4.14737C3.33975 68.8941 2.81325 67.157 2.64674 65.3158H2.64673ZM16.7748 49.8643C18.1619 49.8643 19.6395 51.8302 20.6573 55.0148H12.8905C13.9101 51.8302 15.3877 49.8643 16.7748 49.8643ZM21.3157 57.59C21.6308 59.1467 21.8422 60.8775 21.909 62.7406H11.6405C11.7073 60.8775 11.9204 59.1467 12.2338 57.59H21.3157ZM9.06094 62.7406H2.64673C2.81436 60.8993 3.3397 59.1623 4.14853 57.59H9.58872C9.29839 59.1829 9.11924 60.9132 9.06107 62.7406H9.06094ZM24.4889 65.3158H30.9031C30.7355 67.157 30.2101 68.8941 29.4013 70.4663H23.9611C24.2514 68.8735 24.4306 67.1432 24.4888 65.3158H24.4889ZM24.4889 62.7406C24.4296 60.9132 24.2516 59.1829 23.9612 57.59H29.4014C30.209 59.1623 30.7355 60.8993 30.9032 62.7406H24.4889ZM23.3622 55.0148C22.8875 53.3472 22.2821 51.8964 21.5672 50.7128C23.9854 51.5819 26.1064 53.0742 27.7142 55.0148H23.3622ZM11.983 50.7128C11.2682 51.8964 10.6628 53.3472 10.1881 55.0148H5.83443C7.44329 53.0741 9.56489 51.5831 11.983 50.7128ZM5.83443 73.041H10.1871C10.6617 74.7086 11.2671 76.1594 11.982 77.343C9.56489 76.4727 7.44344 74.9815 5.83443 73.041ZM21.5676 77.343C22.2813 76.1594 22.8879 74.7086 23.3626 73.041H27.7152C26.1075 74.9817 23.9859 76.4727 21.5676 77.343ZM33.4843 62.74C32.8547 54.5377 26.2855 47.9816 18.0666 47.3547V34.4129H38.8417C38.7565 34.8291 38.7115 35.2602 38.7115 35.7006V62.7407L33.4843 62.74ZM77.4219 74.3286C77.4219 76.4584 75.6852 78.1915 73.5509 78.1915H45.1636C43.0293 78.1915 41.2926 76.4584 41.2926 74.3286V35.6998C41.2926 33.57 43.0293 31.837 45.1636 31.837H73.5509C75.6852 31.837 77.4219 33.57 77.4219 35.6998V74.3286Z" fill="#0072FF"/>
<path d="M42.5818 8.66128C43.3468 8.66128 44.1084 8.7567 44.841 8.94468L45.4838 6.45051C44.5403 6.20851 43.5638 6.08606 42.5817 6.08606C38.4486 6.08606 34.5943 8.30607 32.5234 11.8804L34.7556 13.1691C36.3686 10.3882 39.3674 8.66128 42.5817 8.66128H42.5818Z" fill="#0072FF"/>
<path d="M51.2905 10.0074C50.4541 9.06232 49.4777 8.26383 48.3883 7.63562L47.0957 9.86432C47.9436 10.3535 48.7034 10.9743 49.3549 11.7119L51.2905 10.0074Z" fill="#0072FF"/>
<path d="M24.5173 29.2629V26.6876H16.7753C16.0633 26.6876 15.485 26.1093 15.485 25.4C15.485 24.6906 16.0633 24.1124 16.7753 24.1124V21.5371C14.641 21.5371 12.9043 23.2702 12.9043 25.4C12.9043 27.5298 14.641 29.2629 16.7753 29.2629H24.5173Z" fill="#0072FF"/>
<path d="M27.0977 26.6864H29.6783V29.2617H27.0977V26.6864Z" fill="#0072FF"/>
<path d="M64.5175 22.8248H67.0981C67.0981 19.2747 64.2041 16.3867 60.6465 16.3867V18.962C62.7808 18.962 64.5175 20.695 64.5175 22.8248Z" fill="#0072FF"/>
</svg>
