<svg width="40" height="41" viewBox="0 0 40 41" fill="none" xmlns="http://www.w3.org/2000/svg">
<path opacity="0.3" fill-rule="evenodd" clip-rule="evenodd" d="M5.83301 5.0625C4.4523 5.0625 3.33301 6.18179 3.33301 7.5625V27.5625C3.33301 28.9432 4.45229 30.0625 5.83301 30.0625H15.027L19.0883 36.1881C19.5031 36.8139 20.4339 36.7763 20.797 36.1191L24.1432 30.0625H34.1663C35.5471 30.0625 36.6663 28.9432 36.6663 27.5625V7.5625C36.6663 6.18179 35.5471 5.0625 34.1663 5.0625H5.83301Z" fill="#0263E0"/>
<path opacity="0.3" fill-rule="evenodd" clip-rule="evenodd" d="M9.99984 11.7292H24.9998C25.9203 11.7292 26.6665 12.4754 26.6665 13.3958C26.6665 14.3163 25.9203 15.0625 24.9998 15.0625H9.99984C9.07936 15.0625 8.33317 14.3163 8.33317 13.3958C8.33317 12.4754 9.07936 11.7292 9.99984 11.7292ZM9.99967 18.396H18.333C19.2535 18.396 19.9997 19.1422 19.9997 20.0627C19.9997 20.9831 19.2535 21.7293 18.333 21.7293H9.99967C9.0792 21.7293 8.33301 20.9831 8.33301 20.0627C8.33301 19.1422 9.0792 18.396 9.99967 18.396Z" fill="#0263E0"/>
</svg>
