<svg width="81" height="81" viewBox="0 0 81 81" fill="none" xmlns="http://www.w3.org/2000/svg">
<path d="M27.9428 27.0399H53.2748C58.237 27.0399 62.2411 23.1659 62.2411 18.3661C62.2411 13.6504 58.2364 9.77636 53.3617 9.6923C51.5333 4.47132 46.3974 0.93457 40.5651 0.93457C35.7771 0.93457 31.512 3.2925 28.9872 7.1664C28.6393 7.1664 28.2039 7.0824 27.8554 7.0824C22.1973 7.0824 17.4961 11.5456 17.4961 17.1038C17.671 22.4927 22.2847 27.0398 27.9427 27.0398L27.9428 27.0399ZM27.9428 9.86072C31.6857 9.86072 34.8195 12.5558 35.255 16.0925C35.3418 16.8503 36.1257 17.4401 36.9091 17.3555C37.6924 17.2715 38.3021 16.5131 38.2146 15.7553C37.7792 12.2184 35.3419 9.27085 32.1212 7.92391C34.1232 5.3135 37.257 3.71332 40.6521 3.71332C45.5268 3.71332 49.7051 6.91352 50.9238 11.5447C51.0981 12.2185 51.7946 12.7237 52.578 12.6397H52.7522C52.9265 12.6397 53.1002 12.5557 53.2745 12.5557C56.5826 12.5557 59.2812 15.1661 59.2812 18.3664C59.2812 21.5668 56.5827 24.1772 53.2745 24.1772L27.9425 24.1766C23.851 24.1766 20.5428 20.9764 20.5428 17.0183C20.6302 13.0603 23.9384 9.86059 27.9425 9.86059L27.9428 9.86072Z" fill="#0072FF"/>
<path d="M0 53.1456V75.7986C0 79.0828 5.4844 80.7669 10.8814 80.7669C16.2785 80.7669 21.7629 79.0828 21.7629 75.7986V53.1456C21.6755 46.6611 0 46.6611 0 53.1456ZM10.8814 77.9881C5.74556 77.9881 2.9596 76.3879 2.9596 75.8828V71.8408C5.04899 72.8511 8.00859 73.3563 10.8814 73.3563C13.7541 73.3563 16.7139 72.8511 18.8033 71.8408V75.8828C18.8033 76.388 15.9306 77.9881 10.8814 77.9881ZM10.8814 70.4087C5.74556 70.4087 2.9596 68.8085 2.9596 68.3034V64.2614C5.04899 65.2717 8.00859 65.7769 10.8814 65.7769C13.7541 65.7769 16.7139 65.2717 18.8033 64.2614V68.3034C18.8033 68.8092 15.9306 70.4087 10.8814 70.4087ZM10.8814 62.9138C5.74556 62.9138 2.9596 61.3137 2.9596 60.8085V56.7665C5.04899 57.7769 8.00859 58.282 10.8814 58.282C13.7541 58.282 16.7139 57.7769 18.8033 56.7665V60.8085C18.8033 61.3137 15.9306 62.9138 10.8814 62.9138ZM10.8814 55.3351C5.74556 55.3351 2.9596 53.7349 2.9596 53.2298C2.9596 52.7246 5.74556 51.1245 10.8814 51.1245C16.0173 51.1245 18.8033 52.7247 18.8033 53.2298C18.8033 53.735 15.9306 55.3351 10.8814 55.3351Z" fill="#0072FF"/>
<path d="M29.0742 53.1456V75.7986C29.0742 79.0828 34.5586 80.7669 39.9557 80.7669C45.3527 80.7669 50.8371 79.0828 50.8371 75.7986V53.1456C50.8371 46.6611 29.0742 46.6611 29.0742 53.1456ZM39.9557 77.9881C34.8198 77.9881 32.0338 76.3879 32.0338 75.8828V71.8408C34.1232 72.8511 37.0828 73.3563 39.9557 73.3563C42.8285 73.3563 45.7881 72.8511 47.8775 71.8408V75.8828C47.8775 76.388 45.0916 77.9881 39.9557 77.9881ZM39.9557 70.4087C34.8198 70.4087 32.0338 68.8085 32.0338 68.3034V64.2614C34.1232 65.2717 37.0828 65.7769 39.9557 65.7769C42.8285 65.7769 45.7881 65.2717 47.8775 64.2614V68.3034C47.8775 68.8092 45.0916 70.4087 39.9557 70.4087ZM39.9557 62.9138C34.8198 62.9138 32.0338 61.3137 32.0338 60.8085V56.7665C34.1232 57.7769 37.0828 58.282 39.9557 58.282C42.8285 58.282 45.7881 57.7769 47.8775 56.7665V60.8085C47.8775 61.3137 45.0916 62.9138 39.9557 62.9138ZM39.9557 55.3351C34.8198 55.3351 32.0338 53.7349 32.0338 53.2298C32.0338 52.7246 34.8198 51.1245 39.9557 51.1245C45.0916 51.1245 47.8775 52.7247 47.8775 53.2298C47.8775 53.735 45.0916 55.3351 39.9557 55.3351Z" fill="#0072FF"/>
<path d="M58.2383 53.1456V75.7986C58.2383 79.0828 63.7227 80.7669 69.1197 80.7669C74.5168 80.7669 80.0012 79.0828 80.0012 75.7986V53.1456C79.9137 46.6611 58.2383 46.6611 58.2383 53.1456ZM69.0324 51.0403C74.1683 51.0403 76.9542 52.6405 76.9542 53.1456C76.9542 53.6507 74.1683 55.2509 69.0324 55.2509C63.8965 55.2509 61.1105 53.6507 61.1105 53.1456C61.1105 52.6398 63.9832 51.0403 69.0324 51.0403ZM69.0324 77.9881C63.8965 77.9881 61.1105 76.3879 61.1105 75.8828V71.8408C63.1999 72.8511 66.1595 73.3563 69.0324 73.3563C71.9051 73.3563 74.8648 72.8511 76.9542 71.8408V75.8828C77.041 76.388 74.1683 77.9881 69.0324 77.9881ZM69.0324 70.4087C63.8965 70.4087 61.1105 68.8085 61.1105 68.3034V64.2614C63.1999 65.2717 66.1595 65.7769 69.0324 65.7769C71.9051 65.7769 74.8648 65.2717 76.9542 64.2614V68.3034C77.041 68.8092 74.1683 70.4087 69.0324 70.4087ZM69.0324 62.9138C63.8965 62.9138 61.1105 61.3137 61.1105 60.8085V56.7665C63.1999 57.7769 66.1595 58.282 69.0324 58.282C71.9051 58.282 74.8648 57.7769 76.9542 56.7665V60.8085C77.041 61.3137 74.1683 62.9138 69.0324 62.9138Z" fill="#0072FF"/>
<path d="M10.8823 44.8917C11.6656 44.8917 12.3621 44.218 12.3621 43.4602V38.997H38.5646V43.4602C38.5646 44.218 39.2611 44.8917 40.0444 44.8917C40.8277 44.8917 41.5242 44.218 41.5242 43.4602V38.997H67.7267V43.4602C67.7267 44.218 68.4232 44.8917 69.2065 44.8917C69.9899 44.8917 70.6863 44.218 70.6863 43.4602V37.5655C70.6863 36.8078 69.9899 36.134 69.2065 36.134H41.4371V31.6708C41.4371 30.913 40.7406 30.2393 39.9573 30.2393C39.174 30.2393 38.4775 30.913 38.4775 31.6708V36.134H10.8821C10.0988 36.134 9.40234 36.8078 9.40234 37.5655V43.4602C9.40234 44.3026 10.0114 44.8917 10.8821 44.8917H10.8823Z" fill="#0072FF"/>
</svg>
