<svg width="80" height="81" viewBox="0 0 80 81" fill="none" xmlns="http://www.w3.org/2000/svg">
<path d="M38.668 72.7832H41.3346V75.4443H38.668V72.7832Z" fill="#0072FF"/>
<path d="M44 72.7832H46.6667V75.4443H44V72.7832Z" fill="#0072FF"/>
<path d="M49.334 72.7832H57.334V75.4443H49.334V72.7832Z" fill="#0072FF"/>
<path d="M38.668 62.1385H41.3346V64.7996H38.668V62.1385Z" fill="#0072FF"/>
<path d="M44 62.1385H46.6667V64.7996H44V62.1385Z" fill="#0072FF"/>
<path d="M49.334 62.1385H57.334V64.7996H49.334V62.1385Z" fill="#0072FF"/>
<path d="M38.668 51.4951H41.3346V54.1562H38.668V51.4951Z" fill="#0072FF"/>
<path d="M44 51.4951H46.6667V54.1562H44V51.4951Z" fill="#0072FF"/>
<path d="M49.334 51.4951H57.334V54.1562H49.334V51.4951Z" fill="#0072FF"/>
<path d="M38.668 40.8505H41.3346V43.5115H38.668V40.8505Z" fill="#0072FF"/>
<path d="M44 40.8505H46.6667V43.5115H44V40.8505Z" fill="#0072FF"/>
<path d="M49.334 40.8505H57.334V43.5115H49.334V40.8505Z" fill="#0072FF"/>
<path d="M78.6669 35.5286H33.3336C32.5973 35.5286 32.0003 36.1244 32.0003 36.8591V72.7837H12.0004C11.2641 72.7837 10.667 72.188 10.667 71.4532C10.667 70.7184 11.2641 70.1227 12.0004 70.1227H25.3337C26.7628 70.1227 28.0831 69.3617 28.7979 68.1268C29.5122 66.8919 29.5122 65.3701 28.7979 64.1352C28.083 62.9003 26.7628 62.1394 25.3337 62.1394H6.66703C5.93073 62.1394 5.3337 61.5436 5.3337 60.8089C5.3337 60.0741 5.93073 59.4783 6.66703 59.4783H22.667C23.7277 59.4771 24.7444 59.056 25.4944 58.3082C26.2438 57.5597 26.6659 56.5452 26.667 55.4866V54.1561C27.6039 54.1561 28.5403 54.1074 29.4724 54.0106L29.195 51.3638C27.4676 51.542 25.7265 51.5355 24.0003 51.3454V50.1645H26.667C27.0206 50.1645 27.3599 50.0243 27.6098 49.7749L28.9432 48.4443C29.1932 48.1949 29.3337 47.8563 29.3337 47.5034V44.8424H26.667V46.9522L26.1146 47.5034H22.667C21.9307 47.5034 21.3337 48.0992 21.3337 48.834V50.9005C20.5747 50.7288 19.8235 50.5204 19.0879 50.2756C18.9468 50.2287 18.8069 50.1806 18.6671 50.1313V43.5119C18.6671 43.2238 18.5736 42.944 18.4004 42.7136L14.6671 37.746V34.1981C14.6671 33.8453 14.5266 33.5067 14.2766 33.2572L6.667 25.6635V18.326L7.38844 13.2842C10.1604 9.57236 13.9408 6.73184 18.2818 5.09961L16.2241 8.18008C15.9586 8.57687 15.9271 9.08591 16.1413 9.51299L17.4747 12.1741C17.6324 12.4895 17.9098 12.7295 18.2455 12.8411C18.5806 12.9528 18.9473 12.9267 19.2634 12.7687L23.7371 10.5364L24.7812 11.5789L16.7812 19.5621H12.0002C11.2639 19.5621 10.6669 20.1579 10.6669 20.8926V24.8843C10.6669 25.2371 10.8074 25.5757 11.0574 25.8251L16.3907 31.1473C16.9115 31.6671 17.7556 31.6671 18.2764 31.1473L20.2633 29.1646L24.243 31.1504L25.402 34.6192V34.6186C25.5133 34.9536 25.7537 35.231 26.0704 35.3884C26.3865 35.5464 26.7531 35.5719 27.0883 35.4603L31.0882 34.1297L30.2448 31.6052L27.5097 32.5152L26.5978 29.7858H26.5984C26.4865 29.4508 26.246 29.174 25.93 29.0166L20.5966 26.3555C20.0829 26.0989 19.4633 26.1993 19.0573 26.6044L17.3335 28.3246L13.3336 24.3329V22.2231H17.3335C17.6871 22.2231 18.0264 22.0829 18.2764 21.8334L27.6097 12.5196C28.1306 11.9999 28.1306 11.1576 27.6097 10.6379L24.9431 7.97677C24.5371 7.57167 23.9175 7.47129 23.4037 7.72789L19.2632 9.79381L18.8722 9.0133L21.1097 5.66444V5.66385C21.3966 5.2338 21.4079 4.67663 21.1383 4.23471C25.162 3.29146 29.3609 3.39363 33.3335 4.53111V8.91779C33.3335 9.65255 33.9305 10.2483 34.6668 10.2483H35.4835L34.7352 12.4888C34.5971 12.9028 34.671 13.3584 34.9335 13.7077L38.6668 18.6752V28.8758C38.6668 29.3208 38.8894 29.7359 39.2608 29.983L43.2608 32.6441C43.6584 32.909 44.1685 32.9405 44.5965 32.7267L46.0703 31.9913L46.8072 33.4627L49.1923 32.2729L47.859 29.6118V29.6112C47.5298 28.9543 46.7292 28.6876 46.0703 29.0166L44.0959 30.0021L41.3334 28.1636V18.2316C41.3334 17.9435 41.24 17.6637 41.0667 17.4332L37.4858 12.6688L38.5983 9.33837C38.734 8.93267 38.6656 8.48658 38.415 8.1397C38.1644 7.79282 37.762 7.58729 37.3334 7.58729H36.0001V5.47333C41.1477 7.64857 45.3745 11.5458 47.9536 16.4943C50.5334 21.4435 51.3041 27.1345 50.134 32.5885L52.7411 33.1463V33.1457C54.0619 26.9966 53.1595 20.5792 50.1928 15.0306C47.2267 9.48215 42.3886 5.15964 36.5345 2.83005C30.6809 0.499854 24.1898 0.312057 18.2107 2.30021C12.9036 4.07264 8.28936 7.4662 5.0208 11.9995C1.75299 16.5333 -0.00365144 21.9779 5.69873e-06 27.563C0.0035772 33.1482 1.76793 38.5905 5.04228 43.1189C8.31664 47.6481 12.9351 51.0351 18.2453 52.8004C19.6185 53.2566 21.0269 53.5993 22.456 53.825C22.9662 53.9064 23.4804 53.9729 24.0001 54.024V55.4864C23.9995 56.2212 23.4031 56.8164 22.6668 56.817H6.66681C5.23765 56.817 3.91741 57.5779 3.20259 58.8128C2.48831 60.0477 2.48831 61.5695 3.20259 62.8044C3.91747 64.0393 5.23763 64.8002 6.66681 64.8002H25.3334C26.0697 64.8002 26.6668 65.396 26.6668 66.1308C26.6668 66.8655 26.0697 67.4613 25.3334 67.4613H12.0001C10.571 67.4613 9.25073 68.2222 8.53591 69.4571C7.82163 70.692 7.82163 72.2138 8.53591 73.4487C9.25079 74.6836 10.571 75.4445 12.0001 75.4445H32.0001V79.4362C32.0001 80.1709 32.5971 80.7667 33.3334 80.7667H78.6667C79.403 80.7667 80 80.1709 80 79.4362V36.8589C80 36.1241 79.403 35.5283 78.6667 35.5283L78.6669 35.5286ZM2.66704 27.5453C2.66466 24.8593 3.11526 22.1923 4.00037 19.6559V26.2148C4.00037 26.5676 4.14085 26.9062 4.39085 27.1557L12.0004 34.7493V38.1897C12.0004 38.4778 12.0939 38.7576 12.2671 38.9881L16.0004 43.9556V49.0092C11.9927 47.0294 8.61941 43.9698 6.26361 40.1766C3.90704 36.3834 2.66118 32.008 2.66712 27.5454L2.66704 27.5453ZM77.3336 56.8172H69.3336V48.834H77.3336V56.8172ZM66.6669 56.8172H34.667V48.834H66.6669V56.8172ZM34.667 59.4783H66.6669V67.4616H34.667V59.4783ZM69.3336 59.4783H77.3336V67.4616H69.3336V59.4783ZM77.3336 46.1729H69.3336V38.1897H77.3336V46.1729ZM34.667 38.1897H66.6669V46.1729H34.667V38.1897ZM34.667 70.1227H66.6669V78.1059H34.667V70.1227ZM77.3336 78.1059H69.3336V70.1227H77.3336V78.1059Z" fill="#0072FF"/>
</svg>
