<svg width="80" height="81" viewBox="0 0 80 81" fill="none" xmlns="http://www.w3.org/2000/svg">
<path d="M40 0.93457C29.3912 0.93457 19.2173 5.13998 11.7159 12.6259C4.21425 20.1113 0 30.2644 0 40.8506C0 51.4369 4.21425 61.5897 11.7159 69.0754C19.217 76.5613 29.3915 80.7667 40 80.7667C50.6085 80.7667 60.7827 76.5613 68.2841 69.0754C75.7857 61.59 80 51.4369 80 40.8506C80 33.8443 78.1517 26.9608 74.6412 20.8927C71.1301 14.8247 66.081 9.78618 59.9999 6.28215C53.919 2.77896 47.0211 0.93457 40 0.93457V0.93457ZM40 78.2714C30.0542 78.2714 20.5159 74.3289 13.483 67.3112C6.45067 60.2932 2.49984 50.7747 2.49984 40.8499C2.49984 30.9252 6.45067 21.4067 13.483 14.3886C20.5159 7.37099 30.0544 3.42845 40 3.42845C49.9456 3.42845 59.4841 7.37099 66.517 14.3886C73.5493 21.4067 77.5002 30.9252 77.5002 40.8499C77.5002 47.4186 75.7675 53.8716 72.4762 59.5605C69.1849 65.2493 64.4511 69.9732 58.7503 73.2576C53.0495 76.5419 46.583 78.271 40.0004 78.271L40 78.2714Z" fill="#0072FF"/>
<path d="M69.9994 39.6029H67.4994C67.4994 38.6105 67.1043 37.6583 66.4012 36.9567C65.6981 36.2552 64.7438 35.8608 63.7495 35.8608V33.3661H62.4995V22.1398C62.4995 19.8238 61.5777 17.6031 59.9366 15.9658C58.296 14.3281 56.0706 13.4082 53.7496 13.4082H26.2498C23.929 13.4082 21.7035 14.3281 20.0628 15.9658C18.4217 17.6029 17.4999 19.8237 17.4999 22.1398V33.3661H16.2499V35.8608C15.2555 35.8608 14.3012 36.2551 13.5982 36.9567C12.8952 37.6584 12.5 38.6107 12.5 39.6029H9.99999C9.30971 39.6029 8.75 40.1614 8.75 40.8502V50.8292C8.75 51.16 8.8817 51.4774 9.11607 51.7113C9.35044 51.9451 9.66852 52.0766 9.99999 52.0766H12.5C12.5 53.0689 12.8951 54.0212 13.5982 54.7227C14.3013 55.4242 15.2556 55.8186 16.2499 55.8186H21.2498C21.5813 55.8186 21.8994 55.6872 22.1338 55.4533C22.3681 55.2194 22.4998 54.902 22.4998 54.5712V37.1081C22.4998 36.7773 22.3681 36.4599 22.1338 36.226C21.8994 35.9921 21.5813 35.8607 21.2498 35.8607V33.366H19.9998V22.1396C19.9998 20.4857 20.6583 18.8993 21.8301 17.7292C23.0025 16.5598 24.5924 15.9028 26.2498 15.9028H53.7496C55.407 15.9028 56.9967 16.5599 58.1693 17.7292C59.3411 18.8992 59.9996 20.4857 59.9996 22.1396V33.366H58.7496V35.8607C58.0593 35.8607 57.4996 36.4192 57.4996 37.1081V54.5712C57.4996 54.902 57.6313 55.2194 57.8656 55.4533C58.1 55.6872 58.4181 55.8186 58.7496 55.8186H61.2495C61.0403 57.4496 60.3282 58.9749 59.2121 60.1844C56.7496 62.854 52.2748 64.338 46.2497 64.5502V63.3028C46.2497 62.972 46.118 62.6546 45.8836 62.4207C45.6492 62.1869 45.3311 62.0554 44.9997 62.0554H32.4998C31.8095 62.0554 31.2498 62.614 31.2498 63.3028V68.2923C31.2498 68.623 31.3815 68.9405 31.6158 69.1743C31.8502 69.4082 32.1683 69.5396 32.4998 69.5396H44.9997C45.3311 69.5396 45.6492 69.4082 45.8836 69.1743C46.118 68.9405 46.2497 68.623 46.2497 68.2923V67.0449C53.1369 66.8578 58.1369 65.1237 61.0738 61.8433C62.5973 60.1777 63.5358 58.0633 63.7491 55.8186C64.7435 55.8186 65.6978 55.4243 66.4008 54.7227C67.1038 54.021 67.499 53.0687 67.499 52.0766H69.999C70.3305 52.0766 70.6485 51.9451 70.8829 51.7113C71.1173 51.4774 71.249 51.16 71.249 50.8292V40.8502C71.249 40.5195 71.1173 40.202 70.8829 39.9682C70.6485 39.7343 70.3305 39.6029 69.999 39.6029H69.9994ZM12.4998 49.5818H11.2498V42.0976H12.4998V49.5818ZM19.9998 53.3239H16.2498C15.5595 53.3239 14.9998 52.7654 14.9998 52.0766V39.6029C14.9998 38.914 15.5595 38.3555 16.2498 38.3555H19.9998V53.3239ZM43.7496 67.045H33.7497V64.5502H43.7496V67.045ZM64.9994 40.8502V52.0766C64.9994 52.4073 64.8678 52.7247 64.6334 52.9586C64.399 53.1925 64.0809 53.3239 63.7495 53.3239H59.9995V38.3555H63.7495C64.0809 38.3555 64.399 38.4869 64.6334 38.7208C64.8677 38.9547 64.9994 39.2721 64.9994 39.6029V40.8502ZM68.7494 49.5818H67.4994V42.0976H68.7494V49.5818Z" fill="#0072FF"/>
<path d="M38.75 39.6035H41.25V42.0983H38.75V39.6035Z" fill="#0072FF"/>
<path d="M45 39.6035H47.5V42.0983H45V39.6035Z" fill="#0072FF"/>
<path d="M32.5 39.6035H35V42.0983H32.5V39.6035Z" fill="#0072FF"/>
</svg>
