<svg width="40" height="41" viewBox="0 0 40 41" fill="none" xmlns="http://www.w3.org/2000/svg">
<path opacity="0.3" fill-rule="evenodd" clip-rule="evenodd" d="M13.3335 5.06261H8.50727C7.49091 5.06261 6.66699 5.88652 6.66699 6.90288V36.5557C6.66699 37.572 7.49091 38.3959 8.50727 38.3959H31.4934C32.5097 38.3959 33.3337 37.572 33.3337 36.5557V6.90288C33.3337 5.88653 32.5097 5.06261 31.4934 5.06261H26.6669V5.89594C26.6669 7.27665 25.5476 8.39594 24.1669 8.39594H15.8335C14.4528 8.39594 13.3335 7.27665 13.3335 5.89594V5.06261Z" fill="#0263E0"/>
<path fill-rule="evenodd" clip-rule="evenodd" d="M21.6666 3.39607C21.6666 3.39601 21.6666 3.39595 21.6666 3.39588C21.6666 2.47541 20.9204 1.72922 19.9999 1.72922C19.0794 1.72922 18.3333 2.47541 18.3333 3.39588C18.3333 3.39595 18.3333 3.39601 18.3333 3.39607H15.4601C15.206 3.39607 15 3.60205 15 3.85614V6.26933C15 6.52342 15.206 6.7294 15.4601 6.7294H24.5399C24.794 6.7294 25 6.52342 25 6.26934V3.85614C25 3.60205 24.794 3.39607 24.5399 3.39607H21.6666Z" fill="#0263E0"/>
<rect opacity="0.3" x="11.667" y="16.7292" width="8.33333" height="3.33333" rx="1.66667" fill="#0263E0"/>
<rect opacity="0.3" x="11.667" y="23.3958" width="15" height="3.33333" rx="1.66667" fill="#0263E0"/>
</svg>
