<svg width="40" height="41" viewBox="0 0 40 41" fill="none" xmlns="http://www.w3.org/2000/svg">
<path fill-rule="evenodd" clip-rule="evenodd" d="M7.91699 6.72917C7.22664 6.72917 6.66699 7.28881 6.66699 7.97917V12.1458C6.66699 12.8362 7.22664 13.3958 7.91699 13.3958H17.0837C17.774 13.3958 18.3337 12.8362 18.3337 12.1458V7.97917C18.3337 7.28881 17.774 6.72917 17.0837 6.72917H7.91699ZM22.9172 26.7293C22.2268 26.7293 21.6672 27.289 21.6672 27.9793V32.146C21.6672 32.8364 22.2268 33.396 22.9172 33.396H32.0838C32.7742 33.396 33.3338 32.8364 33.3338 32.146V27.9793C33.3338 27.289 32.7742 26.7293 32.0838 26.7293H22.9172Z" fill="#0263E0"/>
<path opacity="0.3" fill-rule="evenodd" clip-rule="evenodd" d="M22.917 6.72933C22.2266 6.72933 21.667 7.28897 21.667 7.97933V22.146C21.667 22.8364 22.2266 23.396 22.917 23.396H32.0837C32.774 23.396 33.3337 22.8364 33.3337 22.146V7.97933C33.3337 7.28897 32.774 6.72933 32.0837 6.72933H22.917ZM7.91699 16.7293C7.22664 16.7293 6.66699 17.289 6.66699 17.9793V32.146C6.66699 32.8364 7.22664 33.396 7.91699 33.396H17.0837C17.774 33.396 18.3337 32.8364 18.3337 32.146V17.9793C18.3337 17.289 17.774 16.7293 17.0837 16.7293H7.91699Z" fill="#0263E0"/>
</svg>
