<svg width="40" height="41" viewBox="0 0 40 41" fill="none" xmlns="http://www.w3.org/2000/svg">
<path opacity="0.3" fill-rule="evenodd" clip-rule="evenodd" d="M8.09524 1.72917H19.9269C20.2816 1.72917 20.6248 1.85486 20.8956 2.08391L29.4687 9.33534C29.8057 9.62034 30 10.0393 30 10.4806V31.8681C30 34.8523 29.9659 35.0625 26.9048 35.0625H8.09524C5.03408 35.0625 5 34.8523 5 31.8681V4.92362C5 1.93938 5.03408 1.72917 8.09524 1.72917ZM11.6667 20.896C11.6667 20.4358 12.0398 20.0627 12.5 20.0627H25.8333C26.2936 20.0627 26.6667 20.4358 26.6667 20.896V22.5627C26.6667 23.0229 26.2936 23.396 25.8333 23.396H12.5C12.0398 23.396 11.6667 23.0229 11.6667 22.5627V20.896ZM12.5 26.7293C12.0398 26.7293 11.6667 27.1024 11.6667 27.5627V29.2293C11.6667 29.6896 12.0398 30.0627 12.5 30.0627H19.1667C19.6269 30.0627 20 29.6896 20 29.2293V27.5627C20 27.1024 19.6269 26.7293 19.1667 26.7293H12.5Z" fill="#0263E0"/>
<path fill-rule="evenodd" clip-rule="evenodd" d="M11.4282 5.0625H24.9266C25.2812 5.0625 25.6245 5.18818 25.8953 5.41724L34.4684 12.6687C34.8053 12.9537 34.9997 13.3726 34.9997 13.8139V35.2014C34.9997 38.1856 34.9656 38.3958 31.9044 38.3958H11.4282C8.36709 38.3958 8.33301 38.1856 8.33301 35.2014V8.25694C8.33301 5.27271 8.36709 5.0625 11.4282 5.0625ZM11.6662 20.8958C11.6662 20.4356 12.0393 20.0625 12.4995 20.0625H25.8328C26.2931 20.0625 26.6662 20.4356 26.6662 20.8958V22.5625C26.6662 23.0227 26.2931 23.3958 25.8328 23.3958H12.4995C12.0393 23.3958 11.6662 23.0227 11.6662 22.5625V20.8958ZM12.4995 26.7292C12.0393 26.7292 11.6662 27.1023 11.6662 27.5625V29.2292C11.6662 29.6894 12.0393 30.0625 12.4995 30.0625H19.1662C19.6264 30.0625 19.9995 29.6894 19.9995 29.2292V27.5625C19.9995 27.1023 19.6264 26.7292 19.1662 26.7292H12.4995Z" fill="#0263E0"/>
</svg>
