<svg width="40" height="41" viewBox="0 0 40 41" fill="none" xmlns="http://www.w3.org/2000/svg">
<path fill-rule="evenodd" clip-rule="evenodd" d="M15 7.5625C15 7.10227 15.3731 6.72917 15.8333 6.72917H35.8333C36.2936 6.72917 36.6667 7.10227 36.6667 7.56251V12.5625C36.6667 13.0227 36.2936 13.3958 35.8333 13.3958H15.8333C15.3731 13.3958 15 13.0227 15 12.5625V7.5625ZM15 17.5627C15 17.1024 15.3731 16.7293 15.8333 16.7293H35.8333C36.2936 16.7293 36.6667 17.1024 36.6667 17.5627V22.5627C36.6667 23.0229 36.2936 23.396 35.8333 23.396H15.8333C15.3731 23.396 15 23.0229 15 22.5627V17.5627ZM15.8333 26.7293C15.3731 26.7293 15 27.1024 15 27.5627V32.5627C15 33.0229 15.3731 33.396 15.8333 33.396H35.8333C36.2936 33.396 36.6667 33.0229 36.6667 32.5627V27.5627C36.6667 27.1024 36.2936 26.7293 35.8333 26.7293H15.8333Z" fill="#0263E0"/>
<rect opacity="0.3" x="3.33301" y="6.72917" width="8.33333" height="26.6667" rx="0.833333" fill="#0263E0"/>
</svg>
