<svg width="40" height="41" viewBox="0 0 40 41" fill="none" xmlns="http://www.w3.org/2000/svg">
<path fill-rule="evenodd" clip-rule="evenodd" d="M17.4643 13.0242C17.4843 12.7637 17.7015 12.5625 17.9628 12.5625H18.714C18.9708 12.5625 19.1859 12.7571 19.2115 13.0127L19.9998 20.8958L25.5812 24.0852C25.737 24.1742 25.8331 24.3399 25.8331 24.5193V25.2412C25.8331 25.5709 25.5196 25.8103 25.2016 25.7236L17.0651 23.5046C16.8337 23.4415 16.6798 23.223 16.6981 22.9838L17.4643 13.0242Z" fill="#0263E0"/>
<path opacity="0.3" fill-rule="evenodd" clip-rule="evenodd" d="M9.80285 1.79184C9.58276 1.52955 9.15781 1.62994 9.07836 1.96299L6.87554 11.1981C6.81081 11.4695 7.02587 11.7266 7.30441 11.7108L16.8047 11.1724C17.1471 11.153 17.3208 10.7513 17.1003 10.4886L14.5814 7.48666C16.0375 6.98906 17.5815 6.72917 19.167 6.72917C26.991 6.72917 33.3337 13.0718 33.3337 20.8958C33.3337 28.7199 26.991 35.0625 19.167 35.0625C11.343 35.0625 5.00033 28.7199 5.00033 20.8958C5.00033 19.5824 5.17819 18.2959 5.52501 17.0595L2.31555 16.1593C1.89298 17.6657 1.66699 19.2544 1.66699 20.8958C1.66699 30.5608 9.50201 38.3958 19.167 38.3958C28.832 38.3958 36.667 30.5608 36.667 20.8958C36.667 11.2309 28.832 3.39583 19.167 3.39583C16.7358 3.39583 14.4205 3.89158 12.3165 4.78749L9.80285 1.79184Z" fill="#0263E0"/>
</svg>
