<svg width="25" height="25" viewBox="0 0 25 25" fill="none" xmlns="http://www.w3.org/2000/svg">
<g clip-path="url(#clip0_801_10558)">
<path fill-rule="evenodd" clip-rule="evenodd" d="M13.5799 15.257L15.784 13.0529C16.3927 12.4442 16.5436 11.5143 16.1586 10.7443L16.0337 10.4945C15.6487 9.72456 15.7996 8.79461 16.4084 8.18589L19.1412 5.45309C19.3364 5.25783 19.653 5.25783 19.8483 5.45309C19.8863 5.49109 19.9179 5.53497 19.9419 5.58303L21.0459 7.79099C21.8905 9.48009 21.5594 11.5201 20.2241 12.8555L14.2252 18.8543C12.7717 20.3078 10.6217 20.8154 8.67154 20.1654L6.25706 19.3605C5.99509 19.2732 5.85351 18.99 5.94083 18.7281C5.96538 18.6544 6.00673 18.5875 6.06162 18.5326L8.71289 15.8814C9.32161 15.2726 10.2516 15.1217 11.0215 15.5067L11.2713 15.6316C12.0413 16.0166 12.9712 15.8657 13.5799 15.257Z" fill="#2F80ED"/>
<path opacity="0.3" d="M14.648 6.48026L14.4567 8.47109C12.9781 8.32895 11.5097 8.84207 10.4393 9.91245C9.37243 10.9793 8.85908 12.4417 8.99661 13.9157L7.00525 14.1015C6.81301 12.041 7.5328 9.99053 9.02509 8.49824C10.5223 7.00104 12.5812 6.28158 14.648 6.48026ZM14.9981 2.49542L14.813 4.48684C12.1618 4.24048 9.52997 5.16493 7.61088 7.08403C5.69444 9.00047 4.76982 11.6277 5.01271 14.2755L3.02107 14.4582C2.72447 11.2249 3.85559 8.01089 6.19666 5.66981C8.54098 3.32549 11.7606 2.19459 14.9981 2.49542Z" fill="#2F80ED"/>
</g>
<defs>
<clipPath id="clip0_801_10558">
<rect width="24" height="24" fill="white" transform="translate(0.5 0.473145)"/>
</clipPath>
</defs>
</svg>
