<svg width="18" height="18" viewBox="0 0 18 18" fill="none" xmlns="http://www.w3.org/2000/svg">
<path d="M0.00672751 4.814C0.16771 12.0426 5.95764 17.8278 13.1461 17.9864C13.2617 18 13.3773 18 13.5065 18C13.6357 18 13.7513 18 13.8625 17.9864C15.6511 17.8051 17 16.3095 17 14.508C17 14.3357 16.9864 14.1704 16.9638 14.0299C16.9638 14.0253 16.9616 14.0231 16.9616 14.0185V14.0095C16.9616 14.0073 16.9594 14.0073 16.9594 14.0049C16.8846 13.4316 16.6624 12.8945 16.302 12.412C16.2998 12.4098 16.2998 12.4074 16.2974 12.4052C16.2952 12.4006 16.2928 12.3962 16.2884 12.3916C16.2748 12.3734 16.2544 12.3622 16.2386 12.3486C16.2136 12.3236 16.191 12.2988 16.1616 12.2806C16.1322 12.2624 16.0982 12.2534 16.0642 12.242C16.0438 12.2353 16.0256 12.2217 16.003 12.2171L11.9881 11.4875C11.9609 11.4829 11.9337 11.4807 11.9065 11.4807H11.8951C11.8769 11.4807 11.8611 11.4897 11.8453 11.492C11.8227 11.4943 11.8023 11.4988 11.7795 11.5056C11.7365 11.517 11.6979 11.5328 11.6593 11.5554C11.6503 11.56 11.6435 11.5644 11.6367 11.5712C11.5913 11.603 11.5529 11.6414 11.5211 11.689L11.5189 11.6912L11.4963 11.7252C11.4895 11.7388 11.4781 11.7502 11.4713 11.7638L10.322 13.5312C7.58799 12.5637 5.43453 10.4109 4.46619 7.67806L6.24345 6.52688C6.40222 6.45433 6.51323 6.29342 6.51323 6.10549C6.51323 6.05332 6.50421 6.00354 6.48824 5.95817L5.76952 1.98808C5.74912 1.87253 5.68571 1.77058 5.59272 1.70024C5.10977 1.33764 4.54763 1.10877 3.98768 1.03857C3.83128 1.01138 3.6635 1 3.49112 1C1.68884 1 0.192613 2.34828 0.0135996 4.13159C-1.01343e-07 4.24713 0 4.36268 0 4.49182C0 4.60515 0.0022139 4.70489 0.0113857 4.80684C0.00885553 4.8119 0.00648351 4.81411 0.00648351 4.81411L0.00672751 4.814ZM0.920415 4.49455V4.44697C0.920415 4.37221 0.920415 4.30187 0.929429 4.23169C1.06321 2.9174 2.16273 1.92712 3.48885 1.92712H3.49343C3.59764 1.92712 3.6998 1.93391 3.80401 1.94972C3.81302 1.95193 3.8222 1.95193 3.83121 1.9543C3.83801 1.9543 3.84481 1.95652 3.85161 1.95652C4.22117 2.00409 4.57033 2.13323 4.8899 2.34172L5.53147 5.88807L3.65442 7.10265C3.64303 7.10945 3.63402 7.12083 3.62264 7.12984C3.61362 7.13663 3.60445 7.14564 3.59322 7.15481C3.55464 7.19101 3.51842 7.23179 3.49581 7.27715C3.49581 7.27936 3.49581 7.27936 3.4936 7.28173C3.47099 7.3271 3.45739 7.37689 3.45059 7.42905C3.44837 7.44043 3.446 7.45165 3.446 7.46303C3.446 7.47204 3.44141 7.48342 3.44141 7.49243C3.44141 7.5378 3.44821 7.58301 3.46181 7.62616V7.63074C4.49331 10.921 7.0709 13.4997 10.3624 14.5307C10.4078 14.5443 10.4554 14.5533 10.5007 14.5533H10.5029H10.5075C10.5483 14.5533 10.5891 14.5466 10.6299 14.533C10.6457 14.5284 10.6616 14.5216 10.6775 14.5148C10.7001 14.5058 10.7228 14.4944 10.7454 14.4808C10.7636 14.4694 10.7794 14.4582 10.7953 14.4468C10.8111 14.4332 10.827 14.4174 10.8406 14.4014C10.8565 14.3833 10.8724 14.3675 10.886 14.3493C10.886 14.3471 10.8882 14.3471 10.8882 14.3447L12.1147 12.4571L15.6355 13.0962C15.853 13.4224 15.9914 13.7782 16.0412 14.168C16.0594 14.2745 16.0684 14.3923 16.0684 14.5124C16.0684 15.8381 15.0777 16.9371 13.7584 17.0707C13.6746 17.0797 13.5906 17.0797 13.5 17.0797C13.4138 17.0797 13.3368 17.0797 13.2596 17.0729C13.2392 17.0707 13.2234 17.0707 13.2007 17.0683C6.4652 16.9188 1.07214 11.5279 0.922351 4.79545V4.79087C0.922351 4.77949 0.922351 4.76589 0.920137 4.75467C0.913337 4.6867 0.911123 4.61652 0.911123 4.5416C0.920137 4.52611 0.920137 4.5103 0.920137 4.49449L0.920415 4.49455Z" fill="white"/>
<path d="M9.48673 0.973556C13.6455 0.973556 17.0264 4.35676 17.0264 8.51318C17.0264 8.7828 17.2436 9 17.5132 9C17.7828 9 18 8.78281 18 8.51318C18 3.82009 14.1824 0 9.48682 0C9.2172 0 9 0.217194 9 0.48682C9 0.756272 9.21703 0.97347 9.48665 0.97347L9.48673 0.973556Z" fill="white"/>
<path d="M9.44461 2.8893C12.0186 2.8893 14.1106 4.98377 14.1106 7.55531C14.1106 7.80159 14.309 8 14.5553 8C14.8016 8 15 7.8016 15 7.55531C15 4.49316 12.5089 2 9.44469 2C9.19841 2 9 2.1984 9 2.44469C9 2.69082 9.19825 2.88922 9.44453 2.88922L9.44461 2.8893Z" fill="white"/>
<path d="M9.4705 5.94116C10.8984 5.94116 12.0587 7.10146 12.0587 8.52934C12.0587 8.79001 12.2687 9 12.5293 9C12.79 9 13 8.79001 13 8.52934C13 6.58235 11.4176 5 9.47066 5C9.20999 5 9 5.20998 9 5.47066C9 5.72891 9.20982 5.94116 9.4705 5.94116Z" fill="white"/>
</svg>
