<svg width="25" height="25" viewBox="0 0 25 25" fill="none" xmlns="http://www.w3.org/2000/svg">
<g clip-path="url(#clip0_801_10569)">
<path opacity="0.3" fill-rule="evenodd" clip-rule="evenodd" d="M6.5 2.60303H18.5C19.0523 2.60303 19.5 3.05074 19.5 3.60303V12.603C19.5 13.1553 19.0523 13.603 18.5 13.603H6.5C5.94772 13.603 5.5 13.1553 5.5 12.603V3.60303C5.5 3.05074 5.94772 2.60303 6.5 2.60303ZM8 5.60303C7.72386 5.60303 7.5 5.82688 7.5 6.10303C7.5 6.37917 7.72386 6.60303 8 6.60303H14C14.2761 6.60303 14.5 6.37917 14.5 6.10303C14.5 5.82688 14.2761 5.60303 14 5.60303H8ZM8 7.60303C7.72386 7.60303 7.5 7.82689 7.5 8.10303C7.5 8.37917 7.72386 8.60303 8 8.60303H11C11.2761 8.60303 11.5 8.37917 11.5 8.10303C11.5 7.82689 11.2761 7.60303 11 7.60303H8Z" fill="#2F80ED"/>
<path fill-rule="evenodd" clip-rule="evenodd" d="M4.29275 7.17575L12.5 13.1032L20.7073 7.17575C20.9311 7.01407 21.2437 7.06448 21.4053 7.28835C21.4669 7.37355 21.5 7.47599 21.5 7.58109V17.6032C21.5 18.7078 20.6046 19.6032 19.5 19.6032H5.5C4.39543 19.6032 3.5 18.7078 3.5 17.6032V7.58109C3.5 7.30495 3.72386 7.08109 4 7.08109C4.10511 7.08109 4.20754 7.11421 4.29275 7.17575Z" fill="#2F80ED"/>
</g>
<defs>
<clipPath id="clip0_801_10569">
<rect width="24" height="24" fill="white" transform="translate(0.5 0.603027)"/>
</clipPath>
</defs>
</svg>
