<svg width="18" height="18" viewBox="0 0 18 18" fill="none" xmlns="http://www.w3.org/2000/svg">
<path d="M5 6.5003C5 7.69377 5.47413 8.83831 6.31821 9.68209C7.16214 10.526 8.30667 11.0001 9.50015 11C10.6936 11 11.8382 10.5259 12.6821 9.68194C13.526 8.83801 14 7.69347 14 6.5C14 5.30652 13.5259 4.16199 12.6819 3.31806C11.838 2.47413 10.6935 2 9.5 2C8.30697 2.00146 7.16318 2.47603 6.31951 3.31966C5.47585 4.16329 5.00131 5.30708 5 6.5003ZM13.3733 6.5003C13.3733 7.52752 12.9652 8.51264 12.2387 9.23899C11.5123 9.96535 10.527 10.3735 9.49981 10.3735C8.47259 10.3733 7.48733 9.9652 6.76097 9.23884C6.03461 8.51249 5.62665 7.52722 5.62665 6.5C5.62665 5.47277 6.03476 4.48751 6.76112 3.76115C7.48748 3.0348 8.47274 2.62669 9.49996 2.62669C10.5269 2.62786 11.5114 3.03625 12.2377 3.76246C12.9639 4.48867 13.3723 5.47333 13.3733 6.50026V6.5003Z" fill="white"/>
<path d="M3 6.00849C3 8.02231 4.02363 9.42025 5.10793 10.8996L5.15501 10.9639C5.91594 12.0033 6.67734 13.042 7.43939 14.0802L8.75682 15.8756C8.75879 15.8784 8.76148 15.8804 8.76374 15.8831V15.8833C8.77364 15.8956 8.78439 15.9071 8.79598 15.9177C8.80149 15.9228 8.80673 15.9285 8.8128 15.9333C8.81478 15.9349 8.81648 15.9371 8.81874 15.9387C8.821 15.9403 8.82723 15.9426 8.83133 15.9453C8.8507 15.9588 8.87162 15.9699 8.89354 15.9784C8.90117 15.9813 8.90895 15.9845 8.91687 15.9869C8.94359 15.995 8.9713 15.9994 8.99929 16H9.0017C9.02969 15.9994 9.05741 15.995 9.08427 15.9869C9.09218 15.9845 9.09982 15.9813 9.10774 15.9783V15.9781C9.12923 15.9698 9.14958 15.9588 9.16853 15.9456C9.17263 15.9427 9.17744 15.9418 9.18126 15.9388C9.18508 15.9357 9.18508 15.9349 9.18734 15.9332C9.19328 15.9285 9.19822 15.9228 9.20402 15.9177C9.21547 15.907 9.22636 15.8955 9.23626 15.8833C9.23852 15.8804 9.24106 15.8785 9.24319 15.8758L10.5606 14.0803C11.3223 13.0418 12.0838 12.003 12.845 10.9641L12.8921 10.8997C13.9757 9.41988 15 8.02176 15 6.00863V6.00849C14.9741 4.40598 14.3307 2.87802 13.2085 1.75383C12.0863 0.629963 10.5753 0 9.00118 0C7.42713 0 5.91598 0.629963 4.79387 1.75383C3.67167 2.87784 3.02823 4.4058 3.00235 6.00849L3 6.00849ZM14.3899 6.00849C14.3899 7.81701 13.4693 9.0742 12.4035 10.5303L12.3563 10.5947C11.5958 11.6337 10.8345 12.6724 10.0726 13.7109L8.99988 15.1744L7.92561 13.7105C7.16411 12.6723 6.40289 11.6335 5.64192 10.5942L5.5947 10.5299C4.52879 9.07391 3.60835 7.8166 3.60835 6.00805H3.60821C3.64129 4.06981 4.67596 2.29291 6.33033 1.33326C7.9847 0.373651 10.0135 0.373651 11.6677 1.33326C13.322 2.29287 14.3567 4.06973 14.3896 6.00805L14.3899 6.00849Z" fill="white"/>
<path d="M9.1115 3.02374C9.10174 3.0195 9.09211 3.01583 9.08221 3.01258C9.07232 3.00933 9.06594 3.00834 9.05767 3.0065C9.04954 3.00466 9.03829 3.00283 9.02717 3.00184C9.01605 3.00085 9.01063 3.00184 9.00222 3.00057C8.99382 2.99929 8.9907 3.00057 8.98487 3.00057C8.97904 3.00057 8.97551 3.0024 8.9709 3.00283C8.96277 3.00283 8.95477 3.00509 8.94677 3.00664C8.93877 3.0082 8.9263 3.01116 8.91627 3.01413C8.9061 3.01724 8.90013 3.02007 8.892 3.02332C8.88386 3.02657 8.87369 3.03137 8.86475 3.03632H8.86488C8.85648 3.04112 8.84821 3.04635 8.84034 3.05201C8.83506 3.0554 8.82963 3.05794 8.82475 3.06176L6.1166 5.1906C6.04311 5.24798 6 5.338 6 5.43367V6.00094C6 6.16883 6.13043 6.30492 6.29149 6.30492H6.64562V8.18898C6.64602 8.40435 6.72845 8.61067 6.87488 8.76272C7.02117 8.91478 7.21938 9.00014 7.42601 9H10.5747C10.7812 8.99972 10.9791 8.91422 11.1251 8.76202C11.2711 8.60982 11.3533 8.40335 11.3536 8.18813V6.30407H11.7085H11.7084C11.8694 6.30407 12 6.16798 12 6.00023V5.43282C12 5.33729 11.9568 5.24713 11.8834 5.18975L9.17525 3.0609C9.17091 3.05751 9.16589 3.05525 9.16142 3.05214C9.15261 3.04578 9.14339 3.03999 9.1339 3.03476C9.12712 3.03066 9.11923 3.02685 9.1115 3.02374ZM9.00033 6.73449H9.44001V8.39274H8.56051V6.73449H9.00033ZM11.417 5.69637H11.0622C10.9011 5.69637 10.7706 5.83246 10.7706 6.00035V8.18838V8.18824C10.7704 8.30101 10.6828 8.3923 10.5746 8.3923H10.0231V6.63555C10.0226 6.35461 9.80415 6.12692 9.53463 6.12667H8.46559C8.19592 6.12695 7.97725 6.3549 7.97697 6.63598V8.39274H7.42598C7.31779 8.39274 7.23021 8.30145 7.23007 8.18867V6.00064C7.23007 5.8329 7.09951 5.69681 6.93845 5.69681H6.58363V5.58559L7.11129 5.17052H7.11319L9.00029 3.68441L9.88861 4.38282L10.8865 5.16745L11.4165 5.58422L11.417 5.69637Z" fill="white"/>
<path d="M0.30388 18H17.6963C17.808 18.0001 17.9108 17.9415 17.9639 17.8473C18.0168 17.753 18.0113 17.6387 17.9495 17.5496L15.5914 14.1303C15.5352 14.049 15.4401 14 15.3381 14H11.5946C11.427 14 11.2913 14.1298 11.2913 14.29C11.2913 14.4503 11.427 14.5801 11.5946 14.5801H15.1742L17.1323 17.4191L0.867003 17.4192L2.82321 14.5802H6.40284V14.5801C6.57029 14.5801 6.70614 14.4503 6.70614 14.29C6.70614 14.1298 6.57029 14 6.40284 14H2.66001C2.55788 13.9999 2.4628 14.0488 2.40651 14.1303L0.0505262 17.5496C-0.0112608 17.6387 -0.0167647 17.7531 0.0361368 17.8473C0.0891807 17.9415 0.19201 18.0001 0.30388 18Z" fill="white"/>
</svg>
