<svg width="18" height="18" viewBox="0 0 18 18" fill="none" xmlns="http://www.w3.org/2000/svg">
<path d="M1.72572 18H16.2742C16.7321 17.9996 17.171 17.8201 17.4946 17.5014C17.8182 17.1826 18 16.7505 18 16.3V7.20849C17.9999 7.06666 17.9361 6.93209 17.8259 6.84078L15.4173 4.83847V1.34772C15.4173 0.990323 15.273 0.647472 15.0162 0.394699C14.7594 0.14194 14.4109 0 14.0478 0H4.04817C3.68489 0 3.33659 0.141958 3.07973 0.394699C2.82288 0.647458 2.6785 0.990323 2.6785 1.34772V4.7653L0.174145 6.84081C0.0638735 6.93213 0.000136258 7.06671 0 7.20852V16.3C0 16.7506 0.181786 17.1826 0.505378 17.5015C0.828963 17.8202 1.26786 17.9996 1.72576 18L1.72572 18ZM16.2725 17.0373H1.72572C1.52728 17.0369 1.33717 16.959 1.19714 16.8207C1.05698 16.6825 0.978235 16.4952 0.978235 16.2999V8.12679L6.55433 12.0085L2.59621 14.9889C2.38017 15.1485 2.33636 15.4501 2.49836 15.6629C2.66049 15.8755 2.96716 15.9186 3.18321 15.759L7.39184 12.5899L8.76137 13.5526C8.93074 13.6706 9.15743 13.6706 9.32681 13.5526L10.6963 12.5899L14.9067 15.7532C15.1229 15.9128 15.4294 15.8697 15.5916 15.6571C15.7537 15.4443 15.7099 15.1427 15.4937 14.9831L11.5436 12.0085L17.0219 8.19624V16.302V16.3019C17.0214 16.4967 16.9425 16.6836 16.8023 16.8213C16.6623 16.9591 16.4726 17.0369 16.2744 17.0373L16.2725 17.0373ZM16.748 7.20625L15.4175 8.13242V6.09734L16.748 7.20625ZM4.04801 0.964297H14.0497C14.1536 0.964297 14.2531 1.00486 14.3265 1.07698C14.3998 1.14923 14.441 1.24714 14.441 1.34934V8.80805L9.04865 12.5646L3.65842 8.80805V1.34728C3.65952 1.13616 3.83311 0.965198 4.04781 0.964235L4.04801 0.964297ZM2.67848 8.13249L1.29326 7.16981L2.67848 6.01452V8.13249ZM8.9998 10.0925H9.12509C9.39518 10.0925 9.61422 9.87695 9.61422 9.61116C9.61422 9.34524 9.39518 9.12982 9.12509 9.12982H8.9998C8.17261 9.12982 7.37942 8.80643 6.79448 8.23082C6.20969 7.65534 5.88103 6.87478 5.88103 6.06076C5.88103 5.24675 6.20966 4.46619 6.79448 3.89057C7.37942 3.31509 8.17261 2.99167 8.9998 2.99167C9.82699 2.99167 10.6202 3.31507 11.2051 3.89057C11.7899 4.46619 12.1186 5.24675 12.1186 6.06076V6.88282C12.1073 7.06682 12.0011 7.23228 11.837 7.32119C11.6731 7.41009 11.4741 7.41009 11.3102 7.32119C11.1462 7.23228 11.04 7.06682 11.0287 6.88282V6.06076C11.0328 5.45183 10.755 4.87419 10.274 4.49118C9.79299 4.10814 9.161 3.96123 8.55668 4.09218C7.95236 4.223 7.44139 4.61743 7.16817 5.16378C6.89508 5.71014 6.88935 6.34915 7.15275 6.90019C7.41615 7.45108 7.92002 7.85427 8.52201 7.99555C9.12388 8.1367 9.75836 8.00078 10.2461 7.62608C10.4676 8.01583 10.8543 8.28806 11.3007 8.36838C11.7471 8.44882 12.2066 8.32903 12.5541 8.04162C12.9014 7.75435 13.1004 7.32941 13.0969 6.88286V6.0608C13.0969 4.99147 12.6652 3.96608 11.8968 3.20996C11.1284 2.45384 10.0865 2.02903 8.99982 2.02903C7.91318 2.02903 6.87119 2.45381 6.10283 3.20996C5.33448 3.96608 4.90278 4.99147 4.90278 6.0608C4.90278 7.13013 5.33444 8.15553 6.10283 8.91164C6.87119 9.66776 7.91318 10.0926 8.99982 10.0926L8.9998 10.0925ZM8.9998 7.09461C8.72112 7.09461 8.4539 6.98569 8.25681 6.7919C8.05988 6.59796 7.9492 6.335 7.9492 6.06074C7.9492 5.78649 8.05988 5.52353 8.25681 5.32958C8.45388 5.13578 8.7211 5.02673 8.9998 5.02673C9.2785 5.02673 9.54571 5.13578 9.7428 5.32958C9.93973 5.52351 10.0504 5.78648 10.0504 6.06074C10.0504 6.33499 9.93973 6.59795 9.7428 6.7919C9.54572 6.98569 9.2785 7.09461 8.9998 7.09461Z" fill="white"/>
</svg>
