<svg width="100" height="100" viewBox="0 0 100 100" fill="none" xmlns="http://www.w3.org/2000/svg">
<g filter="url(#filter0_d_801_985)">
<circle cx="50" cy="40" r="30" fill="#EBF4FF"/>
</g>
<path fill-rule="evenodd" clip-rule="evenodd" d="M38 46.4933V36.3427H62V46.5747C62 50.76 59.3655 53.3333 55.1504 53.3333H44.8364C40.6608 53.3333 38 50.7067 38 46.4933ZM44.6125 43.2133C44.0066 43.2413 43.506 42.76 43.4797 42.148C43.4797 41.5347 43.9539 41.028 44.5598 41C45.1526 41 45.64 41.468 45.6531 42.0667C45.6795 42.6813 45.2053 43.188 44.6125 43.2133ZM50.0263 43.2133C49.4204 43.2413 48.9199 42.76 48.8935 42.148C48.8935 41.5347 49.3677 41.028 49.9737 41C50.5664 41 51.0538 41.468 51.067 42.0667C51.0933 42.6813 50.6191 43.188 50.0263 43.2133ZM55.4007 48.12C54.7947 48.1067 54.3074 47.6 54.3074 46.9867C54.2942 46.3733 54.7816 45.868 55.3875 45.8547H55.4007C56.0198 45.8547 56.5203 46.3613 56.5203 46.9867C56.5203 47.6133 56.0198 48.12 55.4007 48.12ZM48.8935 46.9867C48.9199 47.6 49.4204 48.0813 50.0263 48.0533C50.6191 48.028 51.0933 47.5213 51.067 46.908C51.0538 46.308 50.5664 45.84 49.9737 45.84C49.3677 45.868 48.8935 46.3733 48.8935 46.9867ZM43.4665 46.9867C43.4929 47.6 43.9934 48.0813 44.5993 48.0533C45.1921 48.028 45.6663 47.5213 45.64 46.908C45.6268 46.308 45.1394 45.84 44.5467 45.84C43.9407 45.868 43.4665 46.3733 43.4665 46.9867ZM54.3205 42.1347C54.3205 41.5213 54.7947 41.028 55.4007 41.0147C55.9934 41.0147 56.4676 41.4933 56.494 42.0813C56.5071 42.6947 56.0329 43.2013 55.4402 43.2133C54.8342 43.2267 54.3337 42.76 54.3205 42.148V42.1347Z" fill="#006FFF"/>
<path opacity="0.4" d="M38.0049 36.3425C38.022 35.5599 38.0879 34.0065 38.2117 33.5065C38.844 30.6945 40.9911 28.9079 44.0602 28.6532H55.9417C58.9845 28.9212 61.1579 30.7199 61.7902 33.5065C61.9127 33.9932 61.9785 35.5585 61.9957 36.3425H38.0049Z" fill="#006FFF"/>
<path d="M45.0729 32.7866C45.6524 32.7866 46.0871 32.348 46.0871 31.76V27.6946C46.0871 27.1066 45.6524 26.6666 45.0729 26.6666C44.4933 26.6666 44.0586 27.1066 44.0586 27.6946V31.76C44.0586 32.348 44.4933 32.7866 45.0729 32.7866Z" fill="#006FFF"/>
<path d="M54.9264 32.7866C55.4928 32.7866 55.9406 32.348 55.9406 31.76V27.6946C55.9406 27.1066 55.4928 26.6666 54.9264 26.6666C54.3468 26.6666 53.9121 27.1066 53.9121 27.6946V31.76C53.9121 32.348 54.3468 32.7866 54.9264 32.7866Z" fill="#006FFF"/>
<defs>
<filter id="filter0_d_801_985" x="0" y="0" width="100" height="100" filterUnits="userSpaceOnUse" color-interpolation-filters="sRGB">
<feFlood flood-opacity="0" result="BackgroundImageFix"/>
<feColorMatrix in="SourceAlpha" type="matrix" values="0 0 0 0 0 0 0 0 0 0 0 0 0 0 0 0 0 0 127 0" result="hardAlpha"/>
<feOffset dy="10"/>
<feGaussianBlur stdDeviation="10"/>
<feColorMatrix type="matrix" values="0 0 0 0 0.552941 0 0 0 0 0.74902 0 0 0 0 1 0 0 0 0.2 0"/>
<feBlend mode="normal" in2="BackgroundImageFix" result="effect1_dropShadow_801_985"/>
<feBlend mode="normal" in="SourceGraphic" in2="effect1_dropShadow_801_985" result="shape"/>
</filter>
</defs>
</svg>
