<svg width="100" height="100" viewBox="0 0 100 100" fill="none" xmlns="http://www.w3.org/2000/svg">
<g filter="url(#filter0_d_801_687)">
<circle cx="50.001" cy="40" r="30" fill="#EBF4FF"/>
</g>
<path opacity="0.4" d="M55.788 26.6664H44.228C39.708 26.6664 36.668 29.8397 36.668 34.5597V45.453C36.668 50.1597 39.708 53.333 44.228 53.333H55.788C60.308 53.333 63.3346 50.1597 63.3346 45.453V34.5597C63.3346 29.8397 60.308 26.6664 55.788 26.6664Z" fill="#006FFF"/>
<path d="M54.7656 45.0858C54.5909 45.0858 54.4149 45.0404 54.2536 44.9458L49.0189 41.8231C48.7176 41.6418 48.5322 41.3151 48.5322 40.9631V34.2338C48.5322 33.6818 48.9802 33.2338 49.5322 33.2338C50.0842 33.2338 50.5322 33.6818 50.5322 34.2338V40.3951L55.2789 43.2258C55.7522 43.5098 55.9082 44.1231 55.6256 44.5978C55.4376 44.9111 55.1056 45.0858 54.7656 45.0858Z" fill="#006FFF"/>
<defs>
<filter id="filter0_d_801_687" x="0.000976562" y="0" width="100" height="100" filterUnits="userSpaceOnUse" color-interpolation-filters="sRGB">
<feFlood flood-opacity="0" result="BackgroundImageFix"/>
<feColorMatrix in="SourceAlpha" type="matrix" values="0 0 0 0 0 0 0 0 0 0 0 0 0 0 0 0 0 0 127 0" result="hardAlpha"/>
<feOffset dy="10"/>
<feGaussianBlur stdDeviation="10"/>
<feColorMatrix type="matrix" values="0 0 0 0 0.552941 0 0 0 0 0.74902 0 0 0 0 1 0 0 0 0.2 0"/>
<feBlend mode="normal" in2="BackgroundImageFix" result="effect1_dropShadow_801_687"/>
<feBlend mode="normal" in="SourceGraphic" in2="effect1_dropShadow_801_687" result="shape"/>
</filter>
</defs>
</svg>
