<svg width="80" height="80" viewBox="0 0 80 80" fill="none" xmlns="http://www.w3.org/2000/svg">
<path d="M63.7442 41.1078C63.6953 43.1509 63.424 45.1446 62.9445 47.0525C63.1534 46.9051 63.363 46.7323 63.572 46.5601C63.8179 46.3632 64.0891 46.191 64.3718 46.0557C64.7408 44.271 64.9377 42.4129 64.9377 40.517C64.9377 38.6707 64.7529 36.8613 64.4086 35.1016H71.5585C71.9028 35.1016 72.174 34.8309 72.174 34.4859L72.1734 21.8827H74.2161C77.2187 21.8827 79.6673 19.4335 79.6673 16.4176C79.6673 13.4025 77.2186 10.9526 74.2161 10.9526C73.9207 10.9526 73.6374 10.9774 73.3668 11.0142C73.4284 10.5714 73.4653 10.1159 73.4653 9.69723C73.4653 4.51568 69.2564 0.306078 64.0757 0.306078C59.8918 0.306078 56.2863 3.01371 55.0928 6.96472C54.5636 6.80462 54.0593 6.71885 53.5302 6.71885C50.5155 6.71885 48.0661 9.16805 48.0661 12.1839C48.0661 12.5282 48.0908 12.8363 48.1398 13.1318C47.5242 13.2671 46.9462 13.5504 46.4419 13.9316C43.3656 12.7868 40.0428 12.1592 36.5729 12.1592C34.2099 12.1592 31.9092 12.4546 29.7184 13.0086C29.4847 10.658 27.5282 8.83655 25.1284 8.83655C24.9315 8.83655 24.7346 8.84862 24.5497 8.8734C24.5866 8.5532 24.6113 8.22094 24.6113 7.90137C24.6113 3.54441 21.0676 0 16.7113 0C13.2285 0 10.2259 2.228 9.18047 5.50178C8.77458 5.37853 8.36805 5.32961 7.95009 5.32961C5.39025 5.32961 3.31061 7.40961 3.31061 9.96989C3.31061 10.2157 3.33538 10.4502 3.35952 10.6713C1.71048 11.0652 0.492188 12.5423 0.492188 14.3269C0.492188 16.419 2.19002 18.1179 4.2825 18.1179H5.88194V34.1799C5.88194 34.5242 6.15254 34.7955 6.49746 34.7955H8.78605C8.40429 36.6418 8.20738 38.5616 8.20738 40.5185C8.20738 42.2662 8.36745 43.9645 8.67489 45.6263H9.89321C9.60991 44.1619 9.43777 42.6601 9.40094 41.1093H22.3591C22.3839 42.6481 22.4576 44.1614 22.605 45.6263H23.7737C23.6384 44.1619 23.552 42.6481 23.54 41.1093H35.969V47.2877C36.683 48.1244 37.101 49.1828 37.101 50.3398L37.1499 41.1087L49.5929 41.1081C49.5313 47.6556 48.3498 53.6377 46.4303 58.2649C43.514 57.0585 40.3756 56.3819 37.1767 56.3082V57.4899C40.2161 57.5636 43.182 58.204 45.9628 59.3482C43.7109 64.1975 40.622 67.3239 37.1767 67.6562L37.1278 68.8499C42.0379 68.7635 46.6279 67.4097 50.6272 65.1206C50.5408 64.7146 50.4671 64.308 50.3934 63.89C47.6367 65.5271 44.5483 66.6962 41.2751 67.2749C43.478 65.7241 45.4344 63.1269 46.9849 59.7794C48.08 60.2839 49.1382 60.8874 50.1476 61.5761C50.1228 61.1333 50.1107 60.6899 50.1107 60.2343V60.1359C49.2614 59.6067 48.3753 59.1264 47.465 58.6956C49.483 53.92 50.7135 47.7911 50.775 41.1077L63.7442 41.1078ZM31.8967 13.76C29.6938 15.2987 27.7374 17.8952 26.1747 21.2554C24.4025 20.4187 22.7415 19.3723 21.203 18.1289C24.3529 15.9632 27.9831 14.4365 31.8967 13.76ZM1.74682 14.326C1.74682 12.9722 2.82985 11.8401 4.15868 11.8032C4.35559 11.8032 4.54045 11.6926 4.65096 11.5325C4.76148 11.3724 4.78625 11.1634 4.72464 10.9785C4.60141 10.6583 4.5525 10.3381 4.5525 9.96901C4.5525 7.60569 7.01395 5.82105 9.35149 6.87951C9.52363 6.9532 9.70848 6.9532 9.88062 6.86744C10.0407 6.78103 10.1639 6.63364 10.2128 6.44877C10.9141 3.37195 13.5844 1.23031 16.7223 1.23031C20.4021 1.23031 23.392 4.22142 23.392 7.90114C23.392 8.44242 23.3183 9.02119 23.183 9.55047C23.1214 9.7722 23.1951 10.0181 23.3679 10.1661C23.54 10.3135 23.7865 10.363 24.0075 10.2766C24.3645 10.1292 24.7456 10.0676 25.1522 10.0676C26.9859 10.0676 28.475 11.4952 28.5486 13.3294C25.7919 14.154 23.1958 15.3724 20.8576 16.9481C20.7839 16.9112 20.6975 16.8865 20.5991 16.8865H4.30538C2.89015 16.8865 1.74619 15.7416 1.74619 14.3262L1.74682 14.326ZM7.13659 33.5631V18.1167H19.2334C14.3112 21.9444 10.6684 27.3478 9.09378 33.5631H7.13659ZM22.3834 39.9263H9.42584C9.61068 31.3357 13.7941 23.7043 20.2059 18.8547C21.8917 20.2454 23.7376 21.415 25.694 22.3255C23.688 27.1133 22.4577 33.2427 22.3834 39.9263ZM35.9938 39.9263H23.5648C23.6385 33.3788 24.8199 27.3847 26.7394 22.7695C29.6557 23.9632 32.7941 24.6405 35.993 24.7142L35.9938 39.9263ZM35.9938 23.5322C32.9545 23.4586 29.9765 22.8309 27.2078 21.686C29.4474 16.8245 32.5486 13.6982 35.9938 13.378V23.5322ZM50.7731 39.9263C50.7115 33.2428 49.4811 27.1141 47.4632 22.3271C49.4322 21.416 51.2655 20.2471 52.9513 18.8437C59.3624 23.7051 63.5591 31.3237 63.7434 39.9267L50.7731 39.9263ZM70.9419 33.8706H64.1369C63.0539 29.3657 60.8757 25.2673 57.9227 21.8829H70.9423L70.9419 33.8706ZM48.9389 14.2644C49.1358 14.2644 49.3206 14.1538 49.4311 13.9937C49.5417 13.8336 49.5664 13.6246 49.4928 13.4397C49.3575 13.0827 49.2958 12.6767 49.2958 12.1844C49.2958 9.27978 52.1999 7.00282 55.2642 8.3446C55.4363 8.41829 55.6212 8.41829 55.7933 8.33253C55.9534 8.24613 56.0766 8.09873 56.1135 7.91386C56.9627 4.15981 60.236 1.53854 64.0751 1.53854C68.5793 1.53854 72.2337 5.1942 72.2337 9.69851C72.2337 10.351 72.1473 11.0524 71.9751 11.7296C71.9135 11.9513 71.9872 12.1971 72.172 12.3452C72.3442 12.4926 72.5906 12.5421 72.8117 12.4557C73.2423 12.2836 73.7099 12.1972 74.2269 12.1972C76.5524 12.1972 78.4478 14.0922 78.4478 16.4308C78.4478 18.7694 76.5531 20.6645 74.2269 20.6645H56.7901C54.2549 18.08 51.2276 15.9873 47.8687 14.5229C48.213 14.3749 48.57 14.2764 48.939 14.2643L48.9389 14.2644ZM51.9662 18.129C50.4157 19.3723 48.7546 20.418 46.9825 21.2428C45.4319 17.8953 43.4756 15.2981 41.2727 13.7594C45.1855 14.4366 48.8158 15.9633 51.9664 18.129H51.9662ZM37.1749 13.3782C40.6203 13.6984 43.7093 16.8242 45.9489 21.6861C43.1801 22.8182 40.2143 23.4586 37.1749 23.5324V13.3782ZM37.1749 39.9259V24.7133C40.3744 24.6396 43.5123 23.9624 46.4285 22.7566C48.3481 27.3842 49.5295 33.3785 49.5911 39.9265L37.1749 39.9259Z" fill="#0072FF"/>
<path d="M35.2682 50.3385C35.2682 48.7509 33.9762 47.4707 32.4009 47.4707H2.86733C1.27997 47.4707 0 48.7629 0 50.3385V66.5848V66.6096V71.9633C0 73.5389 1.292 74.8312 2.87937 74.8312H12.4531V77.9817H10.4104C10.0661 77.9817 9.79488 78.2523 9.79488 78.5973C9.79488 78.9416 10.0655 79.2129 10.4104 79.2129H24.8695C25.2138 79.2129 25.485 78.9423 25.485 78.5973C25.485 78.2529 25.2144 77.9817 24.8695 77.9817H22.8268L22.8274 74.8318H32.4012C33.9885 74.8318 35.2805 73.5396 35.2805 71.964V66.6102V66.5854V50.3385H35.2682ZM1.23032 50.3385C1.23032 49.4402 1.96843 48.7014 2.86717 48.7014H32.4007C33.2989 48.7014 34.0376 49.4396 34.0376 50.3385V66.609C34.0376 67.5073 33.2994 68.2461 32.4007 68.2461H2.86717C1.95628 68.2461 1.23032 67.5079 1.23032 66.609V50.3385ZM21.5958 77.9824H13.6831L13.6838 74.8319H21.5964L21.5958 77.9824ZM32.4005 73.6007H2.87839C1.9675 73.6007 1.22934 72.8625 1.22934 71.9636V68.9484C1.69685 69.2807 2.26282 69.4776 2.87839 69.4776H32.4119C33.0275 69.4776 33.5934 69.2807 34.061 68.9484V71.9636C34.0489 72.8626 33.3102 73.6007 32.3999 73.6007H32.4005Z" fill="#0072FF"/>
<path d="M78.1546 52.9092C74.5244 52.6506 70.8327 50.9892 67.2146 47.9861C66.5006 47.3953 65.4671 47.3953 64.7531 47.9861C61.1109 51.0013 57.419 52.6633 53.7888 52.9219C52.7427 52.9956 51.9551 53.8202 51.9551 54.8297V60.233C51.9551 68.9222 57.1726 76.6271 65.2453 79.8523C65.4791 79.9508 65.7376 79.9997 65.9961 79.9997C66.2547 79.9997 66.5132 79.9508 66.747 79.8523C74.7949 76.6154 80.0005 68.9231 80.0005 60.233V54.8297C79.9878 53.8074 79.2001 52.9829 78.1545 52.909L78.1546 52.9092ZM78.7574 60.2324C78.7574 68.405 73.86 75.6666 66.2669 78.7067C66.082 78.7803 65.861 78.7803 65.6882 78.7067C58.0835 75.6667 53.1734 68.4171 53.1734 60.2324V54.829C53.1734 54.4599 53.4688 54.1765 53.8626 54.1397C57.7513 53.8563 61.6769 52.1086 65.5287 48.9333C65.664 48.8227 65.812 48.7732 65.9715 48.7732C66.1315 48.7732 66.2916 48.8221 66.4269 48.9333C70.254 52.1085 74.1675 53.8691 78.0683 54.1397C78.4621 54.1645 78.7575 54.4599 78.7575 54.829L78.7574 60.2324Z" fill="#0072FF"/>
<path d="M76.9102 55.3481C73.3537 54.8678 69.8099 53.2681 66.364 50.5725C66.1423 50.4003 65.8349 50.4003 65.6132 50.5725C62.1431 53.2681 58.5866 54.8805 55.0428 55.3481C54.7354 55.3849 54.5137 55.6556 54.5137 55.9637V60.247C54.5137 67.6808 58.9195 74.3763 65.7492 77.3177C65.8229 77.3545 65.9092 77.3666 65.995 77.3666C66.0814 77.3666 66.1551 77.3545 66.2408 77.3177C73.0585 74.3762 77.4514 67.6806 77.4514 60.247V55.9637C77.4394 55.6556 77.2177 55.3849 76.9102 55.3481H76.9102ZM76.2089 60.2343C76.2089 67.0772 72.197 73.2684 65.9828 76.0624C59.7439 73.2682 55.7319 67.0899 55.7319 60.2343V56.4929C59.19 55.9268 62.6353 54.3633 65.9828 51.8284C69.3176 54.3513 72.7508 55.9147 76.2089 56.4929V60.2343Z" fill="#0072FF"/>
<path d="M59.5955 63.8906C59.5955 67.411 62.4508 70.2786 65.9576 70.2786C69.4774 70.2786 72.3445 67.4108 72.3445 63.8906C72.3445 60.3831 69.4772 57.5273 65.9576 57.5273C62.4508 57.5273 59.5955 60.3703 59.5955 63.8906ZM71.1136 63.8906C71.1136 66.7336 68.8001 69.0474 65.9576 69.0474C63.1272 69.0474 60.8258 66.7336 60.8258 63.8906C60.8258 61.0597 63.1271 58.7579 65.9576 58.7579C68.8001 58.7579 71.1136 61.0596 71.1136 63.8906Z" fill="#0072FF"/>
<path d="M63.9544 64.4446C63.7086 64.1987 63.3268 64.1987 63.081 64.4446C62.8352 64.6905 62.8352 65.0723 63.081 65.3182L64.4467 66.6841C64.5699 66.8073 64.7299 66.869 64.8773 66.869C65.0247 66.869 65.1975 66.8073 65.308 66.6841L68.8397 63.1517C69.0856 62.9058 69.0856 62.524 68.8397 62.2781C68.5939 62.0323 68.2122 62.0323 67.9663 62.2781L64.8774 65.3677L63.9544 64.4446Z" fill="#0072FF"/>
</svg>
