<svg width="80" height="80" viewBox="0 0 80 80" fill="none" xmlns="http://www.w3.org/2000/svg">
<path d="M40.1004 80.0001C39.8575 80.0001 39.6322 80.0001 39.3899 79.982C27.9548 79.8013 17.0419 74.2321 10.2195 65.0763C10.1836 65.0421 10.1502 65.0059 10.1209 64.9659C5.42558 58.6414 2.94336 51.1317 2.94336 43.2506C2.94336 38.5935 3.81123 34.0799 5.52354 29.8322C5.6966 29.4003 6.19159 29.1944 6.62912 29.3603C7.06535 29.5326 7.27888 30.0226 7.10454 30.4532C5.47327 34.5041 4.64589 38.8091 4.64589 43.2507C4.64589 50.7255 6.98567 57.8492 11.4131 63.8621C11.4491 63.895 11.4824 63.9325 11.5118 63.9725C18.0152 72.77 28.465 78.1274 39.4668 78.3011C39.7169 78.3192 39.9076 78.3192 40.1003 78.3173C40.3086 78.3224 40.4849 78.3192 40.6847 78.3024C59.945 77.9738 75.5742 62.2494 75.5742 43.2505C75.5742 38.8091 74.7475 34.5039 73.1156 30.453C72.9412 30.0224 73.1547 29.5331 73.591 29.3601C74.0292 29.1942 74.5235 29.3994 74.6965 29.832C76.4088 34.0797 77.2767 38.5935 77.2767 43.2504C77.2767 63.1611 60.8969 79.6393 40.764 79.983C40.5674 79.9998 40.3441 79.9998 40.1005 79.9998L40.1004 80.0001Z" fill="#0072FF"/>
<path d="M40.1017 79.9985C39.8587 79.9985 39.6334 79.9985 39.3912 79.9805C32.5181 79.5266 26.424 72.5133 23.0974 61.22C21.4825 55.7664 20.6289 49.5517 20.6289 43.2495C20.6289 38.701 21.0638 34.2363 21.9219 29.977C22.014 29.52 22.4554 29.2211 22.9224 29.3166C23.3834 29.407 23.6831 29.8505 23.5904 30.3056C22.7545 34.4565 22.3307 38.8108 22.3307 43.2495C22.3307 49.3933 23.1607 55.444 24.7312 60.7491C27.803 71.1785 33.4661 77.9048 39.5111 78.3015C39.7182 78.3176 39.9095 78.3228 40.1015 78.3163C40.3098 78.3215 40.4861 78.3183 40.6859 78.3015C46.7375 77.9038 52.4006 71.1779 55.4724 60.7507C57.0423 55.445 57.8729 49.3941 57.8729 43.2512C57.8729 38.8131 57.4491 34.4581 56.6132 30.3073C56.5211 29.8522 56.8202 29.4087 57.2812 29.3183C57.7377 29.2195 58.1903 29.5223 58.2817 29.9787C59.1404 34.238 59.5747 38.7027 59.5747 43.2512C59.5747 49.5531 58.7212 55.7677 57.1062 61.2233C53.7802 72.5153 47.6862 79.5293 40.8052 79.9821C40.5682 79.9989 40.3449 79.9989 40.1013 79.9989L40.1017 79.9985Z" fill="#0072FF"/>
<path d="M40.1009 79.9996C39.6307 79.9996 39.25 79.6232 39.25 79.1584V30.1419C39.25 29.6771 39.6307 29.3008 40.1009 29.3008C40.5711 29.3008 40.9518 29.6771 40.9518 30.1419V79.1568C40.9518 79.6222 40.5711 79.9986 40.1009 79.9986V79.9996Z" fill="#0072FF"/>
<path d="M76.4174 44.1008H3.78644C3.31625 44.1008 2.93555 43.7243 2.93555 43.2594C2.93555 42.7944 3.31625 42.418 3.78644 42.418H76.4174C76.8876 42.418 77.2683 42.7944 77.2683 43.2594C77.269 43.7243 76.8882 44.1008 76.4181 44.1008H76.4174Z" fill="#0072FF"/>
<path d="M10.8025 65.3148C10.446 65.3148 10.1136 65.0914 9.99475 64.7383C9.84651 64.2981 10.0888 63.8216 10.5348 63.6751C31.2796 56.8723 48.8932 56.8445 69.434 63.5815C69.8794 63.728 70.1217 64.2045 69.9734 64.6447C69.8252 65.085 69.3465 65.3251 68.8972 65.1786C48.4667 58.4758 31.7158 58.5024 11.0713 65.2722C10.9825 65.3019 10.8924 65.3148 10.8035 65.3148H10.8025Z" fill="#0072FF"/>
<path d="M15.5251 14.4955L14.7591 17.4063L12.444 9.36335H9.24414L13.1761 21.6302H16.376L18.4695 13.7383L20.6141 21.6302H23.78L26.0951 14.4955L27.7629 9.36335H24.5298L24.4449 9.6829H24.4279L22.1468 17.4062L20.5978 11.3658L20.0871 9.36328H16.9043L15.5427 14.4786L15.5251 14.4955Z" fill="#0072FF"/>
<path d="M34.5797 21.6364L30.6484 9.35352H33.8423L36.1704 17.4036L38.3118 9.35352H41.4822L43.553 17.4036L45.9281 9.35352H49.1691L45.1791 21.6364H42.021L39.8797 13.7367L37.7736 21.6364H34.5797Z" fill="#0072FF"/>
<path d="M54.8955 9.36133H52.2402L53.7043 13.9382L53.7213 13.9718L56.1721 21.628H59.372L61.4655 13.7361L63.6101 21.628H66.776L68.1546 17.4048L70.7588 9.36184H67.525L65.7546 15.3184L65.142 17.4048L64.3251 14.2248L63.0824 9.36184H59.8995L59.3889 11.2462L57.755 17.4048L55.508 9.5633H55.491L54.8955 9.36133Z" fill="#0072FF"/>
<path d="M79.1498 30.9914H0.851542C0.381361 30.9914 0.000653029 30.615 0.000653029 30.1502L0 0.841147C0 0.37635 0.380708 0 0.850889 0H79.1491C79.6193 0 80 0.37635 80 0.841147V30.1502C80.0007 30.615 79.6199 30.9914 79.1498 30.9914ZM1.70246 29.3084H78.2989L78.2982 1.68329H1.70181L1.70246 29.3084Z" fill="#0072FF"/>
</svg>
