<svg width="64" height="65" viewBox="0 0 64 65" fill="none" xmlns="http://www.w3.org/2000/svg">
<path opacity="0.1" d="M25 50.7063C38.8071 50.7063 50 39.5134 50 25.7063C50 11.8992 38.8071 0.706299 25 0.706299C11.1929 0.706299 0 11.8992 0 25.7063C0 39.5134 11.1929 50.7063 25 50.7063Z" fill="#FF008A"/>
<path d="M40.0001 45.4354C45.1723 45.4354 49.3651 41.2601 49.3651 36.1096C49.3651 30.9591 45.1723 26.7838 40.0001 26.7838C34.8279 26.7838 30.635 30.9591 30.635 36.1096C30.635 41.2601 34.8279 45.4354 40.0001 45.4354Z" fill="#E2C4FF"/>
<path d="M40.0001 53.6046L36.6046 49.2717H43.3955L40.0001 53.6046Z" fill="#E2C4FF"/>
<path d="M41.1162 35.3331C41.0136 35.2969 40.9149 35.2618 40.8201 35.2279V32.9269C41.0137 33.0113 41.1509 33.1222 41.2262 33.2295C41.5238 33.6532 42.1086 33.7554 42.5322 33.4578C42.956 33.1601 43.0581 32.5754 42.7605 32.1517C42.3789 31.6086 41.7013 31.151 40.8201 30.9802V30.9221C40.8201 30.4043 40.4004 29.9846 39.8826 29.9846C39.3649 29.9846 38.9451 30.4043 38.9451 30.9221V31.0468C38.8536 31.0691 38.761 31.0942 38.6676 31.1224C37.6061 31.4418 36.8051 32.4702 36.7197 33.6234C36.6351 34.7661 37.242 35.7579 38.3433 36.2767C38.4797 36.3409 38.6856 36.4271 38.9451 36.5293V39.3475C38.6234 39.2289 38.336 39.0526 38.14 38.8096C37.815 38.4066 37.2247 38.3433 36.8217 38.6682C36.4187 38.9932 36.3554 39.5835 36.6803 39.9865C37.2633 40.7095 38.1099 41.1097 38.9451 41.292V41.2971C38.9451 41.8148 39.3649 42.2346 39.8826 42.2346C40.379 42.2346 40.7852 41.8489 40.8179 41.3608C42.2962 41.1279 43.3374 40.1666 43.5046 38.8495C43.6957 37.3432 42.7136 35.8972 41.1162 35.3331ZM38.5896 33.762C38.6098 33.4895 38.7498 33.2274 38.9451 33.0636V34.4683C38.6874 34.2904 38.568 34.0537 38.5896 33.762ZM41.6445 38.6137C41.5938 39.0133 41.3003 39.3037 40.8201 39.4451V37.2469C41.4587 37.5966 41.7005 38.1728 41.6445 38.6137Z" fill="#020288"/>
<path d="M48.5476 17H31.4525C27.979 17 25.153 19.826 25.153 23.2995V58.7005C25.153 62.174 27.979 65 31.4525 65H48.5476C52.0211 65 54.8471 62.174 54.8471 58.7005V23.2995C54.8471 19.826 52.0211 17 48.5476 17ZM52.9721 58.7005C52.9721 61.1401 50.9874 63.125 48.5476 63.125H31.4525C29.0128 63.125 27.028 61.1402 27.028 58.7005V23.2995C27.028 20.8599 29.0127 18.875 31.4525 18.875H48.5476C50.9873 18.875 52.9721 20.8598 52.9721 23.2995V58.7005Z" fill="#020288"/>
<path d="M40.6464 57.7832H39.3539C38.8361 57.7832 38.4164 58.2029 38.4164 58.7207C38.4164 59.2385 38.8361 59.6582 39.3539 59.6582H40.6464C41.1642 59.6582 41.5839 59.2385 41.5839 58.7207C41.5839 58.2029 41.1642 57.7832 40.6464 57.7832Z" fill="#020288"/>
<path d="M45.1942 20.4668H34.8059C34.2881 20.4668 33.8684 20.8865 33.8684 21.4043C33.8684 21.9221 34.2881 22.3418 34.8059 22.3418H45.1943C45.712 22.3418 46.1318 21.9221 46.1318 21.4043C46.1318 20.8865 45.7119 20.4668 45.1942 20.4668Z" fill="#020288"/>
</svg>
