<svg width="70" height="80" viewBox="0 0 70 80" fill="none" xmlns="http://www.w3.org/2000/svg">
<path d="M56.9711 49.7221C50.6963 49.7221 43.9425 51.0269 43.9425 53.8896V63.9821L39.3559 63.9815C39.0081 62.2416 37.6324 60.8669 35.8834 60.5101V43.8924H53.9595C62.506 43.8924 69.4595 36.9412 69.4595 28.3974C69.4595 20.1407 62.9582 13.3629 54.8032 12.9285C54.3679 5.72482 48.3627 0 41.0437 0C33.9943 0 28.2415 5.1767 27.3795 12.0152C26.2394 11.5017 25.0125 11.2408 23.7503 11.2408C19.0939 11.2408 15.256 14.8511 14.899 19.4192C14.2203 19.3064 13.5501 19.2451 12.8974 19.2451C6.10059 19.2451 0.565082 24.7786 0.565082 31.5735C0.565082 38.3683 6.10044 43.9018 12.8974 43.9018H34.1424V60.5195C32.402 60.8672 31.0269 62.2425 30.6699 63.9909H26.0572V53.8984C26.0572 51.0356 19.3034 49.7309 13.0286 49.7309C6.75379 49.7309 0 51.0357 0 53.8984V75.8325C0 78.6953 6.75379 80 13.0286 80C19.3034 80 26.0572 78.6952 26.0572 75.8325V65.74H30.6699C31.079 67.767 32.8632 69.2981 35.0129 69.2981C37.1626 69.2981 38.9467 67.7669 39.3559 65.74H43.9425V75.8325C43.9425 78.6953 50.6963 80 56.9711 80C63.2459 80 69.9997 78.6952 69.9997 75.8325V53.8906C69.9997 51.0279 63.2459 49.7231 56.9711 49.7231V49.7221ZM24.3265 75.8231C24.3265 76.5277 20.375 78.2507 13.0384 78.2507C5.7018 78.2507 1.75026 76.5277 1.75026 75.8231V70.7423C4.16103 72.0647 8.71293 72.6825 13.0384 72.6825C17.3639 72.6825 21.9158 72.0646 24.3265 70.7423V75.8231ZM24.3265 64.5994C24.3004 64.6777 24.2743 64.7645 24.2743 64.8518C24.2743 64.9386 24.3004 65.026 24.3265 65.1043V68.506C24.3265 69.2106 20.375 70.9335 13.0384 70.9335C5.7018 70.9335 1.75026 69.2106 1.75026 68.506V63.4251C4.16103 64.7476 8.71293 65.3653 13.0384 65.3653C17.3639 65.3653 21.9158 64.7475 24.3265 63.4251V64.5994ZM24.3265 61.1977C24.3265 61.9023 20.375 63.6253 13.0384 63.6253C5.7018 63.6253 1.75026 61.9023 1.75026 61.1977V56.1169C4.16103 57.4393 8.71293 58.057 13.0384 58.057C17.3639 58.057 21.9158 57.4392 24.3265 56.1169V61.1977ZM13.0384 56.3165C5.71035 56.3165 1.75026 54.5935 1.75026 53.889C1.75026 53.1843 5.7018 51.4614 13.0384 51.4614C20.375 51.4614 24.3265 53.1844 24.3265 53.889C24.3265 54.5942 20.375 56.3165 13.0384 56.3165ZM12.9079 42.1615C7.06837 42.1615 2.31615 37.4114 2.31615 31.5732C2.31615 25.7356 7.06775 20.9849 12.9079 20.9849C13.7693 20.9849 14.6575 21.0978 15.5535 21.3326L16.6936 21.6282L16.6329 20.2973C16.6329 20.2366 16.6244 20.1753 16.6244 20.1146C16.6244 16.1821 19.8273 12.98 23.7612 12.98C25.1539 12.98 26.5113 13.3891 27.6775 14.1543L28.9827 15.0155L29.0264 13.4498C29.2092 6.88087 34.4835 1.73928 41.054 1.73928C47.6944 1.73928 53.0992 7.14234 53.0992 13.7805V14.6508H53.9697C61.5589 14.6508 67.7292 20.8192 67.7292 28.4059C67.7292 35.9926 61.5589 42.161 53.9697 42.161L35.014 42.1616L12.9079 42.1615ZM35.0139 67.5401C33.5344 67.5401 32.3244 66.3397 32.3244 64.8515C32.3244 63.3726 33.5252 62.163 35.0139 62.163C36.4933 62.163 37.7033 63.3634 37.7033 64.8515C37.7033 66.3305 36.5025 67.5401 35.0139 67.5401ZM56.9722 51.4616C64.3002 51.4616 68.2603 53.1845 68.2603 53.8891C68.2603 54.5937 64.3088 56.3167 56.9722 56.3167C49.6356 56.3167 45.6841 54.5937 45.6841 53.8891C45.6841 53.1839 49.6356 51.4616 56.9722 51.4616ZM45.6841 56.1164C48.0948 57.4388 52.6467 58.0566 56.9722 58.0566C61.2976 58.0566 65.8495 57.4388 68.2603 56.1164V61.1972C68.2603 61.9018 64.3088 63.6248 56.9722 63.6248C49.6356 63.6248 45.6841 61.9018 45.6841 61.1972V56.1164ZM45.6841 63.4245C48.0948 64.7469 52.6467 65.3647 56.9722 65.3647C61.2976 65.3647 65.8495 64.7469 68.2603 63.4245V68.5054C68.2603 69.21 64.3088 70.9329 56.9722 70.9329C49.6356 70.9329 45.6841 69.2099 45.6841 68.5054V63.4245ZM56.9722 78.2496C49.6441 78.2496 45.6841 76.5266 45.6841 75.822V70.7412C48.0948 72.0636 52.6467 72.6814 56.9722 72.6814C61.2976 72.6814 65.8495 72.0636 68.2603 70.7412V75.822C68.2603 76.5272 64.3004 78.2496 56.9722 78.2496Z" fill="#0072FF"/>
</svg>
