<svg width="64" height="65" viewBox="0 0 64 65" fill="none" xmlns="http://www.w3.org/2000/svg">
<path opacity="0.1" d="M25 50.7063C38.8071 50.7063 50 39.5134 50 25.7063C50 11.8992 38.8071 0.706299 25 0.706299C11.1929 0.706299 0 11.8992 0 25.7063C0 39.5134 11.1929 50.7063 25 50.7063Z" fill="#FF008A"/>
<g clip-path="url(#clip0_1063_22368)">
<path d="M40 54.8321C44.1278 54.8321 47.4741 51.4827 47.4741 47.3511C47.4741 43.2195 44.1278 39.8701 40 39.8701C35.8722 39.8701 32.526 43.2195 32.526 47.3511C32.526 51.4827 35.8722 54.8321 40 54.8321Z" fill="#E2C4FF"/>
<path d="M23.4067 39.4399H29.0246V55.2623H23.4067V39.4399Z" fill="#E2C4FF"/>
<path d="M50.9754 39.4399H56.5933V55.2623H50.9754V39.4399Z" fill="#E2C4FF"/>
<path d="M38.7417 49.2906C38.417 48.8872 37.8267 48.8238 37.4235 49.1484C37.0203 49.4733 36.9567 50.0634 37.2815 50.4666C37.7268 51.0196 38.3551 51.3437 38.9879 51.508C39.0678 51.9447 39.4503 52.2757 39.9101 52.2757C40.3466 52.2757 40.7134 51.9773 40.8177 51.5735C41.9682 51.338 42.7716 50.5497 42.9068 49.4848C43.0669 48.2247 42.2539 47.0177 40.9299 46.5496C40.902 46.5397 40.8746 46.53 40.8475 46.5204V45.3652C41.1616 45.7002 41.6823 45.7619 42.069 45.4905C42.4929 45.1931 42.5953 44.6084 42.2979 44.1845C42.001 43.7615 41.4935 43.3994 40.8384 43.2335C40.7749 42.7775 40.3835 42.4263 39.91 42.4263C39.4163 42.4263 39.0117 42.8078 38.9752 43.2921C38.9548 43.298 38.9345 43.3039 38.9141 43.3101C38.015 43.5809 37.3366 44.4501 37.2644 45.4237C37.1923 46.395 37.7047 47.2368 38.6351 47.6756C38.7191 47.7152 38.833 47.7641 38.9726 47.8206V49.4927C38.8822 49.4346 38.8036 49.3674 38.7417 49.2906ZM41.0468 49.2486C41.0282 49.395 40.9512 49.5005 40.8476 49.5766V48.6768C41.0038 48.8609 41.0693 49.0709 41.0468 49.2486Z" fill="#020288"/>
<path d="M59.3027 58.6733V55.2623C59.3027 54.7446 58.8829 54.3248 58.3652 54.3248H49.2036C48.6858 54.3248 48.2661 54.7446 48.2661 55.2623V58.672H45.5182V55.2623C45.5182 54.7446 45.0985 54.3248 44.5807 54.3248H35.4192C34.9014 54.3248 34.4817 54.7446 34.4817 55.2623V58.672H31.7338V55.2623C31.7338 54.7446 31.3141 54.3248 30.7963 54.3248H21.6348C21.1171 54.3248 20.6973 54.7446 20.6973 55.2623V58.6733C19.2252 58.7182 18.0415 59.9298 18.0415 61.4126V63.9778C18.0415 64.4955 18.4612 64.9153 18.979 64.9153H61.0209C61.5387 64.9153 61.9584 64.4955 61.9584 63.9778V61.4126C61.9585 59.9298 60.7747 58.7182 59.3027 58.6733ZM50.1411 56.1997H57.4277V58.6719H50.1411V56.1997ZM36.3568 56.1997H43.6433V58.6719H36.3568V56.1997ZM22.5723 56.1997H29.8589V58.6719H22.5723V56.1997ZM60.0835 63.0403H19.9165V61.4126C19.9165 60.9353 20.3048 60.547 20.7821 60.547H59.2178C59.6951 60.547 60.0834 60.9354 60.0834 61.4126V63.0403H60.0835Z" fill="#020288"/>
<path d="M61.021 29.9548H59.6606L40.5351 17.0751C40.2187 16.8621 39.8047 16.862 39.4882 17.0748L20.3398 29.9548H18.979C18.4612 29.9548 18.0415 30.3746 18.0415 30.8923V35.0927C18.0415 35.6104 18.4612 36.0302 18.979 36.0302H20.6973V39.4399C20.6973 39.9576 21.1171 40.3774 21.6348 40.3774H30.7964C31.3142 40.3774 31.7339 39.9576 31.7339 39.4399V36.0302H34.4818V39.4399C34.4818 39.9576 34.9015 40.3774 35.4193 40.3774H44.5808C45.0986 40.3774 45.5183 39.9576 45.5183 39.4399V36.0302H48.2662V39.4399C48.2662 39.9576 48.6859 40.3774 49.2037 40.3774H58.3653C58.883 40.3774 59.3028 39.9576 59.3028 39.4399V36.0302H61.0211C61.5389 36.0302 61.9586 35.6104 61.9586 35.0927V30.8923C61.9585 30.3745 61.5388 29.9548 61.021 29.9548ZM40.0112 18.9828L56.3038 29.9548H23.6992L40.0112 18.9828ZM29.8589 38.5024H22.5723V36.0302H29.8589V38.5024ZM43.6432 38.5024H36.3567V36.0302H43.6432V38.5024ZM57.4277 38.5024H50.1411V36.0302H57.4277V38.5024ZM60.0835 34.1552H19.9165V31.8298H60.0834V34.1552H60.0835Z" fill="#020288"/>
</g>
<defs>
<clipPath id="clip0_1063_22368">
<rect width="48" height="48" fill="white" transform="translate(16 16.9153)"/>
</clipPath>
</defs>
</svg>
