<svg width="80" height="80" viewBox="0 0 80 80" fill="none" xmlns="http://www.w3.org/2000/svg">
<path d="M14.032 52.9922H21.3836V67.1649H12.2197V63.5654L3.74821 63.566V72.0285H12.2191V68.429H22.6488V52.9926H32.0913V71.5375H28.4881V80H36.959V71.5375H33.3558L33.3564 52.9926H45.3291V71.5375H41.7259V80H50.1956V71.5375H46.5942V52.9926H57.3007V68.4305H66.8914V72.0301H75.361V63.5675H66.8914V67.1671H58.5663L58.5657 52.9931H65.969C73.7058 52.9931 80 46.7036 80 38.9733C80 31.2172 73.6116 24.7298 65.5105 24.96C66.6106 15.1574 55.7722 8.30024 47.3495 13.4053C44.3867 8.11849 38.8295 4.7041 32.4297 4.7041L30.7794 3.04794L30.6552 2.74933C30.073 2.74933 30.1133 2.70556 29.8054 2.9676L29.7778 2.94182L29.3343 3.38733L29.3415 3.39513C28.9202 3.79987 28.2589 4.45946 27.1852 5.5316C26.5329 5.16283 25.4083 4.63335 24.1654 4.24301L24.166 0H15.0176V4.24301C13.9578 4.57339 12.9556 5.00693 12.0302 5.5382L8.98336 2.4939L2.50909 8.97638L5.74262 12.2072C5.31653 13.0742 4.97026 13.997 4.69719 15.0051H0V24.1578H5.1017C5.39216 24.9781 5.74444 25.7576 6.16933 26.521L2.51101 30.2026L2.84649 30.5372C1.01426 32.9561 0.00073727 35.9243 0.00073727 38.9733C0.000137178 46.7043 6.29494 52.9932 14.0324 52.9932L14.032 52.9922ZM10.9539 70.7649H5.01323V64.8304H10.9539V70.7649ZM35.6935 78.7364H29.7528V72.8019H35.6935V78.7364ZM48.93 78.7364H42.9905V72.8019H48.93V78.7364ZM68.1556 64.8304H74.0951V70.7649H68.1556V64.8304ZM7.75312 26.72C5.74083 22.9759 6.35242 23.6451 6.01568 22.8937H1.26503V16.2691H5.68553C5.80075 15.877 6.0324 14.3305 7.07423 12.383L7.29388 11.9699L4.29803 8.9753L8.98324 4.28268L11.8399 7.1351C16.108 4.83376 15.5133 5.52637 16.2833 5.19527V1.26418H22.9009V5.19588C23.2616 5.3218 26.2393 6.66077 27.3478 7.15904C27.8615 6.64576 27.4282 7.0757 30.2254 4.2833L30.8231 4.88353L30.8195 4.88413L34.8992 8.97532L31.898 11.9734C33.8184 16.0695 33.1907 15.45 33.4884 16.2697L37.9438 16.2691V22.8937H33.1944C31.7318 26.7738 31.7979 25.9553 31.4437 26.7199L34.8998 30.199L30.2272 34.8689L26.5983 31.2423C23.1115 32.8985 23.6433 32.4158 22.9015 32.7054V37.8994H16.2839V32.7066C12.44 31.4486 13.3835 31.5542 12.6141 31.2423L8.98388 34.8695L4.29744 30.199L7.75312 26.72ZM12.8495 32.7935C13.5312 33.1287 14.2472 33.4135 15.0177 33.6552V39.1634H24.1661V33.6564C24.9445 33.4148 25.6784 33.1257 26.3589 32.7929L30.2262 36.6563L36.686 30.2032L33.0277 26.5215C33.4652 25.7414 33.8222 24.9613 34.1085 24.1583L39.209 24.1577V15.0051H34.4955C34.2411 14.0151 33.8924 13.0767 33.4567 12.2042L36.6865 8.9765L33.7369 6.01556C43.4452 6.77648 46.7669 15.1101 46.881 15.2408L47.4763 14.8301C55.3482 9.40465 65.9415 16.4551 64.1471 25.5131L63.9803 26.3471C73.3273 25.5958 78.7351 32.1844 78.7351 38.9735C78.7351 46.007 73.0081 51.7294 65.9691 51.7294H14.0318C3.52584 51.7294 -2.38551 39.7488 3.74077 31.4315L8.98351 36.6566L12.8495 32.7935Z" fill="#0072FF"/>
<path d="M19.6197 28.3664C24.626 28.3664 28.6787 24.3058 28.6787 19.2857C28.6787 14.3437 24.7004 10.2344 19.6197 10.2344C14.59 10.2344 10.5469 14.2843 10.5469 19.2857C10.5469 24.2932 14.6163 28.3664 19.6197 28.3664ZM19.6197 11.4979C23.9772 11.4979 27.4135 15.0183 27.4135 19.2851C27.4135 23.606 23.9268 27.1012 19.6197 27.1012C15.3149 27.1012 11.812 23.5946 11.812 19.2851C11.812 14.9684 15.309 11.4979 19.6197 11.4979Z" fill="#0072FF"/>
</svg>
