<svg width="64" height="65" viewBox="0 0 64 65" fill="none" xmlns="http://www.w3.org/2000/svg">
<path opacity="0.1" d="M25 50.7063C38.8071 50.7063 50 39.5134 50 25.7063C50 11.8992 38.8071 0.706299 25 0.706299C11.1929 0.706299 0 11.8992 0 25.7063C0 39.5134 11.1929 50.7063 25 50.7063Z" fill="#FF008A"/>
<g clip-path="url(#clip0_1063_22489)">
<path d="M55.4925 32.1857V25.2957C53.1952 25.2957 51.333 23.4336 51.333 21.1366H28.3624C28.3624 23.4337 26.5001 25.2957 24.2029 25.2957V32.1857C26.5001 32.1857 28.3624 34.0478 28.3624 36.3448H51.333C51.333 34.0478 53.1952 32.1857 55.4925 32.1857Z" fill="#E2C4FF"/>
<path d="M56.7396 16.2832H22.9558C20.9671 16.2832 19.3491 17.9011 19.3491 19.8898V37.5916C19.3491 39.5803 20.9671 41.1982 22.9558 41.1982H36.7354V43.7205H29.4561C27.7367 43.7205 26.3377 45.1194 26.3377 46.839V61.1648C26.3377 62.8843 27.7366 64.2832 29.4561 64.2832H50.2392C51.9587 64.2832 53.3576 62.8844 53.3576 61.1648V46.839C53.3576 45.1196 51.9587 43.7206 50.2392 43.7206H42.9599V41.1983H56.7395C58.7282 41.1983 60.3461 39.5804 60.3461 37.5917V19.8898C60.3462 17.9011 58.7282 16.2832 56.7396 16.2832V16.2832ZM51.4826 51.3627H41.4448L41.4532 51.3482L42.5762 49.4383H51.4825V51.3627H51.4826ZM38.2505 51.3627H28.2128V49.4384H37.1191L38.2421 51.3483L38.2505 51.3627ZM29.4561 45.5956H34.8595L36.0165 47.5634H28.2127V46.839C28.2128 46.1535 28.7705 45.5956 29.4561 45.5956ZM50.2392 62.4082H29.4561C28.7705 62.4082 28.2127 61.8504 28.2127 61.1648V53.2377H51.4825V61.1648C51.4826 61.8504 50.9248 62.4082 50.2392 62.4082ZM51.4826 46.839V47.5634H43.6788L44.8358 45.5956H50.2392C50.9248 45.5956 51.4826 46.1535 51.4826 46.839ZM42.0225 45.5956H42.6608L39.8477 50.3797L37.0346 45.5956H37.6729C38.1907 45.5956 38.6104 45.1759 38.6104 44.6581V41.1983H41.085V44.6581C41.085 45.1759 41.5047 45.5956 42.0225 45.5956ZM58.4712 37.5917C58.4712 38.5466 57.6945 39.3233 56.7396 39.3233H22.9558C22.0009 39.3233 21.2241 38.5465 21.2241 37.5917V19.8898C21.2241 18.935 22.0009 18.1582 22.9558 18.1582H56.7396C57.6945 18.1582 58.4712 18.935 58.4712 19.8898V37.5917Z" fill="#020288"/>
<path d="M40.8769 27.9527C40.8095 27.9289 40.7442 27.9057 40.6806 27.883V26.0694C40.7604 26.1198 40.8197 26.175 40.8572 26.2283C41.1546 26.652 41.7393 26.7546 42.1631 26.4572C42.5869 26.1599 42.6894 25.5751 42.3919 25.1513C42.0504 24.6645 41.4537 24.2516 40.6801 24.0816C40.6641 23.5778 40.2508 23.1742 39.743 23.1742C39.2252 23.1742 38.8055 23.5939 38.8055 24.1117V24.1444C38.7475 24.1596 38.6891 24.176 38.6303 24.1937C37.645 24.4905 36.9015 25.4448 36.8221 26.5143C36.7433 27.5772 37.3059 28.4992 38.3269 28.9807C38.4386 29.0334 38.6017 29.1023 38.8055 29.1835V31.4767C38.5888 31.3796 38.4006 31.2501 38.2692 31.087C37.9444 30.6838 37.3543 30.6202 36.951 30.9449C36.5477 31.2697 36.4842 31.8599 36.8089 32.2632C37.3266 32.9059 38.0691 33.271 38.8085 33.4457C38.8472 33.9279 39.2507 34.3071 39.7429 34.3071C40.2119 34.3071 40.6004 33.9629 40.6696 33.5133C41.9922 33.2776 42.9202 32.3973 43.0725 31.1988C43.2493 29.807 42.3465 28.4722 40.8769 27.9527ZM38.692 26.6531C38.7012 26.5297 38.7426 26.4074 38.8055 26.3011V27.0467C38.7181 26.9354 38.6807 26.8049 38.692 26.6531ZM41.2125 30.9628C41.1774 31.2391 40.9899 31.4502 40.6806 31.5748V29.9377C41.0957 30.2279 41.2534 30.6404 41.2125 30.9628Z" fill="#020288"/>
<path d="M35.6272 54.5337H31.8268C31.309 54.5337 30.8893 54.9534 30.8893 55.4712V59.503C30.8893 60.0208 31.309 60.4405 31.8268 60.4405H35.6272C36.145 60.4405 36.5647 60.0208 36.5647 59.503V55.4712C36.5647 54.9534 36.145 54.5337 35.6272 54.5337ZM34.6897 58.5655H32.7643V56.4087H34.6897V58.5655Z" fill="#020288"/>
<path d="M47.8686 54.5337H44.0261C43.5084 54.5337 43.0886 54.9534 43.0886 55.4712C43.0886 55.989 43.5084 56.4087 44.0261 56.4087H47.8686C48.3863 56.4087 48.8061 55.989 48.8061 55.4712C48.8061 54.9534 48.3863 54.5337 47.8686 54.5337Z" fill="#020288"/>
<path d="M47.8686 58.5654H41.9139C41.3962 58.5654 40.9764 58.9851 40.9764 59.5029C40.9764 60.0207 41.3962 60.4404 41.9139 60.4404H47.8686C48.3863 60.4404 48.8061 60.0207 48.8061 59.5029C48.8061 58.9851 48.3863 58.5654 47.8686 58.5654Z" fill="#020288"/>
</g>
<defs>
<clipPath id="clip0_1063_22489">
<rect width="48" height="48" fill="white" transform="translate(15.8477 16.2832)"/>
</clipPath>
</defs>
</svg>
