<svg width="25" height="25" viewBox="0 0 25 25" fill="none" xmlns="http://www.w3.org/2000/svg">
<path d="M17.9258 6.9032C17.8243 6.65885 17.6301 6.46468 17.3858 6.3632C17.2656 6.31196 17.1365 6.28478 17.0058 6.2832H7.0058C6.74058 6.2832 6.48623 6.38856 6.29869 6.5761C6.11116 6.76363 6.0058 7.01799 6.0058 7.2832C6.0058 7.54842 6.11116 7.80277 6.29869 7.99031C6.48623 8.17785 6.74058 8.2832 7.0058 8.2832H14.5958L6.2958 16.5732C6.20207 16.6662 6.12768 16.7768 6.07691 16.8986C6.02614 17.0205 6 17.1512 6 17.2832C6 17.4152 6.02614 17.5459 6.07691 17.6678C6.12768 17.7896 6.20207 17.9002 6.2958 17.9932C6.38876 18.0869 6.49936 18.1613 6.62122 18.2121C6.74308 18.2629 6.87379 18.289 7.0058 18.289C7.13781 18.289 7.26852 18.2629 7.39038 18.2121C7.51223 18.1613 7.62284 18.0869 7.7158 17.9932L16.0058 9.6932V17.2832C16.0058 17.5484 16.1112 17.8028 16.2987 17.9903C16.4862 18.1778 16.7406 18.2832 17.0058 18.2832C17.271 18.2832 17.5254 18.1778 17.7129 17.9903C17.9004 17.8028 18.0058 17.5484 18.0058 17.2832V7.2832C18.0042 7.15253 17.977 7.02343 17.9258 6.9032Z" fill="#09100E"/>
</svg>
