<svg width="32" height="32" viewBox="0 0 32 32" fill="none" xmlns="http://www.w3.org/2000/svg">
<g clip-path="url(#clip0_801_2241)">
<path opacity="0.3" fill-rule="evenodd" clip-rule="evenodd" d="M6 9.33325H12.6667C13.7712 9.33325 14.6667 10.2287 14.6667 11.3333C14.6667 12.4378 13.7712 13.3333 12.6667 13.3333H6C4.89543 13.3333 4 12.4378 4 11.3333C4 10.2287 4.89543 9.33325 6 9.33325ZM18 19.9999H24.6667C25.7712 19.9999 26.6667 20.8953 26.6667 21.9999C26.6667 23.1045 25.7712 23.9999 24.6667 23.9999H18C16.8954 23.9999 16 23.1045 16 21.9999C16 20.8953 16.8954 19.9999 18 19.9999Z" fill="#2F80ED"/>
<path fill-rule="evenodd" clip-rule="evenodd" d="M22.6667 14.6667C20.4575 14.6667 18.6667 12.8759 18.6667 10.6667C18.6667 8.45761 20.4575 6.66675 22.6667 6.66675C24.8758 6.66675 26.6667 8.45761 26.6667 10.6667C26.6667 12.8759 24.8758 14.6667 22.6667 14.6667ZM8 25.3334C5.79086 25.3334 4 23.5426 4 21.3334C4 19.1243 5.79086 17.3334 8 17.3334C10.2091 17.3334 12 19.1243 12 21.3334C12 23.5426 10.2091 25.3334 8 25.3334Z" fill="#2F80ED"/>
</g>
<defs>
<clipPath id="clip0_801_2241">
<rect width="32" height="32" fill="white"/>
</clipPath>
</defs>
</svg>
