<svg width="48" height="80" viewBox="0 0 48 80" fill="none" xmlns="http://www.w3.org/2000/svg">
<path d="M10.6643 39.2207C8.92367 39.2207 7.50964 40.6207 7.50964 42.3441C7.50964 44.0675 8.92365 45.4674 10.6643 45.4674C12.405 45.4674 13.819 44.0675 13.819 42.3441C13.819 40.6201 12.405 39.2207 10.6643 39.2207ZM10.6643 43.7172C9.89569 43.7172 9.27682 43.1045 9.27682 42.3434C9.27682 41.591 9.89569 40.9697 10.6643 40.9697C11.4244 40.9697 12.0518 41.5824 12.0518 42.3434C12.0518 43.0965 11.4244 43.7172 10.6643 43.7172Z" fill="#0072FF"/>
<path d="M38.8164 40.0938H40.5836V44.5909H38.8164V40.0938Z" fill="#0072FF"/>
<path d="M35.498 40.0938H37.2652V44.5909H35.498V40.0938Z" fill="#0072FF"/>
<path d="M32.1816 40.0938H33.9488V44.5909H32.1816V40.0938Z" fill="#0072FF"/>
<path d="M28.8594 40.0938H30.6266V44.5909H28.8594V40.0938Z" fill="#0072FF"/>
<path d="M10.6645 61.8874C12.4051 61.8874 13.8191 60.4874 13.8191 58.764C13.8191 57.0406 12.4051 55.6406 10.6645 55.6406C8.92378 55.6406 7.50977 57.0406 7.50977 58.764C7.50977 60.488 8.92378 61.8874 10.6645 61.8874ZM10.6645 57.3993C11.4245 57.3993 12.052 58.012 12.052 58.7731C12.052 59.5341 11.4331 60.1468 10.6645 60.1468C9.89581 60.1468 9.27694 59.5341 9.27694 58.7731C9.27694 58.0114 9.89581 57.3993 10.6645 57.3993Z" fill="#0072FF"/>
<path d="M38.8164 56.5254H40.5836V61.0225H38.8164V56.5254Z" fill="#0072FF"/>
<path d="M35.498 56.5254H37.2652V61.0225H35.498V56.5254Z" fill="#0072FF"/>
<path d="M32.1816 56.5254H33.9488V61.0225H32.1816V56.5254Z" fill="#0072FF"/>
<path d="M28.8594 56.5254H30.6266V61.0225H28.8594V56.5254Z" fill="#0072FF"/>
<path d="M37.0424 30.4986C43.0868 30.4986 48 25.6341 48 19.6498C48 13.9541 43.5373 9.26465 37.8912 8.83626C37.4585 3.89296 33.2522 0 28.1533 0C23.2845 0 19.2815 3.45598 18.5215 8.07526C17.7966 7.8043 17.028 7.66394 16.2506 7.66394C12.9986 7.66394 10.3036 10.0788 9.90606 13.2022C4.57724 12.4936 0 16.6582 0 21.8113C0 26.6057 3.94131 30.4991 8.77497 30.4991H23.0815V35.407L3.56828 35.4063V49.2737H23.1147V51.8368H3.56828V65.7042H23.3261V72.0559C21.6915 72.3098 20.3748 73.5346 20.0211 75.1184L9.5324 75.1178C9.04668 75.1178 8.64848 75.5114 8.64848 75.9929C8.64848 76.4738 9.04605 76.868 9.5324 76.868H20.0217C20.4279 78.6531 22.0368 80 23.963 80C25.8892 80 27.4973 78.6617 27.9043 76.868H38.4816C38.9674 76.868 39.3656 76.4744 39.3656 75.9929C39.3656 75.512 38.968 75.1178 38.4816 75.1178H27.9043C27.5863 73.7007 26.4995 72.5809 25.1028 72.1695V65.7042H44.4377V51.8369H24.8819V49.2737H44.4282V35.4064H24.8456V30.4985L37.0424 30.4986ZM26.2351 75.9931C26.2351 77.2356 25.2101 78.2504 23.9551 78.2504C22.8061 78.2504 21.8607 77.393 21.7107 76.2994C21.7459 76.203 21.7724 76.1072 21.7724 76.0022C21.7724 75.8973 21.7459 75.8008 21.7107 75.705C21.8611 74.6029 22.8067 73.754 23.9551 73.754C25.2187 73.7449 26.2351 74.7506 26.2351 75.9931V75.9931ZM42.6634 53.5864V63.9537L5.3364 63.9544V53.5864L42.6634 53.5864ZM42.6634 37.1556V47.5229L5.3364 47.5236V37.1556L42.6634 37.1556ZM8.77481 28.7485C4.91303 28.7485 1.76765 25.6336 1.76765 21.8109C1.76765 17.9875 4.91382 14.8733 8.77481 14.8733C9.34066 14.8733 9.9324 14.9521 10.5248 15.101L11.6824 15.3982L11.6207 13.9982C11.6207 11.4698 13.6974 9.41376 16.2512 9.41376C17.1523 9.41376 18.0362 9.67618 18.7963 10.1662L20.1215 11.0322L20.1659 9.45772C20.2805 5.13575 23.7978 1.74991 28.1631 1.74991C32.5814 1.74991 36.1688 5.31088 36.1688 9.67613V10.5513H37.0527C42.1164 10.5513 46.2425 14.637 46.2425 19.6498C46.2425 24.6633 42.1158 28.7484 37.0527 28.7484L8.77481 28.7485Z" fill="#0072FF"/>
</svg>
