<svg width="84" height="80" viewBox="0 0 84 80" fill="none" xmlns="http://www.w3.org/2000/svg">
<path d="M6.53318 0.000764196C2.92967 0.000764196 0 2.92132 0 6.51214V17.6746C0 20.043 1.27735 22.1161 3.17901 23.2563C1.27734 24.3957 0 26.4688 0 28.8379V40.0004C0 42.3688 1.27735 44.4418 3.17901 45.582C1.27734 46.7215 0 48.7946 0 51.1637V62.3262C0 65.9176 2.93034 68.8375 6.53318 68.8375H56.2916C57.5885 75.2042 63.2343 80 70 80C77.7207 80 84 73.7416 84 66.0467C84 59.3036 79.1882 53.6766 72.8001 52.3841V51.1629C72.8001 48.7945 71.5228 46.7215 69.6211 45.5813C71.5228 44.4419 72.8001 42.3687 72.8001 39.9996V28.8371C72.8001 26.4687 71.5228 24.3957 69.6211 23.2555C71.5228 22.1161 72.8001 20.0429 72.8001 17.6738V6.51137C72.8001 2.91989 69.8698 0 66.267 0H6.53351L6.53318 0.000764196ZM6.53318 1.86104H66.2666C68.8681 1.86104 70.9333 3.91932 70.9333 6.51214V17.6746C70.9333 20.2674 68.8681 22.3257 66.2666 22.3257H6.53318C3.93167 22.3257 1.8665 20.2674 1.8665 17.6746V6.51214C1.8665 3.91932 3.93167 1.86104 6.53318 1.86104V1.86104ZM17.733 7.44269C15.1667 7.44269 13.0664 9.53602 13.0664 12.0938C13.0664 14.6516 15.1667 16.7449 17.733 16.7449C20.2994 16.7449 22.3997 14.6516 22.3997 12.0938C22.3997 9.53602 20.2994 7.44269 17.733 7.44269ZM17.733 9.30296C19.2903 9.30296 20.5332 10.5417 20.5332 12.0938C20.5332 13.6459 19.2904 14.8846 17.733 14.8846C16.1757 14.8846 14.9329 13.6459 14.9329 12.0938C14.9329 10.5417 16.1757 9.30296 17.733 9.30296V9.30296ZM36.3997 11.1632C35.8841 11.1632 35.4661 11.5798 35.4661 12.0937C35.4661 12.6076 35.8841 13.0242 36.3997 13.0242H56.9331C57.4487 13.0242 57.8667 12.6076 57.8667 12.0937C57.8667 11.5798 57.4487 11.1632 56.9331 11.1632H36.3997ZM6.53301 24.186H66.2665C68.868 24.186 70.9331 26.2443 70.9331 28.8371V39.9996C70.9331 42.5924 68.868 44.6507 66.2665 44.6507H6.53301C3.93151 44.6507 1.86634 42.5924 1.86634 39.9996V28.8371C1.86634 26.2443 3.93151 24.186 6.53301 24.186V24.186ZM17.7329 29.7676C15.1665 29.7676 13.0662 31.861 13.0662 34.4187C13.0662 36.9765 15.1665 39.0698 17.7329 39.0698C20.2992 39.0698 22.3995 36.9765 22.3995 34.4187C22.3995 31.861 20.2992 29.7676 17.7329 29.7676ZM17.7329 31.6279C19.2902 31.6279 20.533 32.8666 20.533 34.4187C20.533 35.9709 19.2902 37.2096 17.7329 37.2096C16.1755 37.2096 14.9327 35.9709 14.9327 34.4187C14.9327 32.8666 16.1755 31.6279 17.7329 31.6279ZM36.3996 33.4882C35.8839 33.4882 35.466 33.9048 35.466 34.4187C35.466 34.9326 35.8839 35.3492 36.3996 35.3492H56.9329C57.4486 35.3492 57.8665 34.9326 57.8665 34.4187C57.8665 33.9048 57.4486 33.4882 56.9329 33.4882H36.3996ZM6.53285 46.5109H66.2663C68.8678 46.5109 70.933 48.5692 70.933 51.162V52.121C70.6231 52.1003 70.3145 52.0925 69.9994 52.0925C62.2787 52.0925 55.9993 58.3509 55.9993 66.0458C55.9993 66.3598 56.0078 66.6674 56.0286 66.9763L6.53354 66.9756C3.93204 66.9756 1.86687 64.9174 1.86687 62.3245V51.1621C1.86687 48.5692 3.93204 46.511 6.53354 46.511L6.53285 46.5109ZM17.7327 52.0926C15.1664 52.0926 13.066 54.1859 13.066 56.7437C13.066 59.3014 15.1664 61.3948 17.7327 61.3948C20.299 61.3948 22.3994 59.3014 22.3994 56.7437C22.3994 54.1859 20.299 52.0926 17.7327 52.0926ZM17.7327 53.9528C19.29 53.9528 20.5329 55.1915 20.5329 56.7437C20.5329 58.2958 19.29 59.5345 17.7327 59.5345C16.1754 59.5345 14.9325 58.2958 14.9325 56.7437C14.9325 55.1915 16.1754 53.9528 17.7327 53.9528ZM69.9995 53.9528C76.7117 53.9528 82.133 59.3559 82.133 66.0459C82.133 72.7356 76.7118 78.1389 69.9995 78.1389C63.2871 78.1389 57.866 72.7358 57.866 66.0459C57.866 59.3561 63.2871 53.9528 69.9995 53.9528ZM36.3994 55.8131C35.8838 55.8131 35.4658 56.2297 35.4658 56.7436C35.4658 57.2575 35.8838 57.6741 36.3994 57.6741H56.9328C57.4484 57.6741 57.8664 57.2575 57.8664 56.7436C57.8664 56.2297 57.4484 55.8131 56.9328 55.8131H36.3994ZM63.4661 65.1153C62.9505 65.1153 62.5325 65.5319 62.5325 66.0458C62.5325 66.5597 62.9505 66.9763 63.4661 66.9763H76.5325C77.0481 66.9763 77.4661 66.5597 77.4661 66.0458C77.4661 65.5319 77.0481 65.1153 76.5325 65.1153H63.4661Z" fill="#0072FF"/>
</svg>
