<svg width="64" height="65" viewBox="0 0 64 65" fill="none" xmlns="http://www.w3.org/2000/svg">
<path opacity="0.1" d="M25 50.7063C38.8071 50.7063 50 39.5134 50 25.7063C50 11.8992 38.8071 0.706299 25 0.706299C11.1929 0.706299 0 11.8992 0 25.7063C0 39.5134 11.1929 50.7063 25 50.7063Z" fill="#FF008A"/>
<path d="M22.3999 27.2981H57.6001V31.8434H22.3999V27.2981Z" fill="#E2C4FF"/>
<path d="M40.1487 36.2993V54.1005H22.8688V36.2993H40.1487Z" fill="#E2C4FF"/>
<path d="M59.0752 21.6871H20.9248C18.2092 21.6871 16 23.8964 16 26.612V54.8007C16 57.5162 18.2092 59.7254 20.9248 59.7254H59.0752C61.7908 59.7254 64 57.5162 64 54.8007V26.612C64 23.8964 61.7908 21.6871 59.0752 21.6871ZM62.125 54.8006C62.125 56.4823 60.7568 57.8504 59.0752 57.8504H20.9248C19.2432 57.8504 17.875 56.4823 17.875 54.8006V26.612C17.875 24.9303 19.2432 23.5622 20.9248 23.5622H59.0752C60.7569 23.5622 62.125 24.9303 62.125 26.612V54.8006Z" fill="#020288"/>
<path d="M31.5087 45.4838C33.0681 45.4838 34.3369 44.2151 34.3369 42.6557C34.3369 41.0962 33.0681 39.8275 31.5087 39.8275C29.9493 39.8275 28.6805 41.0962 28.6805 42.6557C28.6805 44.2151 29.9493 45.4838 31.5087 45.4838ZM31.5087 41.7025C32.0343 41.7025 32.4619 42.1301 32.4619 42.6557C32.4619 43.1812 32.0343 43.6088 31.5087 43.6088C30.9831 43.6088 30.5555 43.1812 30.5555 42.6557C30.5555 42.1301 30.983 41.7025 31.5087 41.7025Z" fill="#020288"/>
<path d="M31.5087 46.5999C29.7808 46.5999 28.2296 47.6928 27.6487 49.3194C27.4747 49.807 27.7288 50.3435 28.2164 50.5176C28.7041 50.6919 29.2404 50.4375 29.4146 49.9499C29.7296 49.0676 30.5712 48.4749 31.5087 48.4749C32.4462 48.4749 33.2878 49.0676 33.6028 49.9499C33.7397 50.3334 34.1007 50.5724 34.4857 50.5724C34.5903 50.5724 34.6968 50.5548 34.801 50.5176C35.2886 50.3435 35.5426 49.807 35.3686 49.3194C34.7877 47.6927 33.2365 46.5999 31.5087 46.5999Z" fill="#020288"/>
<path d="M57.1313 37.6909H46.9226C46.4049 37.6909 45.9851 38.1106 45.9851 38.6284C45.9851 39.1462 46.4049 39.5659 46.9226 39.5659H57.1314C57.6491 39.5659 58.0689 39.1462 58.0689 38.6284C58.0689 38.1106 57.6491 37.6909 57.1313 37.6909Z" fill="#020288"/>
<path d="M57.1313 42.1361H46.9226C46.4049 42.1361 45.9851 42.5558 45.9851 43.0736C45.9851 43.5914 46.4049 44.0111 46.9226 44.0111H57.1314C57.6491 44.0111 58.0689 43.5914 58.0689 43.0736C58.0689 42.5558 57.6491 42.1361 57.1313 42.1361Z" fill="#020288"/>
<path d="M57.1313 46.5812H46.9226C46.4049 46.5812 45.9851 47.0009 45.9851 47.5187C45.9851 48.0365 46.4049 48.4562 46.9226 48.4562H57.1314C57.6491 48.4562 58.0689 48.0365 58.0689 47.5187C58.0689 47.0009 57.6491 46.5812 57.1313 46.5812Z" fill="#020288"/>
<path d="M57.1313 50.8337H52.8986C52.3809 50.8337 51.9611 51.2535 51.9611 51.7712C51.9611 52.289 52.3809 52.7087 52.8986 52.7087H57.1313C57.649 52.7087 58.0688 52.289 58.0688 51.7712C58.0688 51.2535 57.6491 50.8337 57.1313 50.8337Z" fill="#020288"/>
</svg>
