<svg width="16" height="16" viewBox="0 0 16 16" fill="none" xmlns="http://www.w3.org/2000/svg">
<path d="M15.0961 9.74171C15.0961 8.60428 14.4932 7.65168 13.6919 7.42395V6.1439C13.6919 2.75616 10.9356 0 7.54796 0C4.16033 0 1.40407 2.75626 1.40407 6.1439V7.42395C0.602913 7.65182 0 8.60428 0 9.74171C0 11.0484 0.795468 12.1114 1.7736 12.1114C2.16811 12.1114 2.54068 11.9436 2.85157 11.6263C2.85171 11.6262 2.85198 11.6259 2.85212 11.6255C2.85253 11.6251 2.85309 11.6245 2.85364 11.6241C2.85681 11.6208 2.85874 11.6172 2.86178 11.6138C2.86771 11.6069 2.87378 11.6001 2.87874 11.5924C2.88233 11.587 2.88481 11.5814 2.88785 11.5759C2.89143 11.5694 2.89516 11.563 2.89791 11.5561C2.90067 11.5494 2.90233 11.5427 2.90426 11.5357C2.90619 11.5294 2.9084 11.5233 2.90978 11.5164C2.91129 11.5078 2.91171 11.499 2.9124 11.4903C2.91254 11.4858 2.91378 11.4812 2.91378 11.4765V8.00634C2.91378 8.00179 2.91281 7.99765 2.9124 7.9931C2.91185 7.98413 2.91143 7.97517 2.90964 7.9662C2.9084 7.95972 2.90605 7.95379 2.90426 7.94744C2.90233 7.94054 2.90054 7.93337 2.89778 7.92661C2.89502 7.91985 2.89143 7.91392 2.88812 7.90758C2.88495 7.90178 2.88233 7.89572 2.87888 7.8902C2.87391 7.88289 2.86826 7.8764 2.86247 7.86965C2.85929 7.86606 2.85709 7.8622 2.85378 7.85875C2.85322 7.8582 2.85253 7.85778 2.85226 7.85723L2.85184 7.85682C2.55501 7.55363 2.20147 7.38714 1.82657 7.37294V6.14377C1.82657 2.98873 4.39331 0.42185 7.54849 0.42185C10.7034 0.42185 13.2704 2.98859 13.2704 6.14377V7.37294C12.8955 7.38715 12.542 7.5535 12.2453 7.85668C12.2449 7.85681 12.2447 7.85709 12.2444 7.85723C12.2439 7.85778 12.2435 7.85819 12.2429 7.85875C12.2398 7.86192 12.2378 7.8655 12.2348 7.86882C12.2289 7.87571 12.2228 7.88247 12.2178 7.8902C12.2141 7.89558 12.2118 7.90151 12.2087 7.90702C12.2051 7.91351 12.2014 7.91971 12.1987 7.92661C12.1959 7.93337 12.1942 7.94027 12.1923 7.94716C12.1904 7.95351 12.1882 7.95958 12.1869 7.9662C12.1851 7.97489 12.1847 7.98399 12.1842 7.99296C12.184 7.99751 12.1828 8.00165 12.1828 8.00634V11.4765C12.1828 11.4811 12.184 11.4855 12.1842 11.4899C12.1847 11.4989 12.1851 11.5077 12.1869 11.5167C12.1883 11.5232 12.1906 11.5294 12.1923 11.5358C12.1945 11.5426 12.196 11.5492 12.1987 11.5563C12.2013 11.5632 12.2051 11.5694 12.2087 11.576C12.2119 11.5815 12.2142 11.5874 12.2178 11.5925C12.2228 11.6003 12.2291 11.6072 12.2352 11.6143C12.238 11.6175 12.2399 11.6211 12.2429 11.6243C12.2435 11.6247 12.2439 11.6252 12.2444 11.6256C12.2446 11.6258 12.2449 11.6262 12.2453 11.6265C12.5418 11.9297 12.8952 12.0957 13.2704 12.1102V12.7839C13.2704 13.8304 12.4736 14.6939 11.4545 14.7997V14.7619C11.4545 14.366 11.1325 14.0441 10.7366 14.0441H8.96304C8.56716 14.0441 8.24522 14.366 8.24522 14.7619V15.2822C8.24522 15.6779 8.56717 16 8.96304 16H10.7366C11.1325 16 11.4545 15.6779 11.4545 15.2822V15.2234C12.7064 15.1158 13.6923 14.0633 13.6923 12.7839V12.0593C14.4934 11.8315 15.0964 10.8791 15.0964 9.74165L15.0961 9.74171ZM0.422612 9.74171C0.422612 8.66774 1.0287 7.79405 1.77385 7.79405C2.0289 7.79405 2.27553 7.89833 2.49167 8.09627V11.3873C2.2758 11.5851 2.02891 11.6892 1.77385 11.6892C1.0287 11.6892 0.422612 10.8157 0.422612 9.74172V9.74171ZM11.032 15.2825C11.032 15.4454 10.8993 15.5779 10.7364 15.5779H8.96283C8.79993 15.5779 8.66737 15.4454 8.66737 15.2825V14.7622C8.66737 14.5993 8.79993 14.4666 8.96283 14.4666H10.7364C10.8993 14.4666 11.032 14.5993 11.032 14.7622V15.2825ZM13.3227 11.6895C13.0677 11.6895 12.8211 11.5852 12.6049 11.3876V8.09654C12.8211 7.89874 13.0677 7.79432 13.3227 7.79432C14.0679 7.79432 14.674 8.668 14.674 9.74198C14.6739 10.816 14.0678 11.6895 13.3227 11.6895V11.6895Z" fill="#030406"/>
</svg>
