<svg width="64" height="66" viewBox="0 0 64 66" fill="none" xmlns="http://www.w3.org/2000/svg">
<path d="M34.0422 20.7657L31.6968 13.5645L29.3514 20.7657H21.7695L27.9086 25.2161L25.5621 32.4218L31.6968 27.9793L37.8315 32.4277L35.485 25.222L41.6241 20.7657H34.0422ZM33.6719 26.7058L31.6968 25.2742L29.7218 26.7058L30.479 24.3813L28.5088 22.9517H30.9387L31.6969 20.6228L32.4556 22.9517H34.8855L32.9182 24.3813L33.6719 26.7058Z" fill="white"/>
<path d="M52.8167 18.3855C52.6977 17.6038 52.7172 16.8075 52.8743 16.0327C53.1993 14.6933 53.0758 13.2847 52.5235 12.0225C51.6974 10.8983 50.5239 10.0782 49.1847 9.6892C48.4479 9.44427 47.76 9.07198 47.1529 8.58844C46.6699 7.98146 46.298 7.29401 46.0546 6.55767C45.6642 5.21827 44.844 4.04488 43.7199 3.21885C42.4562 2.66457 41.0451 2.54161 39.7043 2.86901C38.93 3.02661 38.1337 3.04564 37.3525 2.92561C36.6514 2.64797 36.0044 2.24982 35.4408 1.74873C34.421 0.767503 33.1046 0.152264 31.6974 0C30.2902 0.152239 28.9738 0.767503 27.954 1.74873C27.3895 2.25177 26.741 2.65237 26.0379 2.93146C25.2567 3.05003 24.4604 3.031 23.6861 2.87438C22.3472 2.54795 20.9381 2.66848 19.6749 3.21885C18.5507 4.04491 17.7306 5.2184 17.3416 6.55767C17.0972 7.29443 16.7249 7.98238 16.2409 8.58944C15.6339 9.07249 14.9464 9.44478 14.2101 9.68923C12.8707 10.0781 11.6973 10.8983 10.8721 12.0225C10.3179 13.2857 10.1944 14.6963 10.5203 16.0372C10.6775 16.8116 10.697 17.6078 10.5779 18.389C10.2979 19.0921 9.89727 19.7405 9.3947 20.3061C8.41641 21.3254 7.80361 22.6404 7.65234 24.0451C7.80311 25.4509 8.41546 26.7663 9.3947 27.7865C9.89775 28.352 10.2979 29.001 10.5779 29.7045C10.697 30.4862 10.6775 31.2825 10.5203 32.0573C10.1954 33.3967 10.3188 34.8053 10.8712 36.0675C11.6972 37.1917 12.8707 38.0118 14.21 38.4008C14.9468 38.6457 15.6347 39.018 16.2418 39.5016C16.7248 40.1086 17.0966 40.796 17.3401 41.5323L17.4889 41.8876V66L31.6973 61.2642L45.9057 66V41.8863C45.955 41.7682 46.0052 41.6502 46.0531 41.5345V41.534C46.2975 40.7973 46.6698 40.1093 47.1538 39.5023C47.7608 39.0187 48.4482 38.6459 49.1846 38.4005C50.524 38.0116 51.6974 37.1914 52.5225 36.0672C53.0768 34.804 53.2003 33.3934 52.8743 32.0525C52.7172 31.2782 52.6977 30.4819 52.8167 29.7007C53.0968 28.9976 53.4974 28.3492 54 27.7836C54.9783 26.7644 55.5911 25.4493 55.7423 24.0446C55.5916 22.6389 54.9792 21.3235 54 20.3032C53.4969 19.7377 53.0968 19.0888 52.8167 18.3852L52.8167 18.3855ZM32.7901 59.3244V51.3688H30.6042V59.3244L19.6746 62.9683V52.4618H27.3253V50.2759H19.6746V44.8736C20.9378 45.4244 22.3466 45.5464 23.6858 45.221C24.4607 45.0648 25.2564 45.0458 26.0376 45.1644C26.7407 45.443 27.3891 45.8436 27.9537 46.3466C28.974 47.3259 30.2909 47.9392 31.6971 48.09C33.1033 47.9392 34.4203 47.3259 35.4405 46.3466C36.005 45.8436 36.6535 45.443 37.3566 45.1644C38.1378 45.0443 38.9341 45.0634 39.7084 45.221C41.0478 45.5479 42.4569 45.4254 43.7196 44.8721V54.6477H36.0689V56.8336H43.7196V62.9683L32.7901 59.3244ZM52.2659 26.4559C51.5755 27.2404 51.0456 28.1524 50.706 29.1404C50.4982 30.1953 50.4982 31.281 50.706 32.3363C50.93 33.2053 50.9041 34.1197 50.6309 34.9745C50.02 35.6513 49.2285 36.1392 48.3498 36.3813C47.3417 36.7223 46.4108 37.2571 45.6087 37.9562C44.91 38.7579 44.3747 39.6889 44.0337 40.696C43.7927 41.5757 43.3042 42.3676 42.627 42.9785C41.7716 43.2517 40.8568 43.278 39.9873 43.0536C38.9324 42.8467 37.8467 42.8467 36.7918 43.0536C35.8038 43.3937 34.8918 43.9241 34.1073 44.6145C33.4461 45.2688 32.6089 45.7167 31.6974 45.904C30.7855 45.7167 29.9477 45.2683 29.2866 44.6135C28.502 43.923 27.59 43.3927 26.602 43.0526C26.1668 42.9413 25.7189 42.8877 25.27 42.893C24.6454 42.9067 24.0228 42.9604 23.4051 43.0536C22.5366 43.2775 21.6223 43.2517 20.7679 42.9794C20.0916 42.368 19.6037 41.5762 19.3622 40.6973C19.0211 39.6893 18.4863 38.7584 17.7877 37.9562C16.9855 37.2575 16.0551 36.7227 15.0474 36.3821C14.1672 36.1401 13.3748 35.6517 12.763 34.9744C12.4897 34.1195 12.4634 33.2052 12.6878 32.3362C12.8952 31.2803 12.8952 30.1946 12.6878 29.1393C12.3482 28.1507 11.8179 27.2388 11.127 26.4547C10.4736 25.7931 10.0257 24.9558 9.8384 24.0448C10.0258 23.1329 10.4742 22.2951 11.129 21.634C11.8194 20.8494 12.3493 19.9375 12.6888 18.9494C12.8967 17.8945 12.8967 16.8089 12.6888 15.7535C12.4649 14.8845 12.4907 13.9702 12.764 13.1153C13.3748 12.4385 14.1663 11.9506 15.0451 11.7086C16.0531 11.3675 16.984 10.8327 17.7862 10.1336C18.4849 9.33193 19.0201 8.40098 19.3612 7.39384C19.6022 6.5141 20.0906 5.72218 20.7679 5.11138C21.6227 4.83668 22.5381 4.81032 23.4076 5.03624C24.4625 5.2441 25.5482 5.2441 26.603 5.03624C27.5911 4.69615 28.503 4.16577 29.2876 3.47537C29.9487 2.82106 30.786 2.37315 31.6974 2.18581C32.6094 2.37318 33.4471 2.82157 34.1083 3.47637C34.8929 4.16678 35.8048 4.69716 36.7928 5.03723C37.8482 5.2451 38.9344 5.2451 39.9898 5.03723C40.8583 4.81279 41.7722 4.83815 42.627 5.11042C43.3032 5.72179 43.7912 6.51365 44.0327 7.39251C44.3738 8.40057 44.9085 9.33148 45.6072 10.1336C46.4093 10.8324 47.3398 11.3671 48.3474 11.7077C49.2276 11.9498 50.0201 12.4382 50.6319 13.1155C50.9051 13.9703 50.9315 14.8847 50.707 15.7537C50.4996 16.8095 50.4996 17.8952 50.707 18.9506C51.0466 19.9391 51.577 20.8511 52.2679 21.6351C52.9212 22.2968 53.3691 23.134 53.5564 24.045C53.3691 24.9569 52.9207 25.7947 52.2659 26.4559V26.4559Z" fill="white"/>
<path d="M31.6953 6.55859C26.2334 6.56006 21.0858 9.11336 17.7804 13.4613C14.4742 17.8088 13.3896 23.4515 14.8479 28.7152C16.3064 33.979 20.1399 38.259 25.212 40.2854C30.5992 42.4357 36.7016 41.7756 41.5039 38.5221C46.3055 35.2691 49.1824 29.8468 49.1829 24.0464C49.1775 19.4101 47.3331 14.9656 44.0548 11.6872C40.7764 8.40887 36.3319 6.56446 31.6956 6.55909L31.6953 6.55859ZM37.3645 38.2543C33.2825 39.8825 28.697 39.6771 24.7774 37.6897C20.8574 35.7029 17.9811 32.1264 16.8813 27.8713C15.7815 23.6161 16.5642 19.0935 19.0306 15.4559C21.4966 11.818 25.4079 9.41633 29.7674 8.8626C34.1275 8.30881 38.5149 9.65646 41.8124 12.562C45.1098 15.4677 46.9981 19.6511 46.9971 24.0459C46.9908 27.1047 46.0701 30.0913 44.3536 32.6232C42.6376 35.1551 40.2037 37.116 37.365 38.2543L37.3645 38.2543Z" fill="white"/>
<path d="M6.55772 39.3467H4.37182C4.37182 40.506 3.91121 41.6181 3.0915 42.4382C2.2713 43.2579 1.15928 43.7185 0 43.7185V45.9044C1.15931 45.9044 2.27135 46.365 3.0915 47.1848C3.91121 48.005 4.37182 49.117 4.37182 50.2762H6.55772C6.55772 49.1169 7.01833 48.0049 7.83804 47.1848C8.65824 46.365 9.77026 45.9044 10.9295 45.9044V43.7185C9.77023 43.7185 8.65819 43.2579 7.83804 42.4382C7.01833 41.618 6.55772 40.506 6.55772 39.3467ZM5.46477 46.6554L5.45501 46.6422C4.97294 45.922 4.35425 45.3033 3.63409 44.8213L3.62091 44.8115C4.35183 44.3256 4.9788 43.6986 5.46482 42.9676C5.95079 43.6985 6.57779 44.3255 7.30873 44.8115C6.57781 45.2975 5.95084 45.9245 5.46482 46.6554L5.46477 46.6554Z" fill="white"/>
<path d="M59.0206 1.09277H56.8347C56.8347 2.25208 56.3741 3.36412 55.5544 4.18427C54.7342 5.00399 53.6222 5.46459 52.4629 5.46459V7.6505C53.6222 7.6505 54.7342 8.1111 55.5544 8.93081C56.3741 9.75102 56.8347 10.863 56.8347 12.0223H59.0206C59.0206 10.863 59.4812 9.75097 60.3009 8.93081C61.1211 8.1111 62.2331 7.6505 63.3924 7.6505V5.46459C62.2331 5.46459 61.1211 5.00399 60.3009 4.18427C59.4812 3.36407 59.0206 2.25205 59.0206 1.09277ZM57.9277 8.40145L57.9179 8.38828C57.4358 7.6681 56.8171 7.04938 56.097 6.56735L56.0838 6.55759C56.8147 6.07162 57.4417 5.44463 57.9277 4.71369C58.4137 5.4446 59.0407 6.07157 59.7716 6.55759C59.0407 7.04356 58.4137 7.67056 57.9277 8.4015L57.9277 8.40145Z" fill="white"/>
</svg>
