<svg width="18" height="16" viewBox="0 0 18 16" fill="none" xmlns="http://www.w3.org/2000/svg">
<path d="M5.96094 11.3077H7.66506V10.6631H5.96094V11.3077ZM6.2121 10.9143H7.41373V11.0566H6.2121V10.9143Z" fill="#030406"/>
<path d="M5.96094 12.0616H7.66506V11.417H5.96094V12.0616ZM6.2121 11.6682H7.41373V11.8105H6.2121V11.6682Z" fill="#030406"/>
<path d="M5.96094 12.8146H7.66506V12.1699H5.96094V12.8146ZM6.2121 12.4211H7.41373V12.5634H6.2121V12.4211Z" fill="#030406"/>
<path d="M5.96094 13.5677H7.66506V12.9229L5.96094 12.923V13.5677ZM6.2121 13.1742H7.41373V13.3165H6.2121V13.1742Z" fill="#030406"/>
<path d="M5.96094 14.3204H7.66506V13.6758H5.96094V14.3204ZM6.2121 13.927H7.41373V14.0693H6.2121V13.927Z" fill="#030406"/>
<path d="M5.96094 15.0738H7.66506V14.4287H5.96094V15.0738ZM6.2121 14.6799H7.41373V14.8227H6.2121V14.6799Z" fill="#030406"/>
<path d="M5.96094 15.8274H7.66506V15.1828L5.96094 15.1826V15.8274ZM6.2121 15.434H7.41373V15.5763L6.2121 15.5761V15.434Z" fill="#030406"/>
<path d="M7.82422 15.8273H9.59936V11.3906H7.82422V15.8273ZM8.07538 11.642H9.3482V15.5761H8.07538V11.642Z" fill="#030406"/>
<path d="M9.81824 15.8275H11.0703V12.1043H9.81824V15.8275ZM10.0694 12.3556H10.8192V15.5763L10.0694 15.5761V12.3556Z" fill="#030406"/>
<path d="M0 14.6406H1.86545V14.9232H0.87239V15.7083H3.51019V14.9232H2.517V14.6406H4.38215V10.9979H0.000172827L0 14.6406ZM3.2589 15.1744V15.457H1.12359V15.1744H3.2589ZM2.11666 14.9232V14.6406H2.26587V14.9232H2.11666ZM0.251205 11.2491H4.13086V14.3894H0.251205V11.2491Z" fill="#030406"/>
<path d="M16.8535 14.3218C16.8225 14.3217 16.7914 14.3239 16.7608 14.3287C16.6965 14.1292 16.5707 13.9551 16.4013 13.8316C16.232 13.708 16.0278 13.6412 15.8182 13.6409L15.7975 13.6419H15.7977C15.7802 13.2437 15.58 12.8759 15.2549 12.6453C15.1908 12.5972 15.1225 12.5549 15.0509 12.5193C14.9506 12.4713 14.8445 12.4367 14.7353 12.4162C14.6527 12.4 14.5687 12.3916 14.4846 12.3911C14.4661 12.3897 14.4476 12.3913 14.4296 12.3956C14.0779 12.4042 13.7459 12.5598 13.514 12.8244C13.462 12.8734 13.4182 12.9306 13.3844 12.9937C13.3392 13.0571 13.3011 13.1256 13.2717 13.1977C12.8601 13.2832 12.5088 13.5492 12.3152 13.9223C12.1215 14.2952 12.1061 14.7357 12.2731 15.1214C12.4402 15.5072 12.7719 15.7972 13.1765 15.9112C13.4795 16.0026 13.8054 15.9802 14.093 15.8483C14.2925 15.995 14.5499 16.0383 14.7864 15.9651C15.0231 15.8917 15.2109 15.7107 15.2926 15.4769C15.4546 15.5775 15.6422 15.6293 15.8328 15.6266C16.0234 15.6237 16.2091 15.5664 16.3683 15.4612C16.494 15.595 16.6699 15.6702 16.8535 15.6688C17.0941 15.6688 17.3164 15.5405 17.4367 15.332C17.557 15.1238 17.557 14.8671 17.4367 14.6586C17.3164 14.4502 17.0941 14.3218 16.8535 14.3218L16.8535 14.3218ZM16.8535 15.4175C16.7232 15.4188 16.6001 15.3581 16.5219 15.2541C16.4921 15.2171 16.4489 15.1934 16.4016 15.1884C16.3545 15.1813 16.3064 15.1941 16.2692 15.2237C16.1376 15.3236 15.9768 15.3771 15.8116 15.3756C15.6464 15.3741 15.4866 15.3177 15.3569 15.2154C15.3076 15.1821 15.2455 15.1739 15.1892 15.1932C15.1299 15.2146 15.0867 15.2661 15.0758 15.3282C15.0373 15.5061 14.9108 15.6522 14.74 15.7154C14.5693 15.7787 14.378 15.7506 14.2328 15.6407C14.1982 15.6079 14.1514 15.5911 14.1038 15.5941L14.0833 15.5946L14.0303 15.6064C13.7853 15.7235 13.5055 15.7459 13.2452 15.6692C12.8889 15.5684 12.6029 15.3021 12.477 14.9539C12.3512 14.6056 12.4008 14.218 12.6103 13.9127C12.7876 13.6605 13.0578 13.4891 13.3614 13.4363C13.4221 13.4232 13.4718 13.3796 13.4924 13.3209C13.5195 13.2506 13.5554 13.1841 13.5989 13.1227C13.6252 13.0753 13.6587 13.0322 13.698 12.995C13.8846 12.7806 14.1524 12.6542 14.4365 12.6466L14.4846 12.6423C14.5536 12.6431 14.6224 12.6502 14.6902 12.6635C14.777 12.6795 14.8613 12.707 14.9409 12.7454C14.9992 12.7743 15.0547 12.8087 15.1067 12.8478C15.3875 13.0465 15.5526 13.3709 15.5478 13.7149C15.5482 13.7664 15.57 13.8155 15.6082 13.8503C15.6435 13.8833 15.6903 13.9016 15.7388 13.9013C15.7499 13.9023 15.7611 13.9006 15.7716 13.8964C15.7872 13.8959 15.8028 13.8946 15.8182 13.892C15.9845 13.8929 16.1459 13.9494 16.2762 14.0527C16.4068 14.156 16.499 14.3 16.538 14.4617C16.5725 14.5549 16.6709 14.6077 16.7676 14.5853C16.7954 14.5764 16.8243 14.5722 16.8534 14.573C17.0856 14.5745 17.2728 14.7631 17.2728 14.9951C17.2728 15.2273 17.0856 15.4158 16.8534 15.4174L16.8535 15.4175Z" fill="#030406"/>
<path d="M12.5201 13.0277C12.6603 12.9581 12.8088 12.9074 12.9623 12.877C13.0336 12.8662 13.0923 12.8154 13.113 12.7463C13.1569 12.641 13.2107 12.54 13.2738 12.4448C13.3164 12.3698 13.3707 12.302 13.4346 12.2439C13.729 11.9065 14.1525 11.7093 14.6003 11.7012H14.6506H14.6504C14.7042 11.6999 14.7581 11.7032 14.8112 11.7111C14.862 11.713 14.9125 11.7197 14.962 11.7313C15 11.7366 15.0372 11.7468 15.0725 11.7614C15.1224 11.69 15.163 11.6122 15.1931 11.5303C15.7109 10.5174 15.9959 9.40155 16.0272 8.26452C16.0435 8.16812 16.0502 8.07055 16.0472 7.97298C16.047 6.88035 15.8211 5.79965 15.3837 4.79836C14.9462 3.79725 14.3065 2.89721 13.5049 2.15484L13.4045 2.06433C11.9448 0.736 10.0422 0 8.06863 0C6.09508 0 4.1925 0.736 2.73274 2.06433L2.64223 2.15484C1.84064 2.89721 1.20102 3.79725 0.763471 4.79836C0.326091 5.79965 0.100166 6.88035 0.0999941 7.97298C0.0981436 8.06366 0.10134 8.15416 0.10992 8.24433C0.131453 8.96853 0.256611 9.68606 0.4817 10.3748C0.500542 10.4564 0.524094 10.5369 0.552019 10.6158H5.63683V10.1536H7.9481V11.0379H9.94783V11.7716H11.6059V14.0125L11.6057 14.0123C11.6503 13.8682 11.7181 13.7324 11.8067 13.6104C11.8268 13.5904 11.8369 13.5702 11.857 13.5502V13.5501C11.9723 13.3946 12.1154 13.2617 12.2791 13.1583C12.355 13.1069 12.4357 13.0634 12.5202 13.0277L12.5201 13.0277ZM15.796 7.97305C15.796 8.02335 15.7859 8.07348 15.7859 8.11368H11.6057V7.98297V7.98314C11.6169 6.5443 11.431 5.11067 11.053 3.72244C11.8841 3.39558 12.6498 2.92253 13.314 2.32563C14.0954 3.04432 14.7194 3.91723 15.1467 4.88923C15.5738 5.86123 15.795 6.91131 15.796 7.97297L15.796 7.97305ZM9.46529 0.376189C9.55579 0.396208 9.63604 0.416395 9.72654 0.436413C9.86718 0.466526 10.008 0.496637 10.1385 0.536843C10.2341 0.560899 10.3281 0.59118 10.4198 0.627351C10.5505 0.667557 10.6811 0.707764 10.8017 0.758065C10.8922 0.788178 10.9926 0.838478 11.0831 0.878684C11.2037 0.928986 11.3244 0.979115 11.4349 1.02942C11.5353 1.07972 11.6258 1.12985 11.7163 1.18015C11.8269 1.24037 11.9475 1.30077 12.058 1.37109C12.1485 1.42139 12.2288 1.48161 12.3193 1.54183C12.4298 1.61215 12.5302 1.68247 12.6407 1.76288C12.7212 1.82311 12.8016 1.8936 12.8919 1.96392C12.9723 2.02414 13.0527 2.09463 13.1331 2.15485L13.133 2.15469C12.4971 2.71368 11.7697 3.15916 10.9825 3.47104C10.7076 2.2319 10.0248 1.12075 9.0432 0.315763L9.46529 0.376189ZM8.19923 0.265664C9.25435 0.366095 10.1888 1.64227 10.7617 3.57168C9.94104 3.8765 9.07451 4.03968 8.19923 4.05397V0.265664ZM8.19923 4.30531V4.30514C9.09858 4.29336 9.98914 4.12682 10.832 3.81272C11.1895 5.1737 11.3653 6.57601 11.3545 7.98307V8.11378L8.19923 8.11362V4.30531ZM7.94807 8.11381H4.78271V7.9831H4.78254C4.77178 6.57604 4.94757 5.17373 5.30506 3.81275C6.15174 4.12599 7.04537 4.29238 7.9479 4.30517L7.94807 8.11381ZM7.94807 4.05415L7.9479 4.05398C7.06892 4.04372 6.19851 3.88037 5.37556 3.57168C5.94839 1.64228 6.88288 0.366099 7.94807 0.265668L7.94807 4.05415ZM3.24525 1.97401C3.32566 1.90369 3.416 1.82328 3.50651 1.75296C3.60694 1.68264 3.70754 1.62225 3.81807 1.55193C3.90857 1.4917 3.99891 1.42121 4.08942 1.37109C4.19994 1.30077 4.31047 1.24037 4.42099 1.18015C4.5115 1.12985 4.61193 1.07972 4.70244 1.02942C4.82306 0.979115 4.94368 0.928986 5.0542 0.878684C5.15463 0.838478 5.24514 0.788177 5.33565 0.758065C5.46636 0.707764 5.5969 0.667557 5.71752 0.627351C5.80803 0.597238 5.90846 0.557032 5.99897 0.536843C6.12968 0.496637 6.27032 0.466525 6.41095 0.436413C6.50146 0.416394 6.5817 0.396207 6.67221 0.376189C6.81285 0.346077 6.95366 0.335983 7.09429 0.315966L7.09379 0.315797C6.11873 1.1263 5.43725 2.23508 5.15431 3.47108C4.36921 3.16137 3.64462 2.71574 3.01396 2.15472C3.08428 2.0945 3.1647 2.0341 3.24511 1.97388L3.24525 1.97401ZM0.351254 7.97312L0.351085 7.97295C0.352599 6.91227 0.572806 5.86323 0.998239 4.89153C1.42352 3.9197 2.04479 3.04623 2.82299 2.32556C3.48884 2.92026 4.25425 3.39296 5.08396 3.72237C4.70613 5.11056 4.52006 6.54419 4.53134 7.98307V8.11378H0.361163V8.11362C0.352751 8.06719 0.349387 8.02008 0.351069 7.97298L0.351254 7.97312ZM0.743055 10.3747L0.742887 10.3746C0.527725 9.72488 0.402566 9.04861 0.371106 8.36477H4.54128C4.55222 9.0375 4.60588 9.70873 4.70211 10.3746L0.743055 10.3747ZM5.38558 9.90252V10.3747H4.94346C4.86305 9.73159 4.81275 9.06846 4.79273 8.36493H7.94801V9.90235L5.38558 9.90252ZM10.1991 11.5203V10.7867H8.19935V8.36493H11.3447L11.3445 8.36477C11.3339 9.42626 11.2126 10.4837 10.9828 11.5202L10.1991 11.5203ZM11.2342 11.5203L11.234 11.5202C11.4589 10.4829 11.58 9.42591 11.5959 8.36472H15.766C15.7172 9.44693 15.4363 10.5059 14.9421 11.4699C14.8315 11.4598 14.741 11.4499 14.6507 11.4499H14.5703C14.062 11.47 13.5838 11.6948 13.2438 12.0728C13.1715 12.1435 13.1106 12.2249 13.0629 12.314C12.9908 12.4141 12.9302 12.522 12.8819 12.6355C12.6679 12.6789 12.4615 12.7535 12.2691 12.8566C12.1285 12.7762 11.9978 12.6957 11.8571 12.6254V11.52L11.2342 11.5203ZM11.8571 13.1683V12.917C11.9214 12.9426 11.9821 12.9764 12.038 13.0174C11.9729 13.0617 11.9123 13.1121 11.857 13.1681L11.8571 13.1683Z" fill="#030406"/>
</svg>
