<svg width="43" height="41" viewBox="0 0 43 41" fill="none" xmlns="http://www.w3.org/2000/svg">
<path d="M38.7927 11.5847V5.02855C39.7927 4.77828 40.5388 3.87889 40.5388 2.80271C40.5388 1.53301 39.5061 0.5 38.2374 0.5C36.9691 0.5 35.936 1.53266 35.936 2.80271C35.936 3.87889 36.6824 4.77828 37.6821 5.02855V11.1778C37.0738 11.0105 36.4454 10.8966 35.7884 10.9098C35.3107 8.08483 32.8281 5.94325 29.9109 5.94325C29.0135 5.94325 28.1362 6.14489 27.3335 6.52947C26.5024 3.97241 24.0929 2.18416 21.3474 2.18416C18.602 2.18416 16.1928 3.97241 15.3614 6.53086C13.347 5.56175 10.8522 5.83107 9.08982 7.22657C7.92824 8.14294 7.15124 9.46434 6.90646 10.9098C3.11748 10.8258 0 13.8755 0 17.6469C0 20.8756 2.28399 23.5754 5.31852 24.2307V30.4645C4.3185 30.7148 3.5724 31.6142 3.5724 32.6904C3.5724 33.9587 4.60506 34.9918 5.8738 34.9918C7.1435 34.9918 8.17651 33.9591 8.17651 32.6904C8.17651 31.6142 7.42979 30.7145 6.42909 30.4645V24.3568C6.53449 24.3619 6.63379 24.3885 6.74055 24.3885H12.3069V31.6564H9.92698C9.71582 31.6564 9.5237 31.7767 9.43019 31.9665C9.33669 32.1545 9.35845 32.3806 9.48698 32.5486L15.4094 40.282C15.5137 40.4187 15.6773 40.5 15.8494 40.5C16.0214 40.5 16.185 40.4187 16.2894 40.282L22.2117 32.5486C22.3403 32.3806 22.362 32.1549 22.2685 31.9665C22.175 31.7771 21.9829 31.6564 21.7717 31.6564H19.3918L19.3915 24.3885H22.9962L22.9965 37.2038C22.9965 37.5098 23.2454 37.7588 23.5515 37.7588H29.5252C29.8312 37.7588 30.0801 37.5098 30.0801 37.2038V24.3885H35.9536C39.6708 24.3885 42.6947 21.3646 42.6947 17.6473C42.6941 14.96 41.0687 12.6675 38.7925 11.5848L38.7927 11.5847ZM37.0463 2.80323C37.0463 2.14526 37.5808 1.61074 38.2375 1.61074C38.8941 1.61074 39.4286 2.14528 39.4286 2.80323C39.4286 3.45984 38.8941 3.99441 38.2375 3.99441C37.5812 3.99441 37.0463 3.45987 37.0463 2.80323ZM7.06663 32.6906C7.06663 33.3472 6.5321 33.8818 5.87415 33.8818C5.21754 33.8818 4.68297 33.3473 4.68297 32.6906C4.68297 32.034 5.2175 31.4994 5.87415 31.4994C6.53178 31.4991 7.06663 32.034 7.06663 32.6906ZM20.648 32.7664L15.8491 39.0326L11.0502 32.7664H12.8612C13.1672 32.7664 13.4162 32.5175 13.4162 32.2115L13.4165 16.8474H18.2817V32.2115C18.2817 32.5175 18.5307 32.7664 18.8367 32.7664H20.6481H20.648ZM29.5253 20.315C29.2192 20.315 28.9703 20.5639 28.9703 20.8699V36.6484H24.1065V20.8699C24.1065 20.5639 23.8576 20.315 23.5515 20.315H21.7405L26.5394 14.0488L31.3383 20.315H29.5253ZM35.954 23.278H30.0805V21.4248H32.4618C32.6729 21.4248 32.865 21.3045 32.9586 21.1147C33.0521 20.9267 33.0303 20.7006 32.9018 20.5326L26.9794 12.7992C26.771 12.5258 26.3078 12.5258 26.0994 12.7992L20.177 20.5326C20.0485 20.7006 20.0267 20.9263 20.1203 21.1147C20.2138 21.3041 20.4059 21.4248 20.617 21.4248H22.997V23.278H19.3923V16.2916C19.3923 15.9856 19.1434 15.7367 18.8373 15.7367H12.8622C12.5562 15.7367 12.3073 15.9856 12.3073 16.2916V23.278H6.74092C3.63711 23.278 1.11095 20.7522 1.11095 17.6467C1.11095 14.5429 3.63676 12.0168 6.74092 12.0168C6.94256 12.0168 7.14149 12.0276 7.33803 12.048C7.4856 12.0616 7.63453 12.0168 7.74947 11.9209C7.86474 11.8246 7.93479 11.6866 7.94567 11.5377C8.04701 10.1907 8.71449 8.93602 9.77849 8.09513C11.3705 6.83492 13.6987 6.72106 15.4166 7.82854C15.5697 7.92988 15.7672 7.9462 15.9338 7.87309C16.1032 7.80134 16.2263 7.64968 16.2613 7.46981C16.7377 5.04941 18.8779 3.29381 21.3483 3.29381C23.8186 3.29381 25.9588 5.04941 26.4352 7.46981C26.4706 7.64968 26.5937 7.80134 26.7627 7.87309C26.932 7.94619 27.1269 7.92715 27.2799 7.82854C28.0664 7.32087 28.9759 7.05292 29.9114 7.05292C32.4358 7.05292 34.5613 9.0224 34.7508 11.5377C34.7616 11.6866 34.832 11.8247 34.947 11.9209C35.0619 12.0171 35.2081 12.0617 35.3584 12.0481C35.5546 12.0277 35.7539 12.0168 35.9541 12.0168C39.0594 12.0168 41.5854 14.5426 41.5854 17.6468C41.5851 20.7523 39.0593 23.278 35.9541 23.278L35.954 23.278Z" fill="#0072FF"/>
<path d="M15.9937 10.2067C14.6941 9.85753 13.3336 10.0364 12.1683 10.7076C11 11.3802 10.1662 12.4673 9.81567 13.7683C9.73712 14.0634 9.9119 14.3677 10.2081 14.4476C10.2553 14.4599 10.3043 14.4667 10.3516 14.4667C10.5964 14.4667 10.8198 14.3028 10.8874 14.0552C11.1595 13.0413 11.8106 12.1939 12.7216 11.6689C13.6311 11.1449 14.6924 11.0055 15.7064 11.2789C15.9988 11.3533 16.3049 11.1813 16.3858 10.8865C16.465 10.591 16.2902 10.2866 15.9937 10.2067L15.9937 10.2067Z" fill="#0072FF"/>
</svg>
