<svg width="12" height="16" viewBox="0 0 12 16" fill="none" xmlns="http://www.w3.org/2000/svg">
<path d="M6.97323 1.6407H4.92191C4.84633 1.6407 4.78516 1.57952 4.78516 1.50394C4.78516 1.42836 4.84633 1.36719 4.92191 1.36719H6.97323C7.04881 1.36719 7.10999 1.42836 7.10999 1.50394C7.10999 1.57952 7.04881 1.6407 6.97323 1.6407Z" fill="#030406"/>
<path d="M6.97323 2.66609H4.92191C4.84633 2.66609 4.78516 2.60492 4.78516 2.52933C4.78516 2.45375 4.84633 2.39258 4.92191 2.39258H6.97323C7.04881 2.39258 7.10999 2.45375 7.10999 2.52933C7.10999 2.60492 7.04881 2.66609 6.97323 2.66609Z" fill="#030406"/>
<path d="M6.97323 3.69245H4.92191C4.84633 3.69245 4.78516 3.63128 4.78516 3.5557C4.78516 3.48012 4.84633 3.41895 4.92191 3.41895H6.97323C7.04881 3.41895 7.10999 3.48012 7.10999 3.5557C7.10999 3.63128 7.04881 3.69245 6.97323 3.69245Z" fill="#030406"/>
<path d="M6.97323 4.71785H4.92191C4.84633 4.71785 4.78516 4.65667 4.78516 4.58109C4.78516 4.50551 4.84633 4.44434 4.92191 4.44434H6.97323C7.04881 4.44434 7.10999 4.50551 7.10999 4.58109C7.10999 4.65667 7.04881 4.71785 6.97323 4.71785Z" fill="#030406"/>
<path d="M6.97323 5.74324H4.92191C4.84633 5.74324 4.78516 5.68206 4.78516 5.60648C4.78516 5.5309 4.84633 5.46973 4.92191 5.46973H6.97323C7.04881 5.46973 7.10999 5.5309 7.10999 5.60648C7.10999 5.68206 7.04881 5.74324 6.97323 5.74324Z" fill="#030406"/>
<path d="M6.97323 6.7696H4.92191C4.84633 6.7696 4.78516 6.70843 4.78516 6.63285C4.78516 6.55727 4.84633 6.49609 4.92191 6.49609H6.97323C7.04881 6.49609 7.10999 6.55727 7.10999 6.63285C7.10999 6.70843 7.04881 6.7696 6.97323 6.7696Z" fill="#030406"/>
<path d="M10.3932 2.66609H8.34183C8.26625 2.66609 8.20508 2.60492 8.20508 2.52933C8.20508 2.45375 8.26625 2.39258 8.34183 2.39258H10.3932C10.4687 2.39258 10.5299 2.45375 10.5299 2.52933C10.5299 2.60492 10.4687 2.66609 10.3932 2.66609Z" fill="#030406"/>
<path d="M10.3932 3.69245H8.34183C8.26625 3.69245 8.20508 3.63128 8.20508 3.5557C8.20508 3.48012 8.26625 3.41895 8.34183 3.41895H10.3932C10.4687 3.41895 10.5299 3.48012 10.5299 3.5557C10.5299 3.63128 10.4687 3.69245 10.3932 3.69245Z" fill="#030406"/>
<path d="M10.3933 4.71797H8.34202C8.26643 4.71797 8.20526 4.6568 8.20526 4.58121C8.20526 4.50563 8.26643 4.44446 8.34202 4.44446H10.3933C10.4689 4.44446 10.5301 4.50563 10.5301 4.58121C10.5301 4.6568 10.4689 4.71797 10.3933 4.71797Z" fill="#030406"/>
<path d="M10.3932 5.74324H8.34183C8.26625 5.74324 8.20508 5.68206 8.20508 5.60648C8.20508 5.5309 8.26625 5.46973 8.34183 5.46973H10.3932C10.4687 5.46973 10.5299 5.5309 10.5299 5.60648C10.5299 5.68206 10.4687 5.74324 10.3932 5.74324Z" fill="#030406"/>
<path d="M10.3932 6.7696H8.34183C8.26625 6.7696 8.20508 6.70843 8.20508 6.63285C8.20508 6.55727 8.26625 6.49609 8.34183 6.49609H10.3932C10.4687 6.49609 10.5299 6.55727 10.5299 6.63285C10.5299 6.70843 10.4687 6.7696 10.3932 6.7696Z" fill="#030406"/>
<path d="M10.3932 7.79499H8.34183C8.26625 7.79499 8.20508 7.73382 8.20508 7.65824C8.20508 7.58266 8.26625 7.52148 8.34183 7.52148H10.3932C10.4687 7.52148 10.5299 7.58266 10.5299 7.65824C10.5299 7.73382 10.4687 7.79499 10.3932 7.79499Z" fill="#030406"/>
<path d="M3.55526 2.66609H1.50394C1.42836 2.66609 1.36719 2.60492 1.36719 2.52933C1.36719 2.45375 1.42836 2.39258 1.50394 2.39258H3.55526C3.63084 2.39258 3.69202 2.45375 3.69202 2.52933C3.69202 2.60492 3.63084 2.66609 3.55526 2.66609Z" fill="#030406"/>
<path d="M3.55526 3.69245H1.50394C1.42836 3.69245 1.36719 3.63128 1.36719 3.5557C1.36719 3.48012 1.42836 3.41895 1.50394 3.41895H3.55526C3.63084 3.41895 3.69202 3.48012 3.69202 3.5557C3.69202 3.63128 3.63084 3.69245 3.55526 3.69245Z" fill="#030406"/>
<path d="M3.55526 4.71785H1.50394C1.42836 4.71785 1.36719 4.65667 1.36719 4.58109C1.36719 4.50551 1.42836 4.44434 1.50394 4.44434H3.55526C3.63084 4.44434 3.69202 4.50551 3.69202 4.58109C3.69202 4.65667 3.63084 4.71785 3.55526 4.71785Z" fill="#030406"/>
<path d="M3.55526 5.74324H1.50394C1.42836 5.74324 1.36719 5.68206 1.36719 5.60648C1.36719 5.5309 1.42836 5.46973 1.50394 5.46973H3.55526C3.63084 5.46973 3.69202 5.5309 3.69202 5.60648C3.69202 5.68206 3.63084 5.74324 3.55526 5.74324Z" fill="#030406"/>
<path d="M3.55526 6.7696H1.50394C1.42836 6.7696 1.36719 6.70843 1.36719 6.63285C1.36719 6.55727 1.42836 6.49609 1.50394 6.49609H3.55526C3.63084 6.49609 3.69202 6.55727 3.69202 6.63285C3.69202 6.70843 3.63084 6.7696 3.55526 6.7696Z" fill="#030406"/>
<path d="M3.55526 7.79499H1.50394C1.42836 7.79499 1.36719 7.73382 1.36719 7.65824C1.36719 7.58266 1.42836 7.52148 1.50394 7.52148H3.55526C3.63084 7.52148 3.69202 7.58266 3.69202 7.65824C3.69202 7.73382 3.63084 7.79499 3.55526 7.79499Z" fill="#030406"/>
<path d="M10.7694 11.2137H9.95803C9.89392 11.2137 9.83837 11.1692 9.82457 11.1065C9.61626 10.1672 9.06228 9.34825 8.26472 8.80086C8.2276 8.77534 8.20538 8.73321 8.20538 8.68815L8.20526 1.16211C8.20526 1.08653 8.26643 1.02536 8.34202 1.02536H10.7694C11.3915 1.02536 11.8976 1.53146 11.8976 2.15359V10.0854C11.8976 10.7075 11.3915 11.2136 10.7694 11.2136L10.7694 11.2137ZM10.0662 10.9402H10.7694C11.2407 10.9402 11.6241 10.5568 11.6241 10.0855V2.15373C11.6241 1.68241 11.2407 1.299 10.7694 1.299H8.47876V8.61686C9.27182 9.18182 9.8314 10.0013 10.0662 10.9402Z" fill="#030406"/>
<path d="M2.28151 11.2137H1.12823C0.506133 11.2137 0 10.7076 0 10.0855V2.15373C0 1.53163 0.506102 1.0255 1.12823 1.0255H3.55562C3.6312 1.0255 3.69238 1.08667 3.69238 1.16225V8.71799C3.69238 8.77122 3.69726 8.84412 3.70617 8.92361C3.71118 8.96879 3.6936 9.01347 3.65904 9.0429C3.03363 9.57613 2.59186 10.3091 2.41493 11.1066C2.40114 11.1692 2.34558 11.2138 2.28148 11.2138L2.28151 11.2137ZM1.12823 1.29894C0.656923 1.29894 0.273509 1.68236 0.273509 2.15367V10.0854C0.273509 10.5568 0.656923 10.9402 1.12823 10.9402H2.17332C2.37186 10.1498 2.81327 9.42477 3.42718 8.882C3.42169 8.82021 3.41888 8.76442 3.41888 8.71789V1.29907L1.12823 1.29894Z" fill="#030406"/>
<path d="M3.56938 9.07568C3.5524 9.07568 3.53543 9.0725 3.51907 9.06616C3.47206 9.0476 3.43909 9.00449 3.43348 8.95431C3.42334 8.86371 3.41797 8.78202 3.41797 8.71804V1.12823C3.41797 0.506133 3.92407 0 4.5462 0H7.34969C7.97179 0 8.47792 0.506102 8.47792 1.12823V8.68835C8.47792 8.73914 8.44984 8.78566 8.40491 8.80935C8.35997 8.83304 8.30564 8.82986 8.26376 8.80117C7.6309 8.36662 6.88912 8.13693 6.11891 8.13693C5.21743 8.13693 4.34354 8.45867 3.65817 9.04305C3.63302 9.06454 3.60139 9.07577 3.56941 9.07577L3.56938 9.07568ZM4.5462 0.273365C4.07488 0.273365 3.69147 0.656778 3.69147 1.12809V8.66695C4.3905 8.14703 5.24254 7.86339 6.11886 7.86339C6.8593 7.86339 7.57505 8.06132 8.20438 8.43814V1.12809C8.20438 0.656778 7.82096 0.273365 7.34965 0.273365H4.5462Z" fill="#030406"/>
<path d="M6.12038 10.3386C4.97958 10.3386 3.86978 10.1218 2.91109 9.71192C2.87263 9.69543 2.8437 9.66222 2.83283 9.62181C2.82196 9.58139 2.83014 9.53817 2.85517 9.50459C3.62028 8.47685 4.84091 7.86328 6.12041 7.86328C7.3999 7.86328 8.62056 8.47685 9.38564 9.50446C9.41067 9.53804 9.41885 9.58126 9.40798 9.62168C9.39712 9.66222 9.36818 9.69531 9.32972 9.71179C8.37096 10.1218 7.26117 10.3386 6.12043 10.3386H6.12038ZM3.18332 9.52828C4.0699 9.87981 5.08117 10.065 6.12038 10.065C7.15959 10.065 8.17085 9.87981 9.05743 9.52828C8.33324 8.6417 7.27252 8.13678 6.12038 8.13678C4.96823 8.13678 3.90751 8.64167 3.18332 9.52828Z" fill="#030406"/>
<path d="M6.1204 15.9997C4.84088 15.9997 3.62025 15.3861 2.85517 14.3585C2.83014 14.3249 2.82196 14.2817 2.83283 14.2413C2.84369 14.2007 2.87263 14.1677 2.91109 14.1512C3.86985 13.7412 4.97964 13.5244 6.12038 13.5244C7.26111 13.5244 8.37097 13.7411 9.32966 14.151C9.36812 14.1675 9.39706 14.2007 9.40793 14.2412C9.41879 14.2816 9.41061 14.3248 9.38558 14.3584C8.62047 15.3861 7.39984 15.9997 6.12035 15.9997H6.1204ZM3.18335 14.3347C3.90754 15.2213 4.96826 15.7262 6.1204 15.7262C7.27255 15.7262 8.33327 15.2213 9.05746 14.3347C8.17088 13.9832 7.15962 13.7979 6.1204 13.7979C5.08119 13.7979 4.06993 13.9831 3.18335 14.3347Z" fill="#030406"/>
<path d="M6.11933 16.0002C5.54643 16.0002 5.01576 15.5641 4.62515 14.7723C4.24968 14.0112 4.04297 13.0024 4.04297 11.9317C4.04297 10.861 4.24969 9.85209 4.62515 9.09114C5.01576 8.2993 5.54643 7.86328 6.11933 7.86328C6.69223 7.86328 7.2229 8.2993 7.6135 9.09114C7.98897 9.85221 8.19568 10.861 8.19568 11.9317C8.19568 13.0024 7.98896 14.0114 7.6135 14.7723C7.2229 15.5641 6.69223 16.0002 6.11933 16.0002ZM6.11933 8.13685C5.65608 8.13685 5.21259 8.5188 4.87047 9.2122C4.51319 9.93639 4.31648 10.9022 4.31648 11.9318C4.31648 12.9614 4.51319 13.9272 4.87047 14.6514C5.21259 15.3448 5.65608 15.7267 6.11933 15.7267C6.58257 15.7267 7.02607 15.3448 7.36819 14.6514C7.72547 13.9272 7.92218 12.9614 7.92218 11.9318C7.92218 10.9022 7.72547 9.93639 7.36819 9.2122C7.02607 8.51877 6.58257 8.13685 6.11933 8.13685Z" fill="#030406"/>
<path d="M6.12113 16.0001C6.04555 16.0001 5.98438 15.9389 5.98438 15.8634V8.00004C5.98438 7.92445 6.04555 7.86328 6.12113 7.86328C6.19671 7.86328 6.25788 7.92445 6.25788 8.00004V15.8634C6.25788 15.9389 6.19671 16.0001 6.12113 16.0001Z" fill="#030406"/>
<path d="M10.0509 12.0684H2.18754C2.11195 12.0684 2.05078 12.0073 2.05078 11.9317C2.05078 11.8561 2.11195 11.7949 2.18754 11.7949H10.0509C10.1264 11.7949 10.1876 11.8561 10.1876 11.9317C10.1876 12.0073 10.1264 12.0684 10.0509 12.0684Z" fill="#030406"/>
<path d="M6.11935 16.0004C3.87595 16.0004 2.05078 14.1753 2.05078 11.9319C2.05078 9.68835 3.87585 7.86328 6.11935 7.86328C8.36285 7.86328 10.1879 9.68835 10.1879 11.9319C10.1879 14.1753 8.36285 16.0004 6.11935 16.0004ZM6.11935 8.1371C4.02677 8.1371 2.32429 9.83946 2.32429 11.9322C2.32429 14.0249 4.02664 15.7272 6.11935 15.7272C8.21206 15.7272 9.91441 14.0249 9.91441 11.9322C9.91441 9.83946 8.21206 8.1371 6.11935 8.1371Z" fill="#030406"/>
</svg>
