<svg width="34" height="41" viewBox="0 0 34 41" fill="none" xmlns="http://www.w3.org/2000/svg">
<path d="M16.8629 13.1812C8.49855 13.1812 0 11.0227 0 6.84058C0 2.65841 8.49898 0.5 16.8629 0.5C25.2268 0.5 33.7258 2.65841 33.7258 6.84058C33.7258 11.0227 25.2268 13.1812 16.8629 13.1812ZM16.8629 2.4559C7.82392 2.4559 2.0229 5.01921 2.0229 6.77271C2.0229 8.52676 7.82403 11.0895 16.8629 11.0895C25.9017 11.0895 31.7029 8.52621 31.7029 6.77271C31.7029 5.01921 25.9017 2.4559 16.8629 2.4559Z" fill="#0072FF"/>
<path d="M16.8629 40.4998C8.49855 40.4998 0 38.3413 0 34.1592H2.02376C2.02376 35.9132 7.8249 38.476 16.8638 38.476C25.9026 38.476 31.7037 35.9127 31.7037 34.1592H33.7275C33.7267 38.2736 25.2277 40.4998 16.8635 40.4998H16.8629Z" fill="#0072FF"/>
<path d="M16.8629 31.7312C8.49855 31.7312 0 29.5728 0 25.3906H2.02376C2.02376 27.1447 7.8249 29.7074 16.8638 29.7074C25.9026 29.7074 31.7037 27.1441 31.7037 25.3906H33.7275C33.7267 29.5055 25.2277 31.7312 16.8635 31.7312H16.8629Z" fill="#0072FF"/>
<path d="M16.8629 22.2878C8.49855 22.2878 0 20.1294 0 15.9473H2.02376C2.02376 17.7013 7.8249 20.2641 16.8638 20.2641C25.9026 20.2641 31.7037 17.7008 31.7037 15.9473H33.7275C33.7267 20.0617 25.2277 22.2878 16.8635 22.2878H16.8629Z" fill="#0072FF"/>
<path d="M31.7031 6.84082H33.7269V34.1597H31.7031V6.84082Z" fill="#0072FF"/>
<path d="M0 6.84082H2.02376V34.1597H0V6.84082Z" fill="#0072FF"/>
</svg>
