<svg width="16" height="16" viewBox="0 0 16 16" fill="none" xmlns="http://www.w3.org/2000/svg">
<path d="M12.1547 3.9158C12.2028 3.88796 12.2331 3.83486 12.2331 3.77919C12.2331 3.72352 12.2027 3.67041 12.1547 3.64257L8.46637 1.49744C8.41827 1.4696 8.3576 1.4696 8.30705 1.49744L2.60768 4.78868C2.55958 4.81651 2.5293 4.86962 2.5293 4.92529C2.5293 4.98096 2.55969 5.03407 2.60768 5.0619L6.29605 7.20716C6.32132 7.2223 6.34915 7.22742 6.37443 7.22742C6.40226 7.22742 6.4301 7.21985 6.45281 7.20716L12.1547 3.9158ZM3.00224 4.92517L8.38796 1.8161L11.7627 3.77665L6.37428 6.88572L3.00224 4.92517Z" fill="#030406"/>
<path d="M15.0391 4.05495C15.0391 3.89563 14.9733 3.76659 14.8621 3.70335C14.8595 3.70079 14.8569 3.70079 14.8544 3.69823L8.56557 0.0426486C8.49977 0.0046826 8.35815 -0.0408563 8.16844 0.0679213L0.414835 4.54549C0.278224 4.62387 0.159315 4.7656 0.0809408 4.94018C0.0278349 5.05908 0 5.16273 0 5.26149L0.0101321 7.88971C0.0101321 8.10983 0.121472 8.20336 0.184712 8.23887L6.47859 11.8968C6.52913 11.9247 6.5848 11.9398 6.64303 11.9398C6.71641 11.9398 6.79735 11.9171 6.87573 11.8716L8.89195 10.7079L8.88181 12.2029L6.95412 13.3235C6.76184 13.2249 6.54685 13.1692 6.31659 13.1692C5.53488 13.1692 4.89992 13.8042 4.89992 14.5859C4.89992 15.365 5.53488 16 6.31659 16C7.09574 16 7.72813 15.3676 7.7307 14.5885L12.5878 11.7653C12.7725 11.8538 12.9774 11.9044 13.1949 11.9044C13.9741 11.9044 14.609 11.2695 14.609 10.4903C14.609 9.70863 13.9741 9.07366 13.1949 9.07366C12.4132 9.07366 11.7782 9.70863 11.7782 10.4903C11.7782 10.5005 11.7808 10.5106 11.7808 10.5207L10.3743 11.3378L10.3844 9.84779L14.6345 7.39389C14.8697 7.25728 15.0493 6.9512 15.0469 6.68055L15.0391 4.05495ZM0.574204 4.81895L8.32781 0.343773C8.37078 0.318501 8.40118 0.315939 8.41131 0.318501L14.3689 3.78177L6.70889 8.20388C6.61281 8.25955 6.52674 8.3455 6.45593 8.44671L0.440229 4.94796C0.480643 4.8924 0.526179 4.84687 0.574279 4.81903L0.574204 4.81895ZM0.326253 7.88987L0.316121 5.26152C0.316121 5.25652 0.318683 5.24883 0.318683 5.24382L6.32157 8.73482C6.30387 8.79806 6.29373 8.8613 6.29373 8.91953L6.3013 11.429L0.341352 7.96332C0.338906 7.96075 0.326212 7.9406 0.326212 7.88994L0.326253 7.88987ZM6.3193 15.684C5.71218 15.684 5.21884 15.1907 5.21884 14.5861C5.21884 13.979 5.71218 13.4857 6.3193 13.4857C6.90116 13.4857 7.37423 13.9436 7.40962 14.5178V14.5253C7.40962 14.5456 7.41463 14.5659 7.41463 14.586C7.41719 15.1932 6.92385 15.684 6.3193 15.684L6.3193 15.684ZM13.1952 9.39014C13.7997 9.39014 14.2931 9.88348 14.2931 10.4906C14.2931 11.0952 13.7997 11.5885 13.1952 11.5885C12.6234 11.5885 12.1579 11.1484 12.1048 10.5918V10.5842C12.1023 10.5538 12.0947 10.5235 12.0947 10.4931C12.0947 9.88591 12.588 9.39012 13.1952 9.39012L13.1952 9.39014ZM12.2895 11.5758L7.69062 14.2497C7.61981 13.9639 7.46294 13.7109 7.24794 13.5237L11.8293 10.8599C11.9076 11.1433 12.0695 11.3937 12.2896 11.5758H12.2895ZM10.0558 11.5253L9.20324 12.0211L9.21338 10.5285L10.0659 10.0351L10.0558 11.5253ZM14.4752 7.12344L6.7192 11.601C6.66866 11.6314 6.64082 11.6263 6.63826 11.6263C6.6357 11.6237 6.62056 11.6036 6.62056 11.5479L6.61287 8.91944C6.61287 8.86633 6.63058 8.80565 6.65585 8.74742C6.65585 8.74742 6.65841 8.74742 6.65841 8.74486C6.66097 8.7423 6.66097 8.73985 6.66097 8.73473C6.70651 8.62851 6.78244 8.52474 6.87096 8.47665L14.6269 3.99908C14.675 3.97125 14.7003 3.97381 14.7053 3.97637H14.7079C14.7129 3.97893 14.7256 3.99908 14.7256 4.05475L14.7332 6.68309C14.7307 6.83752 14.6118 7.04495 14.4752 7.12345L14.4752 7.12344Z" fill="#030406"/>
<path d="M8.02917 9.01341C7.90269 8.94004 7.74081 8.95017 7.58135 9.04125C7.30813 9.19813 7.0957 9.56742 7.0957 9.88363C7.0957 10.0632 7.16907 10.21 7.29555 10.2808C7.35122 10.3136 7.41446 10.3289 7.48026 10.3289C7.56377 10.3289 7.65484 10.3036 7.74336 10.2529C8.01658 10.0961 8.22901 9.72676 8.22901 9.41055C8.22644 9.23108 8.15564 9.08679 8.02916 9.01341H8.02917ZM7.58392 9.97983C7.51812 10.0178 7.47258 10.0178 7.45231 10.0077C7.43461 9.99753 7.41178 9.95712 7.41178 9.88375C7.41178 9.6839 7.56353 9.41825 7.7381 9.31703C7.78108 9.29176 7.81648 9.28162 7.84187 9.28162C7.85457 9.28162 7.86458 9.28419 7.86971 9.28663C7.88741 9.29676 7.91024 9.33718 7.91024 9.41055C7.9128 9.61552 7.76105 9.87604 7.58392 9.97983L7.58392 9.97983Z" fill="#030406"/>
<path d="M9.34607 8.25365C9.21959 8.18028 9.05514 8.19041 8.89581 8.28148C8.62258 8.43836 8.41016 8.80765 8.41016 9.12387C8.41016 9.30345 8.48353 9.45019 8.61001 9.521C8.66568 9.55384 8.72892 9.5691 8.79472 9.5691C8.87822 9.5691 8.9693 9.54383 9.05781 9.49316C9.33103 9.33384 9.54602 8.96443 9.54602 8.65078C9.54334 8.46863 9.47254 8.32446 9.34606 8.25365L9.34607 8.25365ZM8.89825 9.2175C8.83245 9.25546 8.78691 9.25546 8.76665 9.24533C8.74895 9.2352 8.72612 9.19479 8.72612 9.12142C8.72612 8.92157 8.87787 8.65592 9.05244 8.5547C9.12069 8.51417 9.16622 8.51417 9.18649 8.52686C9.21176 8.542 9.22702 8.5901 9.22702 8.65078C9.2297 8.85063 9.07538 9.11628 8.89825 9.2175Z" fill="#030406"/>
<path d="M10.6639 7.49291C10.5375 7.41954 10.373 7.42967 10.2137 7.52074C9.94301 7.67762 9.73047 8.04691 9.73047 8.36056C9.73047 8.54271 9.80384 8.68688 9.93032 8.76026C9.98599 8.7931 10.0492 8.80836 10.115 8.80836C10.1985 8.80836 10.287 8.78308 10.3756 8.73242C10.6488 8.5731 10.8638 8.20369 10.8638 7.89004C10.8612 7.71045 10.7904 7.56628 10.6639 7.49291L10.6639 7.49291ZM10.2161 8.45932C10.1503 8.49729 10.1048 8.49729 10.0871 8.48715C10.0694 8.47702 10.0465 8.43661 10.0465 8.36067C10.0465 8.16082 10.1983 7.89518 10.3703 7.79652C10.4158 7.77125 10.4512 7.76112 10.4741 7.76112C10.4868 7.76112 10.4968 7.76368 10.5045 7.76612C10.5297 7.78126 10.545 7.82936 10.545 7.89004C10.5476 8.09245 10.3933 8.3581 10.2161 8.45932L10.2161 8.45932Z" fill="#030406"/>
<path d="M14.0097 5.89887L11.2979 7.46473C11.2219 7.50771 11.1967 7.60635 11.2396 7.67972C11.27 7.73027 11.3231 7.7581 11.3762 7.7581C11.4041 7.7581 11.4293 7.75053 11.4546 7.73784L14.1665 6.17197C14.2424 6.129 14.2677 6.03035 14.2247 5.95698C14.1817 5.88116 14.0856 5.85578 14.0097 5.89887Z" fill="#030406"/>
</svg>
