<svg width="18" height="16" viewBox="0 0 18 16" fill="none" xmlns="http://www.w3.org/2000/svg">
<path d="M0.975785 0C0.438616 0 0 0.438616 0 0.975785V4.09837C0 4.41732 0.158321 4.70074 0.396413 4.87893C0.158321 5.05726 0 5.34054 0 5.65949V8.78207C0 9.10102 0.158321 9.38444 0.396413 9.56277C0.158321 9.7411 0 10.0244 0 10.3433V13.4659C0 14.0031 0.438616 14.4417 0.975785 14.4417H12.313L13.7096 15.9359C13.79 16.0242 13.9223 16.0185 13.9963 15.9359L16.7102 13.0329C17.3273 12.3711 17.3273 11.3161 16.7102 10.6544C16.3052 10.2201 15.733 10.0615 15.2099 10.197C15.1694 9.9393 15.0261 9.7129 14.8257 9.56277C15.0638 9.38443 15.2221 9.10115 15.2221 8.78207V5.65949C15.2221 5.34053 15.0638 5.05711 14.8257 4.87893C15.0638 4.70059 15.2221 4.41731 15.2221 4.09837V0.975785C15.2221 0.438616 14.7835 0 14.2464 0H0.975785ZM0.975785 0.390279H14.2465C14.5741 0.390279 14.832 0.647974 14.832 0.975785V4.09837C14.832 4.42603 14.5743 4.68387 14.2465 4.68387H0.975785C0.64812 4.68387 0.390279 4.42618 0.390279 4.09837V0.975785C0.390279 0.64812 0.647974 0.390279 0.975785 0.390279ZM2.53708 1.75634C2.10825 1.75634 1.75652 2.10811 1.75652 2.5369C1.75652 2.96573 2.10829 3.31746 2.53708 3.31746C2.9659 3.31746 3.31764 2.96569 3.31764 2.5369C3.31764 2.10808 2.96586 1.75634 2.53708 1.75634ZM5.46443 1.75634C5.03561 1.75634 4.68387 2.10811 4.68387 2.5369C4.68387 2.96573 5.03565 3.31746 5.46443 3.31746C5.89326 3.31746 6.24499 2.96569 6.24499 2.5369C6.24499 2.10808 5.89322 1.75634 5.46443 1.75634ZM2.53708 2.14662C2.75489 2.14662 2.92736 2.3191 2.92736 2.5369C2.92736 2.7547 2.75488 2.92718 2.53708 2.92718C2.31927 2.92718 2.1468 2.7547 2.1468 2.5369C2.1468 2.3191 2.31927 2.14662 2.53708 2.14662ZM5.46443 2.14662C5.68224 2.14662 5.85471 2.3191 5.85471 2.5369C5.85471 2.7547 5.68224 2.92718 5.46443 2.92718C5.24663 2.92718 5.07415 2.7547 5.07415 2.5369C5.07415 2.3191 5.24663 2.14662 5.46443 2.14662ZM9.17242 2.34184C9.0646 2.34184 8.97721 2.42923 8.97721 2.53705C8.97721 2.64487 9.0646 2.73226 9.17242 2.73226H12.295C12.4028 2.73226 12.4902 2.64487 12.4902 2.53705C12.4902 2.42923 12.4028 2.34184 12.295 2.34184H9.17242ZM0.97582 5.07396H14.2465C14.5742 5.07396 14.832 5.33166 14.832 5.65947V8.78205C14.832 9.10972 14.5743 9.36756 14.2465 9.36756H0.97582C0.648155 9.36756 0.390314 9.10987 0.390314 8.78205V5.65947C0.390314 5.33181 0.648008 5.07396 0.97582 5.07396ZM2.53711 6.44003C2.10829 6.44003 1.75655 6.7918 1.75655 7.22059C1.75655 7.64938 2.10832 8.00115 2.53711 8.00115C2.96593 8.00115 3.31767 7.64938 3.31767 7.22059C3.31767 6.7918 2.9659 6.44003 2.53711 6.44003ZM5.46447 6.44003C5.03565 6.44003 4.68391 6.7918 4.68391 7.22059C4.68391 7.64938 5.03568 8.00115 5.46447 8.00115C5.89329 8.00115 6.24503 7.64938 6.24503 7.22059C6.24503 6.7918 5.89326 6.44003 5.46447 6.44003ZM2.53711 6.83031C2.75492 6.83031 2.92739 7.00279 2.92739 7.22059C2.92739 7.43839 2.75491 7.61087 2.53711 7.61087C2.31931 7.61087 2.14683 7.43839 2.14683 7.22059C2.14683 7.00279 2.31931 6.83031 2.53711 6.83031ZM5.46447 6.83031C5.68228 6.83031 5.85475 7.00279 5.85475 7.22059C5.85475 7.43839 5.68227 7.61087 5.46447 7.61087C5.24667 7.61087 5.07419 7.43839 5.07419 7.22059C5.07419 7.00279 5.24667 6.83031 5.46447 6.83031ZM9.17245 7.02552C9.06464 7.02552 8.97724 7.11292 8.97724 7.22073C8.97724 7.32855 9.06464 7.41595 9.17245 7.41595H12.295C12.4029 7.41595 12.4902 7.32855 12.4902 7.22073C12.4902 7.11292 12.4029 7.02552 12.295 7.02552H9.17245ZM0.975855 9.75779H14.2465C14.5742 9.75779 14.832 10.0155 14.832 10.3433V10.3554C14.6996 10.4329 14.5727 10.5321 14.46 10.6542L13.8563 11.3007L13.2525 10.6542C12.5562 9.93681 11.6023 10.0313 11.0022 10.6542C10.725 10.9514 10.5729 11.3248 10.5448 11.7092H9.17256C9.06474 11.7092 8.97734 11.7966 8.97734 11.9044C8.97734 12.0122 9.06474 12.0996 9.17256 12.0996H10.557C10.6067 12.439 10.7559 12.7686 11.0022 13.0327L11.9536 14.0512H0.975994C0.648329 14.0512 0.390488 13.7935 0.390488 13.4657V10.3431C0.390488 10.0155 0.648183 9.75762 0.975994 9.75762L0.975855 9.75779ZM15.582 10.5383C15.8843 10.5383 16.1863 10.6681 16.4235 10.9225C16.8982 11.4315 16.8982 12.2552 16.4235 12.7642L13.8559 15.5207L11.2884 12.7642C10.8136 12.2552 10.8136 11.4315 11.2884 10.9225C11.5258 10.6679 11.8276 10.5443 12.1299 10.5443C12.4323 10.5443 12.7338 10.6675 12.9716 10.9225L13.7096 11.7215C13.7824 11.8003 13.9234 11.8003 13.9963 11.7215L14.7402 10.9225C14.9776 10.6679 15.2795 10.5383 15.5819 10.5383H15.582ZM2.53711 11.1239C2.10829 11.1239 1.75655 11.4756 1.75655 11.9044C1.75655 12.3332 2.10832 12.685 2.53711 12.685C2.96593 12.685 3.31767 12.3332 3.31767 11.9044C3.31767 11.4756 2.9659 11.1239 2.53711 11.1239ZM5.46447 11.1239C5.03565 11.1239 4.68391 11.4756 4.68391 11.9044C4.68391 12.3332 5.03568 12.685 5.46447 12.685C5.89329 12.685 6.24503 12.3332 6.24503 11.9044C6.24503 11.4756 5.89326 11.1239 5.46447 11.1239ZM2.53711 11.5141C2.75492 11.5141 2.92739 11.6866 2.92739 11.9044C2.92739 12.1222 2.75491 12.2947 2.53711 12.2947C2.31931 12.2947 2.14683 12.1222 2.14683 11.9044C2.14683 11.6866 2.31931 11.5141 2.53711 11.5141ZM5.46447 11.5141C5.68228 11.5141 5.85475 11.6866 5.85475 11.9044C5.85475 12.1222 5.68227 12.2947 5.46447 12.2947C5.24667 12.2947 5.07419 12.1222 5.07419 11.9044C5.07419 11.6866 5.24667 11.5141 5.46447 11.5141Z" fill="#030406"/>
</svg>
