<svg width="16" height="16" viewBox="0 0 16 16" fill="none" xmlns="http://www.w3.org/2000/svg">
<path d="M1.84925 13.76H6.16921C6.34599 13.76 6.48916 13.6169 6.48916 13.4401C6.48916 13.2631 6.34586 13.1201 6.16921 13.1201H1.84925C1.67247 13.1201 1.5293 13.2633 1.5293 13.4401C1.5293 13.6169 1.67247 13.76 1.84925 13.76Z" fill="#030406"/>
<path d="M10.1305 13.76H10.7105C10.8873 13.76 11.0305 13.6169 11.0305 13.4401C11.0305 13.2631 10.8872 13.1201 10.7105 13.1201H10.1305C9.95372 13.1201 9.81055 13.2633 9.81055 13.4401C9.81055 13.6169 9.95372 13.76 10.1305 13.76Z" fill="#030406"/>
<path d="M11.8492 13.76H12.4293C12.6061 13.76 12.7492 13.6169 12.7492 13.4401C12.7492 13.2631 12.6059 13.1201 12.4293 13.1201H11.8492C11.6725 13.1201 11.5293 13.2633 11.5293 13.4401C11.5292 13.6169 11.6725 13.76 11.8492 13.76Z" fill="#030406"/>
<path d="M13.5698 13.7599H14.1499C14.3267 13.7599 14.4698 13.6167 14.4698 13.4399C14.4698 13.263 14.3265 13.1199 14.1499 13.1199H13.5698C13.393 13.1199 13.2499 13.2631 13.2499 13.4399C13.2499 13.6167 13.3932 13.7599 13.5698 13.7599Z" fill="#030406"/>
<path d="M15.9773 11.0891C15.9737 11.0795 15.9696 11.0707 15.965 11.0615C15.9603 11.052 15.9578 11.0417 15.9522 11.0326L13.7821 7.51249C13.7239 7.41794 13.6209 7.36035 13.5097 7.36035H2.49279C2.3819 7.36035 2.27877 7.41781 2.22052 7.51223L0.0491514 11.0323C0.0433924 11.0417 0.0405801 11.0523 0.0358926 11.0622C0.0316069 11.071 0.027589 11.0795 0.0241069 11.0887C0.0108481 11.124 0.00241061 11.1605 0.00214284 11.1977C0.00214284 11.1986 0.00160713 11.1995 0.00160713 11.2004L0 15.6805C0 15.7651 0.0337501 15.8467 0.0937503 15.9067C0.15375 15.9667 0.235178 16.0004 0.319955 16.0004H15.6798C15.8566 16.0004 15.9998 15.8573 15.9998 15.6805V11.2004C15.9998 11.1995 15.9992 11.1987 15.9992 11.1977C15.999 11.1608 15.9905 11.1243 15.9774 11.0891L15.9773 11.0891ZM2.67117 8.00046H13.3312L15.1067 10.8804H0.894667L2.67117 8.00046ZM15.3599 15.3605H0.640098L0.641169 11.5205H15.3599L15.3599 15.3605Z" fill="#030406"/>
<path d="M10.8283 1.80963C10.9102 1.80963 10.9921 1.77843 11.0545 1.71588C11.1795 1.59093 11.1795 1.38843 11.0545 1.26335C10.24 0.448659 9.15518 0 7.9999 0C6.8449 0 5.75997 0.448796 4.94528 1.26349C4.82032 1.38844 4.82032 1.59094 4.94528 1.71602C5.07023 1.84097 5.27273 1.84097 5.39781 1.71602C6.09168 1.02215 7.01591 0.639903 7.9999 0.639903C8.98413 0.639903 9.90809 1.02212 10.6021 1.71588C10.6646 1.77843 10.7465 1.80963 10.8283 1.80963H10.8283Z" fill="#030406"/>
<path d="M9.69831 2.9411C9.78014 2.9411 9.8621 2.90989 9.92451 2.84735C10.0495 2.72239 10.0495 2.51989 9.92451 2.39481C8.86393 1.33423 7.13855 1.33423 6.07803 2.39481C5.95308 2.51977 5.95308 2.72227 6.07803 2.84735C6.20298 2.9723 6.40548 2.9723 6.53056 2.84735C7.34148 2.03667 8.66123 2.03667 9.47215 2.84735C9.53456 2.90976 9.61639 2.9411 9.69835 2.9411H9.69831Z" fill="#030406"/>
<path d="M6.88281 4.31828C6.88281 4.93583 7.3853 5.43831 8.00285 5.43831C8.6204 5.43831 9.12288 4.93583 9.12288 4.31828C9.12288 3.70073 8.6204 3.19824 8.00285 3.19824C7.3853 3.19824 6.88281 3.70073 6.88281 4.31828ZM8.48284 4.31828C8.48284 4.58292 8.26749 4.79827 8.00285 4.79827C7.73821 4.79827 7.52285 4.58292 7.52285 4.31828C7.52285 4.05364 7.73821 3.83828 8.00285 3.83828C8.26749 3.83828 8.48284 4.0535 8.48284 4.31828Z" fill="#030406"/>
</svg>
