<svg width="17" height="16" viewBox="0 0 17 16" fill="none" xmlns="http://www.w3.org/2000/svg">
<path d="M9.61903 2.75H1.01172V4.97497H9.61903V2.75ZM9.36673 4.72268H1.26406V3.00232H9.36673V4.72268Z" fill="#030406"/>
<path d="M9.61903 6.2666H1.01172V8.49157H9.61903V6.2666ZM9.36673 8.23928H1.26406V6.51892H9.36673V8.23928Z" fill="#030406"/>
<path d="M8.77401 2.04705C9.15499 2.04705 9.46497 1.73839 9.46497 1.35897C9.46497 0.979441 9.15499 0.670898 8.77401 0.670898C8.39448 0.670898 8.08594 0.979563 8.08594 1.35897C8.08594 1.73851 8.3946 2.04705 8.77401 2.04705ZM8.77401 0.923186C9.0159 0.923186 9.21265 1.11875 9.21265 1.35897C9.21265 1.5992 9.01589 1.79476 8.77401 1.79476C8.5338 1.79476 8.33823 1.5992 8.33823 1.35897C8.33823 1.11875 8.53379 0.923186 8.77401 0.923186Z" fill="#030406"/>
<path d="M6.07613 15.8738C6.07613 15.9436 6.1325 16 6.20227 16H16.2751C16.3449 16 16.4012 15.9436 16.4012 15.8738C16.3976 8.66248 16.4325 9.04364 16.3426 8.98757C16.3228 8.97464 16.3005 8.96519 16.275 8.96519L10.633 8.96531V0.681244C10.633 0.305539 10.3262 0 9.94921 0L0.683756 0.000119628C0.306734 0.000119628 0 0.30568 0 0.681363V13.429H6.07586L6.07613 15.8738ZM6.32854 15.7477V9.35227L11.1613 13.1583C11.1842 13.1764 11.2119 13.1854 11.2395 13.1854C11.2672 13.1854 11.2947 13.1764 11.3177 13.1583L16.1492 9.35319V15.7477H6.32854ZM6.07613 11.899H1.26507V10.1787H6.07643L6.07613 11.899ZM15.9121 9.21843L11.2392 12.8986L6.56636 9.21843H15.9121ZM0.252432 13.1765V0.681286C0.252432 0.444906 0.445964 0.252452 0.6839 0.252452H9.94935C10.1873 0.252452 10.3808 0.444906 10.3808 0.681286V8.96535H6.07594V9.92679L1.01242 9.92667V12.1516H6.07594V13.1766L0.252432 13.1765Z" fill="#030406"/>
<path d="M10.0254 14.7373H7.21013C7.14036 14.7373 7.08398 14.7937 7.08398 14.8635C7.08398 14.9332 7.14035 14.9896 7.21013 14.9896H10.0254C10.0952 14.9896 10.1516 14.9332 10.1516 14.8635C10.1516 14.7937 10.0952 14.7373 10.0254 14.7373Z" fill="#030406"/>
<path d="M7.21013 14.3177H9.5208C9.59057 14.3177 9.64695 14.2614 9.64695 14.1916C9.64695 14.1218 9.59058 14.0654 9.5208 14.0654H7.21013C7.14036 14.0654 7.08398 14.1218 7.08398 14.1916C7.08398 14.2612 7.14048 14.3177 7.21013 14.3177Z" fill="#030406"/>
<path d="M7.21209 13.6459H9.01802C9.0878 13.6459 9.14417 13.5895 9.14417 13.5197C9.14417 13.4499 9.0878 13.3936 9.01802 13.3936H7.21209C7.14231 13.3936 7.08594 13.4499 7.08594 13.5197C7.08594 13.5895 7.14243 13.6459 7.21209 13.6459Z" fill="#030406"/>
<path d="M15.2656 14.7373H12.4504C12.3806 14.7373 12.3242 14.7937 12.3242 14.8635C12.3242 14.9332 12.3806 14.9896 12.4504 14.9896H15.2656C15.3354 14.9896 15.3918 14.9332 15.3918 14.8635C15.3918 14.7937 15.3354 14.7373 15.2656 14.7373Z" fill="#030406"/>
<path d="M15.2649 14.0654H12.9543C12.8845 14.0654 12.8281 14.1218 12.8281 14.1916C12.8281 14.2614 12.8845 14.3177 12.9543 14.3177H15.2649C15.3347 14.3177 15.3911 14.2614 15.3911 14.1916C15.3911 14.1219 15.3347 14.0654 15.2649 14.0654Z" fill="#030406"/>
<path d="M15.2661 13.3936H13.4601C13.3904 13.3936 13.334 13.4499 13.334 13.5197C13.334 13.5895 13.3904 13.6459 13.4601 13.6459H15.2661C15.3358 13.6459 15.3922 13.5895 15.3922 13.5197C15.3922 13.4499 15.3358 13.3936 15.2661 13.3936Z" fill="#030406"/>
</svg>
