<svg width="24" height="24" viewBox="0 0 24 24" fill="none" xmlns="http://www.w3.org/2000/svg">
<g clip-path="url(#clip0_801_3917)">
<path opacity="0.3" fill-rule="evenodd" clip-rule="evenodd" d="M10.5861 12L5.46477 6.87864C5.07424 6.48811 5.07424 5.85495 5.46477 5.46442C5.85529 5.0739 6.48846 5.0739 6.87898 5.46442L12.0003 10.5857L18.1927 4.39336C18.5832 4.00283 19.2164 4.00283 19.6069 4.39336C19.9974 4.78388 19.9974 5.41705 19.6069 5.80757L13.4145 12L19.6069 18.1923C19.9974 18.5829 19.9974 19.216 19.6069 19.6066C19.2164 19.9971 18.5832 19.9971 18.1927 19.6066L12.0003 13.4142L6.87898 18.5355C6.48846 18.926 5.85529 18.926 5.46477 18.5355C5.07424 18.145 5.07424 17.5118 5.46477 17.1213L10.5861 12Z" fill="#202C4A"/>
<path d="M6 18H9C9.66667 18.1144 10 18.4477 10 19C10 19.5523 9.66667 19.8856 9 20H4V15C4 14.3333 4.33333 14 5 14C5.66667 14 6 14.3333 6 15V18ZM18 18V15C18.1144 14.3333 18.4477 14 19 14C19.5523 14 19.8856 14.3333 20 15V20H15C14.3333 20 14 19.6667 14 19C14 18.3333 14.3333 18 15 18H18ZM18 6H15C14.3333 5.88562 14 5.55228 14 5C14 4.44772 14.3333 4.11438 15 4H20V9C20 9.66667 19.6667 10 19 10C18.3333 10 18 9.66667 18 9V6ZM6 6V9C5.88562 9.66667 5.55228 10 5 10C4.44772 10 4.11438 9.66667 4 9V4H9C9.66667 4 10 4.33333 10 5C10 5.66667 9.66667 6 9 6H6Z" fill="#202C4A"/>
</g>
<defs>
<clipPath id="clip0_801_3917">
<rect width="24" height="24" fill="white"/>
</clipPath>
</defs>
</svg>
