<svg width="100" height="76" viewBox="0 0 100 76" fill="none" xmlns="http://www.w3.org/2000/svg">
<path d="M61.8043 13.175C57.6314 13.4005 54.2855 16.7088 49.9622 16.0697C46.1652 15.5058 49.2479 11.4081 50.4509 9.64114C51.9547 7.3855 54.887 4.15242 54.4735 1.1825C54.4359 0.919337 54.2479 0.731366 53.9847 0.693772C48.0825 -0.434047 42.7817 4.41558 39.0223 8.32535C34.0599 13.4757 29.6614 19.7539 21.6539 19.2276C20.9396 19.19 20.7892 20.2802 21.5035 20.3554C28.5336 20.8441 33.0825 16.4832 37.5186 11.6336C41.3907 7.3855 46.9547 0.881743 53.3832 1.784C53.4208 4.34039 50.6765 7.27272 49.3983 9.22761C48.3456 10.8441 46.1652 13.6261 47.1426 15.6938C48.2329 17.987 52.481 17.4607 54.3983 16.8216C56.4283 16.1449 58.3456 15.1675 60.4133 14.6035C61.3156 14.378 62.5562 13.9645 63.2329 14.7915C63.8344 15.5058 63.5712 16.6712 63.3456 17.4607C62.105 21.4457 58.7216 24.6035 56.1276 27.6863C55.6389 28.2502 56.5411 28.9644 56.9923 28.4005C59.3983 25.581 61.9923 22.8742 63.684 19.5284C64.699 17.3855 65.5637 12.9494 61.8043 13.175Z" fill="#FFEFD5"/>
<path d="M10.8271 15.9946C10.8271 7.23523 11.8422 3.47583 11.8422 3.47583C11.8422 3.47583 21.8422 3.47583 28.6091 3.47583C35.376 3.47583 37.6317 3.47583 37.6317 3.47583C37.6317 3.47583 39.1354 14.4909 38.8723 19.754C38.6091 25.0172 10.8271 15.9946 10.8271 15.9946Z" fill="#FF495D"/>
<path d="M38.1199 7.19763C37.8568 4.97959 37.6688 3.43823 37.6688 3.43823C37.6688 3.43823 35.4132 3.43823 28.6462 3.43823C21.8793 3.43823 11.8793 3.43823 11.8793 3.43823C11.8793 3.43823 11.541 4.67883 11.2402 7.46079C20.1876 7.42319 29.135 7.27282 38.1199 7.19763Z" fill="#FD7960"/>
<path d="M69.5111 16.3706C60.7893 15.957 51.9923 16.2954 43.2705 16.333C38.7592 16.333 34.2103 16.333 29.6991 16.2578C23.4209 16.1826 17.1051 16.0698 10.8269 15.957C10.4885 20.5435 10.1878 25.1676 9.99982 29.7916C9.28553 44.8292 3.49606 71.4458 11.8795 74.0397C12.1427 74.0397 32.5186 74.4909 42.5186 74.4533C45.263 74.4533 48.0073 74.4157 50.7141 74.3781C55.1878 74.3029 59.7743 74.942 64.2479 75.0172C66.8043 75.0548 69.6615 74.6037 72.2179 74.7916C73.4961 72.4232 74.4735 70.6187 75.5637 68.1375C77.1427 64.6788 78.4585 61.145 79.5487 57.5736C80.8645 53.363 81.8795 49.0773 82.7442 44.7164C83.2705 42.1224 83.7216 39.5285 84.1728 36.9345C84.7367 33.5886 85.3006 30.2427 85.9773 26.9345C86.5412 24.1901 87.1803 21.4833 88.1201 18.8518C81.9547 17.348 75.7517 16.6713 69.5111 16.3706Z" fill="#FF495D"/>
<path d="M49.0977 23.4006C42.1053 23.0623 35.0376 23.363 28.0451 23.363C24.3985 23.363 20.7895 23.363 17.1429 23.3254C12.7068 23.2878 8.27068 23.2126 3.83459 23.1375C3.38346 26.145 3.1203 29.1525 2.89474 32.1976C2.40602 38.9645 2.18045 45.6938 1.69173 52.4608C1.2406 58.8141 0.639098 65.1299 0 71.4457C1.16541 71.4833 2.29323 71.4833 3.45865 71.5209C11.4662 71.6713 19.4737 71.7841 27.4812 71.7841C29.6617 71.7841 31.8797 71.7465 34.0602 71.7089C37.6316 71.6337 41.203 71.5961 44.812 71.6337C46.8797 71.6713 48.9098 71.7465 50.9398 71.8968C51.9925 69.942 52.9699 67.9871 53.8722 65.9946C55.1504 63.1374 56.203 60.2427 57.0677 57.3104C58.1203 53.8517 58.9474 50.3179 59.6241 46.7465C60.0376 44.6036 60.4135 42.4984 60.7519 40.3555C61.203 37.6111 61.6541 34.8668 62.218 32.1224C62.6692 29.8668 63.1955 27.6487 63.9098 25.4683C59.0602 24.2277 54.0977 23.6638 49.0977 23.4006Z" fill="#FFEFD5"/>
<path d="M11.917 32.7239C10.7516 37.2728 10.902 41.9344 10.8268 46.5961C10.7516 49.1901 10.4884 51.6713 9.99972 54.2277C9.58619 56.4457 9.17265 58.6261 9.28543 60.9194C9.32303 61.6337 10.4508 61.6337 10.4133 60.9194C10.1877 56.3329 11.8042 51.8592 11.9546 47.2728C12.105 42.5359 11.8794 37.7239 13.0448 33.0622C13.1952 32.348 12.105 32.0472 11.917 32.7239Z" fill="#64B2BF"/>
<path d="M22.8193 32.8743C22.4433 35.6562 22.293 38.4382 21.729 41.1825C21.5787 41.8968 22.6689 42.1976 22.8193 41.4833C23.4208 38.6261 23.5711 35.7314 23.9847 32.8743C24.0223 32.16 22.8945 32.1976 22.8193 32.8743Z" fill="#64B2BF"/>
<path d="M22.2558 44.7164C22.2558 44.0021 21.128 44.0021 21.128 44.7164C21.0904 47.7991 20.6768 50.8442 20.752 53.8893C20.8272 56.6713 21.2032 59.6412 20.0753 62.2728C19.7746 62.9495 20.752 63.5134 21.0528 62.8367C22.143 60.3179 22.0302 57.6487 21.9174 54.9419C21.8047 51.5585 22.2182 48.175 22.2558 44.7164Z" fill="#64B2BF"/>
<path d="M83.0072 21.2202C74.9997 20.8442 66.917 21.145 58.9095 21.1826C56.4659 21.1826 54.0223 21.1826 51.5786 21.1826C50.9395 21.1826 50.338 21.1826 49.6989 21.1826C48.6087 21.1826 47.5561 21.145 46.4659 21.145C40.4884 21.0698 34.511 20.957 28.5335 20.8818C27.4433 24.5285 26.729 28.3254 26.0523 32.1224C25.9771 32.4984 25.9019 32.8743 25.8644 33.2879C25.6012 34.8292 25.338 36.333 25.0749 37.8367C24.8869 38.8142 24.7365 39.7916 24.5486 40.7691C23.8719 44.2277 23.1576 47.6488 22.2929 51.0698C21.8418 52.8367 21.3155 54.566 20.7516 56.2954C20.5636 56.7841 20.4132 57.3104 20.2253 57.7991C20.1125 58.1375 19.9997 58.4382 19.8493 58.7766C19.7365 59.0773 19.6238 59.3781 19.511 59.6788C17.2177 64.6412 14.4358 69.3029 11.8418 74.1149C12.8192 74.5285 13.8719 74.754 14.9997 74.754C20.2629 74.7916 25.5636 74.9044 30.8268 74.9796C31.3531 74.9796 31.8418 75.0172 32.3681 75.0172C32.8192 75.0172 33.2704 75.0172 33.7215 75.0548C41.917 75.2051 50.1125 75.3179 58.308 75.3179C60.8268 75.3179 63.3456 75.2803 65.8268 75.2427C69.9245 75.1675 74.0223 75.0924 78.12 75.1676C80.4884 75.2051 82.8193 75.2803 85.1501 75.4683C86.3155 73.2878 87.4809 71.1074 88.4959 68.8518C89.0599 67.5736 89.6238 66.2954 90.1125 65.0172C90.2629 64.6412 90.4132 64.2653 90.526 63.8894C91.1275 62.3104 91.6538 60.7315 92.1425 59.1525C93.3456 55.2803 94.2854 51.3706 95.0749 47.348C95.5636 44.9796 95.9771 42.5736 96.3907 40.2051C96.917 37.1224 97.4433 34.0773 98.0448 31.0322C98.5711 28.5134 99.1726 26.0322 99.9997 23.6262C94.4358 22.1224 88.7591 21.5209 83.0072 21.2202Z" fill="#FFE34F"/>
<path d="M72.2176 44.0021C67.5559 43.3254 62.8191 43.2878 58.1198 43.363C53.2326 43.4381 47.8567 44.1148 43.0822 42.8742C42.3679 42.6863 42.0672 43.7765 42.7815 43.9645C47.2552 45.1299 52.1424 44.566 56.7288 44.4908C61.804 44.4156 66.8792 44.3404 71.9168 45.0923C72.6311 45.2051 72.9318 44.1148 72.2176 44.0021Z" fill="#000100"/>
<path d="M61.316 53.9644C56.4664 53.1374 51.5792 53.5509 46.692 53.5509C45.9777 53.5509 45.9777 54.6787 46.692 54.6787C51.4664 54.6411 56.2784 54.2276 61.0153 55.0171C61.7296 55.1674 62.0303 54.0772 61.316 53.9644Z" fill="#000100"/>
<path d="M85.4508 29.002C84.6614 27.4607 82.8568 28.9645 81.6162 30.581C80.7892 31.5208 79.9997 32.5359 79.8117 33.7765C79.7741 34.0396 79.8869 34.3404 80.1501 34.378C81.4659 34.6787 82.932 33.3253 83.7967 32.4983C84.5862 31.7464 86.0899 30.205 85.4508 29.002Z" fill="#0258A3"/>
<path d="M93.4215 28.9271C92.7824 28.288 92.1433 28.6639 91.5418 29.4534C91.429 29.5286 91.3162 29.6038 91.2786 29.7542C90.6395 31.3331 89.0982 32.3481 89.211 34.2278C89.2485 34.6038 89.5493 34.8669 89.9252 34.7542C91.617 34.3406 95.1508 30.7316 93.4215 28.9271ZM92.6696 30.0173C92.6696 30.0925 92.632 30.2053 92.632 30.2805C92.5944 30.2053 92.5192 30.1301 92.444 30.0925C92.5192 30.0173 92.5944 29.9421 92.6696 29.8669C92.6696 29.9045 92.7072 29.9797 92.6696 30.0173Z" fill="#0258A3"/>
<path d="M90.5641 63.7767C90.4138 64.1526 90.2634 64.5285 90.1506 64.9045C89.2859 64.7917 88.4213 64.6413 87.519 64.3782C85.301 63.7015 83.1205 62.724 80.7897 62.912C78.8724 63.0624 76.9551 63.7391 75.1882 64.4909C72.0679 65.8067 68.9476 67.3857 66.0905 69.1902C62.9702 71.1451 55.6769 77.0097 52.2559 72.6488C50.9025 70.9195 51.4664 68.5887 51.0905 66.5962C50.3762 62.912 45.7145 64.0398 43.3837 65.3556C39.4739 67.5361 36.316 71.1827 33.7596 75.0549C33.3085 75.0549 32.8574 75.0549 32.4062 75.0173C35.3762 70.4308 39.1732 65.8819 43.9852 63.8143C45.9777 62.9496 48.7596 62.4609 50.6769 63.7767C52.4814 65.0173 52.2559 67.3857 52.4063 69.303C53.0078 77.6864 63.6093 69.2278 66.9927 67.3857C70.1882 65.6188 73.5341 63.8143 77.0303 62.6864C78.6844 62.1601 80.4514 61.7466 82.1807 61.897C84.0604 62.0473 85.7897 62.7616 87.5566 63.3255C88.5341 63.4759 89.5491 63.6639 90.5641 63.7767Z" fill="white"/>
<path d="M51.6166 21.1826C43.7219 26.8969 35.3384 32.7992 25.9023 33.2503C25.9775 32.8743 26.0151 32.4984 26.0903 32.0849C34.7369 31.5962 42.4813 26.4082 49.7369 21.145C50.3384 21.1826 50.9775 21.1826 51.6166 21.1826Z" fill="white"/>
</svg>
