<svg width="126" height="63" viewBox="0 0 126 63" fill="none" xmlns="http://www.w3.org/2000/svg">
<path d="M125.74 0.527832C125.572 0.94899 125.361 1.32804 125.151 1.7492C125.066 1.91766 124.982 2.08612 124.856 2.25458C124.519 2.84421 124.182 3.39171 123.803 3.93922C123.045 5.03423 122.245 6.08712 121.318 6.97156C118.875 9.41428 116.559 11.8991 114.369 14.5103C111.673 18.3007 109.315 22.3438 107.336 26.5554C105.314 31.6936 103.503 36.9159 101.102 41.9277C99.4598 45.3812 97.5225 48.6662 95.3746 51.8249C81.1816 51.6565 32.243 51.5301 18.0499 51.4459C13.712 51.4038 9.37406 51.4038 5.03613 51.4038C5.87845 50.0982 6.84711 48.8347 7.90001 47.6976C12.4485 42.77 17.0813 37.8846 21.2928 32.7043C24.4094 28.4085 27.1891 23.86 29.4212 19.0167C31.527 13.6259 33.5064 8.19292 36.0334 3.01267C36.1597 2.75998 36.2861 2.50728 36.3703 2.2967C36.4545 2.12823 36.5388 1.91766 36.623 1.7492C36.6651 1.62285 36.7494 1.4965 36.8336 1.37015C54.9434 1.2438 107.715 0.822643 125.74 0.527832Z" fill="#FF5C82"/>
<path d="M115.211 49.3822C115.296 55.6995 110.789 60.2902 104.893 62.0169C101.903 62.9014 98.6598 63.1962 95.6275 62.6065C92.6794 62.059 89.9419 60.7113 87.8782 58.2686C87.7097 58.058 87.5413 57.8474 87.3728 57.6369C87.2043 57.4263 87.0359 57.2157 86.9095 56.963C85.1407 54.3097 84.2141 50.9826 84.1299 47.6975C84.1299 47.3606 84.1299 47.0237 84.1299 46.6867C84.2141 44.3704 84.7195 42.1382 85.6461 40.1588C87.9624 35.3155 92.174 33.673 95.4169 32.7043C97.6912 32.0304 100.092 31.9041 102.408 32.3253C102.745 32.4095 103.082 32.4516 103.419 32.5779C103.587 32.6201 103.756 32.6622 103.882 32.7043C104.893 32.9991 105.862 33.3781 106.746 33.9257C106.83 33.9678 106.872 34.0099 106.957 34.052C107.251 34.2205 107.588 34.431 107.883 34.6416C108.304 34.9364 108.683 35.2312 109.105 35.6103C109.357 35.8209 109.61 36.0736 109.863 36.2841C111.632 38.053 113.021 40.3273 113.906 42.7279C113.99 42.9384 114.074 43.1911 114.158 43.4017C114.874 45.3812 115.211 47.4027 115.211 49.3822Z" fill="#0258A3"/>
<path d="M45.4251 35.5681H28.8736C28.0734 35.5681 28.0734 36.8316 28.8736 36.8316H45.4251C46.2253 36.8316 46.2253 35.5681 45.4251 35.5681Z" fill="white"/>
<path d="M42.7714 43.1912C39.6969 42.3068 36.4961 42.6016 33.3375 42.6016C32.5373 42.6016 32.5373 43.8651 33.3375 43.8651C36.3698 43.8651 39.4864 43.5703 42.4345 44.4126C43.2347 44.6232 43.5716 43.4018 42.7714 43.1912Z" fill="white"/>
<path d="M125.74 0.527832C125.571 0.94899 125.361 1.32804 125.15 1.7492C105.44 9.49851 73.0951 22.5965 57.1332 31.7778C56.7542 31.9884 56.3751 32.1568 55.9961 32.3253C55.7434 31.9884 55.4907 31.6093 55.238 31.2724C51.1949 25.5868 46.6043 20.238 42.8981 14.3418C42.5611 13.7943 39.1919 7.47695 36.3701 2.25458C36.4543 2.08612 36.5386 1.87554 36.6228 1.70708C36.6649 1.58073 36.7492 1.45438 36.8334 1.32804C54.9432 1.24381 107.714 0.822643 125.74 0.527832Z" fill="#FF495D"/>
<path d="M57.1751 31.7777C56.7961 31.9462 56.417 32.1568 56.038 32.3252C55.7853 31.9883 55.5326 31.6514 55.2799 31.2723C55.2378 31.1881 55.1957 31.146 55.1535 31.1039C54.9009 30.767 54.6903 30.43 54.4376 30.0931C52.1212 26.9344 49.6785 23.86 47.3621 20.7013C47.1094 20.3643 46.8567 19.9853 46.604 19.6484C45.3406 17.9216 44.1192 16.1528 42.9821 14.3839C40.8342 10.9725 38.6441 7.56113 36.6647 4.06552C36.4962 3.72859 36.2857 3.39166 36.1172 3.05473C36.3278 2.63358 36.5383 2.21242 36.7489 1.79126C37.4228 2.9705 38.1387 4.10763 38.7284 5.0763C40.5393 8.23498 42.5188 11.2673 44.4561 14.3418C45.509 16.0264 46.6461 17.7111 47.8254 19.3115C48.0781 19.6484 48.3308 19.9853 48.5835 20.3222C50.7314 23.2703 53.0477 26.0921 55.1957 29.0402C55.4484 29.3771 55.701 29.7141 55.9537 30.051C56.1222 30.3037 56.2907 30.5143 56.4591 30.767C56.6697 31.0618 56.9224 31.3987 57.1751 31.7777Z" fill="#FFE34F"/>
<path d="M124.898 2.25464C124.561 2.84426 124.224 3.39177 123.845 3.93927C101.145 12.0255 78.8232 21.2068 57.1335 31.7357C56.7545 31.9042 56.3754 32.1148 55.9964 32.2832C55.7437 31.9463 55.491 31.5673 55.2383 31.2303C55.6173 31.0619 55.9964 30.8513 56.3754 30.6828C62.5243 27.6926 68.7153 24.7866 74.9485 22.007C91.3737 14.763 108.009 8.23509 124.898 2.25464Z" fill="#FFE34F"/>
<path d="M101.861 38.7268H96.3857C96.7227 43.1069 97.3123 47.4869 97.4807 51.867C97.5229 53.1304 97.565 54.3939 97.5229 55.6574C97.5229 56.3312 97.6913 56.8787 97.9861 57.2999C99.5023 57.2578 101.018 57.1735 102.535 57.1314C102.787 56.7524 102.956 56.247 102.956 55.6574C102.998 54.3518 102.956 53.0462 102.914 51.6985C102.745 47.3606 102.198 43.0647 101.861 38.7268Z" fill="white"/>
<path d="M112.768 37.3369C112.726 36.7051 112.305 36.1576 111.716 35.9891C110.494 35.6522 109.315 35.9891 108.304 36.9999C106.409 38.8951 105.609 42.6434 106.114 44.6229C106.156 45.0862 106.409 45.5073 106.83 45.76C107.041 45.8864 107.293 45.9285 107.546 45.9285C107.925 45.9285 108.262 45.8021 108.557 45.5916C109.231 45.0441 109.862 44.4123 110.41 43.7385C112.263 41.6748 113.063 39.7796 112.768 38.0949C112.768 37.8422 112.768 37.5895 112.768 37.3369Z" fill="#FF495D"/>
<path d="M120.77 38.0949C120.77 37.8001 120.77 37.5895 120.77 37.3369C120.728 36.7051 120.307 36.1576 119.717 35.9891C118.496 35.6522 117.317 35.9891 116.306 36.9999C114.411 38.8951 113.611 42.6434 114.116 44.6229C114.158 45.0862 114.411 45.5073 114.832 45.76C115.043 45.8864 115.295 45.9285 115.548 45.9285C115.927 45.9285 116.264 45.8021 116.559 45.5916C117.233 45.0441 117.906 44.4123 118.412 43.7385C120.265 41.6748 121.065 39.7796 120.77 38.0949Z" fill="#FF495D"/>
<path d="M47.7841 19.2693C47.405 19.3956 46.9839 19.522 46.5627 19.5641C42.0563 20.8697 37.6763 22.807 33.4647 24.8286C30.2218 26.3869 26.8525 27.9873 23.9044 30.0088C17.6291 34.3468 13.2912 42.3909 5.71034 44.6651C3.77302 45.2548 0.698558 45.7602 1.41453 42.8542C1.54087 42.2645 1.75145 41.6749 1.96203 41.1274C2.1305 40.7484 1.83569 40.2851 1.41453 40.2851C1.16183 40.2851 0.951255 40.4536 0.867023 40.6641C-0.185873 43.4859 -0.943957 46.1392 2.72012 46.3077C10.0483 46.7288 15.9445 39.0216 20.6194 34.5152C23.8623 31.3986 27.2737 29.3771 31.2325 27.3555C35.8653 24.997 40.6244 22.807 45.5519 21.2066C46.0573 21.0382 46.6891 20.8276 47.3629 20.617C47.742 20.4906 48.1631 20.3643 48.5843 20.238C48.2895 19.9431 48.0368 19.6062 47.7841 19.2693Z" fill="#FFE34F"/>
<path d="M96.5123 40.5798C92.6377 41.6327 87.8365 42.475 84.4672 40.0323C83.2037 39.1057 82.6141 37.8001 81.856 36.5367C80.2556 33.9255 77.6023 32.5357 74.5279 33.1674C67.1155 34.7257 63.1145 42.6856 55.9548 44.7914C53.8069 45.4231 51.659 45.0441 50.4797 43.0225C48.9636 40.3692 49.848 37.379 51.1957 34.8941C52.1223 33.2095 53.3015 31.6933 54.4386 30.0929C54.6913 29.756 54.944 29.377 55.1967 29.04C55.4494 29.377 55.7021 29.7139 55.9548 30.0508C55.7021 30.4299 55.4915 30.7668 55.2809 31.0616C55.2809 31.1037 55.2388 31.1037 55.2388 31.1458C53.2173 34.0097 49.8901 38.0107 51.3221 41.759C52.8382 45.6337 57.1762 43.2331 59.5346 41.6748C64.757 38.2634 69.7688 31.3564 76.6758 31.7776C80.1293 31.9881 82.0666 34.3466 83.7091 37.1263C86.3203 41.5484 92.1744 40.5377 96.5123 39.3584C96.4702 39.7375 96.4702 40.1586 96.5123 40.5798Z" fill="#FFE34F"/>
</svg>
