<svg width="100" height="90" viewBox="0 0 100 90" fill="none" xmlns="http://www.w3.org/2000/svg">
<path d="M14.4736 59.616C14.6028 60.3912 14.732 61.1664 14.8181 61.9847C14.8612 62.803 15.0335 64.6118 15.0335 65.0424C15.2919 68.8754 15.3349 72.6653 15.2919 76.4983H75.1552C75.1983 73.096 75.1552 69.6506 74.9829 66.2483C74.3369 54.491 72.0113 42.949 68.8243 31.7085C65.9388 21.6307 64.0008 20.2957 62.0628 9.91647C61.5891 7.28938 61.1584 4.61921 60.8138 1.94905C60.7708 1.64758 60.7277 1.34611 60.6846 1.04464C60.6846 0.958509 60.6846 0.872369 60.6416 0.743168C60.6416 0.657034 60.6416 0.613966 60.6416 0.527832H0.821289C1.29503 4.96375 1.81184 9.39967 2.50091 13.7925C4.18053 24.5162 5.94628 26.0667 9.00405 36.3597C10.5114 41.4416 11.9326 46.6097 13.0524 51.8208C13.5692 54.4479 14.086 57.032 14.4736 59.616Z" fill="#64B2BF"/>
<path d="M60.8568 21.803C57.8421 22.3198 54.7844 22.7505 51.7697 22.7505C50.2192 22.7505 48.9703 22.5351 47.5921 21.8461C46.8169 21.4154 46.0417 20.8555 45.1804 20.6832C43.8453 20.3818 42.4241 20.8986 41.1321 21.2862C39.7539 21.7169 37.3852 22.8797 35.9209 22.5351C33.7676 21.9753 36.1363 19.4774 35.4903 17.97C34.8873 16.5488 33.2077 16.3765 31.8726 16.4627C30.0207 16.5919 28.0827 17.1948 26.4031 18.0131C23.8621 19.219 21.4504 21.1139 18.5649 21.4154C17.7466 21.5015 17.7466 22.7935 18.5649 22.7074C23.4315 22.2337 27.1352 17.6255 32.131 17.7547C35.964 17.8408 32.777 20.8986 33.6814 22.6643C34.1552 23.6549 35.2319 23.8702 36.2224 23.8702C37.8159 23.8271 39.4524 23.1811 40.9598 22.7505C43.1993 22.0614 44.5344 21.7169 46.6447 22.9227C50.8652 25.2914 56.5932 23.9563 61.1583 23.1811C62.0196 22.9227 61.6751 21.6738 60.8568 21.803Z" fill="#FFE34F"/>
<path d="M46.8168 39.4605C44.1897 39.5035 41.6057 39.9773 38.9786 40.1495C36.5669 40.2787 33.3368 40.4941 31.528 38.513C30.1068 36.9626 29.8915 35.326 27.3936 35.6275C24.7665 35.972 22.3978 37.7809 21.0627 40.0204C20.632 40.7525 21.7518 41.3985 22.1824 40.6664C23.173 38.9867 24.7665 37.6947 26.6614 37.1348C28.6856 36.5319 29.0732 37.264 30.0637 38.6422C31.0543 40.0634 32.3894 40.8386 34.069 41.1832C38.2896 42.0876 42.6393 40.7956 46.8599 40.7525C47.6351 40.7094 47.6782 39.4174 46.8168 39.4605Z" fill="white"/>
<path d="M50.6926 57.7641C48.7546 57.678 46.8596 58.324 44.9647 58.6685C44.0172 58.8408 42.2514 59.3145 41.2609 58.8839C39.6243 58.1086 40.658 56.9889 40.8302 55.8261C41.1748 53.7158 39.7535 51.7778 37.5141 52.2515C34.887 52.7683 32.6475 55.3524 30.9248 57.2473C29.2882 59.0561 27.5225 61.0803 26.3597 63.3198C25.9721 64.0519 27.0918 64.6979 27.4794 63.9658C28.5561 61.8555 30.2357 59.9175 31.8292 58.1517C33.1212 56.7305 36.179 52.9406 38.4615 53.5005C41.2178 54.1895 37.4279 58.4532 39.9258 59.8744C43.0266 61.6402 47.3334 59.0131 50.5634 59.1423C51.5109 59.0561 51.5109 57.7641 50.6926 57.7641Z" fill="white"/>
<path d="M65.7662 69.6075C62.6223 69.4352 59.4353 69.7797 56.2914 69.8228C55.4732 69.8228 55.4732 71.1148 56.2914 71.1148C59.4353 71.0718 62.6223 70.7272 65.7662 70.8995C66.5845 70.9425 66.5845 69.6505 65.7662 69.6075Z" fill="white"/>
<path d="M20.8048 26.4111C20.8048 26.0666 20.5033 25.7651 20.1588 25.7651C18.2638 25.8082 17.101 27.4878 16.3258 29.2536C15.4214 30.5887 14.8615 32.2252 14.4308 33.6034C14.2586 34.1202 14.9046 34.637 15.3783 34.3355C16.1104 33.8187 16.7134 33.2158 17.2733 32.5697C19.3836 31.4069 20.8478 28.7798 20.8048 26.4111Z" fill="#FFEFD5"/>
<path d="M26.1876 47.0405C23.1298 43.9827 20.5888 52.2947 20.1581 54.0174C20.072 54.3188 20.2443 54.6203 20.5027 54.7926C20.5888 55.0079 20.8903 55.1802 21.1056 55.1802C22.8714 55.3524 24.4649 53.156 25.3262 51.9071C26.1445 50.7012 27.5226 48.3756 26.1876 47.0405ZM25.197 49.6245C25.2831 49.1938 25.3693 48.7201 25.3693 48.2894C25.3693 48.2033 25.3693 48.1602 25.3262 48.0741C25.5846 48.3756 25.4985 48.9354 25.197 49.6245Z" fill="#FFEFD5"/>
<path d="M16.4979 7.16012C16.4548 6.77252 16.1103 6.42798 15.6796 6.55718C15.292 6.64331 14.9475 6.85865 14.646 7.07399C13.0094 7.76306 12.2773 9.78721 11.8466 11.7252C11.3298 12.6727 10.9422 13.6633 10.7269 14.7399C10.6407 15.2137 11.0714 15.6874 11.5452 15.5151C11.6744 15.5151 11.7605 15.5152 11.8897 15.4721C12.0189 15.4721 12.1481 15.4721 12.2773 15.3859C14.8613 13.6202 16.8424 10.3902 16.4979 7.16012Z" fill="#FFEFD5"/>
<path d="M86.6543 84.5087C91.6501 89.6768 91.2194 91.4856 96.5167 87.1358C101.857 82.786 100.823 83.3459 95.0093 77.5749C89.2383 71.7608 86.6543 84.5087 86.6543 84.5087Z" fill="#FFE34F"/>
<path d="M86.3528 84.2503C86.4389 84.3365 86.5681 84.4226 86.6543 84.5087C89.4536 82.1831 92.253 79.9006 95.0524 77.5319C91.4347 74.3018 88.2477 70.6411 85.0177 67.1096C77.6102 58.9699 70.5041 50.5718 63.2688 42.2599L63.2257 42.2168L55.043 49.3659L55.086 49.409C62.106 57.4626 68.9967 65.6453 76.232 73.5697C79.5051 77.1873 82.6921 80.9342 86.3528 84.2503Z" fill="#000100"/>
<path d="M55.0431 49.366C52.416 40.4081 49.1429 34.7232 53.105 36.6612C57.0672 38.5992 63.1828 42.1738 63.1828 42.1738L55.0431 49.366Z" fill="#FF495D"/>
<path d="M48.5829 34.0771L52.5451 38.6423C53.105 39.2883 54.0525 38.4269 53.5357 37.7809L49.5735 33.2158C49.0136 32.6129 48.0231 33.4311 48.5829 34.0771Z" fill="#000100"/>
<path d="M5.9035 39.4606C3.19027 39.0299 1.03691 42.2169 0.433969 44.6717C0.218634 45.1885 0.089432 45.7484 0.00329773 46.3082C-0.0397694 46.6528 0.347835 46.9973 0.649305 46.9542C3.57787 46.6958 6.1619 42.8198 6.37724 40.0635C6.37724 39.8482 6.1619 39.5036 5.9035 39.4606Z" fill="#00AAD3"/>
<path d="M6.37677 49.1506C6.29064 48.72 5.77383 48.5908 5.4293 48.763C4.00808 49.366 3.01753 50.8733 2.50073 52.4668C2.41459 52.596 2.37153 52.7252 2.28539 52.8544C2.19926 52.9836 2.11313 53.3712 1.98392 53.6727L1.94085 53.7158C1.85472 53.845 1.72552 53.9311 1.63939 54.0603C1.33792 54.3618 1.42405 54.8355 1.76859 55.0939C1.76859 55.0939 1.76858 55.0939 1.81165 55.0939C1.81165 55.0939 1.81165 55.0939 1.85472 55.0939C1.94086 55.4385 2.24233 55.6968 2.62993 55.6107C5.12783 55.0939 6.93665 51.4332 6.37677 49.1506Z" fill="#00AAD3"/>
<path d="M91.0475 20.6833C88.2912 21.8892 85.5349 23.2243 82.5633 23.8703C81.1421 24.1718 79.0318 24.5163 77.869 23.3966C76.62 22.2338 77.3952 20.8987 77.0938 19.4775C76.62 17.0657 72.8732 17.6256 71.1505 17.9701C67.1453 18.7453 63.5707 21.1571 59.6085 22.0615C58.7902 22.2337 59.1348 23.4396 59.9531 23.3104C64.389 22.6644 67.4467 19.9943 71.495 19.2191C72.5287 19.0468 74.036 18.7884 75.0696 19.1329C76.1032 19.4775 75.8018 20.0804 75.7587 20.9417C75.7156 22.0615 75.931 23.1812 76.7062 24.0426C80.1515 28.0048 88.0759 23.3535 91.6935 21.8031C92.4688 21.4585 91.8227 20.3388 91.0475 20.6833Z" fill="#FFE34F"/>
</svg>
