<svg width="100" height="78" viewBox="0 0 100 78" fill="none" xmlns="http://www.w3.org/2000/svg">
<path d="M56.0733 5.49271C56.0733 2.97161 55.9472 0.828682 52.9639 0.618591C51.2832 0.492536 49.6025 0.534555 47.9217 0.534555C46.8292 0.534555 45.5687 0.576574 44.7283 1.3329C43.6359 2.29932 43.6779 3.89601 43.7199 5.19858C43.8039 7.42555 44.3922 9.98866 43.3838 12.0896C43.0476 12.8039 44.0981 13.4762 44.4762 12.7198C45.6107 10.3668 45.1065 7.71967 45.0225 5.19858C44.9384 3.30776 45.1905 1.92116 47.3335 1.7951C48.468 1.75308 49.6024 1.87914 50.6949 1.87914C51.6613 1.87914 53.0059 1.62703 53.8883 2.00519C55.2329 2.59345 54.8547 4.48427 54.8547 5.7028C54.8547 7.92977 55.443 11.6694 53.8043 13.3921C53.258 13.9804 54.1404 14.8628 54.6867 14.2745C56.6615 12.1736 56.0733 8.13986 56.0733 5.49271Z" fill="#00AAD3"/>
<path d="M39.2666 74.0664C39.1826 73.9824 39.0985 73.8563 39.0145 73.7303C38.7204 73.3521 38.4682 72.9739 38.2582 72.5537C38.1741 72.3857 38.0901 72.2596 38.006 72.0915C37.3758 70.789 37.0396 69.3603 37.0816 68.0998C37.0816 68.0578 37.0816 68.0158 37.0816 67.9738C37.0816 67.9317 37.0816 67.8477 37.0816 67.8057C38.0481 61.1248 45.2332 57.8894 51.5359 59.402C55.1495 60.2844 57.4605 62.7635 58.4689 65.4106C58.5109 65.5367 58.553 65.6627 58.595 65.8308C59.0572 67.3015 59.0572 68.8982 58.721 70.3688C58.679 70.5369 58.637 70.6629 58.595 70.831C58.3008 71.7554 57.8807 72.6378 57.2924 73.4361C57.2084 73.5622 57.0823 73.6882 56.9983 73.8563C56.41 74.6126 55.6537 75.3269 54.8554 75.9152C50.3174 79.4027 42.7541 78.1842 39.2666 74.0664Z" fill="#FFE34F"/>
<path d="M38.2576 72.5958C38.4677 73.0159 38.7198 73.3941 39.0139 73.7723C39.0979 73.8983 39.182 73.9824 39.266 74.1084C39.4761 74.3605 39.6862 74.6126 39.9383 74.8647C43.0056 72.3436 48.0058 70.915 51.8295 70.873C54.0564 70.873 56.3674 70.789 58.6364 70.789C58.6784 70.6629 58.7204 70.4949 58.7625 70.3688C59.1406 68.8982 59.0986 67.3015 58.6364 65.8308C58.5944 65.7048 58.5524 65.5787 58.5104 65.4106C57.5439 62.7635 55.1909 60.2424 51.5773 59.402C45.2746 57.8894 38.0895 61.1248 37.1231 67.8057C37.1231 67.8477 37.1231 67.9317 37.1231 67.9738C37.1231 68.0158 37.1231 68.0578 37.1231 68.0998C37.0811 69.3603 37.3752 70.747 38.0475 72.0915C38.0895 72.2596 38.1735 72.4277 38.2576 72.5958Z" fill="#FD7960"/>
<path d="M72.545 66.5453H22.2072C22.1652 59.1501 22.7534 51.7548 23.8879 44.8639C23.9719 44.3596 24.056 43.8554 24.14 43.3512C24.3921 41.8806 24.6863 40.494 25.0224 39.1074C26.5351 32.3424 28.678 26.3338 31.3672 21.8799C31.7873 21.2076 32.2075 20.5353 32.6277 19.863C33.258 18.8966 33.8882 18.0142 34.5185 17.1738C44.5609 3.98011 55.8218 5.28267 63.301 15.199C63.5531 15.5351 63.7632 15.8293 64.0153 16.1654C68.4693 22.6362 71.4105 32.2584 71.7887 43.7714C71.7887 44.3596 71.8307 44.9479 71.8307 45.5362C71.8307 46.2925 71.8727 47.0488 71.9148 47.7631C72.1248 54.6121 72.419 60.8308 72.545 66.5453Z" fill="#93D3C5"/>
<path d="M54.1406 59.8223C45.1907 58.2256 29.0557 61.3769 19.6436 63.856C9.68532 66.5032 6.95414 68.478 16.6183 68.478C35.4845 68.478 59.0147 68.478 72.5026 68.478C88.2594 68.478 91.6209 66.5452 54.1406 59.8223Z" fill="#93D3C5"/>
<path d="M72.4606 63.394C72.3346 58.5619 72.0824 53.3516 71.9144 47.8052C71.8723 47.0489 71.8724 46.3345 71.8303 45.5782C71.8303 44.99 71.7883 44.4017 71.7883 43.8134C71.2841 26.628 64.8973 13.5603 56.4937 9.1484C54.3087 8.05593 53.0482 7.80382 51.7876 7.63574C51.7036 7.71978 51.6616 7.84584 51.5775 7.92988C50.8632 8.85428 51.1574 9.48454 51.4515 10.577C51.5355 10.8291 51.5775 11.0392 51.6616 11.2493C51.6616 11.2913 51.7036 11.3754 51.7456 11.4174C51.8296 11.5855 51.8717 11.7955 51.9557 11.9636C51.9557 12.0056 51.9977 12.0477 51.9977 12.0897C52.0818 12.2998 52.1658 12.5099 52.2918 12.72C52.3339 12.762 52.3339 12.846 52.3759 12.888C52.4599 13.0561 52.544 13.1822 52.628 13.3502C52.67 13.3922 52.67 13.4763 52.712 13.5183C52.7961 13.7284 52.9221 13.8965 53.0482 14.0645C53.0902 14.1486 53.1322 14.2326 53.1742 14.3166C53.2583 14.4427 53.3003 14.5267 53.3843 14.6528C53.6785 15.157 53.9726 15.6192 54.2667 16.1234C54.6869 16.8377 55.1071 17.5521 55.4432 18.3084C56.6617 20.9555 57.6702 23.7287 58.4685 26.586C59.9812 32.0904 60.9056 37.9729 60.7795 43.6874C60.6955 46.7127 60.3173 49.738 60.1072 52.7633C59.9392 55.3685 59.7291 58.3518 60.4854 60.9149C60.5274 61.0409 60.5694 61.167 60.6115 61.293C60.6955 61.5452 60.7795 61.7552 60.8636 61.9653C60.9056 62.0074 60.9056 62.0914 60.9476 62.1334C61.0316 62.3015 61.1157 62.4695 61.1997 62.6376C61.2417 62.6796 61.2417 62.7217 61.2838 62.7637C61.4098 62.9738 61.5359 63.1839 61.6619 63.394C61.6619 63.436 61.7039 63.436 61.7039 63.478C61.83 63.6461 61.956 63.8562 62.0821 64.0242C62.1241 64.0662 62.1241 64.0662 62.1661 64.1083C63.3427 65.7049 64.8973 67.0495 66.368 68.4361H72.6287C85.0241 68.4782 89.6881 67.2596 72.4606 63.394Z" fill="#00AAD3"/>
<path d="M17.8793 26.2918C12.8792 34.1492 10.7362 43.9395 12.7531 53.0995C12.9212 53.8978 14.1397 53.5617 13.9716 52.7633C12.0388 43.9395 14.1397 34.4854 18.9298 26.9221C19.392 26.2498 18.2995 25.6195 17.8793 26.2918Z" fill="#FF495D"/>
<path d="M11.5342 14.9889C1.36578 25.7456 -1.15531 42.3848 0.441381 56.629C0.525418 57.4273 1.78597 57.4273 1.70193 56.629C0.147254 42.7629 2.50027 26.4178 12.4586 15.9133C12.9628 15.283 12.0804 14.4006 11.5342 14.9889Z" fill="#FF495D"/>
<path d="M79.4781 24.1488C78.9319 23.5606 78.0495 24.443 78.5957 25.0312C85.3186 32.1743 85.4027 42.5108 85.6968 51.7548C85.7388 52.5532 86.9994 52.5532 86.9573 51.7548C86.6212 42.1747 86.4531 31.5861 79.4781 24.1488Z" fill="#FF495D"/>
<path d="M88.1758 15.9975C87.6295 15.4092 86.7051 16.2916 87.2934 16.8798C98.6803 28.729 100.235 45.8304 97.7559 61.3772C97.6299 62.1755 98.8484 62.5117 98.9744 61.7133C101.496 45.7044 99.8988 28.2248 88.1758 15.9975Z" fill="#FF495D"/>
<path d="M34.938 49.5698C34.7279 49.1917 34.2657 49.1917 33.9296 49.4438C33.8876 49.4858 33.8455 49.5278 33.8035 49.5698C33.6355 49.6118 33.4674 49.6539 33.3833 49.8219C33.2573 49.99 33.1312 50.1581 33.0052 50.3262C32.2909 51.1245 31.7446 52.0069 31.3245 52.9733C30.9883 53.5616 30.6942 54.1498 30.4001 54.7381C29.8538 55.9146 28.9294 57.7214 29.7698 58.9399C29.9799 59.234 30.316 59.3601 30.6522 59.15C32.3329 58.2256 33.4674 56.1247 34.2657 54.4439C34.938 53.1414 35.8624 51.0405 34.938 49.5698ZM33.5514 51.7968C33.6775 51.5867 33.8035 51.4186 33.9296 51.2085C33.9716 51.1665 34.0136 51.0825 34.0977 51.0405C34.0977 51.4186 34.0136 51.8388 33.8876 52.259C33.8455 52.0909 33.7195 51.9228 33.5514 51.7968Z" fill="white"/>
<path d="M43.174 49.9901C43.09 49.5699 42.5858 49.4018 42.2496 49.6119C41.4092 50.0741 40.821 50.7464 40.3588 51.5448C38.9302 53.1835 37.3755 55.4945 37.5856 57.5114C37.5015 57.7215 37.5856 57.9736 37.7116 58.1416C37.7116 58.1837 37.7537 58.2677 37.7537 58.3097C37.8797 58.6459 38.1738 58.8139 38.51 58.7299C40.1487 58.3937 41.2832 56.4189 41.9555 55.0323C42.7118 53.5616 43.5942 51.6288 43.174 49.9901Z" fill="#FFEFD5"/>
<path d="M36.2826 36.8804C35.9044 37.0905 35.5683 37.3426 35.2741 37.6367C35.1901 37.6788 35.1061 37.7628 35.0641 37.8468C35.0641 37.8889 35.022 37.8889 35.022 37.9309C34.7279 38.309 34.4758 38.6872 34.3077 39.1494C33.2152 41.0822 32.2908 43.3092 32.1228 45.4101C32.0808 45.9984 32.8371 46.2085 33.2153 45.8723C33.3413 45.7463 33.4674 45.6202 33.5934 45.4942C33.8455 45.4942 34.0556 45.3681 34.1397 45.0319C34.1397 44.9479 34.1817 44.8639 34.1817 44.8219C35.8624 42.763 36.6607 40.1999 37.207 37.5947C37.333 37.0485 36.7868 36.6283 36.2826 36.8804Z" fill="white"/>
<path d="M64.0146 16.2073C62.3339 17.2578 60.6531 18.3082 59.0565 19.4427C54.5185 22.5521 49.6864 26.5858 44.0559 27.3421C42.5433 27.5522 39.518 27.8884 39.2659 25.7034C39.0137 23.7706 41.0726 21.5856 42.1651 20.199C43.1315 18.9805 44.098 17.846 45.0224 16.5855C45.6946 15.7031 46.7031 14.5686 46.9552 13.4341C47.5435 10.5348 42.2071 13.6442 41.3668 14.1484C38.3835 15.9552 35.6103 18.0561 32.585 19.8209C33.2152 18.8545 33.8455 17.9721 34.4758 17.1317C36.1985 15.9972 37.8793 14.7787 39.644 13.6862C41.4088 12.5517 44.0139 10.6609 46.2829 10.913C51.199 11.4592 45.4425 17.9721 44.3501 19.3587C43.4677 20.4932 42.5433 21.5856 41.7029 22.7622C41.3248 23.3504 40.3583 24.5269 40.4424 25.2832C40.7365 27.9304 48.2157 24.653 49.3502 24.0647C53.6781 21.7957 57.4177 18.6444 61.5775 16.1233C62.1238 15.7871 62.67 15.451 63.2163 15.1148C63.5524 15.535 63.7625 15.8712 64.0146 16.2073Z" fill="#FFEFD5"/>
</svg>
