<svg width="37" height="38" viewBox="0 0 37 38" fill="none" xmlns="http://www.w3.org/2000/svg">
<g clip-path="url(#clip0_801_4141)">
<path d="M30.833 6.91422H4.62467C3.77324 6.91422 3.08301 7.60445 3.08301 8.45589V11.5392C3.08301 12.3907 3.77324 13.0809 4.62467 13.0809H30.833C31.6844 13.0809 32.3747 12.3907 32.3747 11.5392V8.45589C32.3747 7.60445 31.6844 6.91422 30.833 6.91422Z" fill="#2F80ED"/>
<path opacity="0.3" fill-rule="evenodd" clip-rule="evenodd" d="M4.62467 16.1642H9.24967C10.1011 16.1642 10.7913 16.8545 10.7913 17.7059V30.0392C10.7913 30.8907 10.1011 31.5809 9.24967 31.5809H4.62467C3.77324 31.5809 3.08301 30.8907 3.08301 30.0392V17.7059C3.08301 16.8545 3.77324 16.1642 4.62467 16.1642ZM15.4163 16.1642H20.0413C20.8928 16.1642 21.583 16.8545 21.583 17.7059V30.0392C21.583 30.8907 20.8928 31.5809 20.0413 31.5809H15.4163C14.5649 31.5809 13.8747 30.8907 13.8747 30.0392V17.7059C13.8747 16.8545 14.5649 16.1642 15.4163 16.1642ZM26.208 16.1642H30.833C31.6844 16.1642 32.3747 16.8545 32.3747 17.7059V30.0392C32.3747 30.8907 31.6844 31.5809 30.833 31.5809H26.208C25.3566 31.5809 24.6663 30.8907 24.6663 30.0392V17.7059C24.6663 16.8545 25.3566 16.1642 26.208 16.1642Z" fill="#2F80ED"/>
</g>
<defs>
<clipPath id="clip0_801_4141">
<rect width="37" height="37" fill="white" transform="translate(0 0.747559)"/>
</clipPath>
</defs>
</svg>
