<svg width="37" height="38" viewBox="0 0 37 38" fill="none" xmlns="http://www.w3.org/2000/svg">
<g clip-path="url(#clip0_801_4101)">
<path opacity="0.3" d="M6.16683 34.6642H3.0835C3.0835 30.407 6.53463 28.4976 10.7918 28.4976H26.2085C30.4657 28.4976 33.9168 30.407 33.9168 34.6642H30.8335C30.8335 32.1099 28.7628 31.5809 26.2085 31.5809H10.7918C8.23751 31.5809 6.16683 32.1099 6.16683 34.6642Z" fill="#2F80ED"/>
<path d="M33.9165 22.3309H3.08317C2.23173 22.3309 1.5415 23.0211 1.5415 23.8726V30.0392C1.5415 30.8907 2.23173 31.5809 3.08317 31.5809H33.9165C34.7679 31.5809 35.4582 30.8907 35.4582 30.0392V23.8726C35.4582 23.0211 34.7679 22.3309 33.9165 22.3309Z" fill="#2F80ED"/>
<path opacity="0.3" fill-rule="evenodd" clip-rule="evenodd" d="M20.0417 20.7892H16.9583V19.2476C16.9583 18.3961 16.2681 17.7059 15.4167 17.7059H9.25C8.39856 17.7059 7.70833 18.3961 7.70833 19.2476V20.7892H6.16667C5.31523 20.7892 4.625 20.099 4.625 19.2476V13.0809C4.625 11.378 6.00546 9.99756 7.70833 9.99756H29.2917C30.9945 9.99756 32.375 11.378 32.375 13.0809V19.2476C32.375 20.099 31.6848 20.7892 30.8333 20.7892H29.2917V19.2476C29.2917 18.3961 28.6014 17.7059 27.75 17.7059H21.5833C20.7319 17.7059 20.0417 18.3961 20.0417 19.2476V20.7892Z" fill="#2F80ED"/>
</g>
<defs>
<clipPath id="clip0_801_4101">
<rect width="37" height="37" fill="white" transform="translate(0 0.747559)"/>
</clipPath>
</defs>
</svg>
