<svg width="37" height="38" viewBox="0 0 37 38" fill="none" xmlns="http://www.w3.org/2000/svg">
<g clip-path="url(#clip0_801_4075)">
<path opacity="0.3" fill-rule="evenodd" clip-rule="evenodd" d="M5.39551 5.37256H14.6455C15.9227 5.37256 16.958 6.4079 16.958 7.68506V29.2684C16.958 30.5456 15.9227 31.5809 14.6455 31.5809H5.39551C4.11835 31.5809 3.08301 30.5456 3.08301 29.2684V7.68506C3.08301 6.4079 4.11835 5.37256 5.39551 5.37256ZM13.8747 14.6226C13.0232 14.6226 12.333 15.3128 12.333 16.1642V19.2476C12.333 20.099 13.0232 20.7892 13.8747 20.7892C14.7261 20.7892 15.4163 20.099 15.4163 19.2476V16.1642C15.4163 15.3128 14.7261 14.6226 13.8747 14.6226Z" fill="#2F80ED"/>
<path fill-rule="evenodd" clip-rule="evenodd" d="M31.6045 5.37256H22.3545C21.0773 5.37256 20.042 6.4079 20.042 7.68506V29.2684C20.042 30.5456 21.0773 31.5809 22.3545 31.5809H31.6045C32.8817 31.5809 33.917 30.5456 33.917 29.2684V7.68506C33.917 6.4079 32.8817 5.37256 31.6045 5.37256ZM23.1253 14.6226C23.9768 14.6226 24.667 15.3128 24.667 16.1642V19.2476C24.667 20.099 23.9768 20.7892 23.1253 20.7892C22.2739 20.7892 21.5837 20.099 21.5837 19.2476V16.1642C21.5837 15.3128 22.2739 14.6226 23.1253 14.6226Z" fill="#2F80ED"/>
</g>
<defs>
<clipPath id="clip0_801_4075">
<rect width="37" height="37" fill="white" transform="translate(0 0.747559)"/>
</clipPath>
</defs>
</svg>
