<svg width="38" height="39" viewBox="0 0 38 39" fill="none" xmlns="http://www.w3.org/2000/svg">
<g clip-path="url(#clip0_801_4061)">
<path fill-rule="evenodd" clip-rule="evenodd" d="M21.189 33.5933V28.9304C21.189 28.072 20.4931 27.3761 19.6347 27.3761H18.0804C17.222 27.3761 16.5261 28.072 16.5261 28.9304V33.5933H7.97754V7.1704C7.97754 5.45358 9.36929 4.06183 11.0861 4.06183H26.629C28.3458 4.06183 29.7375 5.45358 29.7375 7.1704V33.5933H21.189ZM14.1947 7.1704C13.3363 7.1704 12.6404 7.86628 12.6404 8.72469V10.279C12.6404 11.1374 13.3363 11.8333 14.1947 11.8333H15.749C16.6074 11.8333 17.3033 11.1374 17.3033 10.279V8.72469C17.3033 7.86628 16.6074 7.1704 15.749 7.1704H14.1947ZM21.9661 7.1704C21.1077 7.1704 20.4118 7.86628 20.4118 8.72469V10.279C20.4118 11.1374 21.1077 11.8333 21.9661 11.8333H23.5204C24.3788 11.8333 25.0747 11.1374 25.0747 10.279V8.72469C25.0747 7.86628 24.3788 7.1704 23.5204 7.1704H21.9661ZM14.1947 13.3875C13.3363 13.3875 12.6404 14.0834 12.6404 14.9418V16.4961C12.6404 17.3545 13.3363 18.0504 14.1947 18.0504H15.749C16.6074 18.0504 17.3033 17.3545 17.3033 16.4961V14.9418C17.3033 14.0834 16.6074 13.3875 15.749 13.3875H14.1947ZM14.1947 19.6047C13.3363 19.6047 12.6404 20.3006 12.6404 21.159V22.7133C12.6404 23.5717 13.3363 24.2675 14.1947 24.2675H15.749C16.6074 24.2675 17.3033 23.5717 17.3033 22.7133V21.159C17.3033 20.3006 16.6074 19.6047 15.749 19.6047H14.1947ZM21.9661 19.6047C21.1077 19.6047 20.4118 20.3006 20.4118 21.159V22.7133C20.4118 23.5717 21.1077 24.2675 21.9661 24.2675H23.5204C24.3788 24.2675 25.0747 23.5717 25.0747 22.7133V21.159C25.0747 20.3006 24.3788 19.6047 23.5204 19.6047H21.9661Z" fill="#2F80ED"/>
<path d="M23.5207 13.3875H21.9664C21.108 13.3875 20.4121 14.0834 20.4121 14.9418V16.4961C20.4121 17.3545 21.108 18.0504 21.9664 18.0504H23.5207C24.3791 18.0504 25.075 17.3545 25.075 16.4961V14.9418C25.075 14.0834 24.3791 13.3875 23.5207 13.3875Z" fill="#2F80ED"/>
<path opacity="0.3" fill-rule="evenodd" clip-rule="evenodd" d="M6.42343 33.5933H31.292C32.1504 33.5933 32.8463 34.2891 32.8463 35.1475V35.7693C32.8463 36.2843 32.4288 36.7018 31.9137 36.7018H5.80171C5.28667 36.7018 4.86914 36.2843 4.86914 35.7693V35.1475C4.86914 34.2891 5.56502 33.5933 6.42343 33.5933Z" fill="#2F80ED"/>
</g>
<defs>
<clipPath id="clip0_801_4061">
<rect width="37.3029" height="37.3029" fill="white" transform="translate(0.206055 0.953278)"/>
</clipPath>
</defs>
</svg>
