<svg width="37" height="38" viewBox="0 0 37 38" fill="none" xmlns="http://www.w3.org/2000/svg">
<path opacity="0.3" d="M9.25033 31.5809H6.16699C6.16699 27.3237 9.61813 25.4142 13.8753 25.4142H23.1253C27.3825 25.4142 30.8337 27.3237 30.8337 31.5809H27.7503C27.7503 29.0266 25.6796 28.4976 23.1253 28.4976H13.8753C11.321 28.4976 9.25033 29.0266 9.25033 31.5809Z" fill="#2F80ED"/>
<path opacity="0.3" fill-rule="evenodd" clip-rule="evenodd" d="M35.4587 13.0809H32.6434C30.9406 13.0809 29.5601 14.4614 29.5601 16.1642V19.2476C29.5601 20.099 28.8699 20.7892 28.0184 20.7892H9.04924C8.1978 20.7892 7.50757 20.099 7.50757 19.2476V16.1642C7.50757 14.4614 6.12712 13.0809 4.42424 13.0809H1.54199C1.54199 10.5266 3.61268 8.4559 6.16699 8.4559H30.8337C33.388 8.4559 35.4587 10.5266 35.4587 13.0809Z" fill="#2F80ED"/>
<path fill-rule="evenodd" clip-rule="evenodd" d="M35.4587 16.1642V23.8726C35.4587 26.4269 33.388 28.4976 30.8337 28.4976H6.16699C3.61268 28.4976 1.54199 26.4269 1.54199 23.8726V16.1642H4.42424V19.2476C4.42424 21.8019 6.49492 23.8726 9.04924 23.8726H28.0184C30.5728 23.8726 32.6434 21.8019 32.6434 19.2476V16.1642H35.4587Z" fill="#2F80ED"/>
</svg>
