<svg width="37" height="38" viewBox="0 0 37 38" fill="none" xmlns="http://www.w3.org/2000/svg">
<g clip-path="url(#clip0_801_4154)">
<path opacity="0.3" fill-rule="evenodd" clip-rule="evenodd" d="M19.2708 30.0392C13.7365 30.0392 9.25 25.5527 9.25 20.0184C9.25 14.484 13.7365 9.99756 19.2708 9.99756C24.8052 9.99756 29.2917 14.484 29.2917 20.0184C29.2917 25.5527 24.8052 30.0392 19.2708 30.0392ZM19.2708 26.0309C22.5914 26.0309 25.2833 23.339 25.2833 20.0184C25.2833 16.6978 22.5914 14.0059 19.2708 14.0059C15.9502 14.0059 13.2583 16.6978 13.2583 20.0184C13.2583 23.339 15.9502 26.0309 19.2708 26.0309ZM19.2708 24.0267C17.0571 24.0267 15.2625 22.2321 15.2625 20.0184C15.2625 17.8047 17.0571 16.0101 19.2708 16.0101C21.4846 16.0101 23.2792 17.8047 23.2792 20.0184C23.2792 22.2321 21.4846 24.0267 19.2708 24.0267Z" fill="#2F80ED"/>
<path opacity="0.3" fill-rule="evenodd" clip-rule="evenodd" d="M33.9165 21.5601C34.3581 21.5601 34.7319 21.8863 34.7915 22.3238L35.6093 28.3208C35.7223 29.1492 35.1422 29.9124 34.3138 30.0253C34.246 30.0346 34.1777 30.0392 34.1092 30.0392C33.2345 30.0392 32.5254 29.3301 32.5254 28.4554C32.5254 28.4075 32.5276 28.3596 32.5319 28.312L33.0759 22.3277C33.1154 21.893 33.48 21.5601 33.9165 21.5601Z" fill="#2F80ED"/>
<path fill-rule="evenodd" clip-rule="evenodd" d="M32.375 8.45589V19.2476H37V13.0809C37 10.5266 34.9293 8.45589 32.375 8.45589Z" fill="#2F80ED"/>
<path fill-rule="evenodd" clip-rule="evenodd" d="M1.10119 8.45589L1.59866 13.5877C1.6288 13.8986 1.89006 14.1357 2.20238 14.1357C2.5147 14.1357 2.77597 13.8986 2.8061 13.5877L3.30357 8.45589H4.40476L4.90223 13.5877C4.93237 13.8986 5.19363 14.1357 5.50595 14.1357C5.81827 14.1357 6.07954 13.8986 6.10967 13.5877L6.60714 8.45589H7.70833V13.6894C7.70833 15.818 5.98276 17.5436 3.85417 17.5436C1.72557 17.5436 0 15.818 0 13.6894L0 8.45589H1.10119Z" fill="#2F80ED"/>
<path opacity="0.3" fill-rule="evenodd" clip-rule="evenodd" d="M3.85429 19.8155C4.47181 19.8155 4.98149 20.2985 5.01469 20.9151L5.41724 28.3898C5.46373 29.253 4.80166 29.9905 3.93846 30.0369C3.91043 30.0385 3.88236 30.0392 3.85429 30.0392C2.98984 30.0392 2.28906 29.3384 2.28906 28.474C2.28906 28.4459 2.28982 28.4178 2.29133 28.3898L2.69388 20.9151C2.72708 20.2985 3.23676 19.8155 3.85429 19.8155Z" fill="#2F80ED"/>
</g>
<defs>
<clipPath id="clip0_801_4154">
<rect width="37" height="37" fill="white" transform="translate(0 0.747559)"/>
</clipPath>
</defs>
</svg>
