<svg width="37" height="38" viewBox="0 0 37 38" fill="none" xmlns="http://www.w3.org/2000/svg">
<g clip-path="url(#clip0_801_4128)">
<path opacity="0.3" fill-rule="evenodd" clip-rule="evenodd" d="M6.10055 13.7208L17.6961 6.63465C18.1896 6.33306 18.8104 6.33306 19.3039 6.63465L30.8995 13.7208C31.816 14.2809 32.375 15.2777 32.375 16.3518V30.0393C32.375 31.7422 30.9946 33.1226 29.2917 33.1226L7.70833 33.1226C6.00545 33.1226 4.625 31.7422 4.625 30.0393C4.625 30.0393 4.625 30.0393 4.625 30.0393L4.62503 16.3518C4.62503 15.2777 5.18402 14.2809 6.10055 13.7208Z" fill="#2F80ED"/>
<path opacity="0.3" fill-rule="evenodd" clip-rule="evenodd" d="M21.2752 19.2476C20.2827 19.2476 19.122 20.3727 18.5002 21.0976C17.8784 20.3727 16.7177 19.2476 15.7252 19.2476C13.9683 19.2476 12.9502 20.6179 12.9502 22.362C12.9502 24.294 14.8002 26.3392 18.5002 28.4976C22.2002 26.3392 24.0502 24.3351 24.0502 22.4851C24.0502 20.741 23.0321 19.2476 21.2752 19.2476Z" fill="#2F80ED"/>
</g>
<defs>
<clipPath id="clip0_801_4128">
<rect width="37" height="37" fill="white" transform="translate(0 0.747559)"/>
</clipPath>
</defs>
</svg>
