<svg xmlns="http://www.w3.org/2000/svg" viewBox="0 0 64 64"><g id="Layer_32" data-name="Layer 32"><rect x="3" y="31" width="59" height="30" style="fill:#f97878"/><path d="M41.939,3.124a14.941,14.941,0,0,0-6.485.586,11.331,11.331,0,0,1-6.908,0,14.99,14.99,0,0,0-16.532,23.3,20.736,20.736,0,0,1,3.735,9.028c.807,4.711,1.886,11.005,2.575,15.023A4.745,4.745,0,0,0,23,55h0a4.745,4.745,0,0,0,4.676-3.942l2.487-14.509A1.863,1.863,0,0,1,32,35h0a1.863,1.863,0,0,1,1.837,1.549l2.487,14.509A4.745,4.745,0,0,0,41,55h0a4.738,4.738,0,0,0,4.675-3.937l2.577-15.032a20.719,20.719,0,0,1,3.734-9.024A14.99,14.99,0,0,0,41.939,3.124Z" style="fill:#c7ced1"/><path d="M25.621,27a7.1,7.1,0,0,0-6.932,8.429l.017.1L21.27,50.486a1.79,1.79,0,0,0,1.281,1.458,1.745,1.745,0,0,0,2.168-1.393l2.447-14.273a5.046,5.046,0,0,1,4.459-4.264,4.854,4.854,0,0,1,5.169,4.028l2.477,14.447a1.785,1.785,0,0,0,1.28,1.455,1.744,1.744,0,0,0,2.167-1.388L45.3,35.524l.016-.095A7.1,7.1,0,0,0,38.379,27Z" style="fill:#fcbe42"/><circle cx="57" cy="5" r="2" style="fill:#fcbe42"/><path d="M62,30H51.285a17.343,17.343,0,0,1,1.5-2.391A15.882,15.882,0,0,0,51.917,7.38l2.607-.69a3.013,3.013,0,1,0-.5-1.937l-3.247.859c-.175.047-.346.1-.52.15a15.853,15.853,0,0,0-8.192-3.631h0a15.914,15.914,0,0,0-6.917.627,10.388,10.388,0,0,1-6.3,0,15.887,15.887,0,0,0-6.887-.629A15.99,15.99,0,0,0,11.216,27.609,17.284,17.284,0,0,1,12.715,30H3a1,1,0,0,0-1,1V61a1,1,0,0,0,1,1H62a1,1,0,0,0,1-1V31A1,1,0,0,0,62,30ZM57,4a1,1,0,1,1-1,1A1,1,0,0,1,57,4ZM10.08,16.483A14.06,14.06,0,0,1,22.213,4.112a13.915,13.915,0,0,1,6.027.55,12.4,12.4,0,0,0,7.519,0,13.942,13.942,0,0,1,6.054-.546h0a13.77,13.77,0,0,1,6.114,2.375A38.71,38.71,0,0,0,25.944,26h-.323A7.977,7.977,0,0,0,19.5,28.85,8.3,8.3,0,0,0,17.72,35.7l2.565,14.958a2.781,2.781,0,0,0,2.024,2.259A2.816,2.816,0,0,0,23,53a2.718,2.718,0,0,0,1.5-.446,2.752,2.752,0,0,0,1.2-1.835l2.446-14.273A4.061,4.061,0,0,1,31.7,33.012a3.852,3.852,0,0,1,4.108,3.2l2.477,14.448a2.744,2.744,0,0,0,4.219,1.9,2.746,2.746,0,0,0,1.2-1.829L46.3,35.6A8.251,8.251,0,0,0,44.5,28.849,7.981,7.981,0,0,0,38.379,26H28.192A36.689,36.689,0,0,1,49.749,7.991a13.917,13.917,0,0,1,1.439,18.414,21.537,21.537,0,0,0-3.922,9.457L44.689,50.894a3.744,3.744,0,0,1-7.379,0L34.823,36.38a2.864,2.864,0,0,0-5.646,0L26.69,50.889a3.744,3.744,0,0,1-7.38,0L16.735,35.866a21.57,21.57,0,0,0-3.923-9.461A13.989,13.989,0,0,1,10.08,16.483ZM24,43a36.533,36.533,0,0,1,3.218-15H38.379a5.9,5.9,0,0,1,4.593,2.136,6.256,6.256,0,0,1,1.356,5.114l-.019.1L41.732,50.388a.724.724,0,0,1-.322.491.744.744,0,0,1-1.154-.559L37.78,35.873a5.837,5.837,0,0,0-6.23-4.856,6,6,0,0,0-5.37,5.092L23.733,50.382a.732.732,0,0,1-.325.5.747.747,0,0,1-.613.095.8.8,0,0,1-.539-.658L19.692,35.359l-.018-.1a6.257,6.257,0,0,1,1.354-5.121,5.892,5.892,0,0,1,4-2.105A38.54,38.54,0,0,0,22,43ZM61,60H4V32h9.617a22.114,22.114,0,0,1,1.146,4.2l2.575,15.023a5.745,5.745,0,0,0,11.324,0l2.487-14.509a.863.863,0,0,1,1.7,0l2.487,14.509a5.745,5.745,0,0,0,11.323,0L49.238,36.2A22.092,22.092,0,0,1,50.383,32H61Z"/></g></svg>