<svg width="37" height="37" viewBox="0 0 37 37" fill="none" xmlns="http://www.w3.org/2000/svg">
<g clip-path="url(#clip0_1063_23144)">
<path d="M36.4265 16.5824C36.8316 16.4975 37.087 16.0714 36.9726 15.6714C34.7942 7.5323 27.5584 1.78043 19.2232 1.46481V0.72555C19.2232 0.324901 18.8996 0 18.5005 0C18.1014 0 17.7779 0.324901 17.7779 0.72555V1.46481C9.4426 1.78043 2.20672 7.5323 0.0284738 15.6714C-0.169608 16.3955 0.712112 16.909 1.24031 16.379C3.31182 14.2184 7.03259 14.2213 9.1007 16.3853C9.3829 16.6686 9.84056 16.6686 10.1227 16.3853C12.1182 14.2985 15.6808 14.2087 17.7779 16.1835V22.2745C17.7779 22.6751 18.1014 23 18.5005 23C18.8996 23 19.2232 22.6751 19.2232 22.2745V16.1835C21.3203 14.2086 24.8829 14.2986 26.8783 16.3853C27.1605 16.6686 27.6181 16.6686 27.9003 16.3853C29.9682 14.2215 33.6882 14.2184 35.7599 16.3781C35.9308 16.5545 36.1862 16.6337 36.4265 16.5824ZM2.10757 14.0006C4.2296 8.7325 8.74595 4.82904 14.1541 3.44774C11.2548 6.32041 9.97708 9.87002 9.09095 14.5021C7.09943 13.1091 4.2817 12.9115 2.10757 14.0006ZM14.0561 13.2985C12.8313 13.2985 11.6545 13.6119 10.6165 14.2008C11.503 9.8714 13.5062 4.11662 17.7779 3.09389V14.3697C16.6732 13.672 15.3933 13.2985 14.0561 13.2985ZM19.2232 14.3697V3.09389C23.4927 4.11626 25.4968 9.86581 26.3846 14.2008C24.2311 12.9449 21.3138 13.012 19.2232 14.3697ZM27.9102 14.5021C27.0239 9.86995 25.7463 6.32055 22.847 3.44774C28.2551 4.82897 32.7714 8.73243 34.8935 14.0005C32.7192 12.9115 29.9017 13.1091 27.9102 14.5021Z" fill="#24BA96"/>
<path fill-rule="evenodd" clip-rule="evenodd" d="M18.5 37C22.6309 37 26 33.6196 26 29.475C25.6164 19.5069 11.3821 19.5097 11 29.475C11.0001 33.6196 14.3692 37 18.5 37Z" fill="#24BA96"/>
<path d="M18.8406 33C18.5619 33 18.2837 32.9466 18.0191 32.8399L17.6434 32.6883C17.2522 32.5305 17.0664 32.0936 17.2284 31.7126C17.3905 31.3316 17.839 31.1508 18.2302 31.3086L18.6059 31.46C18.7578 31.5213 18.9266 31.5207 19.081 31.4585C19.2353 31.3962 19.355 31.2804 19.4179 31.1324C19.5512 30.8377 19.3899 30.4581 19.0816 30.3415L18.3303 30.0384C17.2325 29.5953 16.7093 28.3652 17.1641 27.296C17.3838 26.7794 17.7982 26.3765 18.331 26.1616C18.8637 25.9466 19.4493 25.9462 19.9797 26.1601L20.3554 26.3116C20.7466 26.4693 20.9324 26.9063 20.7703 27.2873C20.6083 27.6684 20.1598 27.8493 19.7686 27.6914L19.3929 27.5399C19.2411 27.4787 19.0723 27.4791 18.9179 27.5414C18.7635 27.6037 18.6438 27.7195 18.5809 27.8674C18.4497 28.1759 18.6006 28.5307 18.9173 28.6585L19.6685 28.9615C20.7448 29.3702 21.2992 30.6737 20.8348 31.7039C20.6152 32.2204 20.2007 32.6233 19.6679 32.8383C19.4008 32.9461 19.1205 33 18.8406 33Z" fill="white"/>
<path d="M19 27C18.4477 27 18 26.7022 18 26.335V25.6608C18.0492 24.7794 19.9513 24.7801 20 25.6608V26.335C20 26.7022 19.5523 27 19 27Z" fill="white"/>
<path d="M19 34C18.4477 34 18 33.711 18 33.3545V32.6414C18.0492 31.7859 19.9513 31.7865 20 32.6414V33.3545C20 33.711 19.5523 34 19 34Z" fill="white"/>
</g>
<defs>
<clipPath id="clip0_1063_23144">
<rect width="37" height="37" fill="white"/>
</clipPath>
</defs>
</svg>
