<svg width="16" height="16" viewBox="0 0 16 16" fill="none" xmlns="http://www.w3.org/2000/svg">
<path d="M5.44305 0.000575571C5.28664 0.0127508 5.1492 0.0878317 5.07873 0.199565C4.99438 0.333873 4.91641 0.498745 4.80018 0.710926C4.68379 0.923234 4.53806 1.16687 4.35724 1.39287C3.99579 1.84475 3.5538 2.18274 2.97155 2.18274H0.457155V2.18261C0.20476 2.18261 4.70381e-05 2.34546 4.70381e-05 2.54634V6.54665C-0.00170682 6.64393 0.0456476 6.73778 0.131587 6.80715C0.217527 6.8764 0.334875 6.91546 0.457166 6.91546C0.579617 6.91546 0.696806 6.8764 0.782746 6.80715C0.868686 6.73778 0.916037 6.64393 0.914286 6.54665V2.90998H2.97137C3.9891 2.90998 4.68996 2.33303 5.12862 1.78492C5.34785 1.51085 5.51638 1.23171 5.64299 1.00077C5.71538 0.86874 5.73961 0.816741 5.78585 0.727965H10.2145C10.2607 0.816617 10.2849 0.86874 10.3573 1.00077C10.4839 1.23172 10.6523 1.51086 10.8717 1.78492C11.3102 2.33307 12.0112 2.90998 13.029 2.90998H15.086V8.00119C15.086 10.1609 13.8466 11.7872 12.3075 12.9901C10.8317 14.1435 9.10863 14.8621 8.00008 15.229C6.89166 14.8621 5.16858 14.1435 3.69309 12.9901C2.15385 11.7872 0.914368 10.1608 0.914368 8.00119C0.916122 7.90392 0.868767 7.81007 0.782828 7.74069C0.696888 7.67145 0.579698 7.63238 0.457248 7.63238C0.334957 7.63238 0.217609 7.67145 0.131669 7.74069C0.0457292 7.81007 -0.00162241 7.90392 0.000128627 8.00119C0.000128627 10.3841 1.38933 12.2093 3.05025 13.5073C4.71112 14.8054 6.63943 15.595 7.82867 15.9735C7.93852 16.0088 8.06161 16.0088 8.17146 15.9735C9.36091 15.595 11.2892 14.8054 12.9499 13.5073C14.6108 12.2093 16 10.3841 16 8.00119V2.54602C16 2.34525 15.7953 2.18242 15.5429 2.18242H13.0285C12.4462 2.18242 12.0042 1.84456 11.6428 1.39255C11.462 1.16655 11.3163 0.922909 11.1999 0.710605C11.0835 0.498297 11.0057 0.333431 10.9213 0.199243C10.8435 0.0773639 10.6861 0.000507124 10.5143 0.000380502H5.48564C5.47145 -0.000126834 5.4571 -0.000126834 5.44291 0.000380502L5.44305 0.000575571ZM6.58592 4.00088C6.35027 4.01864 6.17057 4.17628 6.17155 4.36462V6.54665H3.4287V6.54653C3.1763 6.54653 2.97159 6.70937 2.97159 6.91026V9.09229C2.97159 9.29306 3.17631 9.4559 3.4287 9.4559H6.17155V11.6379C6.17155 11.8387 6.37627 12.0015 6.62865 12.0015H9.37167C9.62406 12.0015 9.82877 11.8387 9.82877 11.6379V9.4559H12.5716C12.824 9.4559 13.0287 9.29305 13.0287 9.09229V6.91026C13.0287 6.70937 12.824 6.54653 12.5716 6.54653H9.82877V4.36449V4.36462C9.82877 4.16372 9.62405 4.00088 9.37167 4.00088H6.62865C6.61446 4.00038 6.60011 4.00038 6.58592 4.00088ZM7.08592 4.72822H8.91456V6.91025H8.9144C8.91456 7.11115 9.11912 7.27399 9.37167 7.27399H12.1145V8.72869H9.37167C9.11911 8.72869 8.91456 8.89141 8.9144 9.09229V11.2743H7.08577V9.09229H7.08592C7.08577 8.8914 6.8812 8.72869 6.62865 8.72869H3.88581V7.27399H6.62865C6.88121 7.27399 7.08576 7.11114 7.08592 6.91025V4.72822Z" fill="#24BA96"/>
</svg>
