<svg width="32" height="32" viewBox="0 0 32 32" fill="none" xmlns="http://www.w3.org/2000/svg">
<g clip-path="url(#clip0_801_1054)">
<path opacity="0.3" fill-rule="evenodd" clip-rule="evenodd" d="M14.1141 16L11.2856 18.8284C10.7649 19.3491 10.7649 20.1934 11.2856 20.7141C11.8063 21.2347 12.6506 21.2347 13.1713 20.7141L15.9997 17.8856L16.9425 18.8284C17.9839 19.8698 17.9839 21.5583 16.9425 22.5997L13.1713 26.3709C12.1299 27.4123 10.4414 27.4123 9.40002 26.3709L5.62878 22.5997C4.58738 21.5583 4.58738 19.8698 5.62878 18.8284L9.40002 15.0572C10.4414 14.0158 12.1299 14.0158 13.1713 15.0572L14.1141 16Z" fill="#006FFF"/>
<path fill-rule="evenodd" clip-rule="evenodd" d="M17.8859 16L20.7143 13.1716C21.235 12.6509 21.235 11.8066 20.7143 11.2859C20.1936 10.7653 19.3494 10.7653 18.8287 11.2859L16.0003 14.1144L15.0575 13.1716C14.0161 12.1302 14.0161 10.4417 15.0575 9.40033L18.8287 5.6291C19.8701 4.5877 21.5586 4.5877 22.6 5.6291L26.3712 9.40033C27.4126 10.4417 27.4126 12.1302 26.3712 13.1716L22.6 16.9428C21.5586 17.9842 19.8701 17.9842 18.8287 16.9428L17.8859 16Z" fill="#006FFF"/>
</g>
<defs>
<clipPath id="clip0_801_1054">
<rect width="32" height="32" fill="white"/>
</clipPath>
</defs>
</svg>
