<svg width="32" height="32" viewBox="0 0 32 32" fill="none" xmlns="http://www.w3.org/2000/svg">
<path fill-rule="evenodd" clip-rule="evenodd" d="M4 22.4933V12.3427H28V22.5747C28 26.76 25.3655 29.3333 21.1504 29.3333H10.8364C6.66081 29.3333 4 26.7067 4 22.4933ZM10.6125 19.2133C10.0066 19.2413 9.50604 18.76 9.47969 18.148C9.47969 17.5347 9.9539 17.028 10.5598 17C11.1526 17 11.64 17.468 11.6531 18.0667C11.6795 18.6813 11.2053 19.188 10.6125 19.2133ZM16.0263 19.2133C15.4204 19.2413 14.9199 18.76 14.8935 18.148C14.8935 17.5347 15.3677 17.028 15.9737 17C16.5664 17 17.0538 17.468 17.067 18.0667C17.0933 18.6813 16.6191 19.188 16.0263 19.2133ZM21.4007 24.12C20.7947 24.1067 20.3074 23.6 20.3074 22.9867C20.2942 22.3733 20.7816 21.868 21.3875 21.8547H21.4007C22.0198 21.8547 22.5203 22.3613 22.5203 22.9867C22.5203 23.6133 22.0198 24.12 21.4007 24.12ZM14.8935 22.9867C14.9199 23.6 15.4204 24.0813 16.0263 24.0533C16.6191 24.028 17.0933 23.5213 17.067 22.908C17.0538 22.308 16.5664 21.84 15.9737 21.84C15.3677 21.868 14.8935 22.3733 14.8935 22.9867ZM9.46652 22.9867C9.49287 23.6 9.99341 24.0813 10.5993 24.0533C11.1921 24.028 11.6663 23.5213 11.64 22.908C11.6268 22.308 11.1394 21.84 10.5467 21.84C9.94072 21.868 9.46652 22.3733 9.46652 22.9867ZM20.3205 18.1347C20.3205 17.5213 20.7947 17.028 21.4007 17.0147C21.9934 17.0147 22.4676 17.4933 22.494 18.0813C22.5071 18.6947 22.0329 19.2013 21.4402 19.2133C20.8342 19.2267 20.3337 18.76 20.3205 18.148V18.1347Z" fill="#006FFF"/>
<path opacity="0.4" d="M4.00488 12.3425C4.02201 11.5599 4.08787 10.0065 4.21169 9.50653C4.84396 6.69453 6.99105 4.90786 10.0602 4.6532H21.9417C24.9845 4.9212 27.1579 6.71987 27.7902 9.50653C27.9127 9.9932 27.9785 11.5585 27.9957 12.3425H4.00488Z" fill="#006FFF"/>
<path d="M11.0729 8.78663C11.6524 8.78663 12.0871 8.34796 12.0871 7.75996V3.69463C12.0871 3.10663 11.6524 2.66663 11.0729 2.66663C10.4933 2.66663 10.0586 3.10663 10.0586 3.69463V7.75996C10.0586 8.34796 10.4933 8.78663 11.0729 8.78663Z" fill="#006FFF"/>
<path d="M20.9264 8.78663C21.4928 8.78663 21.9406 8.34796 21.9406 7.75996V3.69463C21.9406 3.10663 21.4928 2.66663 20.9264 2.66663C20.3468 2.66663 19.9121 3.10663 19.9121 3.69463V7.75996C19.9121 8.34796 20.3468 8.78663 20.9264 8.78663Z" fill="#006FFF"/>
</svg>
