<svg width="32" height="32" viewBox="0 0 32 32" fill="none" xmlns="http://www.w3.org/2000/svg">
<path opacity="0.4" d="M21.788 2.66638H10.228C5.70797 2.66638 2.66797 5.83972 2.66797 10.5597V21.453C2.66797 26.1597 5.70797 29.333 10.228 29.333H21.788C26.308 29.333 29.3346 26.1597 29.3346 21.453V10.5597C29.3346 5.83972 26.308 2.66638 21.788 2.66638Z" fill="#006FFF"/>
<path d="M20.7656 21.0858C20.5909 21.0858 20.4149 21.0404 20.2536 20.9458L15.0189 17.8231C14.7176 17.6418 14.5322 17.3151 14.5322 16.9631V10.2338C14.5322 9.68176 14.9802 9.23376 15.5322 9.23376C16.0842 9.23376 16.5322 9.68176 16.5322 10.2338V16.3951L21.2789 19.2258C21.7522 19.5098 21.9082 20.1231 21.6256 20.5978C21.4376 20.9111 21.1056 21.0858 20.7656 21.0858Z" fill="#006FFF"/>
</svg>
