<svg xmlns="http://www.w3.org/2000/svg" viewBox="0 0 64 64"><g id="Layer_32" data-name="Layer 32"><rect x="3" y="29" width="58" height="16" style="fill:#f97878"/><path d="M18.928,19.085a4.947,4.947,0,0,0-3.809.842,1.929,1.929,0,0,1-2.238,0,4.988,4.988,0,0,0-7.766,2.984,5,5,0,0,0,1.022,4.256A8.475,8.475,0,0,1,7.81,30.95L8.7,35.49A1.872,1.872,0,0,0,10.539,37h0a1.87,1.87,0,0,0,1.815-1.417l.676-2.7a1,1,0,0,1,1.94,0l.676,2.7A1.87,1.87,0,0,0,17.461,37h0A1.872,1.872,0,0,0,19.3,35.49l.893-4.54a8.475,8.475,0,0,1,1.673-3.783,4.991,4.991,0,0,0-2.935-8.082Z" style="fill:#c7ced1"/><path d="M36.928,19.085a4.947,4.947,0,0,0-3.809.842,1.929,1.929,0,0,1-2.238,0,4.988,4.988,0,0,0-7.766,2.984,5,5,0,0,0,1.022,4.256A8.475,8.475,0,0,1,25.81,30.95l.893,4.54A1.872,1.872,0,0,0,28.539,37h0a1.87,1.87,0,0,0,1.815-1.417l.676-2.7a1,1,0,0,1,1.94,0l.676,2.7A1.87,1.87,0,0,0,35.461,37h0A1.872,1.872,0,0,0,37.3,35.49l.893-4.54a8.475,8.475,0,0,1,1.673-3.783,4.991,4.991,0,0,0-2.935-8.082Z" style="fill:#c7ced1"/><path d="M54.928,19.085a4.947,4.947,0,0,0-3.809.842,1.929,1.929,0,0,1-2.238,0,4.988,4.988,0,0,0-7.766,2.984,5,5,0,0,0,1.022,4.256A8.475,8.475,0,0,1,43.81,30.95l.893,4.54A1.872,1.872,0,0,0,46.539,37h0a1.87,1.87,0,0,0,1.815-1.417l.676-2.7a1,1,0,0,1,1.94,0l.676,2.7A1.87,1.87,0,0,0,53.461,37h0A1.872,1.872,0,0,0,55.3,35.49l.893-4.54a8.475,8.475,0,0,1,1.673-3.783,4.991,4.991,0,0,0-2.935-8.082Z" style="fill:#c7ced1"/><rect x="12" y="23" width="4" height="4" style="fill:#62b5e8"/><rect x="30" y="23" width="4" height="4" style="fill:#62b5e8"/><rect x="48" y="23" width="4" height="4" style="fill:#62b5e8"/><path d="M59.653,26H62V24H60a6.145,6.145,0,0,0-.132-1.3,5.99,5.99,0,0,0-9.327-3.59.929.929,0,0,1-1.072,0A5.966,5.966,0,0,0,41,20.7a5.968,5.968,0,0,0-8.464-1.583.929.929,0,0,1-1.072,0A5.966,5.966,0,0,0,23,20.7a5.968,5.968,0,0,0-8.464-1.583.929.929,0,0,1-1.072,0A5.988,5.988,0,0,0,4.137,22.7,6.145,6.145,0,0,0,4.005,24H2v2H4.347a5.975,5.975,0,0,0,1.018,1.8c.05.061.092.133.14.2H3a1,1,0,0,0-1,1V45a1,1,0,0,0,1,1H61a1,1,0,0,0,1-1V29a1,1,0,0,0-1-1H58.5c.049-.064.09-.136.14-.2A5.975,5.975,0,0,0,59.653,26ZM23,27.305a5.988,5.988,0,0,0,.365.5c.05.061.092.133.14.2H22.5c.049-.064.09-.136.14-.2A5.988,5.988,0,0,0,23,27.305Zm1.908-.774A4.091,4.091,0,0,1,24.562,26H29v1a1,1,0,0,0,1,1h4a1,1,0,0,0,1-1V26h4.438a4.091,4.091,0,0,1-.346.531,9.39,9.39,0,0,0-1.883,4.226l-.894,4.54a.871.871,0,0,1-1.7.044l-.675-2.7a2,2,0,0,0-3.879,0l-.676,2.7a.871.871,0,0,1-1.7-.044l-.894-4.539A9.389,9.389,0,0,0,24.908,26.531ZM31,26V24h2v2Zm9.635,1.8a5.988,5.988,0,0,0,.365-.5,5.988,5.988,0,0,0,.365.5c.05.061.092.133.14.2h-1.01C40.544,27.936,40.585,27.864,40.635,27.8Zm2.273-1.272A4.091,4.091,0,0,1,42.562,26H47v1a1,1,0,0,0,1,1h4a1,1,0,0,0,1-1V26h4.438a4.091,4.091,0,0,1-.346.531,9.39,9.39,0,0,0-1.883,4.226l-.894,4.54a.871.871,0,0,1-1.7.044l-.675-2.7a2,2,0,0,0-3.879,0l-.676,2.7a.871.871,0,0,1-1.7-.044l-.894-4.539A9.389,9.389,0,0,0,42.908,26.531ZM49,26V24h2v2Zm-3.75-5.932a3.972,3.972,0,0,1,3.048.671,2.916,2.916,0,0,0,3.4,0,3.983,3.983,0,0,1,3.048-.671h0a3.972,3.972,0,0,1,3.156,3.049A4.31,4.31,0,0,1,58,24H53V23a1,1,0,0,0-1-1H48a1,1,0,0,0-1,1v1H42a4.31,4.31,0,0,1,.091-.882A3.973,3.973,0,0,1,45.25,20.068Zm-18,0a3.973,3.973,0,0,1,3.048.671,2.916,2.916,0,0,0,3.4,0,3.982,3.982,0,0,1,3.048-.671h0a3.972,3.972,0,0,1,3.156,3.049A4.31,4.31,0,0,1,40,24H35V23a1,1,0,0,0-1-1H30a1,1,0,0,0-1,1v1H24a4.31,4.31,0,0,1,.091-.882A3.973,3.973,0,0,1,27.25,20.068ZM6.094,23.118a3.987,3.987,0,0,1,6.2-2.379,2.916,2.916,0,0,0,3.4,0,3.982,3.982,0,0,1,3.048-.671h0a3.972,3.972,0,0,1,3.156,3.049A4.31,4.31,0,0,1,22,24H17V23a1,1,0,0,0-1-1H12a1,1,0,0,0-1,1v1H6A4.31,4.31,0,0,1,6.094,23.118ZM15,24v2H13V24Zm-4,2v1a1,1,0,0,0,1,1h4a1,1,0,0,0,1-1V26h4.438a4.091,4.091,0,0,1-.346.531,9.39,9.39,0,0,0-1.883,4.226l-.894,4.54a.871.871,0,0,1-1.7.044l-.675-2.7a2,2,0,0,0-3.879,0l-.676,2.7a.871.871,0,0,1-1.7-.044l-.894-4.539a9.389,9.389,0,0,0-1.883-4.227A4.091,4.091,0,0,1,6.562,26Zm49,4V44H4V30H6.525a9.59,9.59,0,0,1,.3,1.144l.894,4.54a2.871,2.871,0,0,0,5.6.141l.676-2.7.676,2.7a2.871,2.871,0,0,0,5.6-.141l.894-4.541a9.573,9.573,0,0,1,.3-1.143h3.05a9.59,9.59,0,0,1,.3,1.144l.894,4.54a2.871,2.871,0,0,0,5.6.141l.676-2.7.676,2.7a2.871,2.871,0,0,0,5.6-.141l.894-4.541a9.573,9.573,0,0,1,.3-1.143h3.05a9.59,9.59,0,0,1,.3,1.144l.894,4.54a2.871,2.871,0,0,0,5.6.141l.676-2.7.676,2.7a2.871,2.871,0,0,0,5.6-.141l.894-4.541a9.573,9.573,0,0,1,.3-1.143Z"/></g></svg>