<svg xmlns="http://www.w3.org/2000/svg" viewBox="0 0 64 64"><g id="Layer_32" data-name="Layer 32"><rect x="3" y="41" width="58" height="20" style="fill:#f97878"/><rect x="20" y="9" width="24" height="10" style="fill:#c7ced1"/><rect x="20" y="5" width="41" height="4" style="fill:#62b5e8"/><circle cx="50" cy="19" r="2" style="fill:#62b5e8"/><circle cx="59" cy="15" r="2" style="fill:#62b5e8"/><circle cx="14" cy="17" r="2" style="fill:#62b5e8"/><circle cx="8" cy="11" r="2" style="fill:#62b5e8"/><path d="M24.753,27.17A8.957,8.957,0,0,0,19,27.947,8.993,8.993,0,0,0,8.81,42.53a7.556,7.556,0,0,1,2.214,4.684c.256,2.3.585,5.678.788,7.8A2.193,2.193,0,0,0,14,57h0a2.2,2.2,0,0,0,2.187-1.994l.752-8.125A2.072,2.072,0,0,1,19,45h0a2.072,2.072,0,0,1,2.063,1.881l.752,8.125A2.2,2.2,0,0,0,24,57h0a2.193,2.193,0,0,0,2.186-1.983c.2-2.124.532-5.5.788-7.8a7.57,7.57,0,0,1,2.217-4.691,9,9,0,0,0-4.44-15.357Z" style="fill:#c7ced1"/><path d="M50.753,27.17A8.957,8.957,0,0,0,45,27.947,8.993,8.993,0,0,0,34.81,42.53a7.556,7.556,0,0,1,2.214,4.684c.256,2.3.585,5.678.788,7.8A2.193,2.193,0,0,0,40,57h0a2.2,2.2,0,0,0,2.187-1.994l.752-8.125A2.072,2.072,0,0,1,45,45h0a2.072,2.072,0,0,1,2.063,1.881l.752,8.125A2.2,2.2,0,0,0,50,57h0a2.193,2.193,0,0,0,2.186-1.983c.2-2.124.532-5.5.788-7.8a7.57,7.57,0,0,1,2.217-4.691,9,9,0,0,0-4.44-15.357Z" style="fill:#c7ced1"/><path d="M52.982,28.178c0-.06.018-.117.018-.178a2.99,2.99,0,0,0-5.021-2.2,2.985,2.985,0,0,0-5.785-.829A2.992,2.992,0,0,0,37,27a3,3,0,1,0,2.806,4.033,2.985,2.985,0,0,0,4.694-.378,2.982,2.982,0,0,0,4.521.549,2.993,2.993,0,1,0,3.961-3.026Z" style="fill:#62b5e8"/><path d="M10.874,28.178c0-.06-.018-.117-.018-.178a2.989,2.989,0,0,1,5.02-2.2,2.986,2.986,0,0,1,5.786-.829A2.992,2.992,0,0,1,26.856,27a3,3,0,1,1-2.806,4.033,2.985,2.985,0,0,1-4.694-.378,2.982,2.982,0,0,1-4.521.549,2.993,2.993,0,1,1-3.961-3.026Z" style="fill:#62b5e8"/><path d="M61,40H58.158a9.952,9.952,0,0,0-4.232-12.689A4,4,0,0,0,50,24a3.938,3.938,0,0,0-1.412.262,3.975,3.975,0,0,0-6.685-.778A3.946,3.946,0,0,0,40,23a4.007,4.007,0,0,0-3.9,3.1A4.007,4.007,0,0,0,33,30l0,.017a9.892,9.892,0,0,0-1,1.652,10.022,10.022,0,0,0-1.163-1.87,4,4,0,0,0-3.084-3.7,4.008,4.008,0,0,0-3.9-3.1,3.963,3.963,0,0,0-1.9.488,3.975,3.975,0,0,0-6.688.774A3.943,3.943,0,0,0,13.855,24a4,4,0,0,0-3.946,3.408A9.95,9.95,0,0,0,5.842,40H3a1,1,0,0,0-1,1V61a1,1,0,0,0,1,1H61a1,1,0,0,0,1-1V41A1,1,0,0,0,61,40ZM37,28a1,1,0,0,0,1-1,2,2,0,0,1,2-2,1.971,1.971,0,0,1,1.46.647,1,1,0,0,0,1.672-.335,1.986,1.986,0,0,1,3.85.552,1,1,0,0,0,1.673.669A1.99,1.99,0,0,1,52,27.965c0,.025-.014.124-.016.148a1,1,0,0,0,.669,1.01,1.992,1.992,0,1,1-2.635,2.013,1,1,0,0,0-1.673-.669,2.039,2.039,0,0,1-3.012-.365,1.037,1.037,0,0,0-1.666,0,2.042,2.042,0,0,1-3.127.251,1,1,0,0,0-1.672.335A2,2,0,1,1,37,28Zm0,6a4,4,0,0,0,3.1-1.484,4.092,4.092,0,0,0,4.4-.394,4.059,4.059,0,0,0,3.912.616,3.983,3.983,0,0,0,7.469-.811,7.832,7.832,0,0,1,1.031,2.867A7.958,7.958,0,0,1,54.505,41.8a8.571,8.571,0,0,0-2.523,5.306c-.256,2.306-.586,5.686-.79,7.813a1.2,1.2,0,0,1-2.381-.007l-.752-8.125a3.072,3.072,0,0,0-6.118,0l-.752,8.125a1.2,1.2,0,0,1-2.381.007c-.2-2.128-.534-5.511-.79-7.817a8.563,8.563,0,0,0-2.52-5.3,7.954,7.954,0,0,1-2.41-7.009,7.768,7.768,0,0,1,.762-2.359A3.981,3.981,0,0,0,37,34ZM11.872,28.122c0-.028-.013-.095-.017-.122A1.99,1.99,0,0,1,15.2,26.533a1,1,0,0,0,1.673-.669,1.985,1.985,0,0,1,3.849-.552,1,1,0,0,0,1.672.335A1.972,1.972,0,0,1,23.855,25a2,2,0,0,1,2,2,1,1,0,0,0,1,1,2,2,0,1,1-1.867,2.688,1,1,0,0,0-1.672-.334,2.047,2.047,0,0,1-3.128-.252,1.037,1.037,0,0,0-1.666,0,2.04,2.04,0,0,1-3.011.365,1,1,0,0,0-1.674.669A1.993,1.993,0,1,1,11.2,29.123,1,1,0,0,0,11.872,28.122ZM7.088,34.8a7.8,7.8,0,0,1,.936-2.709,3.976,3.976,0,0,0,7.419.652,4.056,4.056,0,0,0,3.912-.617,4.08,4.08,0,0,0,4.4.391,3.973,3.973,0,0,0,6.338-.183,7.766,7.766,0,0,1,.818,2.465A7.958,7.958,0,0,1,28.505,41.8a8.571,8.571,0,0,0-2.523,5.306c-.256,2.306-.586,5.686-.79,7.813a1.2,1.2,0,0,1-2.381-.007l-.752-8.125a3.072,3.072,0,0,0-6.118,0l-.752,8.125a1.2,1.2,0,0,1-2.381.007c-.2-2.128-.534-5.511-.79-7.817A8.563,8.563,0,0,0,9.5,41.8,7.954,7.954,0,0,1,7.088,34.8ZM60,60H4V42H7.018a10.193,10.193,0,0,0,1.1,1.256,6.567,6.567,0,0,1,1.908,4.069c.255,2.3.584,5.666.786,7.787A3.2,3.2,0,0,0,17.18,55.1l.753-8.126a1.072,1.072,0,0,1,2.134,0L20.82,55.1a3.2,3.2,0,0,0,6.364.013c.2-2.12.531-5.487.785-7.783a6.587,6.587,0,0,1,1.912-4.076A10.054,10.054,0,0,0,32,40.376a10.022,10.022,0,0,0,2.122,2.88,6.567,6.567,0,0,1,1.908,4.069c.255,2.3.584,5.666.786,7.787A3.2,3.2,0,0,0,43.18,55.1l.753-8.126a1.072,1.072,0,0,1,2.134,0L46.82,55.1a3.2,3.2,0,0,0,6.364.013c.2-2.12.531-5.487.785-7.783a6.587,6.587,0,0,1,1.912-4.076A10.133,10.133,0,0,0,56.981,42H60Z"/><path d="M61,4H20a1,1,0,0,0-1,1V19a1,1,0,0,0,1,1H44a1,1,0,0,0,1-1V10H61a1,1,0,0,0,1-1V5A1,1,0,0,0,61,4ZM21,10h2v8H21Zm18,0v8H37V10Zm-4,8H33V10h2Zm-4,0H29V10h2Zm-4,0H25V10h2Zm16,0H41V10h2ZM60,8H21V6H60Z"/><path d="M53,19a3,3,0,1,0-3,3A3,3,0,0,0,53,19Zm-4,0a1,1,0,1,1,1,1A1,1,0,0,1,49,19Z"/><path d="M59,12a3,3,0,1,0,3,3A3,3,0,0,0,59,12Zm0,4a1,1,0,1,1,1-1A1,1,0,0,1,59,16Z"/><path d="M14,20a3,3,0,1,0-3-3A3,3,0,0,0,14,20Zm0-4a1,1,0,1,1-1,1A1,1,0,0,1,14,16Z"/><path d="M8,14a3,3,0,1,0-3-3A3,3,0,0,0,8,14Zm0-4a1,1,0,1,1-1,1A1,1,0,0,1,8,10Z"/></g></svg>