<svg xmlns="http://www.w3.org/2000/svg" viewBox="0 0 64 64"><g id="Layer_32" data-name="Layer 32"><polygon points="61 9 32 11 32 5 61 3 61 9" style="fill:#62b5e8"/><path d="M36,12l6.657,6.657A8,8,0,0,1,45,24.314V29a6,6,0,0,1-6,6h0V25.815a4,4,0,0,0-1.366-3.01L31,17Z" style="fill:#44a7d8"/><path d="M37.428,24.142A7.005,7.005,0,0,0,32,25.26a7,7,0,0,0-9.164,10.462,8.456,8.456,0,0,1,2.272,4.694l.685,5.821A2,2,0,0,0,27.778,48h.444a2,2,0,0,0,1.986-1.766l.741-6.3A1.058,1.058,0,0,1,32,39h0a1.058,1.058,0,0,1,1.051.935l.741,6.3A2,2,0,0,0,35.778,48h.444a2,2,0,0,0,1.985-1.763l.685-5.821a8.456,8.456,0,0,1,2.272-4.694,7,7,0,0,0-3.736-11.58Z" style="fill:#c7ced1"/><path d="M28,12l-6.657,6.657A8,8,0,0,0,19,24.314V29a6,6,0,0,0,6,6h0V25.815a4,4,0,0,1,1.366-3.01L33,17Z" style="fill:#62b5e8"/><path d="M39.738,15A8,8,0,1,0,32,21H61V15Z" style="fill:#62b5e8"/><circle cx="32" cy="13" r="4" style="fill:#44a7d8"/><path d="M43,41v6a8,8,0,0,1-8,8H29a8,8,0,0,1-8-8V41H3V61H61V41Z" style="fill:#f97878"/><path d="M62,9V3a1,1,0,0,0-.318-.731A1.017,1.017,0,0,0,60.931,2l-29,2h0A8.963,8.963,0,0,0,23.3,15.281L20.636,17.95A8.937,8.937,0,0,0,18,24.313V29a6.99,6.99,0,0,0,2.91,5.669l-.015.008a7.97,7.97,0,0,0,1.2,1.72,7.481,7.481,0,0,1,2.017,4.136l.684,5.821A3,3,0,0,0,27.778,49h.444A3,3,0,0,0,31.2,46.351l.741-6.3-.993-.117,1.109.117.741,6.3A3,3,0,0,0,35.778,49h.444A3,3,0,0,0,39.2,46.354l.684-5.821A7.481,7.481,0,0,1,41.9,36.4,7.97,7.97,0,0,0,43.09,34.68,7.019,7.019,0,0,0,46,29V24.313A8.945,8.945,0,0,0,45.687,22H61a1,1,0,0,0,1-1V15a1,1,0,0,0-1-1H40.941A8.677,8.677,0,0,0,41,13a8.96,8.96,0,0,0-.152-1.607L61.069,10A1,1,0,0,0,62,9ZM20,29V24.313a6.954,6.954,0,0,1,2.05-4.949L24.1,17.311A9.07,9.07,0,0,0,27.3,20.66l-1.59,1.392A5,5,0,0,0,24,25.815V33.9A5.008,5.008,0,0,1,20,29Zm15.2-7,1.16,1.015A7.951,7.951,0,0,0,32,24.074a7.951,7.951,0,0,0-4.354-1.06l1.639-1.435A8.961,8.961,0,0,0,32,22Zm5.232,13.046A9.462,9.462,0,0,0,37.9,40.3l-.685,5.821a1,1,0,0,1-.992.88h-.444a1,1,0,0,1-.993-.884l-.741-6.3a2.058,2.058,0,0,0-4.088,0l-.741,6.3a1,1,0,0,1-.993.884h-.444a1,1,0,0,1-.992-.88L26.1,40.3a9.125,9.125,0,0,0-1.78-4.333c.224.021.45.034.679.034a1,1,0,0,0,1-1V25.815a2.949,2.949,0,0,1,.052-.479,5.75,5.75,0,0,1,.716-.213,6.012,6.012,0,0,1,4.66.957,1,1,0,0,0,1.144,0,6,6,0,0,1,7.855,8.966ZM44,24.313V29a5.009,5.009,0,0,1-.083.858c0-.028,0-.056-.008-.084a7.946,7.946,0,0,0-4.32-5.919,5,5,0,0,0-1.3-1.8L38.233,22H43.6A6.939,6.939,0,0,1,44,24.313ZM60,16v4H32a7,7,0,1,1,7-7,7.094,7.094,0,0,1-.23,1.751A1,1,0,0,0,39.738,16Zm0-7.934L40.257,9.428a9.047,9.047,0,0,0-3.086-3.782L60,4.071Z"/><path d="M32,8a5,5,0,1,0,5,5A5.006,5.006,0,0,0,32,8Zm0,8a3,3,0,1,1,3-3A3,3,0,0,1,32,16Z"/><path d="M61,40H43a1,1,0,0,0-1,1v6a7.008,7.008,0,0,1-7,7H29a7.008,7.008,0,0,1-7-7V41a1,1,0,0,0-1-1H3a1,1,0,0,0-1,1V61a1,1,0,0,0,1,1H61a1,1,0,0,0,1-1V41A1,1,0,0,0,61,40ZM60,60H4V42H20v5a9.01,9.01,0,0,0,9,9h6a9.01,9.01,0,0,0,9-9V42H60Z"/></g></svg>