<svg width="60" height="61" viewBox="0 0 60 61" fill="none" xmlns="http://www.w3.org/2000/svg">
<path opacity="0.4" fill-rule="evenodd" clip-rule="evenodd" d="M44.3415 15.9887C48.6097 19.2832 52.244 24.1099 54.8537 30.1463C55.0487 30.6045 55.0487 31.1403 54.8537 31.5765C49.6342 43.6493 40.3415 50.8735 30 50.8735H29.9755C19.6585 50.8735 10.3658 43.6493 5.14634 31.5765C4.95122 31.1403 4.95122 30.6045 5.14634 30.1463C10.3658 18.0711 19.6585 10.8735 29.9755 10.8735H30C35.1707 10.8735 40.0732 12.6675 44.3415 15.9887ZM20.2439 30.8735C20.2439 36.2068 24.6097 40.5463 30 40.5463C35.3657 40.5463 39.7317 36.2068 39.7317 30.8735C39.7317 25.516 35.3657 21.1766 30 21.1766C24.6097 21.1766 20.2439 25.516 20.2439 30.8735Z" fill="#2F80ED"/>
<path d="M36.077 30.8657C36.077 34.187 33.3452 36.9022 30.0037 36.9022C26.638 36.9022 23.9062 34.187 23.9062 30.8657C23.9062 30.4537 23.955 30.0682 24.0282 29.6802H24.1501C26.8575 29.6802 29.0527 27.547 29.1502 24.8778C29.4185 24.8318 29.7112 24.8051 30.0037 24.8051C33.3452 24.8051 36.077 27.5202 36.077 30.8657Z" fill="#2F80ED"/>
</svg>
