<svg width="60" height="61" viewBox="0 0 60 61" fill="none" xmlns="http://www.w3.org/2000/svg">
<path opacity="0.4" d="M5.00049 28.5698C5.12549 34.4148 5.47549 44.4123 5.52549 45.5148C5.70299 47.8723 6.60549 50.2548 8.01049 51.9348C9.96549 54.2923 12.373 55.3448 15.7305 55.3448C20.3705 55.3698 25.4855 55.3698 30.453 55.3698C35.4405 55.3698 40.2805 55.3698 44.368 55.3448C47.678 55.3448 50.1605 54.2648 52.0905 51.9348C53.4955 50.2548 54.398 47.8473 54.5255 45.5148C54.5755 44.5873 54.8255 33.7348 54.9755 28.5698H5.00049Z" fill="#2F80ED"/>
<path d="M28.1133 39.3339V42.5689C28.1133 43.6039 28.9533 44.4439 29.9883 44.4439C31.0233 44.4439 31.8633 43.6039 31.8633 42.5689V39.3339C31.8633 38.2989 31.0233 37.4589 29.9883 37.4589C28.9533 37.4589 28.1133 38.2989 28.1133 39.3339Z" fill="#2F80ED"/>
<path fill-rule="evenodd" clip-rule="evenodd" d="M25.528 37.2645C25.278 38.172 24.4055 38.752 23.4605 38.627C17.083 37.737 10.988 35.4745 5.84299 32.077C5.31549 31.732 5.00049 31.142 5.00049 30.512V21.847C5.00049 16.597 9.28049 12.327 14.543 12.327H19.4605C19.9305 8.69695 23.0055 5.87445 26.7605 5.87445H33.2155C36.968 5.87445 40.0455 8.69695 40.5155 12.327H45.458C50.7055 12.327 54.9755 16.597 54.9755 21.847V30.512C54.9755 31.142 54.658 31.7295 54.1355 32.077C48.9805 35.4895 42.8605 37.762 36.4405 38.6495C36.353 38.662 36.268 38.667 36.183 38.667C35.3355 38.667 34.578 38.0945 34.3655 37.2545C33.8605 35.2645 32.053 33.872 29.9755 33.872C27.8705 33.872 26.083 35.2345 25.528 37.2645ZM33.2155 9.62445H26.7605C25.078 9.62445 23.673 10.7745 23.253 12.327H36.7205C36.3005 10.7745 34.8955 9.62445 33.2155 9.62445Z" fill="#2F80ED"/>
</svg>
