<svg width="60" height="61" viewBox="0 0 60 61" fill="none" xmlns="http://www.w3.org/2000/svg">
<path opacity="0.25" d="M50 47.8737V17.4736L34.1285 7.91113V7.91111C32.6277 7.00693 31.8775 6.55486 31.076 6.37826C30.3673 6.22206 29.6327 6.22206 28.924 6.37826C28.1225 6.55486 27.3723 7.00696 25.8715 7.91113L10 17.4736V47.8737C10 50.6739 10 52.0739 10.545 53.1437C11.0243 54.0844 11.7892 54.8494 12.7301 55.3287C13.7996 55.8737 15.1997 55.8737 18 55.8737H42C44.8002 55.8737 46.2005 55.8737 47.27 55.3287C48.2108 54.8494 48.9757 54.0844 49.455 53.1437C50 52.0739 50 50.6739 50 47.8737Z" fill="#2F80ED"/>
<path fill-rule="evenodd" clip-rule="evenodd" d="M2.85665 24.6596C3.567 25.8436 5.10265 26.2275 6.2866 25.5171L30.0003 11.2889L53.7141 25.5171C54.8981 26.2275 56.4338 25.8436 57.1441 24.6596C57.8546 23.4757 57.4706 21.94 56.2866 21.2297L32.5728 7.00142C30.9896 6.05137 29.0113 6.05137 27.4278 7.00142L3.71413 21.2297C2.53018 21.94 2.14627 23.4757 2.85665 24.6596Z" fill="#2F80ED"/>
<path d="M22.5 40.8735C22.5 36.7313 25.8577 33.3735 30 33.3735C34.1423 33.3735 37.5 36.7313 37.5 40.8735V55.8735H22.5V40.8735Z" fill="#2F80ED"/>
</svg>
