<svg width="45" height="44" viewBox="0 0 45 44" fill="none" xmlns="http://www.w3.org/2000/svg">
<path d="M8.40541 15.6019C10.0472 22.0133 9.81013 23.5792 3.59497 26.8554L3.8715 27.3808C10.3248 24.153 11.3357 25.1279 15.8719 29.7873L16.3972 29.5109C13.3242 23.6635 15.1425 21.5968 20.6823 18.5338L20.4058 18.0084C13.576 21.5967 13.4334 19.7428 8.40541 15.6019Z" fill="#3A0CA3"/>
<path d="M28.4011 4.42335C30.0425 10.8352 29.8053 12.4012 23.5904 15.678L23.8669 16.2034C30.3199 12.9751 31.3307 13.95 35.8663 18.6095L36.3916 18.333C33.3191 12.4853 35.1374 10.4184 40.6769 7.35484L40.4005 6.82943C33.571 10.4183 33.4285 8.56434 28.4011 4.42335Z" fill="#FF5722"/>
<path d="M28.4011 24.4234C30.0425 30.8352 29.8053 32.4012 23.5904 35.678L23.8669 36.2034C30.3199 32.9751 31.3307 33.95 35.8663 38.6095L36.3916 38.333C33.3191 32.4853 35.1374 30.4184 40.6769 27.3548L40.4005 26.8294C33.571 30.4183 33.4285 28.5643 28.4011 24.4234Z" fill="#FF87AB"/>
</svg>
