<svg width="256" height="56" viewBox="0 0 256 56" fill="none" xmlns="http://www.w3.org/2000/svg">
<path d="M223.876 4.78296C220.622 4.84105 217.357 4.41263 214.103 4.07135C202.074 2.80064 190.102 0.636803 177.96 1.18139C175.534 1.29031 173.085 0.520622 170.641 0.527885C166.073 0.556927 161.509 0.941765 156.94 1.0289C148.936 1.18864 140.938 1.24675 132.934 1.33389C118.892 1.50815 104.851 1.64611 90.8091 1.8349C77.4313 2.02369 64.0535 2.24879 50.6696 2.4521C44.9556 2.53924 39.2299 2.38676 33.5275 2.74982C25.8753 3.23632 18.2334 4.06409 10.5922 4.88461C8.99916 5.05161 7.45179 5.785 5.30302 6.44577C4.83248 9.49547 4.42465 12.1313 3.86889 15.7183C3.57975 16.1177 2.74641 17.2722 1.98186 18.3324C1.89056 18.8624 1.74873 19.2473 1.77186 19.6249C2.04943 24.8892 1.82299 30.0737 0.156318 35.0549C0.0936195 35.2364 -0.0196033 35.4325 0.0029193 35.6068C0.603724 40.6751 -0.858416 46.0411 1.51072 50.848C1.99769 51.8501 2.55345 52.9102 3.30217 53.5928C4.02167 54.2608 5.03153 54.7981 5.91539 54.8127C7.53641 54.8272 9.16352 54.4569 10.7791 54.1591C19.3504 52.5835 27.9833 52.097 36.6398 51.9082C44.474 51.7412 52.2967 51.3345 60.1254 51.1094C63.7193 51.0005 67.3071 51.0514 70.907 51.015C85.2771 50.8916 99.6635 51.2111 114.017 50.4995C131.489 49.6282 148.959 50.0275 166.425 49.7516C172.779 49.6572 179.138 50.5358 185.504 50.7682C195.311 51.1167 205.011 52.6779 214.75 53.9486C219.268 54.5367 223.797 55.0958 228.399 54.8998C233.281 54.6892 238.183 55.3209 243.076 55.517C249.084 55.7566 251.908 52.0171 252.77 44.7849C253.807 36.1151 254.555 27.4815 254.623 18.7172C254.646 15.6675 255.485 12.6396 256 9.2486C252.792 7.53495 249.459 6.25698 245.876 5.88666C238.558 5.13149 231.228 4.67404 223.876 4.78296Z" fill="#99CDFF"/>
</svg>
