<svg width="301" height="54" viewBox="0 0 301 54" fill="none" xmlns="http://www.w3.org/2000/svg">
<path d="M263.229 4.17751C259.403 4.23454 255.564 3.81392 251.738 3.47885C237.595 2.23124 223.518 0.106739 209.242 0.64143C206.389 0.748367 203.51 -0.00732803 200.637 -0.000198364C195.265 0.0283203 189.9 0.406158 184.527 0.491707C175.116 0.648552 165.712 0.705597 156.301 0.791149C139.791 0.96225 123.282 1.09769 106.772 1.28305C91.0422 1.46841 75.3129 1.68942 59.5764 1.88903C52.8579 1.97459 46.1258 1.82488 39.421 2.18134C30.4237 2.65899 21.4385 3.47171 12.4541 4.27731C10.581 4.44128 8.76168 5.16133 6.23519 5.81009C5.68194 8.80434 5.20242 11.3922 4.54897 14.9141C4.209 15.3062 3.22918 16.4397 2.33024 17.4806C2.22288 18.001 2.05612 18.3788 2.08332 18.7496C2.40969 23.9182 2.14344 29.0085 0.183795 33.8991C0.110076 34.0773 -0.0230492 34.2698 0.00343245 34.4409C0.709848 39.4171 -1.00931 44.6855 1.77627 49.405C2.34885 50.3889 3.00229 51.4297 3.88263 52.0999C4.72861 52.7558 5.91598 53.2833 6.95521 53.2976C8.86117 53.3118 10.7743 52.9483 12.6738 52.656C22.7519 51.1089 32.9022 50.6313 43.0804 50.4459C52.2918 50.2819 61.4895 49.8827 70.6943 49.6617C74.9199 49.5548 79.1384 49.6047 83.3712 49.569C100.267 49.4478 117.182 49.7615 134.059 49.0628C154.602 48.2073 175.143 48.5995 195.679 48.3285C203.15 48.2359 210.628 49.0985 218.113 49.3266C229.644 49.6688 241.048 51.2016 252.499 52.4492C257.811 53.0267 263.136 53.5756 268.548 53.3831C274.287 53.1764 280.052 53.7966 285.804 53.9891C292.869 54.2244 296.188 50.5528 297.202 43.4522C298.421 34.9399 299.301 26.4633 299.381 17.8584C299.408 14.8642 300.395 11.8913 301 8.56196C297.228 6.87947 293.309 5.62473 289.097 5.26114C280.492 4.51971 271.874 4.07057 263.229 4.17751Z" fill="#D1FAE0"/>
</svg>
