<svg width="201" height="55" viewBox="0 0 201 55" fill="none" xmlns="http://www.w3.org/2000/svg">
<path d="M175.777 4.24025C173.223 4.29729 170.659 3.87666 168.104 3.54159C158.66 2.29398 149.26 0.169483 139.726 0.704174C137.821 0.811111 135.898 0.0554161 133.98 0.0625458C130.393 0.0910645 126.81 0.468903 123.223 0.554451C116.938 0.711296 110.658 0.768341 104.374 0.853893C93.349 1.02499 82.3244 1.16044 71.2993 1.3458C60.7956 1.53116 50.292 1.75216 39.7836 1.95178C35.2971 2.03733 30.8016 1.88762 26.3243 2.24408C20.3161 2.72174 14.3161 3.53446 8.31652 4.34006C7.06575 4.50403 5.85082 5.22408 4.1637 5.87283C3.79425 8.86709 3.47404 11.455 3.03768 14.9768C2.81066 15.3689 2.15636 16.5024 1.55607 17.5433C1.48438 18.0637 1.37302 18.4416 1.39119 18.8123C1.60913 23.981 1.43133 29.0712 0.122734 33.9618C0.073506 34.14 -0.0153916 34.3325 0.0022921 34.5036C0.474018 39.4798 -0.673991 44.7483 1.18615 49.4678C1.5685 50.4516 2.00485 51.4925 2.59272 52.1626C3.15764 52.8185 3.95054 53.3461 4.64451 53.3603C5.91726 53.3746 7.1948 53.011 8.46325 52.7187C15.1931 51.1717 21.9712 50.694 28.768 50.5087C34.9191 50.3447 41.0611 49.9454 47.2078 49.7244C50.0296 49.6175 52.8466 49.6674 55.6731 49.6318C66.9558 49.5106 78.2514 49.8242 89.5212 49.1256C103.239 48.2701 116.956 48.6622 130.669 48.3913C135.659 48.2986 140.652 49.1612 145.65 49.3894C153.35 49.7316 160.965 51.2643 168.612 52.512C172.159 53.0894 175.716 53.6384 179.329 53.4459C183.162 53.2391 187.011 53.8594 190.852 54.0519C195.57 54.2871 197.787 50.6156 198.464 43.5149C199.278 35.0027 199.865 26.5261 199.919 17.9212C199.937 14.9269 200.596 11.954 201 8.6247C198.481 6.94221 195.864 5.68748 193.051 5.32389C187.305 4.58245 181.55 4.13332 175.777 4.24025Z" fill="#99CDFF"/>
</svg>
