<svg width="405" height="101" viewBox="0 0 405 101" fill="none" xmlns="http://www.w3.org/2000/svg">
<path d="M354.178 7.81395C349.031 7.92062 343.865 7.1339 338.718 6.50719C319.688 4.17371 300.747 0.200104 281.538 1.20016C277.699 1.40018 273.825 -0.0132446 269.96 8.39233e-05C262.732 0.053421 255.513 0.760124 248.284 0.920135C235.622 1.21349 222.968 1.32019 210.305 1.48019C188.091 1.80022 165.878 2.05356 143.663 2.40025C122.499 2.74693 101.335 3.16029 80.1609 3.53365C71.1211 3.69366 62.063 3.41366 53.0415 4.08037C40.9355 4.97376 28.8458 6.49385 16.7572 8.00062C14.237 8.3073 11.789 9.65406 8.38954 10.8675C7.64513 16.4678 6.99993 21.3082 6.1207 27.8953C5.66327 28.6286 4.34491 30.7488 3.13537 32.6956C2.99092 33.669 2.76654 34.3757 2.80314 35.0691C3.24227 44.7364 2.88402 54.257 0.247299 63.4043C0.148109 63.7376 -0.031013 64.0977 0.00461842 64.4177C0.955111 73.725 -1.35804 83.5789 2.39 92.4062C3.16041 94.2463 4.03963 96.1931 5.22414 97.4465C6.36241 98.6733 7.96004 99.66 9.35834 99.6867C11.9228 99.7133 14.497 99.0333 17.0528 98.4866C30.613 95.5931 44.2704 94.6997 57.9654 94.353C70.3593 94.0463 82.735 93.2996 95.1203 92.8862C100.806 92.6862 106.482 92.7796 112.177 92.7129C134.911 92.4862 157.671 93.0729 180.379 91.7661C208.019 90.166 235.657 90.8994 263.289 90.3927C273.342 90.2194 283.402 91.8328 293.474 92.2595C308.989 92.8996 324.333 95.7664 339.741 98.0999C346.888 99.18 354.054 100.207 361.335 99.8467C369.058 99.46 376.814 100.62 384.553 100.98C394.059 101.42 398.526 94.553 399.889 81.2721C401.53 65.3511 402.714 49.4967 402.822 33.4023C402.858 27.8019 404.185 22.2416 405 16.0145C399.925 12.8676 394.651 10.5208 388.984 9.84074C377.406 8.45399 365.81 7.61394 354.178 7.81395Z" fill="#D1FAE0"/>
</svg>
