<svg width="75" height="94" viewBox="0 0 75 94" fill="none" xmlns="http://www.w3.org/2000/svg">
<g opacity="0.4">
<g clip-path="url(#clip0_801_1061)">
<path fill-rule="evenodd" clip-rule="evenodd" d="M5.02345 72.5271C6.69059 71.933 8.44494 71.1435 9.79781 70.0005C11.4046 68.6428 12.058 66.8943 12.4969 65.0537C13.0602 62.6891 13.2854 60.1701 13.9685 57.8016C14.2214 56.9221 14.7082 56.5896 14.9171 56.4421C15.445 56.0693 15.9786 55.9697 16.4807 56.0071C17.0757 56.0502 17.893 56.2753 18.4305 57.2728C18.5072 57.4155 18.6068 57.633 18.6738 57.931C18.7227 58.1494 18.7543 58.8326 18.8061 59.1143C18.9354 59.8079 19.0437 60.5017 19.1453 61.1992C19.4835 63.5207 19.678 65.4925 20.7463 67.6253C22.1959 70.5207 23.6485 72.2923 25.6184 73.077C27.5231 73.8358 29.8006 73.6931 32.7104 73.0981C32.9873 73.031 33.2613 72.9735 33.5324 72.9266C34.8154 72.7024 36.0418 73.5446 36.2938 74.8227C36.5457 76.0999 35.7304 77.3445 34.459 77.6252C34.1936 77.6837 33.932 77.7392 33.6733 77.79C29.7412 78.7635 25.1891 82.2376 22.5437 85.2797C21.7283 86.2177 20.5345 88.84 19.3168 90.5129C18.418 91.747 17.4082 92.5605 16.5602 92.8479C15.9921 93.0414 15.513 93.0118 15.1173 92.914C14.5424 92.7722 14.0653 92.4608 13.6993 91.9654C13.5 91.6943 13.3151 91.3312 13.2269 90.8674C13.1848 90.6442 13.18 90.077 13.181 89.8202C12.9328 88.9666 12.6291 88.133 12.4077 87.2716C11.8798 85.2164 10.8441 83.9153 9.61384 82.1964C8.46313 80.5877 7.22719 79.5769 5.41538 78.7702C5.17968 78.7127 3.2778 78.247 2.60615 77.9797C1.62504 77.5878 1.15745 76.9315 0.987859 76.578C0.699463 75.9782 0.669788 75.4541 0.727275 75.0172C0.812548 74.3724 1.1019 73.8205 1.61546 73.375C1.93355 73.0981 2.40879 72.8288 3.04498 72.6976C3.5365 72.5951 4.84045 72.5357 5.02345 72.5271ZM16.1808 69.1774C16.269 69.3738 16.3629 69.5712 16.4625 69.7705C18.5857 74.0112 20.9599 76.3787 23.8458 77.5275L23.9426 77.5649C22.012 78.9982 20.2643 80.6002 18.9287 82.1361C18.3787 82.7684 17.6506 84.082 16.864 85.4292C16.1492 83.1057 14.9803 81.4635 13.5105 79.4083C12.3876 77.8399 11.211 76.6595 9.76524 75.6975C10.8872 75.1217 11.9574 74.4471 12.8897 73.6596C14.4418 72.3479 15.468 70.8283 16.1808 69.1774Z" fill="white"/>
</g>
<g clip-path="url(#clip1_801_1061)">
<path fill-rule="evenodd" clip-rule="evenodd" d="M42.3906 41.8457C44.0578 41.2516 45.8121 40.4621 47.165 39.3191C48.7718 37.9614 49.4252 36.2129 49.8641 34.3723C50.4274 32.0077 50.6525 29.4887 51.3357 27.1202C51.5886 26.2407 52.0754 25.9082 52.2843 25.7607C52.8122 25.3879 53.3458 25.2883 53.8479 25.3257C54.4429 25.3688 55.2602 25.5939 55.7977 26.5914C55.8744 26.7341 55.974 26.9516 56.041 27.2496C56.0899 27.468 56.1215 28.1512 56.1733 28.4329C56.3026 29.1265 56.4109 29.8203 56.5124 30.5178C56.8507 32.8393 57.0452 34.8111 58.1135 36.9439C59.5631 39.8393 61.0157 41.6109 62.9856 42.3956C64.8903 43.1544 67.1677 43.0117 70.0776 42.4167C70.3545 42.3496 70.6285 42.2921 70.8996 42.2452C72.1825 42.021 73.409 42.8632 73.6609 44.1413C73.9129 45.4185 73.0976 46.6631 71.8262 46.9438C71.5608 47.0023 71.2992 47.0578 71.0405 47.1086C67.1083 48.0821 62.5563 51.5562 59.9109 54.5983C59.0955 55.5363 57.9017 58.1587 56.684 59.8315C55.7852 61.0656 54.7754 61.8791 53.9274 62.1665C53.3593 62.36 52.8802 62.3304 52.4845 62.2326C51.9096 62.0908 51.4325 61.7794 51.0665 61.284C50.8672 61.0129 50.6823 60.6498 50.5941 60.186C50.5519 59.9628 50.5472 59.3956 50.5481 59.1389C50.3 58.2852 49.9963 57.4516 49.7749 56.5902C49.247 54.535 48.2113 53.2339 46.981 51.515C45.8303 49.9063 44.5944 48.8955 42.7826 48.0888C42.5469 48.0313 40.645 47.5656 39.9733 47.2983C38.9922 46.9065 38.5246 46.2501 38.355 45.8966C38.0667 45.2968 38.037 44.7727 38.0945 44.3358C38.1797 43.691 38.4691 43.1391 38.9826 42.6936C39.3007 42.4167 39.776 42.1475 40.4122 42.0162C40.9037 41.9137 42.2076 41.8543 42.3906 41.8457ZM53.548 38.496C53.6362 38.6924 53.7301 38.8898 53.8297 39.0891C55.9529 43.3298 58.3271 45.6973 61.213 46.8461L61.3098 46.8835C59.3792 48.3168 57.6315 49.9188 56.2959 51.4547C55.7459 52.087 55.0178 53.4006 54.2312 54.7478C53.5164 52.4243 52.3475 50.7821 50.8777 48.7269C49.7548 47.1585 48.5782 45.9781 47.1324 45.0161C48.2544 44.4403 49.3246 43.7657 50.2569 42.9782C51.809 41.6665 52.8352 40.1469 53.548 38.496Z" fill="white"/>
</g>
<g clip-path="url(#clip2_801_1061)">
<path fill-rule="evenodd" clip-rule="evenodd" d="M5.02345 17.0771C6.69059 16.4831 8.44494 15.6936 9.79781 14.5505C11.4046 13.1929 12.058 11.4443 12.4969 9.60375C13.0602 7.23911 13.2854 4.72017 13.9685 2.35169C14.2214 1.47213 14.7082 1.13965 14.9171 0.992103C15.445 0.619393 15.9786 0.519768 16.4807 0.557135C17.0757 0.60025 17.893 0.825394 18.4305 1.8228C18.5072 1.96556 18.6068 2.18307 18.6738 2.48104C18.7227 2.6995 18.7543 3.38262 18.8061 3.66431C18.9354 4.35799 19.0437 5.0517 19.1453 5.74921C19.4835 8.07075 19.678 10.0425 20.7463 12.1753C22.1959 15.0708 23.6485 16.8423 25.6184 17.627C27.5231 18.3859 29.8006 18.2432 32.7104 17.6482C32.9873 17.5811 33.2613 17.5236 33.5324 17.4766C34.8154 17.2524 36.0418 18.0946 36.2938 19.3728C36.5457 20.6499 35.7304 21.8945 34.459 22.1753C34.1936 22.2337 33.932 22.2893 33.6733 22.3401C29.7412 23.3135 25.1891 26.7877 22.5437 29.8297C21.7283 30.7677 20.5345 33.3901 19.3168 35.063C18.418 36.297 17.4082 37.1105 16.5602 37.3979C15.9921 37.5915 15.513 37.5618 15.1173 37.4641C14.5424 37.3223 14.0653 37.0108 13.6993 36.5155C13.5 36.2443 13.3151 35.8812 13.2269 35.4175C13.1848 35.1942 13.18 34.6271 13.181 34.3703C12.9328 33.5166 12.6291 32.683 12.4077 31.8217C11.8798 29.7665 10.8441 28.4653 9.61384 26.7465C8.46313 25.1378 7.22719 24.127 5.41538 23.3202C5.17968 23.2627 3.2778 22.7971 2.60615 22.5298C1.62504 22.1379 1.15745 21.4816 0.987859 21.128C0.699463 20.5282 0.669788 20.0042 0.727275 19.5673C0.812548 18.9225 1.1019 18.3706 1.61546 17.9251C1.93355 17.6482 2.40879 17.3789 3.04498 17.2476C3.5365 17.1451 4.84045 17.0857 5.02345 17.0771ZM16.1808 13.7275C16.269 13.9239 16.3629 14.1213 16.4625 14.3206C18.5857 18.5612 20.9599 20.9288 23.8458 22.0776L23.9426 22.1149C22.012 23.5483 20.2643 25.1503 18.9287 26.6861C18.3787 27.3185 17.6506 28.6321 16.864 29.9792C16.1492 27.6558 14.9803 26.0135 13.5105 23.9584C12.3876 22.3899 11.211 21.2095 9.76524 20.2476C10.8872 19.6717 11.9574 18.9972 12.8897 18.2096C14.4418 16.8979 15.468 15.3783 16.1808 13.7275Z" fill="white"/>
</g>
</g>
<defs>
<clipPath id="clip0_801_1061">
<rect width="37.3668" height="37.3668" fill="white" transform="translate(0.265625 55.9998)"/>
</clipPath>
<clipPath id="clip1_801_1061">
<rect width="37.3668" height="37.3668" fill="white" transform="translate(37.6328 25.3184)"/>
</clipPath>
<clipPath id="clip2_801_1061">
<rect width="37.3668" height="37.3668" fill="white" transform="translate(0.265625 0.549805)"/>
</clipPath>
</defs>
</svg>
