<svg width="75" height="93" viewBox="0 0 75 93" fill="none" xmlns="http://www.w3.org/2000/svg">
<g opacity="0.4">
<g clip-path="url(#clip0_801_1777)">
<path fill-rule="evenodd" clip-rule="evenodd" d="M5.02345 72.062C6.69059 71.4679 8.44494 70.6784 9.79781 69.5354C11.4046 68.1777 12.058 66.4292 12.4969 64.5886C13.0602 62.224 13.2854 59.705 13.9685 57.3366C14.2214 56.457 14.7082 56.1245 14.9171 55.977C15.445 55.6043 15.9786 55.5046 16.4807 55.542C17.0757 55.5851 17.893 55.8103 18.4305 56.8077C18.5072 56.9504 18.6068 57.1679 18.6738 57.4659C18.7227 57.6844 18.7543 58.3675 18.8061 58.6492C18.9354 59.3429 19.0437 60.0366 19.1453 60.7341C19.4835 63.0556 19.678 65.0274 20.7463 67.1602C22.1959 70.0556 23.6485 71.8272 25.6184 72.6119C27.5231 73.3707 29.8006 73.228 32.7104 72.633C32.9873 72.566 33.2613 72.5084 33.5324 72.4615C34.8154 72.2373 36.0418 73.0795 36.2938 74.3576C36.5457 75.6348 35.7304 76.8794 34.459 77.1601C34.1936 77.2186 33.932 77.2741 33.6733 77.3249C29.7412 78.2984 25.1891 81.7726 22.5437 84.8146C21.7283 85.7526 20.5345 88.375 19.3168 90.0478C18.418 91.2819 17.4082 92.0954 16.5602 92.3828C15.9921 92.5763 15.513 92.5467 15.1173 92.4489C14.5424 92.3071 14.0653 91.9957 13.6993 91.5004C13.5 91.2292 13.3151 90.8661 13.2269 90.4023C13.1848 90.1791 13.18 89.6119 13.181 89.3552C12.9328 88.5015 12.6291 87.6679 12.4077 86.8065C11.8798 84.7513 10.8441 83.4502 9.61384 81.7313C8.46313 80.1226 7.22719 79.1118 5.41538 78.3051C5.17968 78.2476 3.2778 77.7819 2.60615 77.5146C1.62504 77.1228 1.15745 76.4664 0.987859 76.1129C0.699463 75.5131 0.669788 74.989 0.727275 74.5521C0.812548 73.9073 1.1019 73.3554 1.61546 72.9099C1.93355 72.633 2.40879 72.3638 3.04498 72.2325C3.5365 72.13 4.84045 72.0706 5.02345 72.062ZM16.1808 68.7123C16.269 68.9088 16.3629 69.1061 16.4625 69.3054C18.5857 73.5461 20.9599 75.9136 23.8458 77.0624L23.9426 77.0998C22.012 78.5331 20.2643 80.1351 18.9287 81.671C18.3787 82.3033 17.6506 83.6169 16.864 84.9641C16.1492 82.6406 14.9803 80.9984 13.5105 78.9432C12.3876 77.3748 11.211 76.1944 9.76524 75.2324C10.8872 74.6566 11.9574 73.9821 12.8897 73.1945C14.4418 71.8828 15.468 70.3632 16.1808 68.7123Z" fill="#0F1826"/>
</g>
<g clip-path="url(#clip1_801_1777)">
<path fill-rule="evenodd" clip-rule="evenodd" d="M42.3906 41.3803C44.0578 40.7863 45.8121 39.9968 47.165 38.8537C48.7718 37.4961 49.4252 35.7475 49.8641 33.907C50.4274 31.5423 50.6525 29.0234 51.3357 26.6549C51.5886 25.7754 52.0754 25.4429 52.2843 25.2953C52.8122 24.9226 53.3458 24.823 53.8479 24.8604C54.4429 24.9035 55.2602 25.1286 55.7977 26.126C55.8744 26.2688 55.974 26.4863 56.041 26.7843C56.0899 27.0027 56.1215 27.6858 56.1733 27.9675C56.3026 28.6612 56.4109 29.3549 56.5124 30.0524C56.8507 32.374 57.0452 34.3458 58.1135 36.4785C59.5631 39.374 61.0157 41.1456 62.9856 41.9303C64.8903 42.6891 67.1677 42.5464 70.0776 41.9514C70.3545 41.8843 70.6285 41.8268 70.8996 41.7799C72.1825 41.5557 73.409 42.3979 73.6609 43.676C73.9129 44.9532 73.0976 46.1978 71.8262 46.4785C71.5608 46.5369 71.2992 46.5925 71.0405 46.6433C67.1083 47.6167 62.5563 51.0909 59.9109 54.133C59.0955 55.071 57.9017 57.6933 56.684 59.3662C55.7852 60.6003 54.7754 61.4137 53.9274 61.7012C53.3593 61.8947 52.8802 61.865 52.4845 61.7673C51.9096 61.6255 51.4325 61.3141 51.0665 60.8187C50.8672 60.5476 50.6823 60.1844 50.5941 59.7207C50.5519 59.4975 50.5472 58.9303 50.5481 58.6735C50.3 57.8198 49.9963 56.9862 49.7749 56.1249C49.247 54.0697 48.2113 52.7686 46.981 51.0497C45.8303 49.441 44.5944 48.4302 42.7826 47.6235C42.5469 47.566 40.645 47.1003 39.9733 46.833C38.9922 46.4411 38.5246 45.7848 38.355 45.4312C38.0667 44.8315 38.037 44.3074 38.0945 43.8705C38.1797 43.2257 38.4691 42.6738 38.9826 42.2283C39.3007 41.9514 39.776 41.6821 40.4122 41.5509C40.9037 41.4483 42.2076 41.389 42.3906 41.3803ZM53.548 38.0307C53.6362 38.2271 53.7301 38.4245 53.8297 38.6238C55.9529 42.8645 58.3271 45.232 61.213 46.3808L61.3098 46.4181C59.3792 47.8515 57.6315 49.4535 56.2959 50.9893C55.7459 51.6217 55.0178 52.9353 54.2312 54.2824C53.5164 51.959 52.3475 50.3168 50.8777 48.2616C49.7548 46.6931 48.5782 45.5127 47.1324 44.5508C48.2544 43.975 49.3246 43.3004 50.2569 42.5128C51.809 41.2012 52.8352 39.6815 53.548 38.0307Z" fill="#0F1826"/>
</g>
<g clip-path="url(#clip2_801_1777)">
<path fill-rule="evenodd" clip-rule="evenodd" d="M5.02345 16.6118C6.69059 16.0177 8.44494 15.2282 9.79781 14.0852C11.4046 12.7275 12.058 10.979 12.4969 9.13842C13.0602 6.77377 13.2854 4.25484 13.9685 1.88635C14.2214 1.0068 14.7082 0.674322 14.9171 0.526771C15.445 0.154061 15.9786 0.0544359 16.4807 0.0918027C17.0757 0.134918 17.893 0.360062 18.4305 1.35747C18.5072 1.50023 18.6068 1.71773 18.6738 2.01571C18.7227 2.23416 18.7543 2.91729 18.8061 3.19898C18.9354 3.89266 19.0437 4.58637 19.1453 5.28388C19.4835 7.60542 19.678 9.57721 20.7463 11.71C22.1959 14.6054 23.6485 16.377 25.6184 17.1617C27.5231 17.9205 29.8006 17.7778 32.7104 17.1828C32.9873 17.1158 33.2613 17.0583 33.5324 17.0113C34.8154 16.7871 36.0418 17.6293 36.2938 18.9074C36.5457 20.1846 35.7304 21.4292 34.459 21.7099C34.1936 21.7684 33.932 21.824 33.6733 21.8747C29.7412 22.8482 25.1891 26.3224 22.5437 29.3644C21.7283 30.3024 20.5345 32.9248 19.3168 34.5977C18.418 35.8317 17.4082 36.6452 16.5602 36.9326C15.9921 37.1262 15.513 37.0965 15.1173 36.9987C14.5424 36.8569 14.0653 36.5455 13.6993 36.0502C13.5 35.779 13.3151 35.4159 13.2269 34.9522C13.1848 34.7289 13.18 34.1617 13.181 33.905C12.9328 33.0513 12.6291 32.2177 12.4077 31.3563C11.8798 29.3011 10.8441 28 9.61384 26.2811C8.46313 24.6725 7.22719 23.6616 5.41538 22.8549C5.17968 22.7974 3.2778 22.3318 2.60615 22.0644C1.62504 21.6726 1.15745 21.0162 0.987859 20.6627C0.699463 20.0629 0.669788 19.5388 0.727275 19.1019C0.812548 18.4571 1.1019 17.9053 1.61546 17.4597C1.93355 17.1828 2.40879 16.9136 3.04498 16.7823C3.5365 16.6798 4.84045 16.6204 5.02345 16.6118ZM16.1808 13.2621C16.269 13.4586 16.3629 13.656 16.4625 13.8552C18.5857 18.0959 20.9599 20.4634 23.8458 21.6122L23.9426 21.6496C22.012 23.0829 20.2643 24.6849 18.9287 26.2208C18.3787 26.8532 17.6506 28.1668 16.864 29.5139C16.1492 27.1904 14.9803 25.5482 13.5105 23.493C12.3876 21.9246 11.211 20.7442 9.76524 19.7822C10.8872 19.2064 11.9574 18.5319 12.8897 17.7443C14.4418 16.4326 15.468 14.913 16.1808 13.2621Z" fill="#0F1826"/>
</g>
</g>
<defs>
<clipPath id="clip0_801_1777">
<rect width="37.3668" height="37.3668" fill="white" transform="translate(0.265625 55.5347)"/>
</clipPath>
<clipPath id="clip1_801_1777">
<rect width="37.3668" height="37.3668" fill="white" transform="translate(37.6328 24.853)"/>
</clipPath>
<clipPath id="clip2_801_1777">
<rect width="37.3668" height="37.3668" fill="white" transform="translate(0.265625 0.0844727)"/>
</clipPath>
</defs>
</svg>
