<svg width="73" height="94" viewBox="0 0 73 94" fill="none" xmlns="http://www.w3.org/2000/svg">
<g opacity="0.4">
<g clip-path="url(#clip0_801_1221)">
<path fill-rule="evenodd" clip-rule="evenodd" d="M2.66505 72.5691C4.33219 71.975 6.08654 71.1855 7.43941 70.0425C9.04619 68.6848 9.69964 66.9363 10.1385 65.0957C10.7018 62.731 10.927 60.2121 11.6101 57.8436C11.863 56.9641 12.3498 56.6316 12.5587 56.484C13.0866 56.1113 13.6202 56.0117 14.1223 56.0491C14.7173 56.0922 15.5346 56.3173 16.0721 57.3147C16.1488 57.4575 16.2484 57.675 16.3155 57.973C16.3643 58.1914 16.3959 58.8746 16.4477 59.1563C16.577 59.8499 16.6853 60.5436 16.7869 61.2412C17.1251 63.5627 17.3196 65.5345 18.3879 67.6673C19.8375 70.5627 21.2901 72.3343 23.26 73.119C25.1647 73.8778 27.4422 73.7351 30.352 73.1401C30.6289 73.073 30.9029 73.0155 31.174 72.9686C32.457 72.7444 33.6834 73.5866 33.9354 74.8647C34.1873 76.1419 33.372 77.3865 32.1006 77.6672C31.8352 77.7257 31.5736 77.7812 31.3149 77.832C27.3828 78.8055 22.8307 82.2796 20.1853 85.3217C19.3699 86.2597 18.1761 88.882 16.9584 90.5549C16.0597 91.789 15.0498 92.6024 14.2018 92.8899C13.6337 93.0834 13.1546 93.0538 12.7589 92.956C12.184 92.8142 11.7069 92.5028 11.3409 92.0074C11.1416 91.7363 10.9567 91.3732 10.8685 90.9094C10.8264 90.6862 10.8216 90.119 10.8226 89.8622C10.5744 89.0086 10.2707 88.1749 10.0493 87.3136C9.52142 85.2584 8.48567 83.9573 7.25544 82.2384C6.10473 80.6297 4.86879 79.6189 3.05698 78.8122C2.82128 78.7547 0.9194 78.289 0.247756 78.0217C-0.733363 77.6298 -1.20095 76.9735 -1.37054 76.62C-1.65894 76.0202 -1.68861 75.4961 -1.63112 75.0592C-1.54585 74.4144 -1.2565 73.8625 -0.742941 73.417C-0.424844 73.1401 0.0503899 72.8708 0.686584 72.7396C1.1781 72.6371 2.48205 72.5777 2.66505 72.5691ZM13.8224 69.2194C13.9106 69.4158 14.0045 69.6132 14.1041 69.8125C16.2273 74.0532 18.6015 76.4207 21.4874 77.5695L21.5842 77.6069C19.6536 79.0402 17.9059 80.6422 16.5703 82.1781C16.0203 82.8104 15.2922 84.124 14.5056 85.4711C13.7908 83.1477 12.6219 81.5055 11.1521 79.4503C10.0292 77.8819 8.85265 76.7015 7.40684 75.7395C8.5288 75.1637 9.59902 74.4891 10.5313 73.7016C12.0834 72.3899 13.1096 70.8703 13.8224 69.2194Z" fill="white"/>
</g>
<g clip-path="url(#clip1_801_1221)">
<path fill-rule="evenodd" clip-rule="evenodd" d="M40.0322 41.8874C41.6994 41.2934 43.4537 40.5039 44.8066 39.3608C46.4134 38.0032 47.0668 36.2546 47.5057 34.4141C48.069 32.0494 48.2941 29.5305 48.9773 27.162C49.2302 26.2824 49.717 25.95 49.9259 25.8024C50.4538 25.4297 50.9874 25.3301 51.4895 25.3674C52.0845 25.4106 52.9018 25.6357 53.4393 26.6331C53.516 26.7759 53.6156 26.9934 53.6826 27.2913C53.7315 27.5098 53.7631 28.1929 53.8149 28.4746C53.9442 29.1683 54.0525 29.862 54.154 30.5595C54.4923 32.8811 54.6868 34.8528 55.7551 36.9856C57.2047 39.8811 58.6573 41.6526 60.6272 42.4373C62.5319 43.1962 64.8093 43.0535 67.7192 42.4585C67.9961 42.3914 68.2701 42.3339 68.5412 42.2869C69.8241 42.0627 71.0506 42.9049 71.3025 44.1831C71.5545 45.4603 70.7392 46.7048 69.4678 46.9856C69.2024 47.044 68.9408 47.0996 68.6821 47.1504C64.75 48.1238 60.1979 51.598 57.5525 54.64C56.7371 55.578 55.5433 58.2004 54.3256 59.8733C53.4268 61.1073 52.417 61.9208 51.569 62.2082C51.0009 62.4018 50.5218 62.3721 50.1261 62.2744C49.5512 62.1326 49.0741 61.8211 48.7081 61.3258C48.5088 61.0546 48.3239 60.6915 48.2357 60.2278C48.1935 60.0045 48.1888 59.4374 48.1897 59.1806C47.9416 58.3269 47.6379 57.4933 47.4165 56.632C46.8886 54.5768 45.8529 53.2757 44.6226 51.5568C43.4719 49.9481 42.236 48.9373 40.4242 48.1305C40.1885 48.073 38.2866 47.6074 37.6149 47.3401C36.6338 46.9482 36.1662 46.2919 35.9966 45.9383C35.7083 45.3385 35.6786 44.8145 35.7361 44.3776C35.8213 43.7328 36.1107 43.1809 36.6242 42.7354C36.9423 42.4585 37.4176 42.1892 38.0538 42.0579C38.5453 41.9554 39.8492 41.896 40.0322 41.8874ZM51.1896 38.5378C51.2778 38.7342 51.3717 38.9316 51.4713 39.1309C53.5945 43.3715 55.9687 45.7391 58.8546 46.8879L58.9514 46.9252C57.0208 48.3586 55.2731 49.9606 53.9375 51.4964C53.3875 52.1288 52.6594 53.4424 51.8728 54.7895C51.158 52.4661 49.9891 50.8238 48.5193 48.7687C47.3964 47.2002 46.2198 46.0198 44.774 45.0579C45.896 44.482 46.9662 43.8075 47.8985 43.0199C49.4506 41.7082 50.4768 40.1886 51.1896 38.5378Z" fill="white"/>
</g>
<g clip-path="url(#clip2_801_1221)">
<path fill-rule="evenodd" clip-rule="evenodd" d="M2.66505 17.1189C4.33219 16.5248 6.08654 15.7353 7.43941 14.5923C9.04619 13.2346 9.69964 11.4861 10.1385 9.6455C10.7018 7.28085 10.927 4.76192 11.6101 2.39344C11.863 1.51388 12.3498 1.1814 12.5587 1.03385C13.0866 0.661141 13.6202 0.561516 14.1223 0.598883C14.7173 0.641998 15.5346 0.867142 16.0721 1.86455C16.1488 2.00731 16.2484 2.22481 16.3155 2.52279C16.3643 2.74124 16.3959 3.42437 16.4477 3.70606C16.577 4.39974 16.6853 5.09345 16.7869 5.79096C17.1251 8.1125 17.3196 10.0843 18.3879 12.2171C19.8375 15.1125 21.2901 16.8841 23.26 17.6688C25.1647 18.4276 27.4422 18.2849 30.352 17.6899C30.6289 17.6228 30.9029 17.5653 31.174 17.5184C32.457 17.2942 33.6834 18.1364 33.9354 19.4145C34.1873 20.6917 33.372 21.9363 32.1006 22.217C31.8352 22.2755 31.5736 22.331 31.3149 22.3818C27.3828 23.3553 22.8307 26.8294 20.1853 29.8715C19.3699 30.8095 18.1761 33.4318 16.9584 35.1047C16.0597 36.3388 15.0498 37.1523 14.2018 37.4397C13.6337 37.6332 13.1546 37.6036 12.7589 37.5058C12.184 37.364 11.7069 37.0526 11.3409 36.5572C11.1416 36.2861 10.9567 35.923 10.8685 35.4592C10.8264 35.236 10.8216 34.6688 10.8226 34.412C10.5744 33.5584 10.2707 32.7248 10.0493 31.8634C9.52142 29.8082 8.48567 28.5071 7.25544 26.7882C6.10473 25.1795 4.86879 24.1687 3.05698 23.362C2.82128 23.3045 0.9194 22.8388 0.247756 22.5715C-0.733363 22.1796 -1.20095 21.5233 -1.37054 21.1698C-1.65894 20.57 -1.68861 20.0459 -1.63112 19.609C-1.54585 18.9642 -1.2565 18.4123 -0.742941 17.9668C-0.424844 17.6899 0.0503899 17.4206 0.686584 17.2894C1.1781 17.1869 2.48205 17.1275 2.66505 17.1189ZM13.8224 13.7692C13.9106 13.9656 14.0045 14.163 14.1041 14.3623C16.2273 18.603 18.6015 20.9705 21.4874 22.1193L21.5842 22.1567C19.6536 23.59 17.9059 25.192 16.5703 26.7279C16.0203 27.3602 15.2922 28.6738 14.5056 30.021C13.7908 27.6975 12.6219 26.0553 11.1521 24.0001C10.0292 22.4317 8.85265 21.2513 7.40684 20.2893C8.5288 19.7135 9.59902 19.0389 10.5313 18.2514C12.0834 16.9397 13.1096 15.4201 13.8224 13.7692Z" fill="white"/>
</g>
</g>
<defs>
<clipPath id="clip0_801_1221">
<rect width="37.3668" height="37.3668" fill="white" transform="translate(-2.09277 56.0417)"/>
</clipPath>
<clipPath id="clip1_801_1221">
<rect width="37.3668" height="37.3668" fill="white" transform="translate(35.2744 25.3601)"/>
</clipPath>
<clipPath id="clip2_801_1221">
<rect width="37.3668" height="37.3668" fill="white" transform="translate(-2.09277 0.591553)"/>
</clipPath>
</defs>
</svg>
