<svg width="744" height="738" viewBox="0 0 744 738" fill="none" xmlns="http://www.w3.org/2000/svg">
<path d="M493.879 149.725C497.772 157.946 501.948 166.494 506.3 175.401C543.565 251.673 593.705 354.294 588.991 503.87C587.677 545.544 572.669 576.725 548.987 598.963C525.294 621.21 492.883 634.539 456.718 640.425C384.378 652.199 297.168 634.166 235.165 598.4C204.118 580.491 171.662 561.156 143.186 539.289C114.709 517.421 90.2419 493.045 75.1466 465.067C60.0593 437.104 54.3243 405.527 63.3308 369.214C72.3414 332.885 96.1159 291.78 140.12 244.801C228.155 150.815 307.401 107.512 369.224 97.4831C431.032 87.4562 475.388 110.675 493.879 149.725Z" stroke="#DDDDDD"/>
<path d="M367.912 117.903C375.394 123.079 383.285 128.397 391.507 133.938C461.916 181.385 556.648 245.223 627.354 377.144C647.053 413.899 649.647 448.408 640.256 479.504C630.861 510.614 609.456 538.355 581.08 561.523C524.319 607.868 439.776 635.824 368.197 635.824C332.354 635.824 294.58 635.293 258.986 630.58C223.389 625.867 190.012 616.978 162.95 600.285C135.903 583.602 115.148 559.115 104.791 523.16C94.4298 487.189 94.4666 439.703 109.086 377.022C138.333 251.622 185.311 174.515 233.837 134.936C282.351 95.3674 332.374 93.3168 367.912 117.903Z" stroke="#DDDDDD"/>
</svg>
