<svg width="78" height="83" viewBox="0 0 78 83" fill="none" xmlns="http://www.w3.org/2000/svg">
<path d="M36.3044 29.2262L36.3046 29.2262C40.8019 29.9372 44.1454 29.2658 46.0341 26.9511C47.8605 24.7126 47.7867 21.5598 47.1122 18.6761C46.1325 14.4882 43.6321 9.76804 41.1558 6.18325C45.1498 8.63836 49.1996 10.5206 52.9591 10.7768C55.5436 10.953 58.0314 10.3662 60.2246 8.67962C61.8069 7.46286 63.1601 5.73215 64.2927 3.46498L75.4719 18.1389C55.1287 33.5136 36.2234 56.9608 25.0852 79.8731L9.64131 73.3861C10.318 73.4173 10.9508 73.4166 11.5412 73.3845C13.6567 73.2695 15.416 72.7404 16.6454 71.6335C17.93 70.4768 18.3826 68.9226 18.3308 67.3398C18.2805 65.8032 17.7609 64.1542 17.015 62.5298C15.5183 59.2703 12.893 55.6505 10.0898 52.3837C8.56351 50.6051 6.95955 48.9023 5.41391 47.3867C11.0394 49.7234 15.3723 50.5018 18.5581 49.8618C20.6255 49.4465 22.2317 48.4275 23.3007 46.8759C24.342 45.3643 24.7722 43.4959 24.8141 41.524C24.8972 37.6122 23.4631 32.7856 21.2499 27.9645C19.843 24.8998 18.0896 21.7693 16.1244 18.7822C17.8617 19.7867 19.5607 20.9412 21.3226 22.1383C21.7496 22.4284 22.1803 22.7211 22.6161 23.0147C26.5708 25.679 30.887 28.3692 36.3044 29.2262Z" stroke="#09100E" stroke-width="3.30713"/>
</svg>
