<svg width="405" height="101" viewBox="0 0 405 101" fill="none" xmlns="http://www.w3.org/2000/svg">
  <path class="cls-1" d="M60.45,0c-9.99.73-20.01,1.55-29.9,1.96-4.95.21-9.89.31-14.8.25-4.9-.07-9.83-.25-14.47-.81L0,11.63c5.34.65,10.48.81,15.62.89,5.14.06,10.26-.05,15.35-.26,10.19-.42,20.22-1.25,30.28-1.98l-.8-10.28Z"/>
  <path class="cls-2" d="M1.46,7.23c.04.08.1.09.16.05-.05,0-.09-.11-.16-.05Z"/>
  <path class="cls-2" d="M1.63,7.05c.06-.01.09.11.16.05-.05-.03-.09-.14-.16-.05Z"/>
  <path class="cls-2" d="M2.01,7.5c.05.06.06-.01.15-.02-.02-.06-.05-.05-.08-.08-.04.03-.03.07-.07.1Z"/>
  <path class="cls-2" d="M3.44,9.56l.06.09c.05-.07.08-.01.12-.07-.05-.09-.11-.1-.19-.03Z"/>
  <path class="cls-2" d="M1.94,7.12c-.04.06.08.14.12.08.01-.08-.04-.03-.07-.12,0,.03-.02.06-.04.04Z"/>
  <path class="cls-2" d="M3.7,9.64c.07,0,.06.08.1.14.04-.07.03-.14-.01-.22l-.08.07Z"/>
  <path class="cls-2" d="M2.95,7.84c-.03.07.09.12.15.02-.04-.1-.11.06-.15-.02Z"/>
  <path class="cls-2" d="M4.38,9.9s.08-.02.05.03c.03.05.08-.06.12-.07.02.08.08.12.15.17.02-.17.14-.14.25-.18-.06-.01-.11,0-.16-.09-.01.12-.04.06-.13.11,0-.03,0-.06-.03-.09-.06.04-.1.04-.15-.02-.05.04-.1.09-.11.14Z"/>
  <path class="cls-2" d="M3.17,7.93l.06.09s.03-.09.06-.06c.04-.06-.08-.12-.12-.04Z"/>
  <path class="cls-2" d="M3.47,7.38c.05.03.11.02.17-.04-.05-.02-.16-.07-.17.04Z"/>
  <path class="cls-2" d="M5.88,10.57c.05.07.14.06.15-.02-.05,0-.1-.02-.15.02Z"/>
  <path class="cls-2" d="M4.01,7.5c.06.02.11.13.18.03-.06-.04-.11-.07-.18-.03Z"/>
  <path class="cls-2" d="M5.76,9.12c.08.05.08-.05.18-.09-.02,0-.05-.02-.07-.05-.04.14-.12.01-.11.14Z"/>
  <path class="cls-2" d="M4.66,7.29c.03-.07-.1-.08-.12-.19-.07.09.08.14.12.19Z"/>
  <path class="cls-2" d="M5.28,7.52c.06,0,.12.04.19-.02-.07-.04-.14-.05-.21-.11-.07.03.09.1.02.13Z"/>
  <path class="cls-2" d="M7.11,10.13c-.04.13.11.03.14.06.03-.1-.11-.04-.14-.06Z"/>
  <path class="cls-2" d="M7.28,9.7c-.03-.09-.09.04-.12-.08-.04.05-.04.11-.02.17.06-.1.13.01.14-.09Z"/>
  <path class="cls-2" d="M8.24,11.04c.06.06.13.1.2.04-.07-.02-.13-.07-.2-.04Z"/>
  <path class="cls-2" d="M4.97,6.26c.03.08.07.03.1.1.07-.05.03-.11-.02-.17l-.08.07Z"/>
  <path class="cls-2" d="M5.39,6.85c.04.1.09.08.13.1.03-.06-.09-.2-.13-.1Z"/>
  <path class="cls-2" d="M5.33,6.37s.02.01.04,0c.13.12.29.04.42.14.09-.06.04-.14.09-.2-.07-.07-.07.06-.13.05-.06-.06-.01-.11-.08-.12-.01.11-.11.07-.18.13-.03-.08-.08-.07-.11-.12-.09.03.03.09-.05.12Z"/>
  <path class="cls-2" d="M8.15,9.97s.08-.07.1-.05c.05-.11-.07.01-.09-.07-.08.04-.04.1-.07.14.05.05.09.07.14.1.06-.06-.03-.11-.08-.12Z"/>
  <path class="cls-2" d="M4.32,4.31c.05.05.1.16.17.07-.06-.03-.11-.11-.17-.07Z"/>
  <path class="cls-2" d="M4.32,4.16c-.04.07.08.09.12.04-.03-.12-.08,0-.12-.04Z"/>
  <path class="cls-2" d="M4.54,4.36c.05-.04.04-.09.07-.14-.03-.02-.06,0-.09-.03-.03.05-.01.11.01.17Z"/>
  <path class="cls-2" d="M8.38,9.95c-.02.13.14.06.19.13.06-.13-.13-.13-.19-.13Z"/>
  <path class="cls-2" d="M4.07,2.9s.13-.02.24-.11c-.08.03-.15.01-.24.11Z"/>
  <path class="cls-2" d="M9.06,10.15c0-.07-.08-.17-.14-.1,0,.06.08.19.14.1Z"/>
  <path class="cls-2" d="M5.55,5.12c.05.09.26.05.17-.08-.07.11-.11.04-.17.08Z"/>
  <path class="cls-2" d="M6.66,6.62c0,.12.17.13.25.03-.03-.03-.01-.06,0-.08-.07-.11-.18.13-.26.05Z"/>
  <path class="cls-2" d="M4.93,3.71c.06.11.13.12.21.07-.07.01-.13-.14-.21-.07Z"/>
  <path class="cls-2" d="M9.41,10.25s.05.02.03.05c.12-.08.23.06.36-.03-.17,0-.24-.26-.39-.02Z"/>
  <path class="cls-2" d="M6.32,5.3c.03.1.09-.02.13-.05-.02,0-.05-.02-.07-.05,0,.04-.03.07-.06.1Z"/>
  <path class="cls-2" d="M9.84,10.27c-.05.07.05.03.07.09-.03-.13.06,0,.14-.09-.03-.12-.09.08-.13-.03-.03.03-.05.06-.08.04Z"/>
  <path class="cls-2" d="M10.05,10.33c.12.04.13.21.23.13-.11-.08.04-.14-.06-.22-.01.15-.11.02-.17.09Z"/>
  <path class="cls-2" d="M6.47,4.4c.08.03.2-.02.14-.13-.07.06-.1.04-.14.13Z"/>
  <path class="cls-2" d="M10.68,10.39c.07.1.15.03.22.06.03.05-.01.1-.07.14.12.07.13-.14.3-.1-.03-.09-.04-.05-.1-.14-.09.07.03.03.05.11-.14,0-.26-.15-.4-.08Z"/>
  <path class="cls-2" d="M9.06,7.29c.07.07.17-.01.21-.09-.08-.02-.17-.03-.21.09Z"/>
  <path class="cls-2" d="M8.02,5.67c.06.01.02.03.06.09.04-.05.02-.1.03-.15-.03-.03-.06.03-.1.05Z"/>
  <path class="cls-2" d="M9.65,6.09c.08.03.15.05.24-.04-.08.03-.21-.07-.24.04Z"/>
  <path class="cls-2" d="M8.74,3.51c.04.06.08.04.12.08.06-.04-.09-.09-.02-.13-.03-.03-.06.03-.09.05Z"/>
  <path class="cls-2" d="M7.93,2.27c.06.06.14.02.22-.06-.07.01-.2-.03-.22.06Z"/>
  <path class="cls-2" d="M11.48,6.9l.07.09s.02-.06.04-.04c.04-.06-.07-.13-.1-.05Z"/>
  <path class="cls-2" d="M9.2,3.09c.07.08.15,0,.22.13.04-.05,0-.1,0-.15.05-.03.12.05.13-.05-.04-.04-.09.06-.12-.03-.04.15-.13.02-.22.1Z"/>
  <path class="cls-2" d="M11.85,6.45s.06.05.09.03c.06-.05.01-.15-.04-.15-.08.04.04.09-.05.12Z"/>
  <path class="cls-2" d="M10.24,3.11c0,.11.23.16.25.02-.08,0-.17.06-.25-.02Z"/>
  <path class="cls-2" d="M10.14,2.35c.05.07.11.06.18-.03-.06.01-.12-.03-.18.03Z"/>
  <path class="cls-2" d="M11.09,3.53c.06.02.11.08.18.02-.06-.03-.11-.07-.18-.02Z"/>
  <path class="cls-2" d="M11.72,3.75s.08,0,.12.03c.02-.03-.02-.07-.05-.11l-.08.08Z"/>
  <path class="cls-2" d="M11.99,3.71c.04.08.1,0,.14.05.02-.05-.09-.15-.14-.05Z"/>
  <path class="cls-2" d="M14.43,6.84s.01-.03,0-.04c.03-.02.05.02.07.05.04-.02.03-.15.1-.1.07-.07-.1-.03-.03-.09-.06,0-.23.08-.14.18Z"/>
  <path class="cls-2" d="M14.63,6.71s.05.03.07,0c.03.03.05.06.03.09.03.02.06-.03.09-.06l-.08-.11c-.04.07-.07.02-.11.08Z"/>
  <path class="cls-2" d="M15.03,7.14s.1,0,.15-.03c-.04-.08-.1-.03-.15.03Z"/>
  <path class="cls-2" d="M12.96,4.07c.08.03.08-.12.05-.17-.09,0-.03.11-.05.17Z"/>
  <path class="cls-2" d="M12.83,3.8c.09.04.22.11.27-.04-.09.04-.17-.1-.27.04Z"/>
  <path class="cls-2" d="M13.08,4.06c.06-.01.12.03.18-.03-.06-.03-.12,0-.18-.06-.02.03.02.06,0,.08Z"/>
  <path class="cls-2" d="M13.36,4.44c.16-.03.19.04.1-.18-.08.06-.07.12-.1.18Z"/>
  <path class="cls-2" d="M15.57,7.14c.06.07.12.07.18.01-.06-.02-.12-.08-.18-.01Z"/>
  <path class="cls-2" d="M16.45,7.39c.18-.11.32,0,.43-.17-.13,0-.27,0-.4.06-.02-.03.02-.06.04-.08-.12-.08-.13.09-.06.19Z"/>
  <path class="cls-2" d="M14.45,4.32c.09.06.04-.16.1-.1.01-.14-.12.05-.1.1Z"/>
  <path class="cls-2" d="M14.54,4.26c.05.03.11.03.16-.05-.05-.03-.11,0-.16.05Z"/>
  <path class="cls-2" d="M17.3,7.27l.07.09s.02-.07.06-.1c-.04.01-.08-.04-.13.01Z"/>
  <path class="cls-2" d="M15.71,4.88s-.01-.1.06-.14c-.08-.03-.19.12-.06.14Z"/>
  <path class="cls-2" d="M18.27,3.13c.08.13.16-.01.17-.1-.05,0-.11.05-.17.1Z"/>
  <path class="cls-2" d="M20.07,3.29c.07.08.07-.1.16-.01.03.08-.07.05-.09.1.07.05.13,0,.16-.1-.05,0-.06-.03-.07-.09.08-.1.15.06.23-.05-.04,0-.08.02-.12-.07-.1.1-.2.05-.25-.01,0,.08.08.16-.03.23Z"/>
  <path class="cls-2" d="M20.76,3.28l.07.09c.07-.07.07-.03.11-.12-.06-.08-.17.1-.11-.05-.05-.05-.07.06-.07.08Z"/>
  <path class="cls-2" d="M21.02,3.4c0-.06.06-.11.11-.16l-.05-.07s-.04.03-.05.02c0,.08.02.06-.06.1.03.04.01.07.05.11Z"/>
  <path class="cls-2" d="M21.3,3.5c.06-.08.12,0,.18-.08-.08-.05-.16.04-.23-.07-.04.09.03.06.05.15Z"/>
  <path class="cls-2" d="M21.6,3.3c-.05.05-.07.1-.02.15.02,0,.05-.01.07-.04,0-.04-.02-.07-.05-.11Z"/>
  <path class="cls-2" d="M21.65,3.36s.01.07.05.11c.04-.03.02-.09.06-.06.02-.03-.03-.07-.05-.11l-.06.06Z"/>
  <path class="cls-2" d="M21.76,3.2s.13.18.18.09c-.06-.04-.12-.11-.18-.09Z"/>
  <path class="cls-2" d="M22.79,3.46c.04-.08.08-.05.13-.1-.04-.08-.08.01-.12-.07-.04.05-.07.11,0,.17Z"/>
  <path class="cls-2" d="M23.35,3.41c.05.05.09.05.14,0l-.07-.09-.07.08Z"/>
  <path class="cls-2" d="M23.69,3.45c.07.03.14.03.21.05.06-.05-.11-.1-.05-.15-.04-.02-.04.03-.06.06-.04.02-.07-.05-.11.04Z"/>
  <path class="cls-2" d="M23.93,3.22s.08-.06.13-.02c0-.08-.06-.09-.12-.11-.03.04.05.09,0,.13Z"/>
  <path class="cls-2" d="M24.34,3.55c.11-.12.22,0,.32.01.07-.13-.13-.15-.17-.26-.02.12,0,.13-.11.17-.08-.09-.06-.16-.16-.15-.02.12.03.15.12.24Z"/>
  <path class="cls-2" d="M24.36,3.28c.08.03.16-.02.23.03,0-.06-.16-.15-.23-.03Z"/>
  <path class="cls-2" d="M24.74,3.19s.06.02.09.07c.05-.06-.04-.13.02-.19-.04-.02-.07,0-.11.04.07.07.08.02,0,.08Z"/>
  <path class="cls-2" d="M25.26,3.18c.03.05.06.04.09.07-.01-.05.03-.1-.02-.15,0,.08-.02.02-.07.08Z"/>
  <path class="cls-2" d="M31.48,3.74c.09.07.18.02.27-.06-.08-.03-.16-.1-.23-.11-.03.06-.02.11-.04.17Z"/>
  <path class="cls-2" d="M33.23,3.36c.04.09.08-.01.13.02.03-.06-.09-.11-.13-.02Z"/>
  <path class="cls-2" d="M35.07,3.46c0,.08.16.08.22,0-.07-.03-.14,0-.22,0Z"/>
  <path class="cls-2" d="M35.95,3.48c.08-.06.24-.06.27-.15-.09,0-.24.02-.27.15Z"/>
  <path class="cls-2" d="M37.72,3.27c.07.05.13,0,.2.02,0-.07-.15-.12-.2-.02Z"/>
  <path class="cls-2" d="M39.61,3.52s.05-.1.05-.15c-.04-.01-.07,0-.11.04.04.04.02.07.06.11Z"/>
  <path class="cls-2" d="M46.18,10.42c.15.05.29-.14.44-.09-.08-.16-.3.02-.44.09Z"/>
  <path class="cls-2" d="M46.63,10.27c.06.06.12.04.18-.04-.06-.01-.12,0-.18.04Z"/>
  <path class="cls-2" d="M42.98,3.01s.01-.07-.02-.11c.12,0,.15,0,.29-.05-.12-.05-.24-.05-.36,0,.07.05.05.1.09.15Z"/>
  <path class="cls-2" d="M43.57,3.3c0-.06.08-.13.01-.19-.07,0-.07.13-.01.19Z"/>
  <path class="cls-2" d="M43.4,2.9s.03.07.06.11c.05-.04.06-.09.07-.13-.04-.04-.08.09-.13.02Z"/>
  <path class="cls-2" d="M47.7,2.3c.07.04.09-.06.12-.11-.04-.01-.07,0-.11.04.02.02,0,.04-.02.06Z"/>
  <path class="cls-2" d="M47.96,2.02s.11-.1.11-.13c-.08,0-.11.05-.11.13Z"/>
  <path class="cls-2" d="M48.29,2.14c.16.05.31-.02.47-.05-.04-.1.06-.08.12-.15-.22.02-.36.15-.59.2Z"/>
  <path class="cls-2" d="M48.83,2.04c.07.05.13-.04.2-.07-.07-.04-.13-.03-.2.07Z"/>
  <path class="cls-2" d="M49.1,1.98c.07,0,.15.04.22,0-.02-.07-.15-.11-.22,0Z"/>
  <path class="cls-2" d="M49.31,2.12c.09,0,.13.05.18.08.05-.09.08-.1.03-.21,0,.14-.15.05-.21.13Z"/>
  <path class="cls-2" d="M49.38.93c-.02.1.11.04.15,0-.03-.05-.06-.04-.09-.06-.03.03-.01.09-.05.06Z"/>
  <path class="cls-2" d="M50.26,1.7s0,.03,0,.04l.04.04c.05-.1.24-.02.34-.15-.02-.02-.03-.04-.02-.06-.08.06-.17.05-.25.13-.09-.1.04-.08.03-.17-.04-.07-.08.13-.13.07-.03.03.09.15-.02.11Z"/>
  <path class="cls-2" d="M49.71.88c.11,0,.23-.01.34-.11-.11,0-.23.05-.34.11Z"/>
  <path class="cls-2" d="M50.73,1.61c.06,0,.06.14.15.13-.03-.08-.02-.13.07-.17-.07-.05-.15,0-.22.05Z"/>
  <path class="cls-2" d="M50.85,1.46c.09.05.17-.03.25-.09-.13-.03-.14.04-.25.09Z"/>
  <path class="cls-2" d="M51.66,1.42s-.05-.07-.02-.11c-.12,0-.24.21-.36.09.01.23.26-.06.38.01Z"/>
  <path class="cls-2" d="M51.24,1.32c.13.06.25-.08.38-.15-.13-.07-.25.09-.38.15Z"/>
  <path class="cls-2" d="M51.52.98c0,.11.13-.01.18-.05-.06-.06-.12.09-.18.05Z"/>
  <path class="cls-2" d="M51.6,1.11c.1.03.21.09.31-.07-.1.1-.21-.04-.31.07Z"/>
  <path class="cls-2" d="M52.13,1.25c-.11-.1.01-.19.09-.15.05.08-.04.11-.09.15.05.1.1-.05.15.04.03-.19.26-.41.37-.49-.01-.15-.24.13-.25.22-.02-.12-.14-.02-.1-.15-.13.14-.24.3-.42.52.09.06.17-.02.25-.13Z"/>
  <path class="cls-2" d="M52.61,1s.03.07.06.1c.05-.02.09-.1.14-.09,0-.04-.03-.07.01-.11-.04-.02-.07-.02-.11-.04-.05.06,0,.19-.1.13Z"/>
  <path class="cls-2" d="M52.84,1.17c.06-.01.18-.07.09-.15-.07.05-.04.1-.09.15Z"/>
  <path class="cls-2" d="M52.94.91c-.03.1.08,0,.11.08.01-.08,0-.08.07-.13-.06-.06-.12.05-.18.05Z"/>
  <path class="cls-2" d="M.71,6.8c-.02-.05.07-.09,0-.15-.04.03-.06,0-.1.05.14.04-.12.36.07.12.15.04.31.03.45.17.08-.08.1-.04.12.04.02-.02-.01-.06.01-.08.07-.03,0,.08.07.12.03-.1.07-.08.18-.23-.06-.05-.14.04-.21.07-.04-.13-.1-.06-.16-.05-.09-.21-.28-.14-.33-.23-.09.08.07.17.1.17-.09.08-.13-.09-.22,0Z"/>
  <path class="cls-2" d="M2.16,7.84c.09.07.19.06.29.05-.06-.05,0-.09-.05-.14-.06.17-.14.04-.24.09Z"/>
  <path class="cls-2" d="M2.62,7.93c.05,0,.08-.04.03-.1.03-.02.05.03.07.05.08-.04.06-.09.11-.13.11.02.21.07.33,0,.11.23.26.06.39.14-.03.17-.21.03-.25.18.21-.04.31.13.56,0,.04.1.07.18.18.07.04.1,0,.2-.08.22.02.06.06,0,.09.03-.03-.08.1-.13.03-.21.11.13.26-.01.39.03-.18.07-.3.14-.33.15.04.16.28-.03.4-.05,0,.11.13.1.19.09.02-.03-.02-.06,0-.08.02-.01.04,0,.06-.01,0,.04-.03.07,0,.11.15.02.31-.04.47-.04,0,.02,0,.04.01.06-.17.02-.23.09-.39.12.12.11.25.04.38.11.05-.07-.05-.03-.06-.09.04-.05.07-.03.1-.05.08.07,0,.17.09.18.04-.03.02-.07.07-.1-.02-.02-.04,0-.06.01-.04-.05,0-.22-.06-.09-.1-.13.04-.16.11-.14-.1.05.1.09.02.17.04.04.11-.1.16-.07.05.09-.09.13-.14.13-.05.05.03.12-.02.17.06.06.14-.03.2.05-.01.09-.08.06-.13.15.05.13.14-.03.19.09.04-.07-.08-.05-.1-.14.05,0,.11,0,.16.04-.07-.1-.02-.14,0-.23.02-.01.04,0,.06-.01.08.05-.05.08.02.13.09-.13.51.02.46.18.06-.07.12-.02.12-.11.09.08.02.13.07.2-.09-.03-.19.04-.28-.01.05.1.26.14.38.11.03.05-.04.08.02.13.08-.06.17-.12.28.01.02-.11.1-.08.06-.21.05.1.13-.03.22.07-.04-.16.16-.05.16-.15.13.08-.09.12,0,.19.06-.08.12-.08.17-.05,0,.05-.02.1-.03.15-.19.03-.37-.06-.52.03.03.09.09-.04.12.08.26-.21.46.19.72.02.21.24.66.06.75.29.07.02.15.03.22.06.05-.16.17-.03.26-.06,0,.04-.03.07,0,.11.02-.11.15-.1.13,0,.21-.11.4.1.61.04-.05-.07.05-.09.08-.12.03.05-.08.09-.07.14.16.12.35,0,.52,0-.02.16.19.19.23.09.03.08.07.03.1.09.11-.22.46.14.69-.04.15.25.47-.11.58.13-.05-.03-.11,0-.17,0,.03.12.23-.03.37.03.06.02.26.17.27.04.04-.05.07.07.1.09.13-.07.26.01.39-.07.15.09.47.09.71.12,6.19.95,12.44.7,18.63.29.05.05,0,.1-.02.15-.47-.13-.93.14-1.4.02-.03.09-.06.08-.13.1-.02-.04.03-.02.06-.06-.07-.05-.15.11-.22,0-.06.06.01.11-.04.17-.2-.2-.51-.13-.77-.01-.21-.03-.42-.09-.63.03-.02-.02-.03-.04-.02-.06-.32.13-.78-.02-.99.15-.05-.06,0-.08-.07-.09-.02.03.02.06.04.09-.42-.13-.75.14-1.18-.03-.04.14-.25.01-.35.01-.17,0-.29.14-.37.03-.15.09-.3.1-.44-.01-.08.04.04.09-.04.13-.02.05-.12-.07-.07-.09-.1.11-.2.01-.3.08-.04-.03-.02-.06,0-.08-.13.11-.26.03-.39.09-.01-.16,0-.02-.11-.09,0,.06-.05.1-.09.1,0-.04-.02-.07-.05-.11-.09.16-.27-.06-.44.11-.03-.04-.03-.07-.02-.11-.22.05-.72,0-.78.1-.11.02-.22-.12-.33.03-.1-.1-.28-.16-.33-.06-.69-.09-1.33.02-2.05-.07-.04.03-.02.06-.04.08-.06-.06-.08-.04-.16-.11-.39.13-.92-.14-1.37.06-.03-.04-.01-.07-.05-.11-.17.02-.35.07-.52.02,0,.06.04.25-.12.29-.05-.09,0-.13-.1-.18-.03-.07.1-.15.13-.06.07-.1-.12-.15-.11-.05-.23-.17-.47.05-.7-.13-.06.14-.21.09-.31-.04-.04.03-.02.06,0,.08-.21-.08-.42-.04-.62-.12-.02.03,0,.07-.02.1-.3-.09-.72.05-.93-.17-.02.02,0,.04.01.06-.33-.06-.67,0-.99-.15-.24.08-.63-.03-.92-.07-.07.04,0,.1-.06.14-.03,0-.05.02-.07,0,.08-.23-.22-.13-.32-.2-.04.11.08.03.11.09.03.09-.09.06-.12.08-.11-.28-.36-.13-.54-.26-.07.04,0,.1-.07.14-.03.02-.05-.03-.07,0-.02-.04.04-.07.06-.1-.05-.06-.11-.06-.17,0,0,.04.06.09,0,.13.03.05.08-.02.11.05-.07.08-.12-.04-.19.07-.05-.13-.12-.07-.18-.1,0-.11.12.03.17-.05-.11-.15.05-.05.1-.1-.17-.17-.16,0-.33-.11-.03.04.05.09.03.13-.02.02-.04-.01-.05-.03-.03.05-.02.08.03.09-.1.11-.19.06-.29.17-.05-.05-.09-.05-.06-.13-.08,0-.17.16-.25.09-.04-.05.06-.08.08-.12-.06-.06-.12.04-.1.1-.06.06-.1-.1-.16-.03-.02-.04.05-.08-.03-.13-.09.16-.38.17-.37,0-.08,0-.16-.08-.24.04-.09-.18-.25,0-.29-.15-.12.24-.33-.16-.5.02-.15-.07-.31-.02-.46-.11-.05-.06.09,0,0-.08-.26.18-.49-.12-.74-.03.03.04.06.03.09.07.01.03-.03.05,0,.08-.11-.03-.21-.14-.32-.16-.02.05.03.04.05.07.03.08-.08-.03-.12.07,0-.06-.02-.08-.07-.09-.12.23-.29-.11-.45.04-.06-.06-.06-.12.02-.17-.04-.08-.1,0-.14-.06-.02.03.02.07.05.11-.06.08-.1.06-.16.07-.02-.05,0-.09.05-.12-.14.07-.26-.02-.39-.02-.02-.04.05-.08-.02-.13-.09.21-.47.02-.61.1-.03-.11-.18-.1-.06-.18-.08-.03-.09.03-.1.1-.08,0-.08-.21-.19-.13.03.08.07,0,.11.05-.03.02-.03.04-.02.06-.18-.03-.36-.17-.56-.02.02-.12,0-.1-.05-.22-.06.06,0,.13.03.2-.12.16-.19-.13-.3,0-.1-.09.06-.15,0-.23-.08.07-.05.15-.08.22-.08.07-.06-.09-.11-.06-.02-.04.04-.07.07-.1-.06-.04-.17.01-.14.09-.11-.16-.13-.03-.2-.2-.13.07-.14.03-.26-.03-.02.05.04.12-.06.16l.08.12c.07.01.04-.11.11.01.04-.02.03-.05,0-.08.11.02.48.02.39.22.03.05.08-.06.12-.07.05.09,0,.16-.08.18.04.03.23.04.16-.07.08-.02.15.08.25-.03.03.05-.09.09-.07.14.06.09.26-.05.19.13.04.06.07-.06.05-.08.07,0,.14.02.2.09.02-.03,0-.07.03-.1.05-.03.08.03.13,0,0,.04-.01.07-.03.1.17-.07.33-.04.49.01.04.06-.06,0-.08.08.05.07.11-.02.16.08-.08.04-.15.03-.22-.07-.07.17-.25-.06-.38.04.24.08.46.06.66.12.05-.07-.05-.03-.07-.09.13-.1.1.2.23.09-.03-.02-.07-.03-.11-.05.06-.11.1.04.16-.07.04.04,0,.07-.03.1.03.01.06-.02.09.03.04-.14.36-.02.5.03.02.1-.08-.05-.11.03.26,0,.51.01.76.1.02.04-.04.07-.06.1.07.11.14-.03.14-.09.11-.01-.01.12.1.18.11-.04-.07-.11,0-.15.15.02.32-.09.46.07.07-.14.13-.07.23-.1.06.05.01.09.06.13.12-.08.24-.05.36-.03.02.08-.1.04-.14.05.07.09.22.05.32-.03.07.06-.02.1.04.15-.06.07-.13,0-.14.09.23.03.39-.01.61-.11.1.07-.08.12,0,.19.2,0,.4,0,.59.14.11-.13.17,0,.22.02.04-.04-.02-.09.05-.12.13.15.48-.05.49.15.23,0,.55.15.72.04.11.13.24,0,.34.18.09-.11.16,0,.25-.13.06.05.02.09.07.13.43.04.87.02,1.29.18.01-.05.06-.1-.01-.11.35.1.71.18,1.07.12.09-.05.17.11.25.1.02-.03-.02-.06,0-.08.11.05.25.11.41.03l.1.13c.38-.09.76,0,1.13.09.01-.02,0-.04.02-.06.65.13,1.31.07,1.96.15.1-.13.55.01.83.02.15,0,.28-.07.39.04l.08-.08c.07.16.24-.05.37.1.31-.14.76.06,1.13-.06l.07.09c.48-.13.95.06,1.43-.09.21.14.42-.07.63.06.13-.12.25.03.37-.07.34.09.69.05,1.04-.01.76.05,1.53-.11,2.29-.07l.07-.08s.03.04.02.06c.4-.07.7-.06,1.11-.15l.07.09c.08-.01.03-.16.15-.08.02.04-.03.02-.06.06.05.03.13,0,.13-.06,3-.07,5.88-.6,8.84-.89l.05-.06c.4.04.8-.19,1.21-.09.07-.03.13-.17.15-.04.05-.06.22-.12.33-.04l.07-.09c.14,0,.28.03.42-.07.68.07,1.35-.25,2.03-.08l.07-.09c.12.1.31.05.36-.05.04.04.02.07.06.11.04-.16.11-.07.16-.02.17-.14.38-.12.62-.13.03.04.04.07.02.11.06.02.06-.15.16-.07.02-.02,0-.04-.02-.06.05-.04.11.04.16-.07.04.03.02.06,0,.08.06-.06.18-.13.29-.13.06.11-.06.06-.11.13.22-.11.43-.17.65-.26l.09.11c-.01.1.05-.05-.04-.08.1-.11.19-.09.32-.17.03.09.16.05.08.13.06.03.05-.13.18,0,.08-.09-.05-.07-.08-.08.12-.12.26-.02.38-.15.02.03-.02.06-.03.09.04.02.07-.05.11.04-.04-.12.06-.05.12-.15.32.14.66-.32.95-.1.05-.19.25-.17.36-.22,0,.14-.16.04-.22.13.03.04.06.02.09.06-.1.06-.2.19-.3.24,0-.22-.27.01-.33.05.22.09.56,0,.74-.2.02.04-.03.07-.05.11.11-.03.35-.05.34-.24.07-.05.05.08.09.1.2-.15.33-.16.56-.33.28-.02.56-.04.83-.27.16.02.42-.1.52-.24.36.06.94-.51,1.41-.24-.13-.26.26-.17.22-.41.1.01.19-.24.29-.09.37-.26.76-.31,1.14-.13.05-.07.1-.14.07-.21.06-.03.12,0,.18.08.05-.1.11-.06.16-.07.02-.12.07-.1.1-.21-.04-.05-.07.04-.11,0,.23-.16.63-.19.93,0,.03-.16.13-.2.25-.17.21-.33.49-.52.78-.65l.11.13c-.04-.13.16-.11.23-.19,0,.03.02.06,0,.08.26-.08.5-.12.7-.33.27-.06.64-.16.84-.42.19,0,.52-.26.66-.37.24-.18.46-.33.64-.56-.07,0-.07-.07-.11-.13.05-.07.1-.02.14-.09-.09-.04-.13.05-.18-.04-.08.15-.25-.05-.27.11-.04.04-.09-.08-.13-.1-.11.04-.23.06-.34.07.1-.11.15-.12.28-.3-.43.08-1.01.16-1.49.47-.05.03-.1,0-.15-.04,0,.04,0,.07.02.11-.05,0-.11.04-.16.07-.09-.19-.28.14-.37.28-.06-.07.02-.14.07-.21-.05.03-.13-.03-.13-.1.08-.1.11-.02.16-.15-.04-.06-.08.14-.13.02-.07.04-.02.09-.07.13-.02,0-.05.02-.07,0,0-.07.07-.14.07-.21.02-.01.04,0,.05-.02-.03.13.11.02.18,0,.04.03.02.07.06.1.16-.07.17-.29.32-.34.02.08-.11.16-.16.24.07,0,.2-.05.16-.15.18.06.35-.13.52-.24-.11-.06-.21.11-.32.18.05-.21.27-.28.39-.18.14-.12.27-.23.41-.16.42-.31.85-.25,1.27-.51-.1-.1-.19-.02-.3-.16-.1.05-.2.05-.31-.06-.03.03-.01.06-.03.09-.08-.14-.16,0-.24-.06-.04-.05,0-.1.05-.15-.1-.08-.19.03-.29,0-.08-.05.03-.1-.02-.15-.14-.06-.21.11-.38.15-.05-.11.13-.21.19-.28-.03,0-.06-.02-.09-.06-.02.02,0,.04.02.06-.07.06-.12-.03-.14.09-.04-.03-.02-.07-.06-.1-.12.08-.24.06-.36.05-.04.06-.04.11,0,.17-.03.06-.07.08-.11.09-.04-.08-.06-.17-.08-.25.14-.03.35-.21.39-.39.22-.06.44-.14.67-.08-.07-.17.1-.12.2-.11.03.09-.1,0-.12.07.1.09.19-.1.29-.13.07.05-.04.11.06.1.01-.15.26-.16.4-.13.1-.14.23-.08.38-.16,0-.14-.13-.02-.18-.04.12-.09.42-.27.65-.14.14-.18.67-.04.69-.42.14.04.18-.15.29-.09,0,.07-.07.05-.05.15.28-.16.55-.4.56-.69-.07-.06-.2-.12-.17-.23-.16-.09-.4-.04-.47-.31-.07.12-.2.08-.21.22.03.02.05-.02.07-.04.04.08,0,.06-.05.11-.05-.08-.1-.1-.15-.08-.06-.05-.04-.1.01-.15-.05-.01-.09,0-.09.06-.12-.15-.37,0-.54.09-.21-.18-.41.1-.61.27l-.04-.04c.07-.23.27-.25.37-.41-.04-.06-.07,0-.11-.08-.3.25-.49.18-.79.35-.01-.02,0-.04-.02-.06.11-.03.27-.15.32-.26-.05-.06-.1.02-.15-.04.03.09-.02.11-.09.06.02.06.02.11,0,.17-.11-.04-.34.05-.28.22-.04.07-.03-.13-.09-.06-.01-.04.07-.05.03-.13-.07-.01-.13.16-.1.21-.05.03-.05-.11-.1-.15-.09.07-.03.13-.08.19-.04.05-.07-.06-.04-.08-.08-.04-.05.1-.07.13-.02,0-.1-.06-.11-.13.04-.08.08-.06.12-.11-.11-.07-.15.09-.14.17-.13.03-.24.04-.32.22-.1-.05,0-.11-.04-.17.07-.04.14-.06.21-.09-.07-.08-.08-.17,0-.25-.05-.04-.09,0-.09.06-.01-.1-.09,0-.11-.13-.09.12-.19.12-.32.13-.03-.06.09-.11.13-.02.02-.01,0-.03,0-.04l.03-.04c-.08-.07-.14,0-.22.05-.04-.08,0-.17-.04-.25-.03.09-.04.05-.1.13-.07-.05-.05-.1-.1-.15-.04.04-.03.07-.05.11-.05-.04,0-.08-.08-.13-.11.05-.22.05-.33.05-.05-.09.04-.06.09-.15-.06-.06-.11.08-.16-.02,0,.03-.04.07-.01.11-.27-.07-.53.15-.8.1-.02.03.02.06.04.08-.04.06-.08.11-.12.11-.09-.33-.35.11-.51.05.03-.3.23-.23.37-.37-.08-.06-.17.09-.2-.06l-.1.13s-.04-.07-.06-.11c.05,0,.09-.1.14-.04-.03-.09.04-.06.05-.15-.09-.16-.16.22-.25.05l-.22.36c-.08-.06-.04-.11,0-.17-.06-.11-.12-.02-.18-.04.02.06,0,.11-.07.17.04.02.07-.05.11.04-.06.05-.12.05-.18,0l-.16.19c-.03-.12.03-.1-.09-.1-.09-.05.04-.11-.04-.17-.02.21-.12.15-.23.32-.11-.03-.22-.03-.33-.08-.07.21-.18.25-.3.37-.08-.06.06-.11.03-.17-.16.02-.32.32-.38.47.17.04.21-.24.32-.3.03.03.04.07.02.11.05.04.11-.1.07-.13.16.16.43-.36.65-.14-.11.25-.39.28-.57.26-.1.3-.36.29-.59.33.06-.13.09-.23.1-.38-.05.09-.1.05-.14.13-.17-.22-.22.13-.38-.06-.16.11-.11.08-.27.15.05.03,0,.07.02.11-.05.03-.1,0-.14.09-.09-.08.01-.13.07-.13-.02-.1-.22.04-.21.13-.07,0-.14.08-.22-.04-.1,0-.2.22-.3.15-.07-.12.03-.24.08-.36-.13.02-.18.2-.36.18-.07-.08-.03-.1-.11-.08-.06.08.11.02.06.11.05,0,.11.02.16-.02.03.11.02.1.11.08.02.03-.02.06-.03.09-.05.04-.1-.11-.15-.08,0,.04-.04.07-.01.11-.06.04-.12,0-.18,0-.03-.06-.01-.08.03-.09.03-.02.02.03.06.06,0-.06.03-.13-.02-.19-.23.35-.47.35-.71.52-.03-.03-.06-.06-.04-.08-.02.07-.2.2-.32.22-.02-.11.17-.17.16-.24.06.09.1.04.02-.02-.2.11-.38.17-.54.18-.07-.14.19-.1.17-.26-.07,0-.1-.03-.13.07-.24-.1-.65.25-.9.31-.06-.06.14-.12.03-.17-.03.12-.12.16-.19.19.05.02.11.05.16.02.01.02,0,.04.02.06-.11.08-.22-.07-.32.09-.04-.03-.02-.07-.06-.11-.08.1-.17.04-.25.09-.03-.03-.04-.07-.02-.11-.04-.03-.08.07-.13-.02-.04.03-.02.06,0,.08-.34,0-.56.05-.89.12-.03-.04-.01-.08.03-.13-.05,0-.11.04-.16.02-.09.06.04.11-.03.17-.09-.08-.17-.04-.25.05-.05-.04,0-.08-.08-.13-.03.05.02.1-.01.15-.11-.12-.08.01-.22.05-.05-.04,0-.08-.08-.13-.01.04-.01.07.02.11-.11.07-.37-.06-.37-.21-.17.09.14.12.04.25-.06,0-.05-.06-.13-.1-.08.09-.19,0-.21.17-.08,0-.17.02-.2-.1l-.09.11c.07.11.02-.09.09.02-.04.16-.31.06-.47.17.02-.09,0-.16.09-.19-.13-.11-.14.17-.27.19-.09-.13-.17,0-.25.05-.11-.12-.21-.06-.31-.02-.03-.09.09-.04.12-.11-.04-.06.05-.13.01-.19-.09.13-.24.16-.32.3-.03-.04-.07,0-.15-.04-.04-.12.22-.03.07-.17.05-.09.11.02.16-.07-.06-.1-.2.08-.2-.06-.06.08-.12.05-.21.13,0-.17-.1,0-.2-.1-.11.13-.21.1-.32.17,0,.09.1.15.15.08,0,.15-.17.07-.23.07-.02-.07.03-.13.05-.15-.02-.07-.07-.07-.08-.17,0,.19-.1.06-.19.19.04.11.08-.02.13.06-.06.01-.12.09-.18,0-.02-.04.03-.02.05-.06-.03-.04-.08-.02-.06-.06-.07-.06-.02.14-.09.02.02.07.06.14,0,.21-.09,0,0-.07-.08-.13-.05.05-.03.1-.01.15-.03,0-.06-.03-.09.02-.1-.09.05-.18-.02-.28-.02.06-.05.11-.03.17-.06.1-.12-.09-.18.04-.07-.05-.05-.1-.09-.15-.08.09-.16.04-.24.02-.04.15-.17.11-.27.11-.05-.04.09-.09,0-.13-.08.13-.17.07-.29.09-.07.05.04.1-.01.15-.1.03-.02-.13-.11-.17-.05,0-.07.03-.07.09-.19-.23-.36.13-.54,0-.06.14-.1.12-.21.21-.03,0-.06-.08-.13-.06-.02-.11.11-.06.14-.13-.11-.06-.19.03-.27.11-.09-.03-.05-.09-.11-.17-.07.03-.12-.03-.14.09l-.07-.08c.04.11-.15.17-.23.02-.05.16-.1.09-.2.06-.07.08,0,.02.04.08-.04.06-.08,0-.13.02-.07-.1-.03-.1,0-.17-.08,0-.16-.02-.24-.15.02-.03.04-.03.05-.02-.01-.08-.18-.04-.25-.04.19.06.16.2.35.23-.16.18-.2-.12-.33-.08,0,.09.15.18.13.28-.05-.08-.17-.06-.22-.17-.05.09-.05.18-.09.28.02-.15-.08-.14-.15-.21-.04-.06.07-.11,0-.17-.03.07-.05.07-.03.17-.05,0-.12-.07-.07.04-.05,0-.11-.06-.16-.11,0-.07.16-.01.12-.15-.09.08-.52.27-.45.02-.05,0-.11.1-.16.02-.07.2-.27.05-.39.25-.04-.14-.14-.05-.11-.17-.06-.03-.04.11-.12.15-.14,0-.28-.07-.42.06-.02-.12-.14-.08-.14,0-.06-.11-.11-.04-.16-.11.02.07.05.07.07.17-.07.01-.15-.07-.18-.13-.1-.02-.05.13-.18,0,0,.04.02.07-.02.11.08-.03.16,0,.24.06-.13,0-.27-.01-.4,0-.01-.02,0-.04-.02-.06.06-.04.18.05.18-.08-.1-.06-.17.11-.31-.02-.02.03-.05.06-.07.04-.01.04-.01.07.02.11-.08.07-.16,0-.23.06-.07-.04-.02-.08-.07-.13-.07.05.04.11-.05.11-.07-.06.04-.11-.05-.11-.05.03,0,.07-.02.11-.29-.25-.62,0-.85-.11-.03-.04.05-.08.03-.13-.1-.04-.2.15-.31-.02-.01.04-.01.07.02.11-.04.08-.07.02-.11.08-.05-.04,0-.07.02-.11-.05-.06-.11.01-.16-.02-.02.03.02.06.04.08-.04.07-.07,0-.11.04,0-.04.02-.07-.02-.11l-.07.08c-.05-.04,0-.08-.07-.13-.17.03-.35.07-.52.06l.05.06s-.1.09-.14.04c-.05-.04,0-.07.02-.11-.11-.05-.29.06-.34.1-.03-.09-.07-.11-.14-.04.09.08.01.08-.04.13.16-.04.24.08.42.03.02-.04-.02-.02-.04-.04.04-.09.07.05.11-.04.06.1.06.08.15.17-.21-.09-.5.09-.65-.05-.01.02,0,.04-.02.06-.07.04.01-.08-.05-.11-.11.17-.22.07-.32.04-.03.12-.1.11-.18.08.02-.08.09-.17.04-.25.05-.03.14,0,.14-.08-.07.01-.07,0-.11-.09-.03.1-.08.07-.09.15-.06.03-.12-.05-.18.04-.07-.15-.23-.07-.36,0,0-.13-.07-.12-.16-.02-.01-.04-.01-.07.02-.11-.12-.06-.24.08-.36.04-.03.04.05.09,0,.13-.04.06-.07-.11-.11,0-.03-.04-.03-.07-.02-.11-.06-.02,0,.12-.09.06-.05-.04-.06-.09-.04-.13-.09.06-.26-.05-.29.08-.05-.04,0-.09-.07-.13,0,.13-.09.02-.09.02-.13.02-.17.19-.31.06-.02.12-.17.06-.25.08,0-.04.02-.07-.02-.11-.05.14-.14,0-.23.14-.03.09.09.11.13.07.03.02-.08.1-.11.08-.03.1.08.03.11.04.02.04-.03.07-.05.1-.03.01-.1-.13-.18,0-.05-.05-.09-.1-.05-.15-.07-.08-.13.04-.2-.07-.02.06,0,.13-.07.13.04-.16.17-.27.31-.35-.06-.02-.12-.06-.18-.09-.03.04-.03.13-.09.06-.02.03,0,.07-.02.11-.08.06-.05-.05-.13-.11.02.18-.3.2-.34.01,0,.11-.08,0-.13.1.06.08.12-.03.18.05,0,.08-.15,0-.22,0,0,.04-.03.08-.07.13-.04.05-.04-.07,0-.09-.06-.03-.07.11-.02.15.04-.03.08.02.13-.06.02.04.02.09.04.13-.08.06-.17-.07-.25,0-.02-.08.12-.24,0-.25.02.12-.03.06-.09.1-.01-.13.06-.06-.07-.13,0,.08-.01.11-.09.15-.03-.16-.13.05-.21-.09.22-.02.39-.15.63-.05-.09-.14.16-.06.13-.23-.03-.04-.06-.02-.09-.07-.03.14-.18.04-.22-.05.05.12-.08.11-.02.23-.05,0-.1.06-.14,0-.04-.07.14.01.02-.11.04-.09.07.05.11-.04-.03-.04-.02-.07-.05-.11-.1.14-.13.03-.16-.07,0,.18-.23.06-.34.1-.04.08,0,.06.05.11-.12.14-.32,0-.38.14-.07-.05.01-.1-.02-.15.1,0,.19-.03.29,0,.03-.06.03-.11,0-.17-.02.04-.05.02-.07,0,0,.03-.02.06,0,.09-.1-.13-.37,0-.43.11.04-.21-.13-.11-.18-.26-.03.04-.06.04-.09.02-.03.11.08.02.11.09.03.09-.07.15-.17.27-.08-.12.08-.12.07-.21-.09-.08-.07,0-.16.06.03.05.01.1.02.15-.04.03-.08-.07-.13.02.08.09.16-.09.23.07.09-.09.18-.16.27-.14.03.05-.08.03-.11.04-.03.08.09.08.07,0,.03.42-.51.06-.79.19.03.03.05.06.03.09.04.06.09-.06.13.03,0,.06-.13.14-.18.04.04.1-.12.23-.18.12-.02-.02.11-.09.14-.04-.02-.13.04-.12.06-.23-.08-.05-.05-.08-.14-.13.13-.04.2.04.36-.12-.08-.1,0-.1-.11-.17,0,.07.07.14-.04.21-.12,0-.24-.05-.36-.01.05.04.06.09.03.13.05.02.11.02.16.03,0,.06-.07.1-.11.12-.04-.03-.02-.06,0-.08-.1-.06-.03.12-.15.08,0-.06.04-.13.02-.19-.13.16-.37,0-.51.15-.03-.05.02-.1-.05-.15-.07.05-.13-.01-.2.1.05.04.06.09.07.13-.08.05-.17,0-.25.08-.04-.09.06-.24.15-.12-.04-.07.03-.13-.01-.19-.07.15-.16.09-.31.18.04.09.08-.04.13.03,0,.1-.11.01-.16.1-.03-.04-.01-.07-.05-.11-.04.23-.21-.01-.31.09-.05-.16.14-.11.15-.21-.02-.02-.04,0-.05.02-.08-.05.05-.08-.03-.13-.06.06-.16-.01-.13.1-.06.09-.12-.05-.18,0-.01-.06.02-.14.07-.08-.01-.15-.23.11-.25-.09l-.11.12s.03.07.05.11c-.07.05-.07-.03-.11-.09-.11.17-.22,0-.41-.08-.11.12-.34-.07-.5.02,0,.1.08.03.12.07-.03.11-.21.08-.29.07-.03-.11.11,0,.09-.1-.06-.05-.1-.08-.1-.13-.04.04-.12.17-.19.25-.08.03-.06-.11-.12-.15-.04-.02-.18.11-.16-.03-.14.11-.28.07-.41.05-.08-.07.07-.12-.01-.19-.1.06.03.13-.06.19-.08.06-.08-.11-.14-.18-.05.04-.09-.02-.14,0,.02-.06,0-.11-.07-.17,0,.03-.02.09-.06.06-.04.06.06.01.07.09-.05.07-.1,0-.14,0-.04.05.07.08.09.07,0,.05-.02.1-.02.15-.07,0-.07-.08-.11.04-.08-.1.02-.07.02-.15-.07-.06-.07.05-.09.1-.08.03-.17-.03-.25-.01,0-.06.06-.12.06-.19-.08-.04-.15-.21-.25-.14-.07-.13-.08-.2-.24-.23.05.05.11.05.1.13-.06.06-.11.02-.16.01-.04.04.02.09-.04.13.07,0,.2.12.21.01,0,.05.03.1-.02.15-.06,0-.04-.12-.13.01-.08-.05.05-.08-.03-.13.01.13-.09.12-.16.05-.05.08.02.1.07.09-.03.04-.06.02-.09.06-.02-.05-.12-.11-.08-.15-.03-.01-.16.11-.12-.03-.06-.04-.1.18-.18.12-.02-.04.03-.07.06-.1-.09-.02-.25-.14-.29-.02-.03.02-.15-.03-.07-.09-.16,0-.37.13-.43.38-.04,0-.08-.02-.13.01-.07-.07.07-.14-.03-.21.09-.08.09-.02.14,0,.09-.07.11-.13.04-.21-.02.02,0,.04.02.06-.06.04-.11.08-.16.01-.04-.06.06,0,.07-.08-.04-.09-.1.05-.14-.05-.04.2-.23.05-.35-.06-.06.07-.11.22,0,.23-.03-.11.05-.07.11-.04.02.04-.03.04-.05.02.03.1.21.04.3.08-.29.13-.73,0-1.08.06-.02-.03.02-.06.04-.08-.05-.03-.09-.05-.14.03-.02-.14-.07-.02-.14-.09-.05-.05.12-.09.02-.15-.07.13-.1.05-.23,0-.06.1-.13.17-.22.03-.06.09-.12.02-.18.12-.18-.31-.53-.11-.84-.27,0,.09-.08.17-.11.03-.07.04-.06.1-.06.14-.02,0-.05.02-.07,0,.01-.06,0-.13.06-.19-.1-.09-.03.17-.14.03-.04.15-.06.09-.17.09-.03-.05.01-.1.06-.14-.18.1-.43-.01-.57.23-.09.04-.08-.03-.14-.05-.05-.07.05-.12,0-.19-.07.05-.06.11-.05.17-.09-.03-.07.04-.15.07-.05-.12.08-.25.16-.24-.04-.03-.02-.06,0-.04-.11-.13-.28-.27-.48-.06-.06-.06.09-.11.01-.17-.07.11-.24-.04-.35-.03-.04.03-.02.07-.06.1,0-.04.03-.07-.01-.11-.07,0-.02.03-.08.08-.01-.03.03-.05,0-.08-.07-.09-.15-.03-.15.07-.02-.03-.03-.04-.05-.03-.02-.03.02-.06.04-.08-.17-.02-.41-.19-.53-.04-.15-.13-.12.03-.21-.06-.1.16-.16.13-.28.21.04.06.08.04.12.07-.06.07-.1-.05-.16,0-.02-.03.02-.06.04-.08-.11-.02-.22-.11-.33-.13-.02-.03.02-.05.04-.08-.05-.01-.1-.05-.16,0-.07.23-.4-.13-.59,0,.2.05.41.09.61.16-.07.05-.14,0-.21-.02-.03.1.09.03.12.07l-.12.12s-.01-.07-.04-.11c-.15.04-.16.24-.33.14-.01-.08.12-.08.17-.13,0-.05-.04-.1,0-.15-.04.03-.14.28-.28.17-.02-.04,0-.09.05-.12-.07-.08-.15.17-.26.1-.07-.06.06-.11-.02-.17-.02.01-.01.03,0,.04,0,.06-.1,0-.08.12-.03-.02-.15-.06-.13.05-.04-.02-.09.03-.12-.03,0-.08.13-.14.11-.22-.05.02-.11.05-.17.09-.05-.05,0-.09-.06-.13-.11.02-.21-.02-.32-.03-.03-.05.07-.02.1-.1-.13-.08-.18.21-.3.03-.04.02-.08.13-.11.07-.05.06.05.01.06.09l-.06.06c-.1-.09-.21-.02-.31-.12,0-.11.15-.11.19,0,.05-.05.1-.08.15-.07-.06,0-.18-.17-.28-.03-.07-.07.03-.12-.04-.2-.08.14-.29.11-.45.1-.03-.08.06-.02.08-.08-.07,0-.03-.08-.09-.14-.1.05-.19-.01-.29.05-.12-.14-.13.02-.33.13.08,0,.16-.05.23,0,.04-.02.02-.05,0-.08.05-.03.1-.02.14.02.04.04-.06.05-.07.03.02.07.17.28.27.16.05.13.24.14.36.1.04.07.01.12.09.03.17.16.35.21.54.16,0,.15.19.05.13.18.03-.04.09-.03.16-.05-.03-.04-.06-.02-.08-.07.04-.02.07-.01.11-.03.01.04,0,.07-.03.1.04.07.09.03.13.1.04-.02.02-.05.04-.08.04.07.07.12.12.03.03.03.05.1.08.07.05.05-.1.08-.01.13.08-.16.38-.06.44.06.06.06.03-.06.08-.08.02-.01.04,0,.05-.02.06.06.01.1.08.16.13-.12.35.01.51.07.05-.08.09-.05.13-.09-.08-.1-.08.07-.16,0,.05-.06.03-.05,0-.15.12-.13.22-.04.24.06-.05.07-.09-.11-.14-.01.08,0,.11.13.04.2.11,0,.22.08.33.09-.04.11-.02.07.06.13-.06.02-.12-.01-.17-.1-.03.04.04.09,0,.13.07-.03.13.04.19.04.05-.05-.02-.11-.06-.18.1-.02.2.05.31-.04.02-.06-.02-.11.01-.17.11-.02,0,.11.08.16.02.04-.03.02-.06.06.09.15.34.08.45.25.15-.12.29-.02.43,0,.04.11-.1.09-.12.2.1.09.14-.13.16.08.04-.07.04-.14.01-.21.13-.04.25,0,.37.05.05-.16.17-.09.25-.06.02.03-.02.06-.04.08-.03.02-.06-.04-.09-.07-.03.02-.03.04-.02.06l-.04.04c.06.06.14-.06.19.08-.05.05-.08,0-.13.01-.03.11.1.06.14.1-.13.17.14.04.23.12,0-.07.03-.19.1-.18-.05.11.04.11.04.24.02-.03.04-.03.06-.02-.03-.12.09-.1.12-.2.05.02.19.15.3.04.06.06,0,.11,0,.17.1.06.19.07.24.14l.08-.08-.07-.09c-.07.12-.13-.03-.2-.04.09-.09.16.05.25-.02-.02.26.19.12.33.26-.05-.03-.11.03-.16-.03-.01.11.14.08.19.08.02-.06.02-.11.05-.17.1-.03.04.11.08.15.03-.04.05-.02.07,0,0-.13.09-.13.18.01-.05-.14.03-.04.12-.16.1.12-.13.09-.01.21.04-.15.1-.11.15-.2.08.11-.11.09-.08.16.09,0,.11,0,.17-.09.08.1-.06.05-.04.12.15.16.21-.01.36-.06.04.05.02.1.08.15.08-.09.16,0,.24-.05.02.06-.02.11,0,.17-.03.04-.05.01-.07.04-.06-.05,0-.08,0-.13-.11.02-.15.09-.27.05.08.04.15.12.23.08.06.06-.1,0-.04.08-.08-.05-.17-.03-.25-.06-.02.03.02.06,0,.08-.07.04-.02-.08-.08-.11-.03.04-.06.04-.09.02-.02.26-.17-.07-.27.09-.06-.06.02-.13-.07-.13-.06.08,0,.17-.05.25.04.07.1,0,.14.05.02-.03-.01-.06-.03-.09.06-.07.12,0,.18.01,0,.08-.06.03-.08.12-.07,0-.14-.03-.22.03-.06-.06.02-.13-.07-.13-.13.3-.51.05-.74.05,0-.06.08-.11.05-.17.21.05.42.14.64.13.04-.07-.08-.08-.11,0-.05-.08-.13-.06-.05-.15-.06.01-.12.03-.18.03-.01-.06.06-.11-.03-.17-.06.12-.08.08-.16.05-.07-.05.02-.1-.05-.15-.12-.05-.29.02-.37.1,0-.04-.03-.07-.01-.11.05-.06,0,.11.07,0-.1-.09-.21-.02-.32-.11l-.13.14c-.03-.06-.03-.12-.1-.18-.08.14.04.14.06.22-.07.07-.12-.16-.2-.04-.08-.09.08-.16-.02-.26-.02.02,0,.04.01.06-.14.07-.27-.01-.41-.05-.08.09.03.19.1.18-.07.03-.15.23-.21.13-.03-.08.08-.02.06-.1-.03-.1-.07.05-.1-.05-.05.08,0,.11-.1.14-.04-.05-.04-.09,0-.13-.09-.09-.1.16-.18.07-.02-.07.11-.12.03-.19-.07.04-.05.09-.1.14-.02,0-.05.02-.07,0,0-.07.1-.06.08-.16-.09,0-.07-.06-.15-.16-.16-.09-.35,0-.47,0,.11-.15-.28-.11-.4-.18.01-.11.16.03.24-.09-.14-.12-.28.09-.37-.05-.02.03.01.06.03.09-.05.1-.1,0-.15.07-.12-.22-.31-.04-.38-.2-.17.08-.26-.04-.4.09.06.01.02.03.06.09-.21.12-.25-.12-.25-.3-.05.08-.02.17-.05.25-.08-.03-.15-.03-.23-.09-.02-.06.1-.04.13-.09.01.05-.26-.1-.32-.07-.04-.02-.03-.14,0-.08,0-.1-.07,0-.11-.01-.02.03.01.06.03.09-.15,0-.35-.28-.56-.18l-.08-.11s-.07-.04-.11.03c-.13-.24-.31-.03-.44-.26-.17.09-.32,0-.47-.16.1-.06.11-.1.19-.15-.18-.01-.37.12-.44-.03-.01.18-.14.25-.11.46-.09-.03-.17-.1-.25-.13,0,.19.32.1.29.33-.04.05-.06-.07-.1-.1-.02.13-.14,0-.22.1.02-.07.03-.14-.05-.22,0,.1-.06.12-.14.18-.05-.09-.14-.2-.15-.08-.06-.06-.02-.13-.09-.14-.03-.08.01-.05.06-.1-.07-.03-.15-.06-.23,0-.05-.08.08-.13.02-.21-.03.03-.07.2-.13.09-.01.05-.06.09,0,.15-.1.04-.09.02-.14.13-.04.07-.06-.12-.1-.05-.09.07.04.09.06.13-.05.01-.09-.05-.14-.02-.03-.06.08-.1.02-.17-.03.09-.13.03-.09-.03-.12.15-.29.05-.43-.12-.01.05-.06.09-.07.14.07.05.04.05.09.14.05-.03.02-.07,0-.11.15-.01.28.13.42.2-.13.06-.24-.12-.37-.07.06.03.12.07.18.13-.08.04-.13-.08-.22.06-.03-.06.04-.11-.02-.17-.03.04-.06.01-.09.05-.04-.04,0-.07.03-.1-.03-.05-.07.02-.1-.06-.03.12-.14.03-.16.15-.09-.08.02-.14-.05-.22-.08.06-.23-.04-.24-.12-.12.06-.1-.07-.21-.03-.03-.08.06-.02.08-.08-.09-.1-.2-.02-.29-.1-.04.06-.06.08-.07.18-.06-.03-.17,0-.19.1-.07-.05.05-.08-.02-.13-.05-.03-.11.04-.15-.04-.07.05-.03.1-.1.09-.05-.08.1-.13.09-.2.05-.06.06.15.12.04,0-.1-.14-.11-.22-.05-.06-.05-.01-.09-.05-.14-.1.06-.28.12-.3.02-.03-.03-.04.03-.03.06-.07,0-.13.02-.18-.09-.05.07-.08.01-.13.09.08-.06.13.17.22.05.04.11-.04.14.08.23-.12.13-.13-.03-.15-.04-.08.09.06.09.05.18.04-.06.08-.06.1.02.06-.07.09-.01.1-.09-.05-.06-.11,0-.07-.12.04-.03.07.1.12.04.02.09-.06.1.03.15-.02-.15.08.01.14.02,0,.03-.02.15-.06.1.05,0,.15.16.23.12.05.19.17.09.2.26.09-.03.09-.12.19-.1.01.04-.04.07-.06.1.06.14.15.07.22.13.03-.05.02-.08-.03-.09.06-.1.12.02.13-.09,0,.02,0,.14.06.09.03.08-.01.05-.06.1.09.09.19,0,.27.16.06-.22.12.12.22-.06-.03.13.07.06.07.16-.07,0-.13.03-.19-.09-.08.17-.23,0-.33-.11-.01.06-.03.13-.11.18.19-.18.47.36.68,0,.11.03.22.02.33.1.03-.05.02-.08-.03-.09l.12-.11s.07.01.1.05c-.06.06-.11-.02-.17.09.05.06.1.06.15.12l.08-.08s.06.01.09.03c.03.05-.02.1-.07.14.13.05.09-.2.23-.1.02-.03.02-.07,0-.11.04-.03.08-.05.11-.03-.09.18.18.26.27.35-.11.04-.36-.12-.36.04-.11,0-.21-.1-.31-.08-.02.12.13.05.17.11-.09.05-.09,0-.16.11-.03-.19-.1-.03-.12-.23-.1.07-.06.15-.04.23-.07.03-.06-.1-.09-.14-.05.04-.09.02-.13.09-.06-.05-.01-.09-.06-.14-.09.09-.05,0-.12-.04-.09.06-.17,0-.26.05-.07-.06.02-.1,0-.15.09-.02.24.09.24-.08-.05-.02-.1.06-.15.07,0-.03,0-.06-.03-.09-.09.08-.1.09-.16,0-.11.06,0,.16-.11.22-.02.01-.04,0-.06.01-.06-.06,0-.11.02-.17-.04-.11-.09-.02-.13-.1-.04.02-.03.05,0,.08-.11.04-.2-.17-.32,0-.18-.1-.34-.02-.48-.19-.07.1-.12.01-.18.02-.03.1-.01.12-.08.18.07.1.08.08.12.19.05-.1.02-.08.09-.16.08-.02.15.07.24-.03.04.08-.09.14-.12.22.04.06.18,0,.15.13.11.05.25-.09.35.09-.08.06-.14,0-.22.06.04.03.1,0,.13.1.03-.09.05-.08.07,0,.15-.13.26.11.41.07.07.05-.02.08-.05.12.04.08.09.01.14.06-.02-.08-.02-.16-.1-.25,0-.04.01-.07.03-.1.04,0,.08.02.12.04.02.04-.05.08.02.13.05-.03.04-.07.06-.1.03-.01.04.03.07,0,.03.1-.04.04-.05.12-.06.05-.1-.09-.16,0,.54.16,1.09.22,1.63.43.05-.17.22-.06.25.07.05-.09,0-.19.04-.27.11-.03.08.14.19.09.02.03-.02.05-.04.08.09.04.19-.05.27,0-.13.22.2.15.33.33.08-.03,0-.09-.02-.13.14.02.08.04.21.11.03-.03-.04-.08,0-.11.04-.01.07.01.1.05,0-.04.03-.08.08-.12.08-.06.05.12.14.01.02.05,0,.09-.05.12.21.08.17.14.44.11.01.04,0,.07-.03.1.18-.11.34.03.51-.04,0,.03.01.06,0,.08.07.01.14-.05.21-.13.05.05.05.09-.01.13.22-.03.42.23.65.02.06.06-.02.1.04.15-.04.04-.07-.04-.11.03.17-.02.39-.13.6,0,.03-.09-.14-.08-.02-.17.09.1.16.18.24.15.06-.13-.07-.02-.12-.07.07-.09.14-.03.2-.05,0,.07-.02.14-.05.21.18-.02.33-.16.53-.06.01.03-.03.05,0,.08.03.04.06.02.09.07.07-.08.04-.08.12-.12,0,.04.02.09.06.13.09-.04.18,0,.27,0,.04.06-.06.07-.08.04.06.14.22,0,.28-.13.09.06,0,.11-.05.17.13.01.26-.15.39-.07.04.04-.06.12-.08.04.02.09.08.13.17.14-.03,0-.11.02-.04.08-.04.02-.07-.05-.11.03.05.08.12,0,.18.06-.02-.06.04-.16.1-.1.02-.04-.03-.02-.05-.07.07-.03.15-.04.23-.15.08.06-.05.11.03.17.06-.06.15-.06.16-.16.15.04.33.11.43.07,0-.05-.01-.1.06-.14.05.13-.06.18.1.22-.05.08-.1.02-.15.03,0,.11.17,0,.23.04,0-.04-.02-.07.02-.1.06.05.1.02.14.14.07-.05.03-.1.1-.14.05,0,.1.19.2.04.05.05,0,.08.07.13-.05.05-.09.03-.13.01.26.23.7.06,1.03.14,0,.06-.03.11-.08.16.06.03.13-.03.2.04.05-.05.03-.1.03-.15.16,0,.45.23.62-.05.05.1-.07.07-.06.14.12.01.14,0,.23.04.02-.03,0-.07.02-.1.12-.03.31.22.38.04.04.05.02.1.08.15.06-.02.11-.12.16-.01.09-.22.31.07.46-.08-.02.04.06.09.03.13.09-.04.19-.11.27.04.04-.05.08-.07.11-.08,0,.03,0,.06.03.09.02-.07.12-.06.07,0,.06-.06.15-.04.25.01-.02-.09.03-.1.1-.1.02.03-.02.06-.04.08.09.04.18,0,.27.04-.07.1-.09-.03-.13.1.05.02.11.06.16.03.02.04-.03.07-.06.1-.07,0-.13-.15-.2-.03.08-.02.04.15.12.11.02.1-.05.1-.11.12-.03-.05.02-.1.02-.15-.07-.06-.1.05-.13.1-.06,0-.12.03-.18-.05.13.03.11-.13.2-.1.04-.08-.11-.04,0-.13.07-.07-.02.13.05.07.1-.09.01-.05-.03-.13.02,0,.05-.02.07,0-.08-.08-.32.03-.45-.05.03.12-.07.02-.08.12.09,0,.17,0,.26-.07.03.28-.26.18-.36.26-.13-.11,0-.21-.08-.32-.01.14-.12-.05-.18.07.06-.02.22.04.16.16-.1-.15-.1.07-.24-.04-.07-.07.03-.13-.05-.19l-.1.1s.05.06.03.09c-.17.09-.34.04-.51.1.05.1.11.03.16.07-.11.07-.29.11-.32-.06.05.02.1,0,.15-.08.02-.08-.09-.03-.05-.11-.12.01-.22.18-.29-.02-.05.08-.09.03-.13.01,0,.04-.04.07-.02.1-.13-.08-.37.06-.43-.11-.08,0-.16.04-.24.05,0-.04,0-.07.02-.1-.07-.05-.05.08-.1.1-.07-.08-.02-.14.01-.21-.08-.04-.19,0-.21-.14-.03.08.04.17-.05.25.11.07.05-.18.19-.07.02.09-.01.13-.08.16-.14.03-.27-.19-.41-.14-.05-.12.06-.07.12-.12-.06-.07-.12,0-.18.03,0,.03,0,.06.03.09-.05.02-.06-.05-.07.04-.1-.09-.21.12-.3-.09-.02.1-.17.1-.18-.01-.07.18-.24.16-.35.08-.04.03-.02.06-.04.08-.09-.08-.2-.02-.19-.16l-.14.14c-.12-.08.05-.14-.02-.21-.08.08-.16.06-.24,0-.02.07-.09.13-.12.2-.05-.09.1-.16.02-.25-.01.21-.24.18-.35.08-.1.03-.09.16-.19.11,0-.07.08-.16-.03-.13-.01-.07.04-.12.1-.18-.01-.02-.02-.01-.04,0l-.03-.05c-.06.05-.02.11-.08.16-.1.06-.07-.11-.17-.18-.07.08-.13-.05-.2,0,.06.13.14.1.21.06,0,.05.04.1.08.16-.08-.03-.07.07-.16-.03-.08.04.04.09-.04.12-.07-.11-.24-.1-.37-.14-.03.05.1.08.14.05.01.17-.16.13-.24.09-.05-.11.13,0,.08-.08-.08-.12-.08.07-.16,0,.12-.19-.28,0-.39-.2-.05.08-.19.12-.29.21.02-.19-.28-.05-.33.01-.03-.03-.05-.06-.03-.09-.03.06-.1-.02-.19.07-.05-.16-.13-.01-.26.02-.02-.05.03-.1-.04-.15-.23.09-.35-.02-.59.03-.02-.06.03-.1-.05-.11-.02.17-.13.06-.18-.06.03.13-.1.21-.19.15-.02-.11.11.01.1-.1-.03-.04-.06-.02-.09-.07-.03.05.01.11-.06.1-.02-.04.05-.07.03-.1-.11-.07-.15,0-.15.07-.09.03.01-.13-.08-.11,0,.1-.08.13-.16.15-.02-.13-.06,0-.12-.12,0,.09-.1.07-.15.03,0-.05.04-.02.03-.1-.04.13-.31-.04-.29.16-.06-.07-.14.12-.2.04-.04-.1.07-.06.12-.16-.06-.04-.13,0-.2-.04-.05.26-.29.11-.36.15.01-.08.1-.1.14-.13.03.03.01.06,0,.08.08.06.06-.06.15-.07-.12-.04-.15-.01-.24-.2-.08.04,0,.1-.03.15-.09-.16-.53-.05-.68-.12-.02.01-.16.07-.1.14-.1.08-.17-.11-.19.06-.05-.06.02-.11.02-.17.03-.02.06.04.08.07.06-.08-.03-.14.09-.16-.09-.01-.11.05-.23.1,0-.03,0-.06-.03-.09-.07.07.03.06,0,.15-.06.03-.1-.05-.17.04.27.14.54.17.82.22.08.05-.05.08.02.13.07,0,.05-.05.1-.1.07.09-.06.16-.13.24-.15-.02-.31-.23-.52-.12-.05,0-.1-.09-.16-.08.04.1.03.09-.08.03-.07.04,0,.08-.05.12-.12-.18-.16-.06-.28-.08-.05-.05,0-.08-.06-.14,0,.09-.06.15-.14.09-.05-.05.1-.07.01-.13-.03.04-.05.02-.07,0,0,.03-.03.07-.07.1-.15-.07-.23-.09-.34-.21-.05.18-.11-.06-.2.04-.03-.08.07-.02.1-.09-.07,0-.13,0-.2-.05-.04.01-.09.12-.12.07.01.11,0,.1-.11.18.14,0,.18.13.3.06.06.1-.05.07,0,.15.08-.05.09-.12.07-.18.05-.03.09,0,.13-.05,0,.14.11.08.18.06.04.1-.09.07-.11.18.07.03.07-.01.12-.07.02.04.06.13.17.15,0-.06.07-.1.13-.16.02.07-.02.14.05.22.05-.06.1.02.15.02-.02.05.01.1,0,.15.2-.02.39.04.58.11.12-.12.21.08.33,0,.17.24.48-.08.59.21.04-.07.08-.02.12-.07.04.09.09.09.13.14-.08.04-.13-.05-.17.09.04-.11-.04-.06-.1-.1-.05.08.02.07.06.09-.09.09-.17.03-.26.02-.03-.05.09-.06.11-.03-.02-.11-.22-.02-.31-.05.03.09.09,0,.12.08-.17-.05-.24.05-.39.06-.05-.06.13-.09.03-.15l-.08.08c-.15-.1-.35-.05-.46.01.12-.11-.06-.09-.15-.12-.02.05-.07.1,0,.11-.14.15-.14-.1-.26.01-.05-.07-.01-.13,0-.19-.05-.04-.14.1-.14.13-.08.04-.2-.16-.24,0-.03,0-.15-.08-.12-.12-.08.09-.28.09-.44-.01.1-.04.09-.02.18-.13-.06-.06-.11-.09-.17-.15-.06.02.04.16-.03.1-.04.11.08,0,.11.01,0,.14-.22.21-.3.05-.12-.02-.27.24-.38.08l-.08.07c-.06-.05.01-.08.01-.13-.07-.04-.16.11-.22.01-.03-.08.08-.05.1-.09-.21.03-.41.09-.52-.09-.06,0-.12-.03-.19.06.04.04.04.08,0,.11-.06-.11-.27,0-.39-.14.05-.05.1-.09.13-.05-.03-.08-.22-.11-.32-.13-.1.09.06,0,.08.12-.07.06-.12-.01-.19.06,0,.04,0,.07-.03.1.04.07.07.02.06.09-.02,0-.05,0-.08.03-.07-.17-.1-.13-.21-.22.07-.09.11.08.19-.02-.03-.09-.08-.04-.11-.12.03.09-.15.13-.22.12-.01-.03.03-.05.05-.08-.03-.11-.1-.02-.13-.11-.04.04.04.09.02.13-.14.06-.25-.07-.38-.04-.02.11.09,0,.14.06,0,.02,0,.04,0,.07-.09-.06-.12.02-.23.05-.01.12.08.1.13,0,.08.07-.1.12.02.13-.06.06-.19.06-.12.17ZM9.48,9.83c.07-.08.13.01.2.04-.07.06-.14.02-.2-.04ZM15.06,11.06c-.06.09-.19,0-.1.14-.11.05-.21.01-.31-.04.06-.08.06-.03.12-.16.03.03.06.09.09.07.03-.03-.01-.06,0-.08.07.04.14-.07.2.08ZM56.29,3.89c.06-.07.04-.15.12-.07,0,.06-.07.13-.12.07ZM56.06,1.6c.11-.05.12-.08.21-.22.05.09.09.04.13-.02.06.09.08.09.12.21.09-.09.02-.17,0-.25.15.04.15.25.07.36-.13-.15-.25.14-.38.07-.07-.09.07-.05.03-.13-.06.05-.16.06-.16-.02ZM44.89,3.1c-.06.08-.13-.02-.2.02.06-.08.13-.07.2-.02ZM39.21,3.65c-.03-.07-.15-.05-.13-.15.05.1.18.01.13.15ZM34.91,3.69s.1-.06.15.04c-.04.07-.17.04-.15-.04ZM9.92,2.65c-.08,0-.15,0-.22-.09.06.01.23-.02.22.09ZM11.32,4.17c-.01.09-.33.04-.26-.09.08.11.18-.04.26.09ZM5.13,3.18s.02-.07.06-.1c.02.05.06.03.08.08-.05.06-.11.1-.14.02ZM13.18,7.28c-.17,0-.24-.02-.38-.05.13-.06.26-.03.38.05ZM9.68,6.99c-.05-.02-.21,0-.19-.08.06,0,.21-.02.19.08ZM7.91,6.66s-.08.17-.12.07c-.03-.06.09-.13.12-.07ZM3.28,7.69s-.02.03-.06.06c-.04-.14-.12.06-.15-.09.08-.1.23-.04.22.03ZM5.79,8.57s-.11.06-.15-.02c.09-.1.14,0,.15.02ZM8.25,9.53c-.01.08-.13.07-.18-.02.07-.08.13-.02.18.02ZM8.78,9.61c-.07.05-.22,0-.21-.11.07.06.15-.01.21.11ZM5.48,4.81c.12.03.24-.02.35.05-.12.1-.31.04-.35-.05ZM10.28,11.2c-.02.09-.14.08-.21,0,.08-.11.14-.07.21,0ZM8.05,8.1c-.06-.01-.13.05-.18-.02.06-.06.2-.09.18.02ZM5.52,4.43c-.02-.07-.14.01-.1-.1.05.03.16-.02.1.1ZM5.65,4.38c.02.12.05.03.12.08-.03.03.03.08,0,.11-.09-.02-.05-.1-.14-.02l-.05-.07s.02-.07.07-.1ZM5.96,4.7c-.06,0-.13.07-.18-.02.07-.1.13-.06.18.02ZM8.03,7.08s.08-.05.11-.03c-.09.06-.05.27-.16.2-.02-.1.11-.09.05-.16ZM6.51,4.7l-.08.08-.05-.07c.05-.08.09-.02.13,0ZM5.58,3.28c-.01-.15-.07,0-.14-.06,0-.14.26-.05.14.06ZM8.44,7.08c.11.1.27-.08.32.12.02-.13.15-.11.2-.04-.18.01-.16.16-.33.24-.06-.18-.07.01-.1-.14-.09.02-.29.1-.31-.01.01.02.11,0,.08-.03-.06.02-.12,0-.18-.06.06-.07.1-.01.14.06.06-.06.16-.02.18-.13ZM10.22,9.81c-.01.11-.11.07-.17.05,0-.09.12-.1.17-.05ZM8.07,6.74l.06.09c-.04.05-.08.07-.11.03.08-.03-.04-.09.05-.12ZM6.17,3.55c-.06.09-.09-.11-.16,0-.05-.07.02-.15-.07-.16.14-.14.13.13.23.16ZM7.09,4.88c-.06.06-.12.14-.17.04.05,0,.12-.13.17-.04ZM6.46,3.99c-.05-.13.14-.26.21-.17,0,.08-.06.13-.1.14,0-.11-.07-.05-.11.03ZM9.53,7.53c0-.11-.07-.05-.11.03-.05-.01-.06-.04-.07-.09-.14.09-.25-.07-.39.02-.05-.06.02-.19-.09-.07-.06-.07-.05-.24.05-.17-.02.03-.04.05,0,.08.03-.24.24-.14.36-.2l.08.12c.07,0,.16-.12.22-.02-.04.13-.21.14-.3.1.02.03-.01.04-.04.04.06.01.11.11.17.1.1-.11.2-.19.28-.08-.15-.02-.12.08-.18.13ZM7.22,4.83s-.04-.09.01-.13c.03.1.08-.04.1.05-.06.06-.05.14-.13.2l-.05-.07.06-.06ZM12.14,11.51c.02.07-.11.14-.13.05.05-.03.1-.15.13-.05ZM11.35,10.04c-.05.14-.24-.06-.16-.04.05.03.11-.05.16.04ZM7.1,4.03l-.08.08s-.05-.06-.03-.09c.03.03.05-.1.11.01ZM7.73,4.57s-.03.07,0,.11l-.1.1c-.05-.02-.1-.08-.15-.12.08,0,.16-.06.24-.08ZM7.14,3.99c.04-.06.03-.12.04-.19.03.05.07-.02.1.05-.16.13.12.09.07.2-.07-.07-.24.05-.24-.11l.03.05ZM8.02,4.9c-.02-.16-.12-.02-.19-.09.06-.19.26-.07.19.09ZM8.16,4.96c.06.03,0,.14.06.09.04-.05,0-.1.03-.15l.06.09s-.07.06-.03.1c-.05.05-.09.1-.13.05.02-.03.04-.05,0-.08-.07.04-.03.08-.08.12-.07-.09.05-.15.08-.23ZM8.61,5.56c-.09.08-.16.07-.23-.05.08-.06.16-.02.23.05ZM7.41,4c.09-.04.17.1.26.05-.08.08-.13.06-.24.04.02-.03,0-.06-.03-.09ZM10,7.34l-.08.08c-.04-.09-.09-.1-.14-.01l-.05-.07c.1-.07.18-.01.27,0ZM7.78,4.21c-.05-.05-.11-.01-.15-.08.05-.07.18-.01.15.08ZM12.26,10.25c-.1.05-.19-.05-.29-.02.04-.14.21-.03.29.02ZM7.45,3.58c0-.05.04-.09.07-.14.05-.01.1,0,.14.02.01.07-.02.13-.04.19.1-.14.17-.09.26-.1.06.16.13.14.25.22-.06.1-.25,0-.35-.04.03.04.02.07,0,.11-.11-.01-.13-.05-.08-.12-.08.02-.34.06-.39-.15.08.07.07-.01.14.02ZM8.29,4.67c-.04.1-.07.16-.17.09.12.02.05-.12.17-.09ZM7.67,3.86s.08.02.12.08c-.06.07-.18.01-.12-.08ZM10.26,7.37s.06.02.09-.01l.08.11c.13-.09.15,0,.3-.06-.04.04.02.09-.05.12-.07-.09-.14-.05-.22-.02.02.07.03.14-.05.21-.05-.04-.11-.05-.15-.12.06-.07.11,0,.17-.09-.02-.09-.17-.05-.17-.14ZM10.3,7.48c-.07.06-.12.03-.18-.06.06-.04.12.03.18.06ZM8.12,4.08c.08.05-.05.08.02.13-.05.05-.1.04-.14-.02,0-.06.07-.12.12-.11ZM13.02,10.88c-.05.05-.11.1-.15.03.05-.07.1-.05.15-.03ZM8.03,3.9s.01.07.04.11c-.05.06-.09.03-.12-.04l.08-.08ZM9.47,5.65s.05.08.05.11c-.08.02-.16.06-.23-.04.07-.09.12.03.19-.07ZM8.31,4.12c.09.09.19-.01.28.07-.09-.03-.2.12-.29.01.03-.03,0-.06,0-.08ZM8.69,4.63l.08-.08c.02.05.06.11.04.15-.03-.09-.08,0-.12-.08ZM8.24,3.88c.03-.05-.11-.13-.02-.17.09,0,0,.09.07.16l-.1.1c-.02-.05-.12-.04-.08-.12.04-.02.08.04.12.03ZM10.92,7.54c-.07-.05-.08.08-.17,0,.05-.08.19-.12.17,0ZM9.17,4.75c-.07,0-.14.04-.2,0,.07-.1.13-.03.2,0ZM13.8,11.05s-.09.08-.13.01c0-.08.09-.11.13-.01ZM9.67,5.22c-.06-.03-.13,0-.19-.08.06-.08.2.01.19.08ZM11.32,7.57c.09,0,.17.04.25.07-.08.08-.3.09-.25-.07ZM8.98,3.43c-.08.07,0,.03.03.09-.05.08-.08-.05-.13,0,.05.12.11.08.17.15.01.04.07.19-.03.15.04-.08-.07-.03-.08-.11-.08.12-.14-.04-.22.02-.04-.11-.08-.14-.17-.15-.03.03.03.07,0,.11-.15-.13-.05-.21.03-.38.04.04,0,.07,0,.11.03-.03.05.05.09.03-.03-.04-.04-.08-.04-.11.07-.06.11.02.1-.1.04,0,.08-.01.12.08-.03.04-.07.02-.06.06.06,0,.12.03.17.06ZM9.45,4.2c0-.08.06-.05.11-.07.02.13.13.05.21.11-.09.12.08,0,.1.14-.08.04-.15-.06-.23-.04-.15.11-.13.36-.27.27.11-.07.25-.31.09-.4ZM14.44,10.97c.01.05-.1.09-.03.15.1-.06.06-.12.1-.18.03.05.06.03.09.07-.06.16-.14.19-.2.33-.12-.17-.15-.16-.28-.23.08-.07.19-.15.32-.13ZM11.75,7.61c-.03.08-.1.1-.17.05.06-.04.11-.04.17-.05ZM8.59,3.15s.04.09-.01.13c-.09.02-.07-.17.01-.13ZM9.76,4.51l-.16.16s-.05,0-.07-.05c0-.1.15-.17.22-.11ZM11.89,7.66c.04.05.09.03.05.11-.03-.04-.07.03-.11-.05l.06-.06ZM10.77,5.84c.09.11-.08.16-.13.09.05-.08.09-.02.13-.09ZM9.11,3.61s.1.1.04.15c-.04-.05-.08-.11-.04-.15ZM12.01,7.55s-.02.03,0,.04c.03-.04.06-.03.09-.01-.07.06-.13.08-.18.03.03-.03.07-.08.1-.06ZM11.99,7.14c-.06-.08-.13.07-.18-.02.05-.07.2-.09.18.02ZM8.64,2.26c-.04.09.07.05.05-.02.04.05.02.1,0,.15-.08-.03-.07.03-.18-.02.03-.06.07-.11.12-.12ZM15.69,11.19c-.05.07-.1,0-.15-.01.05-.07.1-.07.15.01ZM11.89,5.98c-.05.06-.09.03-.12-.03.05-.06.09-.03.12.03ZM13.37,7.96c.08.07-.03.18-.08.08.05-.05.01-.08.08-.08ZM12.19,6.11c.08-.08.26-.04.27.09-.07-.13-.16,0-.24,0,.03-.06-.05-.01-.03-.09ZM16.62,11.35c-.08.02-.16.05-.24-.04.08-.05.23-.08.24.04ZM10.17,2.78s-.16-.06-.13-.14c.04-.03.16.07.13.14ZM11.57,4.1c.05.11.11.07.17.14-.07.07-.13-.05-.2.09-.03-.06-.07-.01-.1-.09.09-.07.07-.05.14-.14ZM13.98,7.26c.07.07.09.13,0,.19-.06-.02-.07-.13-.16-.12.05-.1.1,0,.15-.07ZM11.43,3.07c-.07.07-.14.12-.2.09.07-.07.14-.17.2-.09ZM12.83,5.14c-.05.06-.09.03-.12-.03.05-.06.09-.03.12.03ZM12.35,4.3c-.07.06-.14.09-.2,0,.07-.06.13-.02.2,0ZM12.79,4.72c.09.09.19-.02.29.02-.07.15-.18.08-.31.08-.02.03-.01.08-.06.02,0-.04.03-.08.08-.12ZM14.24,6.36c-.1.08-.19.07-.27.04.1-.09.19-.06.27-.04ZM11.85,2.91c-.05.05-.1.03-.15.03.04-.07,0-.14.05-.21.07.06.03.12.09.18ZM11.56,2.97c-.02-.11-.07-.07-.13-.14.12-.01.23-.23.29-.06-.1.02-.1.11-.16.2ZM11.86,3.11c-.03-.09-.17.02-.14-.1.07,0,.13-.02.19.08-.04.03-.03.07.01.11-.06.05-.12.06-.18.03.03-.04.14-.03.12-.12ZM13.02,4.44s-.1.03-.14-.05c.04-.07.17,0,.14.05ZM12.81,4.42c.06-.05-.05-.1.03-.15.08.04.04.18-.03.15ZM13.19,4.86c.05-.07.1-.04.15-.07.04.09.09.07.14.1-.08.04-.05.04-.12.12-.03-.08-.05-.12-.12-.03-.03-.04-.05-.07-.05-.11ZM15.9,8.16c-.06.09-.13.05-.14.14l-.03-.04s-.03.02-.04,0c.04-.1.13-.15.21-.09ZM18.14,11.32s.09-.02.09.07c-.05.09-.14,0-.09-.07ZM12.03,3.01c-.05,0-.11-.02-.16-.08.05-.11.17.04.16.08ZM15.54,7.41c-.08.05-.15.04-.22-.02.08-.05.15-.04.22.02ZM12.71,3.22s-.02.03-.06.06c-.07-.03-.07-.15-.18-.06-.01.07.1.06.04.15-.07,0-.11-.05-.13-.14.1-.11.3-.15.32-.02ZM15.04,6.61c.08.04.16-.08.23.04-.07.08-.14.04-.21.09-.04-.05-.06-.09-.03-.13ZM13.73,4.62s.07.03.1.09c-.05.09-.16-.03-.1-.09ZM12.97,3.26s-.03.05-.04.08c-.04,0-.07-.03-.1-.09.05-.05.1-.04.14.01ZM14.08,4.69c-.05,0-.12.13-.17.05.06-.06.11-.08.17-.05ZM14.58,5.09c-.08.1-.09-.03-.13.1-.03-.04-.05-.07-.05-.11.06-.08.12-.07.18.01ZM14.19,5.02c.07.09.15-.07.21.06-.07.12-.22.05-.21-.06ZM13.21,3.54c-.05.11-.1,0-.14-.05.05-.07.09.03.14.05ZM14.33,4.8c-.05.08-.1.02-.15.03,0-.1.1-.11.15-.03ZM14.56,4.64c-.1.08-.14.09-.16.2-.07,0-.04-.07-.06-.13.05-.07.1-.05.15-.07-.02-.02-.07-.02-.05-.07.11-.04.16.04.23.12-.02.03-.01.07-.06.1-.07-.05-.02-.1-.05-.15ZM14.81,4.89c-.12.07-.24.05-.36.02.03-.2.24-.09.36-.02ZM13.19,2.88c-.09.03-.18-.03-.26-.04.09-.04.18-.05.26.04ZM13.69,3.56c0,.06-.02.16-.1.1,0-.02.05-.15.1-.1ZM13.59,3.06c.1.06-.08.09-.03.15.04.05.1-.08.14.01-.1.09-.19.04-.29.02.03-.09.12-.04.17-.18ZM14.94,5.16c.12-.12.24.08.19.2-.05-.09-.04-.13-.19-.2ZM14.97,4.89l-.1.1s-.05-.06-.03-.09c.04.07.09-.13.13-.01ZM14.32,3.82c.05.05,0,.1-.03.15-.02-.03-.05,0-.07-.05l.1-.1ZM14.04,3.31c.04.08.03.16-.03.23-.08-.08-.03-.23.03-.23ZM14.9,4.65c.06-.09.14.03.14.09-.09.09-.06-.02-.14-.09ZM14.35,3.31s.06.07.09.07c-.09.05-.1-.04-.17.09-.02-.14-.09-.03-.15-.12.08-.07.15.03.24-.05ZM14.83,3.56c-.1-.15-.32.03-.37-.13.1.02.39-.1.37.13ZM14.73,3.55s.02.09-.04.12c-.03-.02-.06-.01-.09-.07.08-.03.05-.1.13-.05ZM15.35,3.53c.04.08.08-.01.12.07-.05.04-.1.06-.15.03.02-.03,0-.07.02-.1ZM16.89,5.04c-.06,0-.25.09-.19-.08.05.09.2-.01.19.08ZM18.64,7.35c.08.06-.02.19-.08.12.05-.04,0-.08.08-.12ZM16.85,4.93c-.04.06-.08,0-.12-.03.05-.04.05-.18.1-.14-.02.06.02.11.03.17ZM16.91,4.74c.09.07,0,.21-.06.14,0-.05-.01-.1.06-.14ZM16.22,3.7c.05.12.11-.03.16.07-.09.07-.18.05-.27.05l.11-.12ZM16.92,4.57l-.08.08-.05-.07c.05-.08.09-.03.13-.01ZM17.22,5.02c.1-.1.08.08.18.1-.06.03-.17-.01-.18-.1ZM17.45,5.14l.07.09c-.04.07-.17.09-.14,0,.05.05.07-.06.08-.08ZM19.22,7.34s-.08-.04-.12-.07c.26-.02.51-.02.76.08-.08.15-.14-.08-.22.03.05.05.09.03.05.11-.08,0-.04-.09-.12-.15-.08.1-.16-.06-.24.05.05.02.1,0,.14.09-.04.06-.07,0-.11.08-.06-.03.02-.16-.07-.13-.05.05.05.1-.02.15-.04.01-.07,0-.11-.05,0-.06.08-.12.06-.19ZM17.23,4.72c.08.12.17.03.25.1-.05.08,0,.16-.1.19-.08-.06-.01-.11-.03-.17-.05.02-.11,0-.16.05-.06-.06-.01-.11.04-.17ZM16.63,3.79c-.06.07-.13.15-.18.07.06-.03.13-.15.18-.07ZM17.9,5.59l-.08.08-.05-.07c.04-.06.09-.08.13-.01ZM18.46,5.11s.06-.01.09.03c-.13.1-.19-.17-.26-.21l-.09.1c-.13-.14-.27-.12-.41-.09-.02.1-.08.18-.12.21,0-.17-.07.05-.14-.05.12-.11.21-.17.28-.3.11.19.32,0,.47-.01-.02.04-.12.08-.08.12.07-.06.13-.03.2-.09-.02-.02-.07-.01-.05-.07.06.08.23-.06.23.08-.09-.06-.23.09-.15.2.01-.15.25-.06.25.01-.07,0-.26-.08-.22.07ZM18.54,4.91s.08-.1.13-.1c-.04.07.08.02.1.09-.08.07-.16.03-.23,0ZM16.63,3.83c.09-.02.18,0,.27.04-.09.04-.25.08-.27-.04ZM17.33,4.62s-.07.04-.11-.05c.03-.11.14,0,.11.05ZM17.67,4.7c-.05.06-.18.08-.16-.03.05.04.11,0,.16.03ZM17.06,3.86c0,.06-.1.11-.15.03.05-.07.1-.05.15-.03ZM20.06,7.43c-.02.09-.11.01-.1.14-.09-.06.04-.21.1-.14ZM20.26,7.42c0,.09-.09.06-.15.16l-.05-.07c.07-.07.14-.16.2-.1ZM18.15,4.76s-.18.08-.16-.03c.05.03.11-.03.16.03ZM17.84,4.08c-.04.06-.09.08-.13.01.04-.06.09-.08.13-.01ZM18.88,5.03s.1,0,.14,0c-.06.07-.07.15-.15.12.03-.04-.04-.09,0-.13ZM19.25,5.24s.06.06.09.07l-.04.04s.02.03,0,.04c-.1-.1-.03.09-.08.12-.04-.03-.09.02-.12-.07.09-.07.09-.14.15-.2ZM19.05,4.85s.07.07.05.11c-.08-.04-.17.08-.25-.06.09-.06.14.03.2-.05ZM24.31,11.42c.07.06.02.11-.04.17-.02-.03-.05-.04-.07-.04,0-.06.06-.13.11-.12ZM21.08,7.39c.06-.04.12-.02.18.05-.06.07-.07.24-.17.14.06-.08.1-.15-.01-.19ZM19.66,5.32c-.07,0-.08-.08-.07-.13-.13.09-.35.04-.41-.13.15.1.33.05.43-.02-.03.06,0,.11.03.17,0-.09.02-.1.09-.1.04.04,0,.07.01.11.04-.11.04-.03.11-.04-.05-.09.06-.1.11-.04,0,.07-.08.05-.13.14-.12-.03-.13-.09-.18.03ZM18.37,3.43c.09.09.17-.11.22-.12.07.11-.04.09-.08.21-.03-.09-.07,0-.11.04-.04-.05-.06-.09-.03-.13ZM19.64,4.94c.08.04.15.05.23.08-.06.04-.11.06-.16.06.03-.03-.15-.02-.07-.13ZM19,3.8c0,.06-.08.16-.13.1.04-.02.09-.15.13-.1ZM18.91,3.37c-.04.08-.08.02-.13.1.05.05.09.03.05.11-.05-.03-.2,0-.19-.12.08-.06.16-.17.27-.09ZM20.06,5.18c.03.1.16-.05.12.07-.05.02-.18.06-.12-.07ZM19.71,4.37c-.07.03-.14.01-.22.03,0-.06.22-.14.22-.03ZM19.08,3.55s-.03.06-.04.08c-.04-.04-.18-.03-.16-.11.06.06.13-.06.2.03ZM20.82,5.17c-.11.06-.29.05-.44.06.03.05.07.1.01.15-.02-.18-.08-.05-.18-.14.07-.08.12-.08.1-.23.11.24.33.06.5.15ZM25.51,11.44c-.06-.04-.12.09-.18,0,.05-.03.2-.1.18,0ZM22.37,7.43c.03.07.07.07.11,0,.07.13-.12.28-.22.2.11-.09.1-.09.11-.21ZM19.44,3.61c-.11.04-.21-.02-.32-.02l.06-.06c.09.06.18.02.27.08ZM21.11,5.89c-.07-.01-.24.02-.25-.1.07.06.24-.05.25.1ZM20.94,5.45c.09.1.19.02.29.1-.11.09-.3.03-.34-.04.03.03.05-.03.06-.06ZM19.58,3.58s.04.07.01.11c-.05-.05-.1.03-.14-.05.04-.05.09-.1.13-.06ZM19.92,3.66c-.06.08-.12.07-.18.03.06-.02.12-.09.18-.03ZM20.97,5.18c.11-.09.12.01.2.12-.03.03-.05.07-.06.1l-.03-.04c.04-.1-.01-.14-.1-.17ZM19.75,3.36c.09.03.19-.06.28.06-.09.02-.07.16-.15.16-.1-.05,0-.2-.07-.17-.03.05.02.1-.06.15-.05-.07-.02-.13-.01-.19ZM20.17,3.67s-.03.08-.08.12c-.04-.1-.1-.01-.14-.09l.04-.04c.05.09.09-.02.18,0ZM21.58,5.25c-.08,0-.32.19-.29-.01.09.09.2-.09.29.01ZM22.11,5.61s-.1.07-.15.04c0-.06.09-.11.15-.04ZM22.13,5.38c-.11-.05-.39.1-.38-.12.11.11.32,0,.38.12ZM22.75,5.94c-.05.07-.1.06-.15.04,0-.07.09-.08.15-.04ZM22.63,5.61c.1.18.2.04.3.12-.06.13-.26.01-.38,0,.05-.04,0-.08.08-.12ZM22.67,5.53c.1.12.12-.16.24-.05-.1.07-.05.05-.09.14-.05,0-.2.03-.14-.09ZM23.28,5.6c-.06.08-.11.09-.16.06,0-.08.11-.17.16-.06ZM22.12,3.96c-.06.11-.12.04-.18.03.06-.02.12-.09.18-.03ZM22.08,3.87c-.04.06-.17.04-.14-.05.05.06.1-.06.14.05ZM22.35,4.11s.05.09.03.13c-.04.06-.09.08-.13.02.06-.03,0-.18.09-.14ZM22.34,3.67s-.08.1-.06.19c.04-.04.08.01.12.07-.09.05-.18.18-.27.09.14-.1.04-.46.21-.35ZM23.95,5.98c-.03.09-.16.05-.13-.03.04.03.09-.06.13.03ZM22.6,4c-.04.06-.09.08-.13.02.04-.06.09-.08.13-.02ZM23.74,5.51c.09-.02.24-.04.27.07.07-.07.19.05.2-.1l.07.09c-.05.08-.09.02-.09.1-.1-.06-.16-.06-.18.08-.08-.05-.01-.09-.03-.13l-.09.1c-.09-.13,0-.19-.14-.22ZM24.39,5.66c.1.13-.12.21-.18.12.02-.03,0-.07.02-.11.12-.01.08.16.16-.02ZM24.59,5.52c.09.08,0,.16-.06.23-.03-.03-.06.03-.09-.02.07-.14.1-.05.15-.21ZM25.03,6.02c-.05.04-.11.09-.16.02.06-.07.11-.07.16-.02ZM30.26,11.17s.18-.08.17.02c-.05-.05-.11.03-.11.08-.03-.04-.05-.07-.05-.11ZM26.01,5.71c.1.13-.18.28-.16.1.08.06.07-.09.16-.1ZM30.56,11.13c.1-.04.29-.12.33.05-.13-.06-.06.11-.11.17-.07-.08-.04-.16-.05-.23-.06.1-.16.14-.17.02ZM31.13,11.12s-.1.04-.15,0c-.01-.13.21-.1.15,0ZM25.98,3.99c-.06.05-.12.05-.18,0,.06-.09.12-.04.18,0ZM26.31,3.87c.05-.16.09,0,.14,0-.05-.11.04-.19.07-.25.09.09-.11.18-.02.28.02-.03,0-.07.06-.1.03,0,.14.08.11.13-.1-.08-.48.31-.4-.01-.07,0-.24.09-.25-.05.04-.08.25-.1.29,0ZM26.42,3.66c-.09.07-.18.06-.27.06.09-.06.18-.13.27-.06ZM32.34,10.8c.08.05.26-.13.28.02-.09-.01-.25.14-.28-.02ZM26.74,3.59s.07.07.05.11c-.09-.07-.13-.05-.16.06-.06-.12.04-.13.11-.17ZM27.08,3.83c.04.08.08-.05.13.07-.05.05-.18.02-.13-.07ZM26.94,3.36s.06.09.03.13c-.02-.02-.05-.07-.07-.04-.02.01-.04.04-.05.02l.09-.1ZM33.26,10.76s0,.07-.05.11c-.04-.09-.09-.03-.13-.06.06-.06.12-.11.18-.04ZM27.73,3.8s.08.05.09.07c.02-.03,0-.07.02-.11.09-.02.13.1.05.19-.1-.02-.19,0-.29-.05.07-.05.09-.1.13-.1ZM33.59,10.93l-.07-.09c.06-.1.16.02.07.09ZM28.2,3.9c.05-.03.11-.05.16.02-.05.07-.11.05-.16.02,0-.01.02-.03,0-.04ZM34.39,10.6s.09,0,.13.06c-.03.03.02.15-.05.11.04-.06,0-.11-.06-.06.02.04.02.09,0,.13-.04-.04-.07.03-.11-.04.09-.06,0-.13.09-.19ZM28.74,3.7c.08.04.25-.04.27.07-.05-.03-.11.02-.16.02.03.05.06.02.09.07-.05.04-.13.06-.13.15-.04-.1-.06-.2-.07-.3ZM34.76,10.6s0,.1-.05.15c-.04-.06-.04-.21.05-.15ZM29.12,3.81c.09.09.08.19.05.28-.02-.03-.05-.04-.07-.04.04-.08-.07-.16.02-.23ZM34.92,10.71c-.04.06-.08.08-.13.02.04-.06.08-.08.13-.02ZM29.35,3.75c-.1.02-.19.05-.29,0,.1-.02.12-.06.2-.06-.01.02,0,.04.02.06.02-.02.05-.04.07,0ZM29.5,3.84s.02.07.02.11c-.1.09-.2.07-.31.01.06-.06.02-.11.07-.17.07.04.14,0,.22.05ZM35.38,10.56c-.07.06-.11.13-.09.19-.06-.06-.11.01-.16-.02.1-.14-.05-.08,0-.17.09.08.17-.04.26,0ZM29.62,3.61s.02.07.05.11c.02-.02,0-.04.02-.06.08.05.03.1-.02.15-.02-.02-.05-.06-.07-.04.02.03,0,.06-.04.08l-.05-.06c.1-.09.08-.06.11-.17ZM29.88,3.91c.06-.05.12,0,.18,0-.06.1-.18.12-.18,0ZM30.27,3.75c.05-.02.11-.07.16-.02-.05.1-.1.02-.14.04.01.02.03.04.02.06-.03-.03-.03-.06-.04-.09ZM30.69,3.9c-.06-.05-.12.03-.18-.05.05-.06.19-.06.18.05ZM30.65,3.94s.04,0,.05-.02c.05.04.06.09.04.13-.03-.03-.06,0-.09-.02.02-.03-.02-.06,0-.08ZM31.07,3.97c-.1.1-.19.09-.29.04.1-.09.19,0,.29-.04ZM31.12,3.74c-.03.15-.15.13-.23.1.08-.09.16-.16.23-.1ZM31.57,4.02s0,.07.05.11c-.08.08-.16.12-.23.02.09,0,.18-.07.18-.12ZM32.63,3.72c-.04.06.06,0,.07.09-.03.07-.15,0-.13-.06.04.03.02-.05.05-.02ZM40.08,3.43s.1,0,.15.08c-.07.1-.14.11-.21.13l-.06-.06c.1-.05.09-.03.12-.15ZM40.68,3.54c-.08-.1-.18.08-.17-.11.04.05.18,0,.17.11ZM48.02,9.55c-.16.16.18.04,0,.25-.07-.09-.05-.1-.13-.1.01-.06.04-.21.12-.15ZM47.84,9.8s-.05-.06-.07-.04c-.02.05.02.2-.07.17-.02-.05.03-.1-.02-.15.1-.02.08-.2.18-.21.02.08.06.15-.01.23ZM42.45,3.31c.05-.06.11-.03.16-.02,0,.07-.08.05-.12.15-.06-.04,0-.08-.04-.13ZM48.29,9.52c.05.07.02.14.04.21-.05-.04-.09.09-.15,0,.05-.11.06-.1.1-.21ZM42.83,3.37c-.09-.04-.06.1-.14.04-.02-.05.16-.19.14-.04ZM48.34,9.54c.04-.05.07-.05.11,0-.02.05-.03.09-.07.09.02-.03-.01-.06-.04-.08ZM48.13,2.65c-.07-.07-.13.07-.2.02.05-.11.2-.13.2-.02ZM48.41,2.6c-.09,0-.18.05-.27-.02.09-.09.18-.09.27.02ZM48.54,2.5l-.07.09-.06-.06c.04-.09.08-.04.13-.02ZM54.53,5.66c.06.07.02.14-.03.21-.08.06-.21.06-.34.15-.02-.03-.06-.06-.04-.08.09-.11.27-.21.41-.28ZM55.02,5.63s.05.08.04.13c-.12.02-.24.1-.36.09.11-.09.21-.13.32-.22ZM51.83,1.97c-.01.08-.14.18-.21.13.07-.11.14-.1.21-.13ZM55.56,5.41c-.15.12-.29.17-.35.35l-.08-.08c.11-.05.22-.33.43-.26ZM53.08,1.27s.06-.06.09-.06c.1.1-.05.2.08.3-.07.02-.13.12-.2.02.12,0,.15-.14.03-.26ZM56.9,5.42c.06.06,0,.11,0,.17-.04-.03-.08.02-.13-.06.04-.05.08-.03.12-.11ZM56.1,3.72c.05.02.08-.13.1-.17.08.04.02.08.04.13.02-.01.04,0,.06.02-.09.03-.17,0-.12.15-.04,0-.08-.07-.08-.13ZM55.29,1.72c-.04-.06-.08.07-.13-.02.03-.09.15-.06.13.02ZM55.8,1.71c-.09.07-.18.13-.27.07.09-.01.18-.14.27-.07ZM56.16,1.75s-.09.09-.15,0c.05-.05.1-.05.15,0ZM56.11,1.32c.05.07.07.07.07,0,.08.07-.07.16-.11.09.02-.03.03-.06.03-.09ZM59.38,2.01c0,.08-.09.13-.14.13,0-.06.09-.19.14-.13Z"/>
  <path class="cls-2" d="M17,3.28s.05.02.01.07c.21-.19.4-.02.6-.11-.16-.09-.33-.08-.5-.07-.02.03.01.06.03.09-.05,0-.1.05-.14.03Z"/>
  <path class="cls-2" d="M4.21,9.79c.05.06.13-.03.19-.02-.06-.02-.12-.06-.19.02Z"/>
  <path class="cls-2" d="M7.58,9.69s-.04.07-.07.1c.03.03.06-.03.1-.05,0,.03,0,.06.03.09.05-.08-.02-.09-.06-.14Z"/>
  <path class="cls-2" d="M5.16,6.26c-.08.02.11.03.09.14.04-.05.02-.1.03-.15-.07-.07-.06.08-.13,0Z"/>
  <path class="cls-2" d="M6.21,7.68s-.05.08-.01.13c0-.06.05-.07.1-.05.04-.05-.07-.04-.08-.07Z"/>
  <path class="cls-2" d="M6.05,7.15s.03-.07,0-.11c-.05.04-.08.08-.09.12.03.04.08-.05.11.01.02-.03,0-.03-.02-.02Z"/>
  <path class="cls-2" d="M8.41,10.42c.06.1.05-.05.08-.08.06-.04,0,.07.07.09.11-.11.21-.08.3-.01l.05-.12c-.09.06-.26.06-.39-.02-.05.09-.1.07-.11.14Z"/>
  <path class="cls-2" d="M5.93,6.62c.22,0,.36.05.59-.06-.02-.04-.08-.03-.05-.07-.08-.05-.05.03-.13.05.02-.11-.27-.05-.19-.13-.04-.09-.18.11-.22.21Z"/>
  <path class="cls-2" d="M9.33,11.22c.05.09.27.1.39.06-.12-.02-.26-.04-.39-.06Z"/>
  <path class="cls-2" d="M3.96,2.78c0,.08-.06.03-.12.11.11.06.11-.02.16-.04.02-.04-.03-.02-.04-.07Z"/>
  <path class="cls-2" d="M6.39,6.68c.07-.02.13.05.2-.04-.06-.11-.14.03-.2.04Z"/>
  <path class="cls-2" d="M9.18,10.08c-.05.03,0,.07-.03.1.04.04.09,0,.13,0,.04-.06-.09.02-.1-.1Z"/>
  <path class="cls-2" d="M5.62,4.14s0-.04-.01-.07c.04-.05.07,0,.11-.07-.07-.04-.13-.09-.22.01.06.06.09,0,.11.12Z"/>
  <path class="cls-2" d="M7.48,5.61c.1-.05.08.05.17.06.05-.09.04-.1.09-.16-.08.05-.23.02-.26.1Z"/>
  <path class="cls-2" d="M11.24,10.59c-.03-.08.1-.03.08-.12-.04-.07-.09.06-.13-.03.01.09-.09.12-.02.25.05-.04.1-.06.15-.03.04-.05-.07-.04-.09-.07Z"/>
  <path class="cls-2" d="M11.57,10.7c.08.08.18-.08.25.06.06-.08-.05-.06-.01-.11-.08.02-.16,0-.24.04Z"/>
  <path class="cls-2" d="M11.96,10.63s-.01-.07-.05-.11c-.11.05-.21.02-.31-.05,0,.18.19.05.26.21.07-.1.13-.03.18.06.11-.02.11-.07.21-.13-.04-.02-.07-.03-.11-.05-.05.03,0,.07-.03.1-.02.01-.04,0-.06.02-.02-.04.05-.08-.03-.13-.05,0-.07.02-.08.08Z"/>
  <path class="cls-2" d="M7.6,2.06s0,.03.02.02c.02.03.05.06.03.09.03.03.06-.03.09-.05-.04-.04-.09-.03-.14-.06Z"/>
  <path class="cls-2" d="M9.25,2.81c-.03.05.22.19.31.08-.02-.02-.14.04-.1-.05-.07-.06-.15.1-.21-.02Z"/>
  <path class="cls-2" d="M10.12,3.22c.07.05.09.21.21.11,0-.17-.19-.05-.16-.23-.08.03.04.09-.05.12Z"/>
  <path class="cls-2" d="M13.42,6.68c-.04.08.07.04.09.07.04-.03.02-.09.06-.06.02-.01.01-.03,0-.04l-.03-.05s-.1.15-.06.06c-.03-.03-.02.05-.06.02Z"/>
  <path class="cls-2" d="M12.11,3.59c0,.08.15.07.21.1-.03.12.11.22.16.27,0-.12-.04-.24-.06-.37-.03.21-.11-.04-.23-.04,0,.05-.03.07-.07.04Z"/>
  <path class="cls-2" d="M12.67,4.05c.02.09.2.06.28.11.06-.07-.12-.05-.06-.13-.03.02-.14.1-.22.02Z"/>
  <path class="cls-2" d="M12.51,3.69c-.08.05,0,.08.03.05.03.04.03.07.01.11.03.02.06,0,.09.03-.03-.04-.05-.18.06-.06.02-.03-.02-.07-.05-.11-.05.05-.1.04-.14-.01Z"/>
  <path class="cls-2" d="M13.42,3.87s-.06,0-.09-.03c-.07.04,0,.1-.06.14.06,0,.06-.06.15-.12Z"/>
  <path class="cls-2" d="M14.26,3.01c-.01.08-.03.02-.08.08.07.05-.05.1.04.15l.06-.06c-.03-.06-.06-.12.04-.08.04-.06-.05-.01-.07-.09Z"/>
  <path class="cls-2" d="M15.49,4.58s-.01.06.02.02c0,.04,0,.08-.04.12.06.03.14-.12.08-.16-.02.03-.04.03-.05.02Z"/>
  <path class="cls-2" d="M17.46,7.35s.03,0,.02-.02c.06-.07.1.12.16-.01-.06-.11-.12-.03-.18-.05-.02.03.02.06,0,.08Z"/>
  <path class="cls-2" d="M16.17,3c-.07-.09-.14-.09-.21-.06.08.12.16.09.24.19.05-.15.16-.06.26-.11-.02,0-.26-.14-.29-.02Z"/>
  <path class="cls-2" d="M16.39,3.16c.09.02.19-.08.29.02.03-.24.28.07.41-.04,0-.04-.03-.07-.01-.11-.08.01-.16.12-.23-.04-.12.08-.23,0-.34,0-.02.03.03.07.05.11-.06.04-.11-.04-.16.05Z"/>
  <path class="cls-2" d="M16.22,2.66c.01.23.42.23.51.14-.17-.02-.41.06-.51-.14Z"/>
  <path class="cls-2" d="M17.55,2.98c.07.03.14.05.21.06,0-.09-.15-.07-.21-.06Z"/>
  <path class="cls-2" d="M18.51,3.12c.11.09.38.11.55.09-.07-.12-.15,0-.17-.14-.02.15-.14-.03-.22.07-.07-.06.06-.15-.05-.15.03.11-.02.14-.11.12Z"/>
  <path class="cls-2" d="M18.48,2.91c0,.12.15.03.21.05.04-.08-.07-.03-.08-.11-.06.09-.05.11-.13.06Z"/>
  <path class="cls-2" d="M19.09,3.21c.12.07.25.09.37.08-.05-.26-.25-.12-.37-.08Z"/>
  <path class="cls-2" d="M21.02,3.48c.05.02.11,0,.2-.01l-.05-.07c-.05.1-.1,0-.15.08Z"/>
  <path class="cls-2" d="M22.05,3.21l-.11.12c.09.04.1-.13.2-.05.04-.05-.07-.04-.09-.07Z"/>
  <path class="cls-2" d="M23.08,3.34c.03.2.11-.1.19.11,0-.03.01-.06.04-.08-.08-.1-.16-.01-.23-.03Z"/>
  <path class="cls-2" d="M24.79,3.34s0,.06.02.02c.03.05-.01.1-.02.15.06.01.12-.09.18,0,.08-.21.17-.07.27-.1.08-.04-.04-.09.04-.13-.1.06-.2-.04-.31.05-.03-.04-.01-.07-.05-.11,0,.07-.08.11-.13.1Z"/>
  <path class="cls-2" d="M27.72,3.48c.1.1.19-.11.29,0,.02-.04-.03-.07-.05-.11-.08.13-.16-.03-.23.1Z"/>
  <path class="cls-2" d="M29.61,3.38c0,.08.23.09.23.02-.08-.01-.16.03-.23-.02Z"/>
  <path class="cls-2" d="M31.41,3.83c.03-.06.02-.11.04-.17-.05-.03-.1,0-.14.04.04.07.07,0,.11,0,.03.04-.12.04,0,.13Z"/>
  <path class="cls-2" d="M38.35,3.25c0,.11.13.03.18.08.02-.01,0-.03,0-.04l-.04-.04c-.05.06-.1,0-.14,0Z"/>
  <path class="cls-2" d="M45.03,10.62c.1.01.21-.02.31.02.04-.13.18-.07.27-.07.01-.02,0-.04.02-.06-.02-.01-.01-.03,0-.04-.2.09-.4.05-.6.15Z"/>
  <path class="cls-2" d="M48.86,1.87c.09-.06-.03-.11.07-.17-.02-.01-.04,0-.06-.02l-.04.04c.1.05-.07.1.02.15Z"/>
  <path class="cls-2" d="M49.68,1.97c.11.12-.02-.16.09-.11.03-.08-.08-.07-.11,0,.04.03.06.07.02.11Z"/>
</svg>